<?xml version="1.0" encoding="utf-8"?>
<!-- Generator: Adobe Illustrator 24.2.1, SVG Export Plug-In . SVG Version: 6.00 Build 0)  -->
<svg version="1.1" id="_x31_" xmlns="http://www.w3.org/2000/svg" xmlns:xlink="http://www.w3.org/1999/xlink" x="0px" y="0px"
	 viewBox="0 0 512 512" style="enable-background:new 0 0 512 512;" xml:space="preserve">
<g>
	<path d="M74.7,512h256c29.4,0,53.3-23.9,53.3-53.3v-320c0-29.4-23.9-53.3-53.3-53.3h-256c-29.4,0-53.3,23.9-53.3,53.3v320
		C21.3,488.1,45.3,512,74.7,512z M330.7,106.7c17.6,0,32,14.4,32,32v320c0,17.6-14.4,32-32,32h-256c-17.6,0-32-14.4-32-32v-320
		c0-17.6,14.4-32,32-32H330.7z"/>
	<path d="M416,448h21.3c29.4,0,53.3-23.9,53.3-53.3V53.3c0-29.4-23.9-53.3-53.3-53.3h-256C151.9,0,128,23.9,128,53.3
		c0,5.9,4.8,10.7,10.7,10.7s10.7-4.8,10.7-10.7c0-17.6,14.4-32,32-32h256c17.6,0,32,14.4,32,32v341.3c0,17.6-14.4,32-32,32H416
		c-5.9,0-10.7,4.8-10.7,10.7S410.1,448,416,448z"/>
	<path d="M117.3,362.7H288c5.9,0,10.7-4.8,10.7-10.7c0-5.9-4.8-10.7-10.7-10.7H117.3c-5.9,0-10.7,4.8-10.7,10.7
		C106.7,357.9,111.4,362.7,117.3,362.7z"/>
	<path d="M117.3,448H288c5.9,0,10.7-4.8,10.7-10.7s-4.8-10.7-10.7-10.7H117.3c-5.9,0-10.7,4.8-10.7,10.7S111.4,448,117.3,448z"/>
	<path d="M117.3,277.3H288c5.9,0,10.7-4.8,10.7-10.7S293.9,256,288,256H117.3c-5.9,0-10.7,4.8-10.7,10.7S111.4,277.3,117.3,277.3z"
		/>
	<path d="M117.3,192H288c5.9,0,10.7-4.8,10.7-10.7s-4.8-10.7-10.7-10.7H117.3c-5.9,0-10.7,4.8-10.7,10.7S111.4,192,117.3,192z"/>
</g>
</svg>
