<svg id="Слой_1" data-name="Слой 1" xmlns="http://www.w3.org/2000/svg" viewBox="0 0 400 400"><defs><style>.cls-1{fill:#ca9e67;}.cls-2{fill:#895633;}.cls-3{fill:#915c37;}.cls-4{fill:#dfce88;}.cls-5{fill:#494949;}.cls-12,.cls-13,.cls-5,.cls-7{opacity:0.17;}.cls-6{fill:#9e8f4f;}.cls-7{fill:#4c4c4b;}.cls-8{fill:#a0935f;}.cls-9{fill:#936037;}.cls-10{fill:#aa693c;}.cls-11{fill:#b77142;}.cls-12{fill:#545454;}.cls-13,.cls-15,.cls-16{fill:#5b5b5b;}.cls-14{fill:#878787;}.cls-14,.cls-15{opacity:0.14;}.cls-17{fill:#dadada;}.cls-18{fill:#7c5732;}.cls-19{fill:#775431;opacity:0.6;}.cls-20{fill:#7a5735;}.cls-21{fill:#916a40;}.cls-22{fill:#b17f4a;}</style></defs><path class="cls-1" d="M373.67,285,96.75,335.83Q66.82,226.66,36.88,117.49l226.18-1.18Z"/><ellipse class="cls-2" cx="66.72" cy="231.86" rx="2.08" ry="160.25" transform="matrix(0.96, -0.26, 0.26, 0.96, -58.82, 25.82)"/><ellipse class="cls-3" cx="235.11" cy="315.59" rx="199.09" ry="7.2" transform="translate(-53.22 47.75) rotate(-10.42)"/><path class="cls-4" d="M335.07,209.25a281.89,281.89,0,0,0-70-8.39c-43.62.36-49.9,10.95-90.78,7.82-21.53-1.65-33.12-5.6-58.7-3.91a212.17,212.17,0,0,0-39.87,6.51l-34.47-123,223,8.48Z"/><path class="cls-5" d="M72.86,236.27Q56.78,178.43,40.69,120.59L41,90.18q17.24,61.5,34.48,123c-1.78,15.17-2.34,20.75-2.26,21.21a3.55,3.55,0,0,1,.07,1.2,2.6,2.6,0,0,0,0,.37c0,.14,0,.21,0,.26S73.06,236.3,72.86,236.27Z"/><path class="cls-5" d="M72.86,235.78Q56.78,177.94,40.69,120.1L41,89.68q17.24,61.5,34.48,123c-1.78,15.17-2.34,20.75-2.26,21.21a3.5,3.5,0,0,1,.07,1.19,2.78,2.78,0,0,0,0,.37c0,.14,0,.21,0,.27S73.06,235.81,72.86,235.78Z"/><path class="cls-5" d="M72.86,235.35Q56.78,177.51,40.69,119.67L41,89.26q17.24,61.5,34.48,123c-1.78,15.17-2.34,20.75-2.26,21.22a3.49,3.49,0,0,1,.07,1.19,2.78,2.78,0,0,0,0,.37c0,.14,0,.21,0,.26S73.06,235.38,72.86,235.35Z"/><path class="cls-5" d="M72.86,234.9Q56.78,177.06,40.69,119.22L41,88.8q17.24,61.5,34.48,123C73.66,227,73.1,232.55,73.18,233a3.5,3.5,0,0,1,.07,1.19,2.78,2.78,0,0,0,0,.37c0,.14,0,.21,0,.27S73.06,234.92,72.86,234.9Z"/><path class="cls-5" d="M72.86,234.67Q56.78,176.83,40.69,119L41,88.58q17.24,61.49,34.48,123c-1.78,15.17-2.34,20.75-2.26,21.21a3.55,3.55,0,0,1,.07,1.2,2.6,2.6,0,0,0,0,.36c0,.15,0,.21,0,.27S73.06,234.7,72.86,234.67Z"/><path class="cls-6" d="M73.18,234.38Q57.1,176.54,41,118.7l.27-30.41,34.47,123Q74.48,222.83,73.18,234.38Z"/><path class="cls-7" d="M331.16,234.53A258,258,0,0,0,293,227.74,262.79,262.79,0,0,0,227.57,229c-17.71,2.61-22.21,5.24-37.85,5.46a251.25,251.25,0,0,1-31.84-1.77c-7.06-.93-13.37-2.12-24-2.71-.47,0-7.59-.41-14.89-.26-18.35.36-35.72,4-45.85,6.51q1.29-11.55,2.57-23.1c7.15-1.74,27.34-6.38,47.18-6.82,7.85-.18,15.31.26,15.31.26,9,.52,14.65,1.51,20.73,2.32,0,0,14.19,1.9,29.43,2.22,6.52.13,8.59-.59,39.35-4.9,12.24-1.72,18.36-2.58,19.15-2.66,22.47-2.27,40.38-.33,51.62.95a284.65,284.65,0,0,1,36.55,6.6Q333.12,222.81,331.16,234.53Z"/><path class="cls-7" d="M331.16,234.1A259.12,259.12,0,0,0,293,227.32a262.62,262.62,0,0,0-65.41,1.23c-17.71,2.61-22.21,5.24-37.85,5.47a250.15,250.15,0,0,1-31.84-1.78c-7.06-.92-13.37-2.12-24-2.7-.47,0-7.59-.41-14.89-.27-18.35.37-35.72,4-45.85,6.52q1.29-11.55,2.57-23.1c7.15-1.75,27.34-6.38,47.18-6.83,7.85-.18,15.31.26,15.31.26,9,.53,14.65,1.52,20.73,2.33,0,0,14.19,1.9,29.43,2.21,6.52.14,8.59-.58,39.35-4.9,12.24-1.72,18.36-2.57,19.15-2.65,22.47-2.27,40.38-.33,51.62.95a282.92,282.92,0,0,1,36.55,6.6Q333.12,222.38,331.16,234.1Z"/><path class="cls-7" d="M331.16,233.68A256.5,256.5,0,0,0,293,226.9a262.11,262.11,0,0,0-65.41,1.23c-17.71,2.61-22.21,5.24-37.85,5.47a252.32,252.32,0,0,1-31.84-1.78c-7.06-.93-13.37-2.12-24-2.71-.47,0-7.59-.4-14.89-.26-18.35.36-35.72,4-45.85,6.51q1.29-11.55,2.57-23.1c7.15-1.74,27.34-6.37,47.18-6.82,7.85-.18,15.31.26,15.31.26,9,.52,14.65,1.52,20.73,2.33,0,0,14.19,1.89,29.43,2.21,6.52.13,8.59-.58,39.35-4.9,12.24-1.72,18.36-2.58,19.15-2.66,22.47-2.27,40.38-.33,51.62.95a286.41,286.41,0,0,1,36.55,6.6Q333.12,222,331.16,233.68Z"/><path class="cls-7" d="M331.16,233.32A257.8,257.8,0,0,0,293,226.54a262.11,262.11,0,0,0-65.41,1.23c-17.71,2.61-22.21,5.24-37.85,5.47a250.15,250.15,0,0,1-31.84-1.78c-7.06-.92-13.37-2.12-24-2.71-.47,0-7.59-.4-14.89-.26-18.35.36-35.72,4-45.85,6.51q1.29-11.55,2.57-23.1c7.15-1.74,27.34-6.37,47.18-6.82,7.85-.18,15.31.26,15.31.26,9,.52,14.65,1.52,20.73,2.33,0,0,14.19,1.89,29.43,2.21,6.52.13,8.59-.58,39.35-4.9,12.24-1.72,18.36-2.58,19.15-2.66,22.47-2.27,40.38-.33,51.62,1a286.41,286.41,0,0,1,36.55,6.6Q333.12,221.6,331.16,233.32Z"/><path class="cls-7" d="M331.16,233A258,258,0,0,0,293,226.21a262.28,262.28,0,0,0-65.41,1.24c-17.71,2.61-22.21,5.24-37.85,5.46a250.15,250.15,0,0,1-31.84-1.78c-7.06-.92-13.37-2.12-24-2.7-.47,0-7.59-.41-14.89-.27-18.35.37-35.72,4-45.85,6.52q1.29-11.55,2.57-23.1c7.15-1.75,27.34-6.38,47.18-6.83,7.85-.17,15.31.26,15.31.26,9,.53,14.65,1.52,20.73,2.33,0,0,14.19,1.9,29.43,2.21,6.52.14,8.59-.58,39.35-4.9,12.24-1.71,18.36-2.57,19.15-2.65,22.47-2.27,40.38-.33,51.62.95a284.65,284.65,0,0,1,36.55,6.6Q333.12,221.27,331.16,233Z"/><path class="cls-8" d="M331.16,232.7A259.12,259.12,0,0,0,293,225.92a262.62,262.62,0,0,0-65.41,1.23c-17.71,2.61-22.21,5.24-37.85,5.47a250.15,250.15,0,0,1-31.84-1.78c-7.06-.92-13.37-2.12-24-2.7-.47,0-7.59-.41-14.89-.27-18.35.36-35.72,4-45.85,6.51q1.29-11.55,2.57-23.1c7.15-1.74,27.34-6.37,47.18-6.82,7.85-.18,15.31.26,15.31.26,9,.53,14.65,1.52,20.73,2.33,0,0,14.19,1.9,29.43,2.21,6.52.13,8.59-.58,39.35-4.9,12.24-1.72,18.36-2.58,19.15-2.66,22.47-2.27,40.38-.33,51.62,1a286.41,286.41,0,0,1,36.55,6.6Q333.12,221,331.16,232.7Z"/><path class="cls-9" d="M88.76,95.43l50.13,145.29q.27,17.85.56,35.72-23.07-72.3-46.13-144.61Z"/><path class="cls-9" d="M106.15,91.25,155.8,238.66q.12,17.81.26,35.61L108.81,128.19Q107.48,109.73,106.15,91.25Z"/><path class="cls-10" d="M155.8,238.66l-16.74,2q-25.14-72.63-50.3-145.26l17.39-4.18Z"/><path class="cls-11" d="M156.06,274.27l-16.61,2.17-.4-36.09,16.75-1.69Q155.92,256.47,156.06,274.27Z"/><path class="cls-9" d="M209.93,82.14l61,138.21q-.11,18.48-.2,37Q241.39,184.53,212,111.75,211,96.95,209.93,82.14Z"/><path class="cls-9" d="M226.31,85.51q30.48,66.49,61,133l-1.19,35.67q-26.62-71.77-53.24-143.56Q229.59,98.07,226.31,85.51Z"/><path class="cls-10" d="M287.29,218.51l-16.38,1.84q-30.36-68.79-60.7-137.57L223,78.23Z"/><path class="cls-11" d="M286.1,254.18l-15.39,3.13q.1-18.48.2-37l16.38-1.84Z"/><path class="cls-8" d="M114,204.89a40.69,40.69,0,0,1,9.36,0v23H114Z"/><path class="cls-12" d="M102.15,164.57,110,157q7.2,21.81,14.41,43.63c0,.18,0,.44-.08.75a19.55,19.55,0,0,1-.41,2c-.31,1.25-.4,1.42-.58,1.48s-.41-.15-.94-.32a4.29,4.29,0,0,0-1.44-.09c-.83,0-1.2-.5-2.2-1.11a11.06,11.06,0,0,0-2.64-1.17Q109.12,183.38,102.15,164.57Z"/><path class="cls-12" d="M101.78,164.57,109.6,157q7.22,21.81,14.41,43.63c0,.18,0,.44-.08.75a19.55,19.55,0,0,1-.41,2c-.31,1.25-.4,1.42-.58,1.48s-.4-.15-.94-.32a4.22,4.22,0,0,0-1.43-.09c-.83,0-1.2-.5-2.21-1.11a11.06,11.06,0,0,0-2.64-1.17Q108.74,183.38,101.78,164.57Z"/><path class="cls-12" d="M101.46,164.57l7.83-7.56,14.4,43.63c0,.18,0,.44-.08.75a17,17,0,0,1-.41,2c-.3,1.25-.4,1.42-.57,1.48s-.41-.15-.94-.32a4.29,4.29,0,0,0-1.44-.09c-.83,0-1.2-.5-2.21-1.11a11.06,11.06,0,0,0-2.64-1.17Q108.43,183.38,101.46,164.57Z"/><path class="cls-12" d="M101.22,164.56q3.9-3.8,7.82-7.57,7.2,21.82,14.41,43.64c0,.18,0,.43-.08.74a19.55,19.55,0,0,1-.41,2c-.31,1.25-.4,1.42-.58,1.48s-.41-.15-.94-.32a4,4,0,0,0-1.43-.08c-.84-.05-1.21-.5-2.21-1.12a11.06,11.06,0,0,0-2.64-1.17Q108.19,183.37,101.22,164.56Z"/><path class="cls-12" d="M100.87,164.43l7.83-7.56,14.4,43.63c0,.18,0,.44-.08.75a17,17,0,0,1-.41,2c-.3,1.25-.39,1.42-.57,1.48s-.41-.15-.94-.32a4.29,4.29,0,0,0-1.44-.09c-.83,0-1.2-.49-2.2-1.11a11.25,11.25,0,0,0-2.64-1.17Z"/><path class="cls-12" d="M100.51,164.43l7.82-7.56,14.41,43.63c0,.18,0,.44-.08.75a19.55,19.55,0,0,1-.41,2c-.31,1.25-.4,1.42-.58,1.48s-.41-.15-.94-.32a4.23,4.23,0,0,0-1.43-.09c-.84,0-1.21-.49-2.21-1.11a11.06,11.06,0,0,0-2.64-1.17Q107.48,183.24,100.51,164.43Z"/><path class="cls-12" d="M100.16,164.43l7.83-7.56,14.4,43.63c0,.18,0,.44-.07.75a18.08,18.08,0,0,1-.42,2c-.3,1.25-.39,1.42-.57,1.48s-.41-.15-.94-.32a4.29,4.29,0,0,0-1.44-.09c-.83,0-1.2-.49-2.2-1.11a11.25,11.25,0,0,0-2.64-1.17Z"/><path class="cls-12" d="M99.82,164.28l7.83-7.56,14.4,43.63c0,.18,0,.44-.08.75a17,17,0,0,1-.41,2c-.3,1.25-.4,1.42-.57,1.48s-.41-.15-.94-.32a4.29,4.29,0,0,0-1.44-.09c-.83,0-1.2-.49-2.21-1.11a11.06,11.06,0,0,0-2.64-1.17Q106.8,183.09,99.82,164.28Z"/><path class="cls-4" d="M99.71,164.57l6.52-7.89,17.08,48.21c-1.53-.07-3.12-.1-4.78-.1s-3.11,0-4.58.1Q106.83,184.73,99.71,164.57Z"/><path class="cls-8" d="M247.87,201.65a39.25,39.25,0,0,1,9.36,0V224.6h-9.36Z"/><path class="cls-13" d="M226.75,159.88l11.92-5.9q10.91,22.8,21.83,45.6c-.34.26-.86.65-1.51,1.07a7.39,7.39,0,0,1-1.76,1c-1.48.38-3.15-1.66-3.9-2.38-1.55-1.51-4.68-2.73-11.61-1.31Z"/><path class="cls-13" d="M225.92,159.74l11.91-5.89,21.84,45.59c-.34.27-.86.65-1.52,1.08a7.62,7.62,0,0,1-1.75,1c-1.48.39-3.16-1.65-3.9-2.38-1.56-1.5-4.68-2.72-11.61-1.3Z"/><path class="cls-13" d="M225.24,159.56l11.91-5.9L259,199.26c-.34.26-.86.65-1.52,1.07a7.2,7.2,0,0,1-1.76,1c-1.47.38-3.15-1.66-3.9-2.38-1.55-1.51-4.67-2.73-11.61-1.31Q232.72,178.61,225.24,159.56Z"/><path class="cls-13" d="M224.44,159.35l11.91-5.9,21.84,45.6c-.34.26-.86.64-1.52,1.07a7,7,0,0,1-1.76,1c-1.47.39-3.15-1.65-3.9-2.37-1.55-1.51-4.67-2.73-11.61-1.31Q231.93,178.4,224.44,159.35Z"/><path class="cls-13" d="M223.67,159.25l11.91-5.9L257.42,199c-.34.26-.86.65-1.52,1.07a7.4,7.4,0,0,1-1.75,1c-1.48.38-3.16-1.66-3.9-2.38-1.56-1.51-4.68-2.73-11.61-1.31Z"/><path class="cls-13" d="M223,159l11.92-5.9,21.83,45.6c-.34.26-.85.65-1.51,1.07a7.79,7.79,0,0,1-1.76,1c-1.48.38-3.15-1.66-3.9-2.38-1.55-1.51-4.68-2.73-11.61-1.31Z"/><path class="cls-4" d="M223.36,159.88l11.91-5.9,22,47.67c-1.55-.07-3.14-.11-4.78-.1a101.08,101.08,0,0,0-13.83,1Z"/><path class="cls-14" d="M312.51,174.09c-14.35-2.36-37.24-5.42-60.32-5-10.86.2-19.47.88-19.47.88-18,1.46-26.24,4.15-51.62,3.82-31.23-.4-38.41-4.83-68.87-3.78a299.23,299.23,0,0,0-45,5L43.37,89.84c152.53,37.31,261.33,71,263.53,74.6,1.64,2.65,3.2,5.35,3.2,5.35C311,171.36,311.81,172.81,312.51,174.09Z"/><path class="cls-15" d="M313.12,182.08a363.68,363.68,0,0,0-64.72-5.48c-33.83.19-37.64,5-70.33,4.29-30.8-.68-38-5.32-67.78-4.48a273.88,273.88,0,0,0-43.78,4.74L43.37,95.66c182.8,51.71,262.62,75.59,264.24,78.22,0,0,1.14,1.88,2.78,4.32C311.43,179.74,312.37,181.05,313.12,182.08Z"/><path class="cls-15" d="M313.16,181.26a363.55,363.55,0,0,0-64.71-5.48c-33.82.2-37.63,5-70.31,4.3-30.79-.68-38-5.31-67.77-4.48a275,275,0,0,0-43.77,4.74Q54.81,136.81,43.47,94.9C226.23,146.57,306,170.44,307.64,173.06c0,.05,1.14,1.88,2.79,4.32C311.46,178.92,312.4,180.23,313.16,181.26Z"/><path class="cls-15" d="M313.11,180.64a363.7,363.7,0,0,0-64.7-5.47c-33.82.2-37.62,5-70.29,4.3-30.79-.67-38-5.31-67.76-4.48a274.53,274.53,0,0,0-43.76,4.75Q54.81,136.22,43.47,94.33C226.2,146,306,169.82,307.59,172.45c0,0,1.14,1.88,2.78,4.31C311.41,178.3,312.35,179.61,313.11,180.64Z"/><path class="cls-15" d="M313.05,180a363.44,363.44,0,0,0-64.68-5.47c-33.81.2-37.62,5-70.28,4.3-30.79-.67-38-5.3-67.75-4.47a274.66,274.66,0,0,0-43.75,4.75q-11.78-43.5-23.12-85.38c182.69,51.62,262.45,75.45,264.07,78.08,0,0,1.14,1.88,2.78,4.31C311.36,177.62,312.29,178.93,313.05,180Z"/><path class="cls-15" d="M313,179.48A362.54,362.54,0,0,0,248.34,174c-33.81.2-37.61,5-70.27,4.3-30.78-.67-38-5.3-67.74-4.47a274.37,274.37,0,0,0-43.74,4.75Q54.8,135.12,43.47,93.24c182.66,51.6,262.42,75.43,264,78.05,0,0,1.14,1.88,2.78,4.31C311.32,177.14,312.25,178.45,313,179.48Z"/><path class="cls-15" d="M313,178.86a363.53,363.53,0,0,0-64.66-5.45c-33.8.2-37.6,5-70.26,4.3-30.77-.67-38-5.3-67.72-4.46A275.62,275.62,0,0,0,66.59,178Q54.8,134.52,43.47,92.67c182.63,51.57,262.37,75.39,264,78,0,0,1.14,1.88,2.78,4.31C311.27,176.52,312.2,177.83,313,178.86Z"/><path class="cls-15" d="M312.92,178.32a363.32,363.32,0,0,0-64.65-5.46c-33.8.21-37.6,5-70.25,4.31-30.77-.67-38-5.3-67.71-4.46a274.36,274.36,0,0,0-43.73,4.75L43.47,92.16c182.6,51.55,262.32,75.35,263.93,78,0,.05,1.14,1.88,2.78,4.31C311.22,176,312.16,177.28,312.92,178.32Z"/><path class="cls-15" d="M312.86,177.7a364.19,364.19,0,0,0-64.63-5.45c-33.79.21-37.59,5-70.23,4.31-30.77-.67-37.95-5.29-67.7-4.45a275.47,275.47,0,0,0-43.72,4.74Q54.8,133.41,43.47,91.59C226,143.11,305.74,166.9,307.35,169.52c0,0,1.14,1.88,2.78,4.31C311.17,175.36,312.11,176.67,312.86,177.7Z"/><path class="cls-15" d="M312.84,177.36a363.42,363.42,0,0,0-64.63-5.44c-33.79.2-37.59,5-70.23,4.3-30.76-.66-37.94-5.29-67.69-4.45a274.2,274.2,0,0,0-43.72,4.75q-11.76-43.44-23.1-85.24c182.54,51.5,262.25,75.28,263.86,77.9,0,0,1.13,1.88,2.78,4.31C311.14,175,312.08,176.33,312.84,177.36Z"/><path class="cls-15" d="M312.8,176.88a363.38,363.38,0,0,0-64.62-5.44c-33.78.21-37.59,5-70.22,4.31-30.75-.67-37.94-5.29-67.68-4.45a274.05,274.05,0,0,0-43.71,4.75Q54.8,132.63,43.47,90.83C226,142.31,305.68,166.09,307.29,168.71c0,0,1.14,1.88,2.78,4.3C311.1,174.55,312,175.85,312.8,176.88Z"/><path class="cls-15" d="M312.76,176.4A363.43,363.43,0,0,0,248.15,171c-33.78.21-37.58,5-70.21,4.31-30.75-.67-37.93-5.29-67.67-4.45a273.9,273.9,0,0,0-43.7,4.75Q54.8,132.17,43.47,90.39C226,141.85,305.64,165.61,307.25,168.23c0,.05,1.14,1.88,2.78,4.3C311.06,174.07,312,175.37,312.76,176.4Z"/><path class="cls-15" d="M312.56,175.31A363,363,0,0,0,248,169.88c-33.77.21-37.57,5-70.18,4.31-30.74-.66-37.92-5.27-67.65-4.43a273.75,273.75,0,0,0-43.69,4.75Q54.7,131.13,43.37,89.37c182.43,51.42,262.08,75.16,263.69,77.77,0,.05,1.13,1.88,2.77,4.3C310.87,173,311.81,174.28,312.56,175.31Z"/><path class="cls-15" d="M312.53,174.9A363.22,363.22,0,0,0,248,169.48c-33.76.21-37.56,5-70.17,4.31-30.74-.66-37.92-5.28-67.64-4.43a275.14,275.14,0,0,0-43.68,4.74Q54.7,130.75,43.37,89c182.41,51.4,262,75.13,263.65,77.75,0,0,1.14,1.87,2.78,4.3C310.84,172.57,311.77,173.87,312.53,174.9Z"/><path class="cls-16" d="M311.53,172a377.29,377.29,0,0,0-61.43-4.31c-34.28.4-38.32,5.12-71.09,4.7-31.23-.4-38.41-4.83-68.87-3.78a299.07,299.07,0,0,0-45,5L41.28,88.47Z"/><path class="cls-16" d="M276.45,166.91c5.93-1.73,18.16-4.28,30.13,1.38a34.56,34.56,0,0,1,5,2.91l-.08.81-35.08-3.69Z"/><path class="cls-17" d="M311.61,171.2a344.38,344.38,0,0,0-60.21-5.13c-33.62.1-36.67,5-69.91,4.89-33.42-.15-41.38-5.16-73.56-3.52a289.26,289.26,0,0,0-42.7,5.39L41.35,87.66,239,56.07Q275.28,113.64,311.61,171.2Z"/><path class="cls-1" d="M304.23,151.28l-248.36-18Q46.3,98.6,36.74,63.94l203.53-15.7Z"/><path class="cls-18" d="M55.87,133.26c-.08,2.11-.15,4.23-.23,6.35Q46.09,105,36.54,70.5c.07-2.19.13-4.37.2-6.56Q46.3,98.6,55.87,133.26Z"/><path class="cls-19" d="M303.27,159,55.66,140.31c.08-2.12.16-4.23.23-6.35l248.37,18Z"/><path class="cls-19" d="M303.34,159.24,55.73,140.57c.08-2.12.15-4.23.23-6.35l248.36,18C304,154.58,303.67,156.91,303.34,159.24Z"/><path class="cls-20" d="M303.27,158.61,55.66,139.93c.08-2.11.16-4.23.23-6.34l248.37,18Z"/><path class="cls-21" d="M303.25,158.46,55.64,139.79c.08-2.12.15-4.23.23-6.35l248.36,18C303.9,153.79,303.58,156.13,303.25,158.46Z"/><path class="cls-22" d="M303.25,158.28,55.64,139.61c.08-2.12.15-4.24.23-6.35l248.36,18C303.9,153.61,303.58,155.94,303.25,158.28Z"/></svg>