<svg id="Слой_1" data-name="Слой 1" xmlns="http://www.w3.org/2000/svg" xmlns:xlink="http://www.w3.org/1999/xlink" viewBox="0 0 200 150"><defs><style>.cls-1,.cls-10,.cls-13,.cls-14,.cls-15,.cls-16,.cls-19,.cls-20,.cls-22,.cls-23,.cls-25,.cls-26,.cls-27,.cls-28,.cls-30,.cls-31,.cls-33,.cls-37,.cls-38,.cls-39,.cls-40,.cls-8,.cls-9{fill:none;}.cls-2{clip-path:url(#clip-path);}.cls-3{clip-path:url(#clip-path-2);}.cls-4{fill:#fff;}.cls-5{opacity:0.78;}.cls-12,.cls-6{fill:#f7f7f7;}.cls-10,.cls-12,.cls-15,.cls-6{stroke:#afafaf;}.cls-10,.cls-12,.cls-13,.cls-14,.cls-15,.cls-16,.cls-19,.cls-20,.cls-22,.cls-23,.cls-25,.cls-26,.cls-27,.cls-28,.cls-30,.cls-31,.cls-33,.cls-37,.cls-40,.cls-6,.cls-8,.cls-9{stroke-linecap:round;}.cls-10,.cls-12,.cls-13,.cls-14,.cls-15,.cls-19,.cls-20,.cls-21,.cls-22,.cls-23,.cls-24,.cls-25,.cls-26,.cls-27,.cls-28,.cls-29,.cls-30,.cls-31,.cls-32,.cls-33,.cls-39,.cls-40,.cls-6,.cls-8,.cls-9{stroke-linejoin:round;}.cls-10,.cls-6,.cls-8,.cls-9{stroke-width:1.73px;}.cls-7{opacity:0.64;}.cls-13,.cls-8{stroke:#fff;}.cls-14,.cls-9{stroke:#dddddb;}.cls-11{clip-path:url(#clip-path-3);}.cls-12{stroke-width:1.32px;}.cls-13,.cls-14,.cls-15{stroke-width:1.85px;}.cls-16{stroke:#c6c6c6;}.cls-16,.cls-35,.cls-37,.cls-38{stroke-miterlimit:10;}.cls-16,.cls-30,.cls-31{stroke-width:1.12px;}.cls-17{fill:#b2b2b2;}.cls-18{fill:#575756;}.cls-19,.cls-27,.cls-39{stroke:#575756;}.cls-19{stroke-width:0.59px;}.cls-20,.cls-23,.cls-28,.cls-31{stroke:#3c3c3b;}.cls-20{stroke-width:0.65px;}.cls-21,.cls-24,.cls-29,.cls-32,.cls-34{fill:#238726;}.cls-21,.cls-24,.cls-29,.cls-32{stroke:#238726;}.cls-21{stroke-width:0.52px;}.cls-22,.cls-30{stroke:#432918;}.cls-22,.cls-23{stroke-width:1.29px;}.cls-24,.cls-27{stroke-width:0.51px;}.cls-25,.cls-26,.cls-33{stroke:#ededed;opacity:0.44;isolation:isolate;}.cls-25{stroke-width:0.48px;}.cls-26{stroke-width:0.42px;}.cls-28{stroke-width:0.56px;}.cls-29{stroke-width:0.46px;}.cls-32,.cls-33{stroke-width:0.45px;}.cls-35{fill:#f47c26;}.cls-35,.cls-37,.cls-38{stroke:#f4b082;}.cls-35,.cls-38{stroke-width:0.5px;}.cls-36{clip-path:url(#clip-path-4);}.cls-39{stroke-width:0.67px;}.cls-40{stroke:#2e6fd8;stroke-width:3px;}.cls-41{fill:#2e6fd8;}</style><clipPath id="clip-path"><path class="cls-1" d="M63.74,142,10.81,112.4V73.52c0-.69,4.67-9.66,17.35-32.81,1.87-3.64,2.85-4.5,3.37-4.55l1.24-.11.88-.07,30.28-2.54Z"/></clipPath><clipPath id="clip-path-2"><polygon class="cls-1" points="10.65 17.84 63.92 33.45 63.73 142.04 10.8 112.41 10.65 17.84"/></clipPath><clipPath id="clip-path-3"><polygon class="cls-1" points="176.94 111.11 63.73 142.04 63.95 106.03 177.06 80.98 176.94 111.11"/></clipPath><clipPath id="clip-path-4"><polygon class="cls-1" points="183.29 80.27 61.64 107.62 28.7 34.42 148.53 24.71 183.29 80.27"/></clipPath></defs><g id="Слой_1-2" data-name="Слой 1-2"><g id="двухскатная"><g id="односкатная"><g id="стены"><g class="cls-2"><g id="стена_больш" data-name="стена больш"><g class="cls-3"><rect class="cls-4" x="5.45" y="33.44" width="58.39" height="112.17"/></g><g class="cls-5"><polygon class="cls-6" points="11.04 17.95 63.93 33.44 63.74 141.46 11.19 112.11 11.04 17.95"/><g class="cls-7"><line class="cls-8" x1="11.98" y1="20.74" x2="63.04" y2="36.05"/><line class="cls-9" x1="11.98" y1="21.14" x2="63.04" y2="36.52"/><line class="cls-10" x1="11.98" y1="21.63" x2="63.04" y2="37.07"/><line class="cls-8" x1="11.99" y1="23.62" x2="63.03" y2="39.35"/><line class="cls-9" x1="11.99" y1="24.03" x2="63.03" y2="39.81"/><line class="cls-10" x1="11.99" y1="24.51" x2="63.03" y2="40.37"/><line class="cls-8" x1="11.99" y1="26.51" x2="63.03" y2="42.65"/><line class="cls-9" x1="11.99" y1="26.91" x2="63.03" y2="43.11"/><line class="cls-10" x1="11.99" y1="27.4" x2="63.03" y2="43.66"/><line class="cls-8" x1="12" y1="29.39" x2="63.02" y2="45.94"/><line class="cls-9" x1="12" y1="29.8" x2="63.02" y2="46.4"/><line class="cls-10" x1="12" y1="30.28" x2="63.02" y2="46.96"/><line class="cls-8" x1="12" y1="32.28" x2="63.02" y2="49.24"/><line class="cls-9" x1="12" y1="32.68" x2="63.02" y2="49.7"/><line class="cls-10" x1="12" y1="33.16" x2="63.02" y2="50.25"/><line class="cls-8" x1="12" y1="35.16" x2="63.01" y2="52.53"/><line class="cls-9" x1="12.01" y1="35.56" x2="63.01" y2="52.99"/><line class="cls-10" x1="12.01" y1="36.05" x2="63.01" y2="53.54"/><line class="cls-8" x1="12.01" y1="38.04" x2="63.01" y2="55.83"/><line class="cls-9" x1="12.01" y1="38.44" x2="63.01" y2="56.28"/><line class="cls-10" x1="12.01" y1="38.93" x2="63" y2="56.84"/><line class="cls-8" x1="12.01" y1="40.92" x2="63" y2="59.12"/><line class="cls-9" x1="12.01" y1="41.32" x2="63" y2="59.57"/><line class="cls-10" x1="12.01" y1="41.81" x2="63" y2="60.13"/><line class="cls-8" x1="12.02" y1="43.8" x2="63" y2="62.4"/><line class="cls-9" x1="12.02" y1="44.2" x2="62.99" y2="62.86"/><line class="cls-10" x1="12.02" y1="44.69" x2="62.99" y2="63.42"/><line class="cls-8" x1="12.02" y1="46.68" x2="62.99" y2="65.69"/><line class="cls-9" x1="12.02" y1="47.08" x2="62.99" y2="66.15"/><line class="cls-10" x1="12.02" y1="47.57" x2="62.99" y2="66.7"/><line class="cls-8" x1="12.03" y1="49.56" x2="62.98" y2="68.98"/><line class="cls-9" x1="12.03" y1="49.96" x2="62.98" y2="69.44"/><line class="cls-10" x1="12.03" y1="50.44" x2="62.98" y2="69.99"/><line class="cls-8" x1="12.03" y1="52.43" x2="62.98" y2="72.26"/><line class="cls-9" x1="12.03" y1="52.83" x2="62.98" y2="72.72"/><line class="cls-10" x1="12.03" y1="53.32" x2="62.98" y2="73.27"/><line class="cls-8" x1="12.03" y1="55.31" x2="62.97" y2="75.54"/><line class="cls-9" x1="12.04" y1="55.71" x2="62.97" y2="76"/><line class="cls-10" x1="12.04" y1="56.19" x2="62.97" y2="76.56"/><line class="cls-8" x1="12.04" y1="58.18" x2="62.97" y2="78.83"/><line class="cls-9" x1="12.04" y1="58.58" x2="62.97" y2="79.28"/><line class="cls-10" x1="12.04" y1="59.07" x2="62.97" y2="79.84"/><line class="cls-8" x1="12.04" y1="61.05" x2="62.96" y2="82.11"/><line class="cls-9" x1="12.04" y1="61.46" x2="62.96" y2="82.57"/><line class="cls-10" x1="12.04" y1="61.94" x2="62.96" y2="83.12"/><line class="cls-8" x1="12.05" y1="63.93" x2="62.96" y2="85.39"/><line class="cls-9" x1="12.05" y1="64.33" x2="62.96" y2="85.84"/><line class="cls-10" x1="12.05" y1="64.81" x2="62.95" y2="86.4"/><line class="cls-8" x1="12.05" y1="66.8" x2="62.95" y2="88.67"/><line class="cls-9" x1="12.05" y1="67.2" x2="62.95" y2="89.12"/><line class="cls-10" x1="12.05" y1="67.68" x2="62.95" y2="89.67"/><line class="cls-8" x1="12.06" y1="69.67" x2="62.94" y2="91.94"/><line class="cls-9" x1="12.06" y1="70.07" x2="62.94" y2="92.4"/><line class="cls-10" x1="12.06" y1="70.55" x2="62.94" y2="92.95"/><line class="cls-8" x1="12.06" y1="72.54" x2="62.94" y2="95.22"/><line class="cls-9" x1="12.06" y1="72.94" x2="62.94" y2="95.68"/><line class="cls-10" x1="12.06" y1="73.42" x2="62.94" y2="96.23"/><line class="cls-8" x1="12.07" y1="75.41" x2="62.93" y2="98.49"/><line class="cls-9" x1="12.07" y1="75.81" x2="62.93" y2="98.95"/><line class="cls-10" x1="12.07" y1="76.29" x2="62.93" y2="99.5"/><line class="cls-8" x1="12.07" y1="78.27" x2="62.93" y2="101.76"/><line class="cls-9" x1="12.07" y1="78.67" x2="62.93" y2="102.22"/><line class="cls-10" x1="12.07" y1="79.16" x2="62.93" y2="102.77"/><line class="cls-8" x1="12.07" y1="81.14" x2="62.92" y2="105.03"/><line class="cls-9" x1="12.07" y1="81.54" x2="62.92" y2="105.49"/><line class="cls-10" x1="12.08" y1="82.02" x2="62.92" y2="106.04"/><line class="cls-8" x1="12.08" y1="84" x2="62.92" y2="108.3"/><line class="cls-9" x1="12.08" y1="84.4" x2="62.92" y2="108.76"/><line class="cls-10" x1="12.08" y1="84.89" x2="62.92" y2="109.31"/><line class="cls-8" x1="12.08" y1="86.87" x2="62.91" y2="111.57"/><line class="cls-9" x1="12.08" y1="87.27" x2="62.91" y2="112.03"/><line class="cls-10" x1="12.08" y1="87.75" x2="62.91" y2="112.58"/><line class="cls-8" x1="12.09" y1="89.73" x2="62.91" y2="114.84"/><line class="cls-9" x1="12.09" y1="90.13" x2="62.91" y2="115.3"/><line class="cls-10" x1="12.09" y1="90.61" x2="62.9" y2="115.85"/><line class="cls-8" x1="12.09" y1="92.59" x2="62.9" y2="118.11"/><line class="cls-9" x1="12.09" y1="92.99" x2="62.9" y2="118.56"/><line class="cls-10" x1="12.09" y1="93.47" x2="62.9" y2="119.11"/><line class="cls-8" x1="12.1" y1="95.45" x2="62.9" y2="121.37"/><line class="cls-9" x1="12.1" y1="95.85" x2="62.89" y2="121.83"/><line class="cls-10" x1="12.1" y1="96.33" x2="62.89" y2="122.38"/><line class="cls-8" x1="12.1" y1="98.31" x2="62.89" y2="124.64"/><line class="cls-9" x1="12.1" y1="98.71" x2="62.89" y2="125.09"/><line class="cls-10" x1="12.1" y1="99.19" x2="62.89" y2="125.64"/><line class="cls-8" x1="12.1" y1="101.17" x2="62.88" y2="127.9"/><line class="cls-9" x1="12.1" y1="101.57" x2="62.88" y2="128.35"/><line class="cls-10" x1="12.11" y1="102.05" x2="62.88" y2="128.9"/><line class="cls-8" x1="12.11" y1="104.03" x2="62.88" y2="131.16"/><line class="cls-9" x1="12.11" y1="104.43" x2="62.88" y2="131.61"/><line class="cls-10" x1="12.11" y1="104.91" x2="62.88" y2="132.16"/><line class="cls-8" x1="12.11" y1="106.88" x2="62.87" y2="134.42"/><line class="cls-9" x1="12.11" y1="107.28" x2="62.87" y2="134.87"/><line class="cls-10" x1="12.11" y1="107.77" x2="62.87" y2="135.42"/><line class="cls-8" x1="12.12" y1="109.74" x2="62.87" y2="137.67"/><line class="cls-9" x1="12.12" y1="110.14" x2="62.87" y2="138.13"/><line class="cls-10" x1="12.12" y1="110.62" x2="62.87" y2="138.68"/></g></g></g></g><g id="стена_мал" data-name="стена мал"><g class="cls-11"><path class="cls-4" d="M63.74,142l113.2-30.94q-.08-16.45-.13-32.93L64,106Z"/><g class="cls-5"><polygon class="cls-12" points="59.8 144.16 180.88 111.08 181 78.86 60.03 105.66 59.8 144.16"/><g class="cls-7"><line class="cls-13" x1="63.53" y1="106.11" x2="179.12" y2="80.32"/><line class="cls-14" x1="63.53" y1="106.43" x2="179.12" y2="80.6"/><line class="cls-15" x1="63.53" y1="106.82" x2="179.12" y2="80.91"/><line class="cls-13" x1="63.52" y1="108.42" x2="179.11" y2="82.27"/><line class="cls-14" x1="63.51" y1="108.76" x2="179.11" y2="82.54"/><line class="cls-15" x1="63.51" y1="109.14" x2="179.11" y2="82.88"/><line class="cls-13" x1="63.5" y1="110.74" x2="179.11" y2="84.22"/><line class="cls-14" x1="63.5" y1="111.07" x2="179.09" y2="84.49"/><line class="cls-15" x1="63.5" y1="111.45" x2="179.09" y2="84.82"/><line class="cls-13" x1="63.49" y1="113.07" x2="179.09" y2="86.18"/><line class="cls-14" x1="63.49" y1="113.39" x2="179.09" y2="86.46"/><line class="cls-15" x1="63.48" y1="113.77" x2="179.08" y2="86.79"/><line class="cls-13" x1="63.47" y1="115.39" x2="179.08" y2="88.13"/><line class="cls-14" x1="63.47" y1="115.7" x2="179.08" y2="88.4"/><line class="cls-15" x1="63.47" y1="116.1" x2="179.08" y2="88.74"/><line class="cls-13" x1="63.46" y1="117.7" x2="179.08" y2="90.08"/><line class="cls-14" x1="63.46" y1="118.02" x2="179.08" y2="90.36"/><line class="cls-15" x1="63.46" y1="118.42" x2="179.08" y2="90.7"/><line class="cls-13" x1="63.45" y1="120.01" x2="179.07" y2="92.04"/><line class="cls-14" x1="63.44" y1="120.35" x2="179.07" y2="92.32"/><line class="cls-15" x1="63.44" y1="120.73" x2="179.07" y2="92.64"/><line class="cls-13" x1="63.43" y1="122.33" x2="179.06" y2="93.99"/><line class="cls-14" x1="63.43" y1="122.67" x2="179.06" y2="94.27"/><line class="cls-15" x1="63.43" y1="123.05" x2="179.06" y2="94.6"/><line class="cls-13" x1="63.42" y1="124.65" x2="179.05" y2="95.95"/><line class="cls-14" x1="63.42" y1="124.98" x2="179.05" y2="96.23"/><line class="cls-15" x1="63.4" y1="125.38" x2="179.05" y2="96.55"/><line class="cls-13" x1="63.4" y1="126.98" x2="179.05" y2="97.9"/><line class="cls-14" x1="63.4" y1="127.29" x2="179.03" y2="98.18"/><line class="cls-15" x1="63.4" y1="127.7" x2="179.03" y2="98.51"/><line class="cls-13" x1="63.39" y1="129.29" x2="179.03" y2="99.86"/><line class="cls-14" x1="63.39" y1="129.61" x2="179.03" y2="100.14"/><line class="cls-15" x1="63.39" y1="130.01" x2="179.03" y2="100.46"/><line class="cls-13" x1="63.37" y1="131.61" x2="179.02" y2="101.82"/><line class="cls-14" x1="63.37" y1="131.93" x2="179.02" y2="102.1"/><line class="cls-15" x1="63.37" y1="132.32" x2="179.02" y2="102.42"/><line class="cls-13" x1="63.36" y1="133.93" x2="179.01" y2="103.77"/><line class="cls-14" x1="63.36" y1="134.26" x2="179.01" y2="104.04"/><line class="cls-15" x1="63.36" y1="134.64" x2="179.01" y2="104.38"/><line class="cls-13" x1="63.34" y1="136.26" x2="179.01" y2="105.73"/><line class="cls-14" x1="63.34" y1="136.57" x2="179.01" y2="106.01"/><line class="cls-15" x1="63.34" y1="136.96" x2="179.01" y2="106.33"/><line class="cls-13" x1="63.33" y1="138.57" x2="179" y2="107.68"/><line class="cls-14" x1="63.33" y1="138.89" x2="179" y2="107.95"/><line class="cls-15" x1="63.33" y1="139.29" x2="179" y2="108.29"/><line class="cls-13" x1="63.31" y1="140.89" x2="179" y2="109.64"/><line class="cls-14" x1="63.31" y1="141.21" x2="178.99" y2="109.92"/><line class="cls-15" x1="63.31" y1="141.61" x2="178.99" y2="110.24"/></g></g></g></g><line class="cls-16" x1="63.96" y1="106.04" x2="63.96" y2="141.32"/><line class="cls-16" x1="10.65" y1="71.02" x2="10.81" y2="112.43"/><line class="cls-16" x1="177.07" y1="80.99" x2="176.93" y2="111.11"/><line class="cls-16" x1="63.74" y1="141.98" x2="10.81" y2="112.43"/><line class="cls-16" x1="176.94" y1="111.11" x2="63.74" y2="141.98"/></g></g><g id="окно2"><path class="cls-17" d="M135.86,113a.28.28,0,0,1-.18-.06.27.27,0,0,1-.12-.23l-.33-16.87a.3.3,0,0,1,.23-.3l12.14-2.82h.06a.4.4,0,0,1,.18.07A.31.31,0,0,1,148,93l.31,16.42a.31.31,0,0,1-.23.29L135.91,113Z"/><path class="cls-18" d="M147.67,93q.14,8.31.31,16.43l-12.14,3.26q-.17-8.35-.34-16.87L147.64,93m0-.58h-.15l-12.14,2.82a.55.55,0,0,0-.45.58l.2,10.51.13,6.39a.58.58,0,0,0,.59.57H136l6.75-1.83,5.36-1.45a.58.58,0,0,0,.43-.57l-.15-8.33-.14-8.1a.6.6,0,0,0-.58-.57h0Z"/><line class="cls-19" x1="141.76" y1="94.07" x2="142" y2="110.88"/><path class="cls-19" d="M147.76,99.28l-12.13,3.3"/><path class="cls-20" d="M148,92.55l-12.87,3.19"/><path class="cls-21" d="M148.34,109.5l3.58-.48c-.13-5.78-.24-11.61-.36-17.49l-3.5.73Z"/><line class="cls-22" x1="147.9" y1="109.86" x2="135.75" y2="113.14"/><line class="cls-23" x1="148.4" y1="110.1" x2="135.81" y2="113.46"/><path class="cls-24" d="M131.42,113.84l4-.65-.23-17.81-4,.76C131.26,102.11,131.33,108,131.42,113.84Z"/><line class="cls-25" x1="131.56" y1="97.67" x2="134.97" y2="97.02"/><line class="cls-25" x1="131.56" y1="99.29" x2="134.97" y2="98.65"/><line class="cls-25" x1="131.56" y1="100.9" x2="134.98" y2="100.27"/><line class="cls-25" x1="131.58" y1="102.51" x2="134.98" y2="101.89"/><line class="cls-25" x1="131.59" y1="104.11" x2="134.99" y2="103.51"/><line class="cls-25" x1="131.59" y1="105.73" x2="134.99" y2="105.13"/><line class="cls-25" x1="131.61" y1="107.32" x2="135" y2="106.73"/><line class="cls-25" x1="131.62" y1="108.92" x2="135" y2="108.32"/><line class="cls-25" x1="131.62" y1="110.51" x2="135.01" y2="109.92"/><line class="cls-25" x1="131.64" y1="112.08" x2="135.01" y2="111.52"/><line class="cls-26" x1="148.31" y1="93.26" x2="151.15" y2="92.7"/><line class="cls-26" x1="148.37" y1="94.92" x2="151.21" y2="94.36"/><line class="cls-26" x1="148.42" y1="96.57" x2="151.25" y2="96.04"/><line class="cls-26" x1="148.45" y1="98.23" x2="151.28" y2="97.7"/><line class="cls-26" x1="148.5" y1="99.86" x2="151.33" y2="99.35"/><line class="cls-26" x1="148.55" y1="101.51" x2="151.37" y2="100.99"/><line class="cls-26" x1="148.59" y1="103.14" x2="151.4" y2="102.64"/><line class="cls-26" x1="148.64" y1="104.79" x2="151.46" y2="104.29"/><line class="cls-26" x1="148.69" y1="106.42" x2="151.5" y2="105.92"/><line class="cls-26" x1="148.73" y1="108.04" x2="151.55" y2="107.57"/></g><g id="окно1"><path class="cls-17" d="M38.56,116a.13.13,0,0,1-.12,0l-9.66-5.24a.25.25,0,0,1-.13-.22L28.41,94.9a.25.25,0,0,1,.12-.22.33.33,0,0,1,.14,0h.11l10.06,4.8a.29.29,0,0,1,.14.24l-.17,16.08a.25.25,0,0,1-.12.22Z"/><path class="cls-18" d="M28.67,94.82l10.06,4.81-.17,16.08-9.66-5.24-.23-15.64m0-.51a.49.49,0,0,0-.51.47h0l.11,7.76.12,7.87a.51.51,0,0,0,.26.45l2.73,1.49,6.94,3.75a.4.4,0,0,0,.24,0,.37.37,0,0,0,.25-.07.48.48,0,0,0,.26-.43l.08-8,.08-8a.49.49,0,0,0-.29-.47l-5-2.4-5-2.39A.62.62,0,0,0,28.67,94.32Z"/><path class="cls-27" d="M33.68,97.15q0,8,.09,16"/><line class="cls-27" x1="28.78" y1="100.86" x2="38.62" y2="106.26"/><path class="cls-28" d="M28.68,94.59l10.49,5"/><path class="cls-29" d="M28.65,110.79l-2.92-1.48q0-8.22-.07-16.47l2.68,1.27Q28.49,102.45,28.65,110.79Z"/><path class="cls-30" d="M28.9,111l9.75,5.21"/><path class="cls-31" d="M28.7,111.17l9.94,5.28"/><path class="cls-32" d="M41.9,117.87l-3-1.5.17-17.24,3.2,1.55Z"/><line class="cls-33" x1="25.89" y1="94.85" x2="28.15" y2="95.89"/><line class="cls-33" x1="25.89" y1="96.45" x2="28.15" y2="97.49"/><line class="cls-33" x1="25.89" y1="98.04" x2="28.15" y2="99.08"/><line class="cls-33" x1="25.89" y1="99.38" x2="28.15" y2="100.42"/><line class="cls-33" x1="25.89" y1="100.7" x2="28.15" y2="101.74"/><line class="cls-33" x1="25.89" y1="102.04" x2="28.15" y2="103.07"/><line class="cls-33" x1="25.89" y1="103.39" x2="28.15" y2="104.43"/><line class="cls-33" x1="25.89" y1="104.68" x2="28.15" y2="105.73"/><line class="cls-33" x1="25.89" y1="106.17" x2="28.15" y2="107.21"/><line class="cls-33" x1="25.89" y1="107.58" x2="28.15" y2="108.64"/><line class="cls-25" x1="39.4" y1="101.11" x2="41.71" y2="102.04"/><line class="cls-25" x1="39.4" y1="102.89" x2="41.72" y2="103.83"/><line class="cls-25" x1="39.4" y1="104.65" x2="41.72" y2="105.58"/><line class="cls-25" x1="39.42" y1="106.13" x2="41.73" y2="107.07"/><line class="cls-25" x1="39.42" y1="107.61" x2="41.73" y2="108.54"/><line class="cls-25" x1="39.43" y1="109.07" x2="41.74" y2="110.01"/><line class="cls-25" x1="39.43" y1="110.57" x2="41.74" y2="111.51"/><line class="cls-25" x1="39.44" y1="112.01" x2="41.74" y2="112.95"/><line class="cls-25" x1="39.45" y1="113.64" x2="41.75" y2="114.57"/><line class="cls-25" x1="39.45" y1="115.23" x2="41.75" y2="116.15"/></g><g id="окно2-2"><path class="cls-17" d="M102.88,120.63a.22.22,0,0,1-.17-.07.24.24,0,0,1-.12-.22l-.3-17a.3.3,0,0,1,.24-.29l12-2.52h.06a.32.32,0,0,1,.19.07.36.36,0,0,1,.11.21l.41,16.11a.28.28,0,0,1-.22.3L103,120.6Z"/><path class="cls-18" d="M114.62,100.85,115,117l-12.14,3.36q-.15-8.44-.29-17l12-2.51m0-.58h-.12l-6.8,1.41-5.2,1.13a.57.57,0,0,0-.47.58l.14,8.33.16,8.63a.52.52,0,0,0,.24.47.48.48,0,0,0,.34.11H103l12.14-3.36a.6.6,0,0,0,.43-.58v-.39l-.41-15.72a.6.6,0,0,0-.23-.45.53.53,0,0,0-.36-.13Z"/><line class="cls-19" x1="108.83" y1="101.79" x2="109.11" y2="118.45"/><path class="cls-19" d="M114.73,106.93l-12,3.17"/><path class="cls-20" d="M115,100.42l-12.75,2.88"/><path class="cls-34" d="M115.4,117.09l3.49-.49q-.24-8.52-.51-17l-3.38.62Z"/><line class="cls-22" x1="114.98" y1="117.4" x2="102.78" y2="120.77"/><line class="cls-23" x1="115.46" y1="117.64" x2="102.84" y2="121.11"/><path class="cls-34" d="M98.3,121.56l4.11-.72L102.22,103l-4,.7Q98.25,112.6,98.3,121.56Z"/><line class="cls-25" x1="98.55" y1="105.17" x2="102.02" y2="104.57"/><line class="cls-25" x1="98.55" y1="106.79" x2="102.02" y2="106.18"/><line class="cls-25" x1="98.55" y1="108.42" x2="102.02" y2="107.82"/><line class="cls-25" x1="98.55" y1="110.04" x2="102.02" y2="109.43"/><line class="cls-25" x1="98.55" y1="111.65" x2="102.02" y2="111.05"/><line class="cls-25" x1="98.55" y1="113.26" x2="102.02" y2="112.67"/><line class="cls-25" x1="98.55" y1="114.89" x2="102.02" y2="114.29"/><line class="cls-25" x1="98.55" y1="116.51" x2="102.02" y2="115.9"/><line class="cls-25" x1="98.55" y1="118.14" x2="102.02" y2="117.54"/><line class="cls-25" x1="98.55" y1="119.76" x2="102.02" y2="119.15"/><line class="cls-26" x1="115.26" y1="101.1" x2="118.01" y2="100.64"/><line class="cls-26" x1="115.31" y1="102.71" x2="118.06" y2="102.24"/><line class="cls-26" x1="115.37" y1="104.32" x2="118.12" y2="103.85"/><line class="cls-26" x1="115.43" y1="105.93" x2="118.18" y2="105.45"/><line class="cls-26" x1="115.49" y1="107.54" x2="118.23" y2="107.07"/><line class="cls-26" x1="115.53" y1="109.15" x2="118.28" y2="108.68"/><line class="cls-26" x1="115.59" y1="110.76" x2="118.34" y2="110.29"/><line class="cls-26" x1="115.65" y1="112.38" x2="118.4" y2="111.89"/><line class="cls-26" x1="115.71" y1="113.98" x2="118.46" y2="113.51"/><line class="cls-26" x1="115.77" y1="115.6" x2="118.51" y2="115.13"/></g><g id="крыша"><path class="cls-35" d="M1.84,83.34H7.62l24-42.44L28.7,34.42Z"/><path class="cls-35" d="M183.29,80.27,61.64,107.62,28.7,34.42l119.83-9.71Z"/><g class="cls-36"><line class="cls-37" x1="-44.33" y1="1.51" x2="193.34" y2="-15.46"/><line class="cls-37" x1="-42.02" y1="7.09" x2="195.72" y2="-11.4"/><line class="cls-37" x1="-39.71" y1="12.71" x2="198.09" y2="-7.33"/><line class="cls-37" x1="-37.37" y1="18.39" x2="200.5" y2="-3.22"/><line class="cls-37" x1="-35.01" y1="24.1" x2="202.9" y2="0.9"/><line class="cls-37" x1="-32.63" y1="29.87" x2="205.32" y2="5.05"/><line class="cls-37" x1="-30.24" y1="35.67" x2="207.77" y2="9.23"/><line class="cls-37" x1="-27.83" y1="41.53" x2="210.22" y2="13.44"/><line class="cls-37" x1="-25.4" y1="47.43" x2="212.69" y2="17.64"/><line class="cls-37" x1="-22.94" y1="53.38" x2="215.18" y2="21.89"/><line class="cls-37" x1="-20.48" y1="59.38" x2="217.66" y2="26.17"/><line class="cls-37" x1="-17.98" y1="65.43" x2="220.18" y2="30.46"/><line class="cls-37" x1="-15.49" y1="71.53" x2="222.71" y2="34.79"/><line class="cls-37" x1="-12.94" y1="77.66" x2="225.24" y2="39.14"/><line class="cls-37" x1="-10.39" y1="83.86" x2="227.8" y2="43.51"/><line class="cls-37" x1="-7.6" y1="90.07" x2="230.35" y2="47.91"/><line class="cls-37" x1="-5.03" y1="96.37" x2="232.94" y2="52.33"/><line class="cls-37" x1="-2.41" y1="102.72" x2="235.54" y2="56.8"/><line class="cls-37" x1="-0.09" y1="108.32" x2="237.83" y2="60.71"/><line class="cls-37" x1="2.24" y1="113.97" x2="240.13" y2="64.65"/><line class="cls-37" x1="4.57" y1="119.63" x2="242.45" y2="68.6"/><line class="cls-37" x1="6.92" y1="125.37" x2="244.78" y2="72.58"/><line class="cls-37" x1="9.3" y1="131.13" x2="247.12" y2="76.59"/><line class="cls-37" x1="11.69" y1="136.95" x2="249.46" y2="80.61"/><line class="cls-37" x1="13.89" y1="142.85" x2="251.83" y2="84.66"/><line class="cls-37" x1="16.33" y1="148.75" x2="254.2" y2="88.73"/><line class="cls-37" x1="18.76" y1="154.68" x2="256.59" y2="92.82"/><line class="cls-37" x1="18.76" y1="154.68" x2="-44.33" y2="1.51"/><line class="cls-37" x1="22.33" y1="153.75" x2="-40.86" y2="1.25"/><line class="cls-37" x1="25.86" y1="152.82" x2="-37.41" y2="1"/><line class="cls-37" x1="29.47" y1="151.89" x2="-33.92" y2="0.76"/><line class="cls-37" x1="32.66" y1="151.06" x2="-30.79" y2="0.52"/><line class="cls-37" x1="36.09" y1="150.17" x2="-27.46" y2="0.29"/><line class="cls-37" x1="39.24" y1="149.37" x2="-24.39" y2="0.08"/><line class="cls-37" x1="42.53" y1="148.49" x2="-21.18" y2="-0.16"/><line class="cls-37" x1="45.46" y1="147.74" x2="-18.3" y2="-0.37"/><line class="cls-37" x1="48.52" y1="146.94" x2="-15.3" y2="-0.57"/><line class="cls-37" x1="51.86" y1="146.07" x2="-12.05" y2="-0.81"/><line class="cls-37" x1="55.22" y1="145.19" x2="-8.75" y2="-1.04"/><line class="cls-37" x1="58.23" y1="144.42" x2="-5.81" y2="-1.25"/><line class="cls-37" x1="61.43" y1="143.58" x2="-2.66" y2="-1.46"/><line class="cls-37" x1="64.38" y1="142.81" x2="0.24" y2="-1.67"/><line class="cls-37" x1="67.47" y1="142" x2="3.28" y2="-1.91"/><line class="cls-37" x1="70.23" y1="141.3" x2="5.99" y2="-2.09"/><line class="cls-37" x1="73.52" y1="140.44" x2="9.22" y2="-2.32"/><line class="cls-37" x1="76.65" y1="139.62" x2="12.3" y2="-2.55"/><line class="cls-37" x1="79.81" y1="138.81" x2="15.42" y2="-2.76"/><line class="cls-37" x1="82.63" y1="138.06" x2="18.2" y2="-2.96"/><line class="cls-37" x1="85.66" y1="137.28" x2="21.18" y2="-3.17"/><line class="cls-37" x1="88.43" y1="136.56" x2="23.92" y2="-3.37"/><line class="cls-37" x1="91.33" y1="135.81" x2="26.79" y2="-3.57"/><line class="cls-37" x1="93.92" y1="135.14" x2="29.35" y2="-3.76"/><line class="cls-37" x1="96.63" y1="134.42" x2="32.04" y2="-3.95"/><line class="cls-37" x1="99.58" y1="133.65" x2="34.94" y2="-4.16"/><line class="cls-37" x1="102.55" y1="132.88" x2="37.9" y2="-4.37"/><line class="cls-37" x1="105.21" y1="132.2" x2="40.53" y2="-4.55"/><line class="cls-37" x1="108.06" y1="131.45" x2="43.36" y2="-4.76"/><line class="cls-37" x1="110.68" y1="130.77" x2="45.95" y2="-4.95"/><line class="cls-37" x1="113.42" y1="130.06" x2="48.67" y2="-5.13"/><line class="cls-37" x1="115.86" y1="129.43" x2="51.09" y2="-5.31"/><line class="cls-37" x1="118.34" y1="128.78" x2="53.56" y2="-5.48"/><line class="cls-37" x1="121.1" y1="128.07" x2="56.31" y2="-5.68"/><line class="cls-37" x1="123.92" y1="127.33" x2="59.12" y2="-5.88"/><line class="cls-37" x1="126.43" y1="126.67" x2="61.61" y2="-6.06"/><line class="cls-37" x1="129.11" y1="125.98" x2="64.29" y2="-6.25"/><line class="cls-37" x1="131.58" y1="125.33" x2="66.76" y2="-6.41"/><line class="cls-37" x1="134.17" y1="124.67" x2="69.34" y2="-6.61"/><line class="cls-37" x1="136.48" y1="124.05" x2="71.64" y2="-6.78"/><line class="cls-37" x1="138.91" y1="123.43" x2="74.06" y2="-6.94"/><line class="cls-37" x1="141.51" y1="122.75" x2="76.68" y2="-7.13"/><line class="cls-37" x1="144.18" y1="122.05" x2="79.34" y2="-7.31"/><line class="cls-37" x1="146.54" y1="121.44" x2="81.7" y2="-7.48"/><line class="cls-37" x1="149.1" y1="120.77" x2="84.25" y2="-7.68"/><line class="cls-37" x1="151.43" y1="120.18" x2="86.6" y2="-7.83"/><line class="cls-37" x1="153.88" y1="119.54" x2="89.04" y2="-8.02"/><line class="cls-37" x1="156.07" y1="118.96" x2="91.24" y2="-8.18"/><line class="cls-37" x1="158.68" y1="118.28" x2="93.86" y2="-8.37"/><line class="cls-37" x1="161.15" y1="117.64" x2="96.35" y2="-8.54"/><line class="cls-37" x1="163.66" y1="116.99" x2="98.87" y2="-8.72"/><line class="cls-37" x1="165.91" y1="116.39" x2="101.13" y2="-8.87"/><line class="cls-37" x1="168.3" y1="115.78" x2="103.55" y2="-9.06"/><line class="cls-37" x1="170.51" y1="115.21" x2="105.78" y2="-9.21"/><line class="cls-37" x1="172.84" y1="114.59" x2="108.11" y2="-9.38"/><line class="cls-37" x1="174.91" y1="114.07" x2="110.2" y2="-9.53"/><line class="cls-37" x1="177.08" y1="113.5" x2="112.38" y2="-9.68"/><line class="cls-37" x1="179.42" y1="112.89" x2="114.75" y2="-9.85"/><line class="cls-37" x1="181.8" y1="112.27" x2="117.14" y2="-10.01"/><line class="cls-37" x1="183.94" y1="111.72" x2="119.3" y2="-10.18"/><line class="cls-37" x1="186.21" y1="111.13" x2="121.6" y2="-10.34"/><line class="cls-37" x1="188.31" y1="110.57" x2="123.72" y2="-10.49"/><line class="cls-37" x1="190.51" y1="110" x2="125.95" y2="-10.65"/><line class="cls-37" x1="192.47" y1="109.48" x2="127.93" y2="-10.79"/><line class="cls-37" x1="194.8" y1="108.89" x2="130.29" y2="-10.96"/><line class="cls-37" x1="197.01" y1="108.31" x2="132.55" y2="-11.12"/><line class="cls-37" x1="199.29" y1="107.72" x2="134.83" y2="-11.27"/><line class="cls-37" x1="201.3" y1="107.2" x2="136.88" y2="-11.43"/><line class="cls-37" x1="203.47" y1="106.64" x2="139.07" y2="-11.59"/><line class="cls-37" x1="205.46" y1="106.11" x2="141.1" y2="-11.74"/><line class="cls-37" x1="207.54" y1="105.57" x2="143.21" y2="-11.87"/><line class="cls-37" x1="209.41" y1="105.08" x2="145.1" y2="-12.02"/><line class="cls-37" x1="211.36" y1="104.59" x2="147.1" y2="-12.16"/><line class="cls-37" x1="213.48" y1="104.03" x2="149.25" y2="-12.3"/><line class="cls-37" x1="215.63" y1="103.46" x2="151.43" y2="-12.47"/><line class="cls-37" x1="217.55" y1="102.96" x2="153.37" y2="-12.6"/><line class="cls-37" x1="219.6" y1="102.44" x2="155.48" y2="-12.76"/><line class="cls-37" x1="221.5" y1="101.93" x2="157.41" y2="-12.89"/><line class="cls-37" x1="223.47" y1="101.44" x2="159.42" y2="-13.04"/><line class="cls-37" x1="225.25" y1="100.96" x2="161.24" y2="-13.16"/><line class="cls-37" x1="227.37" y1="100.41" x2="163.4" y2="-13.32"/><line class="cls-37" x1="229.38" y1="99.9" x2="165.45" y2="-13.47"/><line class="cls-37" x1="231.43" y1="99.35" x2="167.54" y2="-13.61"/><line class="cls-37" x1="233.25" y1="98.88" x2="169.4" y2="-13.75"/><line class="cls-37" x1="235.21" y1="98.38" x2="171.4" y2="-13.89"/><line class="cls-37" x1="237.01" y1="97.91" x2="173.25" y2="-14.03"/><line class="cls-37" x1="238.9" y1="97.41" x2="175.18" y2="-14.15"/><line class="cls-37" x1="240.58" y1="96.99" x2="176.9" y2="-14.27"/><line class="cls-37" x1="242.35" y1="96.51" x2="178.72" y2="-14.42"/><line class="cls-37" x1="244.28" y1="96.01" x2="180.67" y2="-14.55"/><line class="cls-37" x1="246.22" y1="95.51" x2="182.67" y2="-14.7"/><line class="cls-37" x1="247.96" y1="95.05" x2="184.45" y2="-14.82"/><line class="cls-37" x1="249.81" y1="94.57" x2="186.37" y2="-14.95"/><line class="cls-37" x1="251.55" y1="94.13" x2="188.13" y2="-15.08"/><line class="cls-37" x1="253.34" y1="93.66" x2="189.98" y2="-15.21"/><line class="cls-37" x1="254.95" y1="93.23" x2="191.63" y2="-15.32"/><line class="cls-37" x1="256.59" y1="92.82" x2="193.32" y2="-15.45"/></g><line class="cls-38" x1="31.62" y1="40.9" x2="7.62" y2="83.38"/><path class="cls-35" d="M10.55,78.19q9.89-17.43,19.71-34.87"/><line class="cls-38" x1="28.7" y1="34.43" x2="1.84" y2="83.29"/><line class="cls-38" x1="7.62" y1="83.38" x2="1.84" y2="83.29"/><line class="cls-38" x1="61.64" y1="107.63" x2="28.7" y2="34.43"/><line class="cls-38" x1="183.28" y1="80.27" x2="61.64" y2="107.63"/><line class="cls-38" x1="148.53" y1="24.71" x2="183.28" y2="80.27"/><line class="cls-38" x1="28.7" y1="34.43" x2="148.53" y2="24.71"/></g><g id="окно_чердак" data-name="окно чердак"><polygon class="cls-17" points="30.5 76 30.5 59.69 38.37 62.34 38.37 79.22 30.5 76"/><path class="cls-18" d="M31.07,60.46,35,61.78l2.81.94V78.39l-3.74-1.53-3-1.23V60.46M30,58.89V76.37l9,3.7V61.93Z"/><line class="cls-39" x1="34.44" y1="60.9" x2="34.44" y2="77.52"/><line class="cls-39" x1="30.34" y1="66.91" x2="38.5" y2="70.08"/></g></g></g><line class="cls-40" x1="148.53" y1="24.71" x2="30" y2="34.71"/><line class="cls-40" x1="148.53" y1="24.71" x2="182.54" y2="79.74"/><path class="cls-41" d="M77.17,13.78h4v9.71h6.21v3.18H77.17Z"/><path class="cls-41" d="M168.94,37.28h4v4.51h4.35V37.28h4V50.17h-4V45h-4.35v5.21h-4Z"/></svg>