<svg id="Слой_1" data-name="Слой 1" xmlns="http://www.w3.org/2000/svg" xmlns:xlink="http://www.w3.org/1999/xlink" viewBox="0 0 200 150"><defs><style>.cls-1,.cls-10,.cls-13,.cls-14,.cls-15,.cls-16,.cls-19,.cls-20,.cls-22,.cls-23,.cls-25,.cls-26,.cls-27,.cls-28,.cls-30,.cls-31,.cls-33,.cls-36,.cls-37,.cls-38,.cls-8,.cls-9{fill:none;}.cls-2{clip-path:url(#clip-path);}.cls-3{clip-path:url(#clip-path-2);}.cls-4{fill:#fff;}.cls-5{opacity:0.78;}.cls-12,.cls-6{fill:#f7f7f7;}.cls-10,.cls-12,.cls-15,.cls-6{stroke:#afafaf;}.cls-10,.cls-12,.cls-13,.cls-14,.cls-15,.cls-16,.cls-19,.cls-20,.cls-22,.cls-23,.cls-25,.cls-26,.cls-27,.cls-28,.cls-30,.cls-31,.cls-33,.cls-36,.cls-6,.cls-8,.cls-9{stroke-linecap:round;}.cls-10,.cls-12,.cls-13,.cls-14,.cls-15,.cls-19,.cls-20,.cls-21,.cls-22,.cls-23,.cls-24,.cls-25,.cls-26,.cls-27,.cls-28,.cls-29,.cls-30,.cls-31,.cls-32,.cls-33,.cls-38,.cls-6,.cls-8,.cls-9{stroke-linejoin:round;}.cls-10,.cls-6,.cls-8,.cls-9{stroke-width:1.73px;}.cls-7{opacity:0.64;}.cls-13,.cls-8{stroke:#fff;}.cls-14,.cls-9{stroke:#dddddb;}.cls-11{clip-path:url(#clip-path-3);}.cls-12{stroke-width:1.32px;}.cls-13,.cls-14,.cls-15{stroke-width:1.85px;}.cls-16{stroke:#c6c6c6;}.cls-16,.cls-34,.cls-36,.cls-37{stroke-miterlimit:10;}.cls-16,.cls-30,.cls-31{stroke-width:1.12px;}.cls-17{fill:#b2b2b2;}.cls-18,.cls-21,.cls-24,.cls-29,.cls-32{fill:#575756;}.cls-19,.cls-21,.cls-24,.cls-27,.cls-29,.cls-32,.cls-38{stroke:#575756;}.cls-19{stroke-width:0.59px;}.cls-20,.cls-23,.cls-28,.cls-31{stroke:#3c3c3b;}.cls-20{stroke-width:0.65px;}.cls-21{stroke-width:0.52px;}.cls-22,.cls-30{stroke:#432918;}.cls-22,.cls-23{stroke-width:1.29px;}.cls-24,.cls-27{stroke-width:0.51px;}.cls-25,.cls-26,.cls-33{stroke:#ededed;opacity:0.44;isolation:isolate;}.cls-25{stroke-width:0.48px;}.cls-26{stroke-width:0.42px;}.cls-28{stroke-width:0.56px;}.cls-29{stroke-width:0.46px;}.cls-32,.cls-33{stroke-width:0.45px;}.cls-34{fill:#8c8c8c;}.cls-34,.cls-37{stroke:#848484;stroke-width:0.5px;}.cls-35{clip-path:url(#clip-path-4);}.cls-36{stroke:#939393;}.cls-38{stroke-width:0.67px;}</style><clipPath id="clip-path"><path class="cls-1" d="M63.74,142,10.81,112.4V73.52c0-.69,4.67-9.66,17.35-32.81,1.87-3.64,2.85-4.5,3.37-4.55l1.24-.11.88-.07,30.28-2.54Z"/></clipPath><clipPath id="clip-path-2"><polygon class="cls-1" points="10.65 17.84 63.92 33.45 63.73 142.04 10.8 112.41 10.65 17.84"/></clipPath><clipPath id="clip-path-3"><polygon class="cls-1" points="176.94 111.11 63.73 142.04 63.95 106.03 177.06 80.98 176.94 111.11"/></clipPath><clipPath id="clip-path-4"><path class="cls-1" d="M183.29,80.27,61.64,107.62,28.7,34.42l119.83-9.71Z"/></clipPath></defs><g id="Слой_1-2" data-name="Слой 1-2"><g id="двухскатная"><g id="односкатная"><g id="стены"><g class="cls-2"><g id="стена_больш" data-name="стена больш"><g class="cls-3"><rect class="cls-4" x="5.45" y="33.44" width="58.39" height="112.17"/></g><g class="cls-5"><polygon class="cls-6" points="11.04 17.95 63.93 33.44 63.74 141.46 11.19 112.11 11.04 17.95"/><g class="cls-7"><line class="cls-8" x1="11.98" y1="20.74" x2="63.04" y2="36.05"/><line class="cls-9" x1="11.98" y1="21.14" x2="63.04" y2="36.52"/><line class="cls-10" x1="11.98" y1="21.63" x2="63.04" y2="37.07"/><line class="cls-8" x1="11.99" y1="23.62" x2="63.03" y2="39.35"/><line class="cls-9" x1="11.99" y1="24.03" x2="63.03" y2="39.81"/><line class="cls-10" x1="11.99" y1="24.51" x2="63.03" y2="40.37"/><line class="cls-8" x1="11.99" y1="26.51" x2="63.03" y2="42.65"/><line class="cls-9" x1="11.99" y1="26.91" x2="63.03" y2="43.11"/><line class="cls-10" x1="11.99" y1="27.4" x2="63.03" y2="43.66"/><line class="cls-8" x1="12" y1="29.39" x2="63.02" y2="45.94"/><line class="cls-9" x1="12" y1="29.8" x2="63.02" y2="46.4"/><line class="cls-10" x1="12" y1="30.28" x2="63.02" y2="46.96"/><line class="cls-8" x1="12" y1="32.28" x2="63.02" y2="49.24"/><line class="cls-9" x1="12" y1="32.68" x2="63.02" y2="49.7"/><line class="cls-10" x1="12" y1="33.16" x2="63.02" y2="50.25"/><line class="cls-8" x1="12" y1="35.16" x2="63.01" y2="52.53"/><line class="cls-9" x1="12.01" y1="35.56" x2="63.01" y2="52.99"/><line class="cls-10" x1="12.01" y1="36.05" x2="63.01" y2="53.54"/><line class="cls-8" x1="12.01" y1="38.04" x2="63.01" y2="55.83"/><line class="cls-9" x1="12.01" y1="38.44" x2="63.01" y2="56.28"/><line class="cls-10" x1="12.01" y1="38.93" x2="63" y2="56.84"/><line class="cls-8" x1="12.01" y1="40.92" x2="63" y2="59.12"/><line class="cls-9" x1="12.01" y1="41.32" x2="63" y2="59.57"/><line class="cls-10" x1="12.01" y1="41.81" x2="63" y2="60.13"/><line class="cls-8" x1="12.02" y1="43.8" x2="63" y2="62.4"/><line class="cls-9" x1="12.02" y1="44.2" x2="62.99" y2="62.86"/><line class="cls-10" x1="12.02" y1="44.69" x2="62.99" y2="63.42"/><line class="cls-8" x1="12.02" y1="46.68" x2="62.99" y2="65.69"/><line class="cls-9" x1="12.02" y1="47.08" x2="62.99" y2="66.15"/><line class="cls-10" x1="12.02" y1="47.57" x2="62.99" y2="66.7"/><line class="cls-8" x1="12.03" y1="49.56" x2="62.98" y2="68.98"/><line class="cls-9" x1="12.03" y1="49.96" x2="62.98" y2="69.44"/><line class="cls-10" x1="12.03" y1="50.44" x2="62.98" y2="69.99"/><line class="cls-8" x1="12.03" y1="52.43" x2="62.98" y2="72.26"/><line class="cls-9" x1="12.03" y1="52.83" x2="62.98" y2="72.72"/><line class="cls-10" x1="12.03" y1="53.32" x2="62.98" y2="73.27"/><line class="cls-8" x1="12.03" y1="55.31" x2="62.97" y2="75.54"/><line class="cls-9" x1="12.04" y1="55.71" x2="62.97" y2="76"/><line class="cls-10" x1="12.04" y1="56.19" x2="62.97" y2="76.56"/><line class="cls-8" x1="12.04" y1="58.18" x2="62.97" y2="78.83"/><line class="cls-9" x1="12.04" y1="58.58" x2="62.97" y2="79.28"/><line class="cls-10" x1="12.04" y1="59.07" x2="62.97" y2="79.84"/><line class="cls-8" x1="12.04" y1="61.05" x2="62.96" y2="82.11"/><line class="cls-9" x1="12.04" y1="61.46" x2="62.96" y2="82.57"/><line class="cls-10" x1="12.04" y1="61.94" x2="62.96" y2="83.12"/><line class="cls-8" x1="12.05" y1="63.93" x2="62.96" y2="85.39"/><line class="cls-9" x1="12.05" y1="64.33" x2="62.96" y2="85.84"/><line class="cls-10" x1="12.05" y1="64.81" x2="62.95" y2="86.4"/><line class="cls-8" x1="12.05" y1="66.8" x2="62.95" y2="88.67"/><line class="cls-9" x1="12.05" y1="67.2" x2="62.95" y2="89.12"/><line class="cls-10" x1="12.05" y1="67.68" x2="62.95" y2="89.67"/><line class="cls-8" x1="12.06" y1="69.67" x2="62.94" y2="91.94"/><line class="cls-9" x1="12.06" y1="70.07" x2="62.94" y2="92.4"/><line class="cls-10" x1="12.06" y1="70.55" x2="62.94" y2="92.95"/><line class="cls-8" x1="12.06" y1="72.54" x2="62.94" y2="95.22"/><line class="cls-9" x1="12.06" y1="72.94" x2="62.94" y2="95.68"/><line class="cls-10" x1="12.06" y1="73.42" x2="62.94" y2="96.23"/><line class="cls-8" x1="12.07" y1="75.41" x2="62.93" y2="98.49"/><line class="cls-9" x1="12.07" y1="75.81" x2="62.93" y2="98.95"/><line class="cls-10" x1="12.07" y1="76.29" x2="62.93" y2="99.5"/><line class="cls-8" x1="12.07" y1="78.27" x2="62.93" y2="101.76"/><line class="cls-9" x1="12.07" y1="78.67" x2="62.93" y2="102.22"/><line class="cls-10" x1="12.07" y1="79.16" x2="62.93" y2="102.77"/><line class="cls-8" x1="12.07" y1="81.14" x2="62.92" y2="105.03"/><line class="cls-9" x1="12.07" y1="81.54" x2="62.92" y2="105.49"/><line class="cls-10" x1="12.08" y1="82.02" x2="62.92" y2="106.04"/><line class="cls-8" x1="12.08" y1="84" x2="62.92" y2="108.3"/><line class="cls-9" x1="12.08" y1="84.4" x2="62.92" y2="108.76"/><line class="cls-10" x1="12.08" y1="84.89" x2="62.92" y2="109.31"/><line class="cls-8" x1="12.08" y1="86.87" x2="62.91" y2="111.57"/><line class="cls-9" x1="12.08" y1="87.27" x2="62.91" y2="112.03"/><line class="cls-10" x1="12.08" y1="87.75" x2="62.91" y2="112.58"/><line class="cls-8" x1="12.09" y1="89.73" x2="62.91" y2="114.84"/><line class="cls-9" x1="12.09" y1="90.13" x2="62.91" y2="115.3"/><line class="cls-10" x1="12.09" y1="90.61" x2="62.9" y2="115.85"/><line class="cls-8" x1="12.09" y1="92.59" x2="62.9" y2="118.11"/><line class="cls-9" x1="12.09" y1="92.99" x2="62.9" y2="118.56"/><line class="cls-10" x1="12.09" y1="93.47" x2="62.9" y2="119.11"/><line class="cls-8" x1="12.1" y1="95.45" x2="62.9" y2="121.37"/><line class="cls-9" x1="12.1" y1="95.85" x2="62.89" y2="121.83"/><line class="cls-10" x1="12.1" y1="96.33" x2="62.89" y2="122.38"/><line class="cls-8" x1="12.1" y1="98.31" x2="62.89" y2="124.64"/><line class="cls-9" x1="12.1" y1="98.71" x2="62.89" y2="125.09"/><line class="cls-10" x1="12.1" y1="99.19" x2="62.89" y2="125.64"/><line class="cls-8" x1="12.1" y1="101.17" x2="62.88" y2="127.9"/><line class="cls-9" x1="12.1" y1="101.57" x2="62.88" y2="128.35"/><line class="cls-10" x1="12.11" y1="102.05" x2="62.88" y2="128.9"/><line class="cls-8" x1="12.11" y1="104.03" x2="62.88" y2="131.16"/><line class="cls-9" x1="12.11" y1="104.43" x2="62.88" y2="131.61"/><line class="cls-10" x1="12.11" y1="104.91" x2="62.88" y2="132.16"/><line class="cls-8" x1="12.11" y1="106.88" x2="62.87" y2="134.42"/><line class="cls-9" x1="12.11" y1="107.28" x2="62.87" y2="134.87"/><line class="cls-10" x1="12.11" y1="107.77" x2="62.87" y2="135.42"/><line class="cls-8" x1="12.12" y1="109.74" x2="62.87" y2="137.67"/><line class="cls-9" x1="12.12" y1="110.14" x2="62.87" y2="138.13"/><line class="cls-10" x1="12.12" y1="110.62" x2="62.87" y2="138.68"/></g></g></g></g><g id="стена_мал" data-name="стена мал"><g class="cls-11"><path class="cls-4" d="M63.74,142l113.2-30.94q-.08-16.45-.13-32.93L64,106Z"/><g class="cls-5"><polygon class="cls-12" points="59.8 144.16 180.88 111.08 181 78.86 60.03 105.66 59.8 144.16"/><g class="cls-7"><line class="cls-13" x1="63.53" y1="106.11" x2="179.12" y2="80.32"/><line class="cls-14" x1="63.53" y1="106.43" x2="179.12" y2="80.6"/><line class="cls-15" x1="63.53" y1="106.82" x2="179.12" y2="80.91"/><line class="cls-13" x1="63.52" y1="108.42" x2="179.11" y2="82.27"/><line class="cls-14" x1="63.51" y1="108.76" x2="179.11" y2="82.54"/><line class="cls-15" x1="63.51" y1="109.14" x2="179.11" y2="82.88"/><line class="cls-13" x1="63.5" y1="110.74" x2="179.11" y2="84.22"/><line class="cls-14" x1="63.5" y1="111.07" x2="179.09" y2="84.49"/><line class="cls-15" x1="63.5" y1="111.45" x2="179.09" y2="84.82"/><line class="cls-13" x1="63.49" y1="113.07" x2="179.09" y2="86.18"/><line class="cls-14" x1="63.49" y1="113.39" x2="179.09" y2="86.46"/><line class="cls-15" x1="63.48" y1="113.77" x2="179.08" y2="86.79"/><line class="cls-13" x1="63.47" y1="115.39" x2="179.08" y2="88.13"/><line class="cls-14" x1="63.47" y1="115.7" x2="179.08" y2="88.4"/><line class="cls-15" x1="63.47" y1="116.1" x2="179.08" y2="88.74"/><line class="cls-13" x1="63.46" y1="117.7" x2="179.08" y2="90.08"/><line class="cls-14" x1="63.46" y1="118.02" x2="179.08" y2="90.36"/><line class="cls-15" x1="63.46" y1="118.42" x2="179.08" y2="90.7"/><line class="cls-13" x1="63.45" y1="120.01" x2="179.07" y2="92.04"/><line class="cls-14" x1="63.44" y1="120.35" x2="179.07" y2="92.32"/><line class="cls-15" x1="63.44" y1="120.73" x2="179.07" y2="92.64"/><line class="cls-13" x1="63.43" y1="122.33" x2="179.06" y2="93.99"/><line class="cls-14" x1="63.43" y1="122.67" x2="179.06" y2="94.27"/><line class="cls-15" x1="63.43" y1="123.05" x2="179.06" y2="94.6"/><line class="cls-13" x1="63.42" y1="124.65" x2="179.05" y2="95.95"/><line class="cls-14" x1="63.42" y1="124.98" x2="179.05" y2="96.23"/><line class="cls-15" x1="63.4" y1="125.38" x2="179.05" y2="96.55"/><line class="cls-13" x1="63.4" y1="126.98" x2="179.05" y2="97.9"/><line class="cls-14" x1="63.4" y1="127.29" x2="179.03" y2="98.18"/><line class="cls-15" x1="63.4" y1="127.7" x2="179.03" y2="98.51"/><line class="cls-13" x1="63.39" y1="129.29" x2="179.03" y2="99.86"/><line class="cls-14" x1="63.39" y1="129.61" x2="179.03" y2="100.14"/><line class="cls-15" x1="63.39" y1="130.01" x2="179.03" y2="100.46"/><line class="cls-13" x1="63.37" y1="131.61" x2="179.02" y2="101.82"/><line class="cls-14" x1="63.37" y1="131.93" x2="179.02" y2="102.1"/><line class="cls-15" x1="63.37" y1="132.32" x2="179.02" y2="102.42"/><line class="cls-13" x1="63.36" y1="133.93" x2="179.01" y2="103.77"/><line class="cls-14" x1="63.36" y1="134.26" x2="179.01" y2="104.04"/><line class="cls-15" x1="63.36" y1="134.64" x2="179.01" y2="104.38"/><line class="cls-13" x1="63.34" y1="136.26" x2="179.01" y2="105.73"/><line class="cls-14" x1="63.34" y1="136.57" x2="179.01" y2="106.01"/><line class="cls-15" x1="63.34" y1="136.96" x2="179.01" y2="106.33"/><line class="cls-13" x1="63.33" y1="138.57" x2="179" y2="107.68"/><line class="cls-14" x1="63.33" y1="138.89" x2="179" y2="107.95"/><line class="cls-15" x1="63.33" y1="139.29" x2="179" y2="108.29"/><line class="cls-13" x1="63.31" y1="140.89" x2="179" y2="109.64"/><line class="cls-14" x1="63.31" y1="141.21" x2="178.99" y2="109.92"/><line class="cls-15" x1="63.31" y1="141.61" x2="178.99" y2="110.24"/></g></g></g></g><line class="cls-16" x1="63.96" y1="106.04" x2="63.96" y2="141.32"/><line class="cls-16" x1="10.65" y1="71.02" x2="10.81" y2="112.43"/><line class="cls-16" x1="177.07" y1="80.99" x2="176.93" y2="111.11"/><line class="cls-16" x1="63.74" y1="141.98" x2="10.81" y2="112.43"/><line class="cls-16" x1="176.94" y1="111.11" x2="63.74" y2="141.98"/></g></g><g id="окно2"><path class="cls-17" d="M135.86,113a.28.28,0,0,1-.18-.06.26.26,0,0,1-.12-.23l-.33-16.87a.3.3,0,0,1,.23-.3l12.14-2.82h.06a.45.45,0,0,1,.18.07A.33.33,0,0,1,148,93l.31,16.42a.31.31,0,0,1-.23.29L135.91,113Z"/><path class="cls-18" d="M147.67,93q.14,8.31.31,16.43l-12.14,3.26q-.17-8.36-.34-16.87L147.64,93m0-.58h-.15l-12.14,2.82a.56.56,0,0,0-.45.58l.2,10.51.13,6.39a.58.58,0,0,0,.59.57H136l6.75-1.83,5.36-1.45a.58.58,0,0,0,.43-.57l-.15-8.33-.14-8.1a.59.59,0,0,0-.58-.57h0Z"/><line class="cls-19" x1="141.76" y1="94.07" x2="142" y2="110.88"/><path class="cls-19" d="M147.76,99.28l-12.13,3.3"/><path class="cls-20" d="M148,92.55l-12.87,3.19"/><path class="cls-21" d="M148.34,109.5l3.58-.48c-.13-5.78-.24-11.61-.36-17.49l-3.5.73Z"/><line class="cls-22" x1="147.9" y1="109.86" x2="135.75" y2="113.14"/><line class="cls-23" x1="148.4" y1="110.1" x2="135.81" y2="113.46"/><path class="cls-24" d="M131.42,113.84l4-.65-.23-17.81-4,.76C131.26,102.11,131.33,108,131.42,113.84Z"/><line class="cls-25" x1="131.56" y1="97.67" x2="134.97" y2="97.02"/><line class="cls-25" x1="131.56" y1="99.29" x2="134.97" y2="98.65"/><line class="cls-25" x1="131.56" y1="100.9" x2="134.98" y2="100.27"/><line class="cls-25" x1="131.58" y1="102.51" x2="134.98" y2="101.89"/><line class="cls-25" x1="131.59" y1="104.11" x2="134.99" y2="103.51"/><line class="cls-25" x1="131.59" y1="105.73" x2="134.99" y2="105.13"/><line class="cls-25" x1="131.61" y1="107.32" x2="135" y2="106.73"/><line class="cls-25" x1="131.62" y1="108.92" x2="135" y2="108.32"/><line class="cls-25" x1="131.62" y1="110.51" x2="135.01" y2="109.92"/><line class="cls-25" x1="131.64" y1="112.08" x2="135.01" y2="111.52"/><line class="cls-26" x1="148.31" y1="93.26" x2="151.15" y2="92.7"/><line class="cls-26" x1="148.37" y1="94.92" x2="151.21" y2="94.36"/><line class="cls-26" x1="148.42" y1="96.57" x2="151.25" y2="96.04"/><line class="cls-26" x1="148.45" y1="98.23" x2="151.28" y2="97.7"/><line class="cls-26" x1="148.5" y1="99.86" x2="151.33" y2="99.35"/><line class="cls-26" x1="148.55" y1="101.51" x2="151.37" y2="100.99"/><line class="cls-26" x1="148.59" y1="103.14" x2="151.4" y2="102.64"/><line class="cls-26" x1="148.64" y1="104.79" x2="151.46" y2="104.29"/><line class="cls-26" x1="148.69" y1="106.42" x2="151.5" y2="105.92"/><line class="cls-26" x1="148.73" y1="108.04" x2="151.55" y2="107.57"/></g><g id="окно1"><path class="cls-17" d="M38.56,116a.13.13,0,0,1-.12,0l-9.66-5.24a.24.24,0,0,1-.13-.22l-.24-15.64a.26.26,0,0,1,.12-.22.33.33,0,0,1,.14,0h.11l10.06,4.8a.3.3,0,0,1,.14.24l-.17,16.08a.26.26,0,0,1-.12.22Z"/><path class="cls-18" d="M28.67,94.82l10.06,4.81-.17,16.08-9.66-5.24-.23-15.64m0-.51a.49.49,0,0,0-.51.48h0l.11,7.76.12,7.87a.51.51,0,0,0,.26.45l2.73,1.49,6.94,3.75a.39.39,0,0,0,.24.05.4.4,0,0,0,.25-.07.47.47,0,0,0,.26-.43l.08-8,.08-8a.49.49,0,0,0-.29-.47l-5-2.4-5-2.39A.56.56,0,0,0,28.67,94.32Z"/><path class="cls-27" d="M33.68,97.15q0,8,.09,16"/><line class="cls-27" x1="28.78" y1="100.86" x2="38.62" y2="106.26"/><path class="cls-28" d="M28.68,94.59l10.49,5"/><path class="cls-29" d="M28.65,110.79l-2.92-1.48q0-8.22-.07-16.47l2.68,1.27Q28.49,102.45,28.65,110.79Z"/><path class="cls-30" d="M28.9,111l9.75,5.21"/><path class="cls-31" d="M28.7,111.17l9.94,5.28"/><path class="cls-32" d="M41.9,117.87l-3-1.5.17-17.24,3.2,1.55Z"/><line class="cls-33" x1="25.89" y1="94.85" x2="28.15" y2="95.89"/><line class="cls-33" x1="25.89" y1="96.45" x2="28.15" y2="97.49"/><line class="cls-33" x1="25.89" y1="98.04" x2="28.15" y2="99.08"/><line class="cls-33" x1="25.89" y1="99.38" x2="28.15" y2="100.42"/><line class="cls-33" x1="25.89" y1="100.7" x2="28.15" y2="101.74"/><line class="cls-33" x1="25.89" y1="102.04" x2="28.15" y2="103.07"/><line class="cls-33" x1="25.89" y1="103.39" x2="28.15" y2="104.43"/><line class="cls-33" x1="25.89" y1="104.68" x2="28.15" y2="105.73"/><line class="cls-33" x1="25.89" y1="106.17" x2="28.15" y2="107.21"/><line class="cls-33" x1="25.89" y1="107.58" x2="28.15" y2="108.64"/><line class="cls-25" x1="39.4" y1="101.11" x2="41.71" y2="102.04"/><line class="cls-25" x1="39.4" y1="102.89" x2="41.72" y2="103.83"/><line class="cls-25" x1="39.4" y1="104.65" x2="41.72" y2="105.58"/><line class="cls-25" x1="39.42" y1="106.13" x2="41.73" y2="107.07"/><line class="cls-25" x1="39.42" y1="107.61" x2="41.73" y2="108.54"/><line class="cls-25" x1="39.43" y1="109.07" x2="41.74" y2="110.01"/><line class="cls-25" x1="39.43" y1="110.57" x2="41.74" y2="111.51"/><line class="cls-25" x1="39.44" y1="112.01" x2="41.74" y2="112.95"/><line class="cls-25" x1="39.45" y1="113.64" x2="41.75" y2="114.57"/><line class="cls-25" x1="39.45" y1="115.23" x2="41.75" y2="116.15"/></g><g id="окно2-2"><path class="cls-17" d="M102.88,120.63a.21.21,0,0,1-.17-.07.24.24,0,0,1-.12-.22l-.3-17a.3.3,0,0,1,.24-.29l12-2.52h.06a.34.34,0,0,1,.19.07.36.36,0,0,1,.11.21l.41,16.11a.28.28,0,0,1-.22.3L103,120.6Z"/><path class="cls-18" d="M114.62,100.85,115,117l-12.14,3.36q-.15-8.44-.29-17l12-2.51m0-.58h-.12l-6.8,1.41-5.2,1.13a.57.57,0,0,0-.47.58l.14,8.33.16,8.63a.52.52,0,0,0,.24.47.5.5,0,0,0,.34.11h.16l12.14-3.36a.6.6,0,0,0,.43-.58v-.39l-.41-15.72a.62.62,0,0,0-.23-.45.55.55,0,0,0-.36-.13Z"/><line class="cls-19" x1="108.83" y1="101.79" x2="109.11" y2="118.45"/><path class="cls-19" d="M114.73,106.93l-12,3.17"/><path class="cls-20" d="M115,100.42l-12.75,2.88"/><path class="cls-18" d="M115.4,117.09l3.49-.49q-.24-8.52-.51-17l-3.38.62Z"/><line class="cls-22" x1="114.98" y1="117.4" x2="102.78" y2="120.77"/><line class="cls-23" x1="115.46" y1="117.64" x2="102.84" y2="121.11"/><path class="cls-18" d="M98.3,121.56l4.11-.72L102.22,103l-4,.7Q98.25,112.6,98.3,121.56Z"/><line class="cls-25" x1="98.55" y1="105.17" x2="102.02" y2="104.57"/><line class="cls-25" x1="98.55" y1="106.79" x2="102.02" y2="106.18"/><line class="cls-25" x1="98.55" y1="108.42" x2="102.02" y2="107.82"/><line class="cls-25" x1="98.55" y1="110.04" x2="102.02" y2="109.43"/><line class="cls-25" x1="98.55" y1="111.65" x2="102.02" y2="111.05"/><line class="cls-25" x1="98.55" y1="113.26" x2="102.02" y2="112.67"/><line class="cls-25" x1="98.55" y1="114.89" x2="102.02" y2="114.29"/><line class="cls-25" x1="98.55" y1="116.51" x2="102.02" y2="115.9"/><line class="cls-25" x1="98.55" y1="118.14" x2="102.02" y2="117.54"/><line class="cls-25" x1="98.55" y1="119.76" x2="102.02" y2="119.15"/><line class="cls-26" x1="115.26" y1="101.1" x2="118.01" y2="100.64"/><line class="cls-26" x1="115.31" y1="102.71" x2="118.06" y2="102.24"/><line class="cls-26" x1="115.37" y1="104.32" x2="118.12" y2="103.85"/><line class="cls-26" x1="115.43" y1="105.93" x2="118.18" y2="105.45"/><line class="cls-26" x1="115.49" y1="107.54" x2="118.23" y2="107.07"/><line class="cls-26" x1="115.53" y1="109.15" x2="118.28" y2="108.68"/><line class="cls-26" x1="115.59" y1="110.76" x2="118.34" y2="110.29"/><line class="cls-26" x1="115.65" y1="112.38" x2="118.4" y2="111.89"/><line class="cls-26" x1="115.71" y1="113.98" x2="118.46" y2="113.51"/><line class="cls-26" x1="115.77" y1="115.6" x2="118.51" y2="115.13"/></g><g id="крыша"><path class="cls-34" d="M1.84,83.34H7.62l24-42.44L28.7,34.42Z"/><path class="cls-34" d="M183.29,80.27,61.64,107.62,28.7,34.42l119.83-9.71Z"/><g class="cls-35"><line class="cls-36" x1="-44.63" y1="4.32" x2="188.9" y2="-14.62"/><line class="cls-36" x1="-42.27" y1="9.54" x2="191.44" y2="-10.57"/><line class="cls-36" x1="-39.91" y1="14.79" x2="193.98" y2="-6.5"/><line class="cls-36" x1="-37.52" y1="20.1" x2="196.55" y2="-2.4"/><line class="cls-36" x1="-35.11" y1="25.43" x2="199.12" y2="1.72"/><line class="cls-36" x1="-32.69" y1="30.82" x2="201.7" y2="5.86"/><line class="cls-36" x1="-30.25" y1="36.24" x2="204.32" y2="10.04"/><line class="cls-36" x1="-27.79" y1="41.71" x2="206.94" y2="14.24"/><line class="cls-36" x1="-25.31" y1="47.21" x2="209.58" y2="18.44"/><line class="cls-36" x1="-22.81" y1="52.76" x2="212.24" y2="22.69"/><line class="cls-36" x1="-20.3" y1="58.35" x2="214.9" y2="26.96"/><line class="cls-36" x1="-17.76" y1="63.99" x2="217.59" y2="31.25"/><line class="cls-36" x1="-15.22" y1="69.68" x2="220.3" y2="35.58"/><line class="cls-36" x1="-12.63" y1="75.39" x2="223.01" y2="39.93"/><line class="cls-36" x1="-10.03" y1="81.16" x2="225.75" y2="44.3"/><line class="cls-36" x1="-7.22" y1="86.94" x2="228.48" y2="48.71"/><line class="cls-36" x1="-4.6" y1="92.8" x2="231.25" y2="53.13"/><line class="cls-36" x1="-1.94" y1="98.71" x2="234.03" y2="57.6"/><line class="cls-36" x1="0.42" y1="103.92" x2="236.49" y2="61.51"/><line class="cls-36" x1="2.78" y1="109.17" x2="238.95" y2="65.46"/><line class="cls-36" x1="5.15" y1="114.43" x2="241.44" y2="69.41"/><line class="cls-36" x1="7.53" y1="119.76" x2="243.93" y2="73.4"/><line class="cls-36" x1="9.95" y1="125.11" x2="246.44" y2="77.41"/><line class="cls-36" x1="12.37" y1="130.51" x2="248.95" y2="81.44"/><line class="cls-36" x1="14.62" y1="135.98" x2="251.49" y2="85.49"/><line class="cls-36" x1="17.09" y1="141.45" x2="254.03" y2="89.57"/><line class="cls-36" x1="19.56" y1="146.95" x2="256.59" y2="93.67"/><line class="cls-36" x1="19.56" y1="146.95" x2="-44.63" y2="4.32"/><line class="cls-36" x1="22.87" y1="146.2" x2="-41.44" y2="4.05"/><line class="cls-36" x1="26.15" y1="145.46" x2="-38.26" y2="3.79"/><line class="cls-36" x1="29.51" y1="144.71" x2="-35.03" y2="3.54"/><line class="cls-36" x1="32.49" y1="144.04" x2="-32.14" y2="3.29"/><line class="cls-36" x1="35.69" y1="143.32" x2="-29.05" y2="3.04"/><line class="cls-36" x1="38.64" y1="142.67" x2="-26.2" y2="2.82"/><line class="cls-36" x1="41.73" y1="141.96" x2="-23.22" y2="2.57"/><line class="cls-36" x1="44.49" y1="141.35" x2="-20.54" y2="2.35"/><line class="cls-36" x1="47.37" y1="140.7" x2="-17.74" y2="2.13"/><line class="cls-36" x1="50.52" y1="139.99" x2="-14.7" y2="1.88"/><line class="cls-36" x1="53.7" y1="139.27" x2="-11.61" y2="1.63"/><line class="cls-36" x1="56.55" y1="138.64" x2="-8.85" y2="1.41"/><line class="cls-36" x1="59.59" y1="137.95" x2="-5.89" y2="1.18"/><line class="cls-36" x1="62.4" y1="137.32" x2="-3.16" y2="0.96"/><line class="cls-36" x1="65.34" y1="136.65" x2="-0.3" y2="0.71"/><line class="cls-36" x1="67.98" y1="136.07" x2="2.26" y2="0.51"/><line class="cls-36" x1="71.12" y1="135.36" x2="5.31" y2="0.26"/><line class="cls-36" x1="74.12" y1="134.68" x2="8.23" y2="0.02"/><line class="cls-36" x1="77.15" y1="134.01" x2="11.19" y2="-0.21"/><line class="cls-36" x1="79.87" y1="133.39" x2="13.83" y2="-0.43"/><line class="cls-36" x1="82.78" y1="132.74" x2="16.67" y2="-0.65"/><line class="cls-36" x1="85.46" y1="132.14" x2="19.28" y2="-0.87"/><line class="cls-36" x1="88.26" y1="131.51" x2="22.02" y2="-1.09"/><line class="cls-36" x1="90.77" y1="130.95" x2="24.47" y2="-1.29"/><line class="cls-36" x1="93.4" y1="130.35" x2="27.05" y2="-1.5"/><line class="cls-36" x1="96.26" y1="129.7" x2="29.83" y2="-1.73"/><line class="cls-36" x1="99.15" y1="129.05" x2="32.67" y2="-1.96"/><line class="cls-36" x1="101.75" y1="128.48" x2="35.21" y2="-2.15"/><line class="cls-36" x1="104.53" y1="127.85" x2="37.93" y2="-2.38"/><line class="cls-36" x1="107.09" y1="127.27" x2="40.43" y2="-2.59"/><line class="cls-36" x1="109.78" y1="126.67" x2="43.06" y2="-2.79"/><line class="cls-36" x1="112.17" y1="126.14" x2="45.4" y2="-2.99"/><line class="cls-36" x1="114.61" y1="125.58" x2="47.8" y2="-3.18"/><line class="cls-36" x1="117.33" y1="124.98" x2="50.47" y2="-3.4"/><line class="cls-36" x1="120.11" y1="124.35" x2="53.2" y2="-3.62"/><line class="cls-36" x1="122.59" y1="123.79" x2="55.62" y2="-3.82"/><line class="cls-36" x1="125.24" y1="123.2" x2="58.24" y2="-4.03"/><line class="cls-36" x1="127.69" y1="122.64" x2="60.65" y2="-4.21"/><line class="cls-36" x1="130.26" y1="122.07" x2="63.17" y2="-4.43"/><line class="cls-36" x1="132.55" y1="121.54" x2="65.43" y2="-4.61"/><line class="cls-36" x1="134.97" y1="121.01" x2="67.8" y2="-4.79"/><line class="cls-36" x1="137.56" y1="120.42" x2="70.37" y2="-5.01"/><line class="cls-36" x1="140.23" y1="119.82" x2="72.99" y2="-5.21"/><line class="cls-36" x1="142.59" y1="119.29" x2="75.31" y2="-5.4"/><line class="cls-36" x1="145.15" y1="118.71" x2="77.83" y2="-5.62"/><line class="cls-36" x1="147.49" y1="118.2" x2="80.15" y2="-5.79"/><line class="cls-36" x1="149.95" y1="117.64" x2="82.56" y2="-6"/><line class="cls-36" x1="152.15" y1="117.14" x2="84.74" y2="-6.18"/><line class="cls-36" x1="154.78" y1="116.55" x2="87.34" y2="-6.39"/><line class="cls-36" x1="157.28" y1="115.99" x2="89.81" y2="-6.59"/><line class="cls-36" x1="159.81" y1="115.42" x2="92.31" y2="-6.79"/><line class="cls-36" x1="162.09" y1="114.9" x2="94.56" y2="-6.96"/><line class="cls-36" x1="164.51" y1="114.36" x2="96.98" y2="-7.17"/><line class="cls-36" x1="166.76" y1="113.86" x2="99.2" y2="-7.35"/><line class="cls-36" x1="169.12" y1="113.32" x2="101.53" y2="-7.54"/><line class="cls-36" x1="171.23" y1="112.86" x2="103.62" y2="-7.71"/><line class="cls-36" x1="173.44" y1="112.36" x2="105.81" y2="-7.88"/><line class="cls-36" x1="175.83" y1="111.82" x2="108.19" y2="-8.07"/><line class="cls-36" x1="178.26" y1="111.27" x2="110.59" y2="-8.26"/><line class="cls-36" x1="180.45" y1="110.79" x2="112.76" y2="-8.45"/><line class="cls-36" x1="182.78" y1="110.26" x2="115.08" y2="-8.63"/><line class="cls-36" x1="184.94" y1="109.77" x2="117.22" y2="-8.81"/><line class="cls-36" x1="187.2" y1="109.26" x2="119.47" y2="-8.99"/><line class="cls-36" x1="189.21" y1="108.8" x2="121.47" y2="-9.15"/><line class="cls-36" x1="191.62" y1="108.27" x2="123.86" y2="-9.35"/><line class="cls-36" x1="193.9" y1="107.76" x2="126.15" y2="-9.53"/><line class="cls-36" x1="196.25" y1="107.23" x2="128.47" y2="-9.71"/><line class="cls-36" x1="198.33" y1="106.76" x2="130.55" y2="-9.89"/><line class="cls-36" x1="200.58" y1="106.26" x2="132.78" y2="-10.07"/><line class="cls-36" x1="202.64" y1="105.79" x2="134.84" y2="-10.24"/><line class="cls-36" x1="204.81" y1="105.3" x2="137" y2="-10.4"/><line class="cls-36" x1="206.75" y1="104.86" x2="138.93" y2="-10.57"/><line class="cls-36" x1="208.78" y1="104.42" x2="140.97" y2="-10.73"/><line class="cls-36" x1="210.99" y1="103.92" x2="143.17" y2="-10.9"/><line class="cls-36" x1="213.24" y1="103.4" x2="145.4" y2="-11.09"/><line class="cls-36" x1="215.24" y1="102.95" x2="147.4" y2="-11.25"/><line class="cls-36" x1="217.39" y1="102.48" x2="149.56" y2="-11.43"/><line class="cls-36" x1="219.38" y1="102.02" x2="151.55" y2="-11.59"/><line class="cls-36" x1="221.45" y1="101.57" x2="153.62" y2="-11.76"/><line class="cls-36" x1="223.32" y1="101.14" x2="155.49" y2="-11.9"/><line class="cls-36" x1="225.55" y1="100.64" x2="157.72" y2="-12.09"/><line class="cls-36" x1="227.67" y1="100.17" x2="159.84" y2="-12.26"/><line class="cls-36" x1="229.83" y1="99.67" x2="162" y2="-12.43"/><line class="cls-36" x1="231.75" y1="99.24" x2="163.93" y2="-12.59"/><line class="cls-36" x1="233.82" y1="98.79" x2="166" y2="-12.76"/><line class="cls-36" x1="235.73" y1="98.36" x2="167.92" y2="-12.92"/><line class="cls-36" x1="237.73" y1="97.9" x2="169.92" y2="-13.07"/><line class="cls-36" x1="239.51" y1="97.51" x2="171.71" y2="-13.21"/><line class="cls-36" x1="241.39" y1="97.07" x2="173.61" y2="-13.38"/><line class="cls-36" x1="243.44" y1="96.61" x2="175.64" y2="-13.54"/><line class="cls-36" x1="245.51" y1="96.15" x2="177.73" y2="-13.71"/><line class="cls-36" x1="247.36" y1="95.73" x2="179.59" y2="-13.86"/><line class="cls-36" x1="249.34" y1="95.29" x2="181.59" y2="-14.01"/><line class="cls-36" x1="251.19" y1="94.88" x2="183.44" y2="-14.17"/><line class="cls-36" x1="253.11" y1="94.45" x2="185.38" y2="-14.32"/><line class="cls-36" x1="254.83" y1="94.05" x2="187.11" y2="-14.46"/><line class="cls-36" x1="256.59" y1="93.67" x2="188.88" y2="-14.61"/></g><line class="cls-37" x1="31.62" y1="40.9" x2="7.62" y2="83.38"/><path class="cls-34" d="M10.55,78.19q9.89-17.43,19.71-34.87"/><line class="cls-37" x1="28.7" y1="34.43" x2="1.84" y2="83.29"/><line class="cls-37" x1="7.62" y1="83.38" x2="1.84" y2="83.29"/><line class="cls-37" x1="61.64" y1="107.63" x2="28.7" y2="34.43"/><line class="cls-37" x1="183.28" y1="80.27" x2="61.64" y2="107.63"/><line class="cls-37" x1="148.53" y1="24.71" x2="183.28" y2="80.27"/><line class="cls-37" x1="28.7" y1="34.43" x2="148.53" y2="24.71"/></g><g id="окно_чердак" data-name="окно чердак"><polygon class="cls-17" points="30.5 76 30.5 59.69 38.37 62.34 38.37 79.22 30.5 76"/><path class="cls-18" d="M31.07,60.46,35,61.78l2.81.94V78.39l-3.74-1.53-3-1.23V60.46M30,58.89V76.37l9,3.7V61.93Z"/><line class="cls-38" x1="34.44" y1="60.9" x2="34.44" y2="77.52"/><line class="cls-38" x1="30.34" y1="66.91" x2="38.5" y2="70.08"/></g></g></g></svg>