<svg id="Слой_1" data-name="Слой 1" xmlns="http://www.w3.org/2000/svg" xmlns:xlink="http://www.w3.org/1999/xlink" viewBox="0 0 400 400"><defs><style>.cls-1,.cls-2,.cls-27{fill:none;}.cls-2{stroke:#1d1d1b;stroke-width:0.3px;}.cls-3{fill:#8e6940;}.cls-4{fill:#ca9e67;}.cls-5{fill:#dfce88;}.cls-6{fill:url(#Hatching);}.cls-7{fill:#494949;}.cls-10,.cls-15,.cls-16,.cls-7{opacity:0.17;}.cls-10,.cls-15,.cls-16,.cls-17,.cls-18,.cls-23,.cls-7{isolation:isolate;}.cls-8{fill:#8e8147;}.cls-9{fill:url(#Hatching_Double);}.cls-10{fill:#4c4c4b;}.cls-11{fill:#a0935f;}.cls-12{fill:#936037;}.cls-13{fill:#aa693c;}.cls-14{fill:#b77142;}.cls-15{fill:#545454;}.cls-16,.cls-18,.cls-19{fill:#5b5b5b;}.cls-17{fill:#878787;}.cls-17,.cls-18{opacity:0.14;}.cls-20{fill:#dadada;}.cls-21{fill:url(#Crosses);}.cls-22{fill:#7c5732;}.cls-23{fill:#775431;opacity:0.6;}.cls-24{fill:#7a5735;}.cls-25{fill:#916a40;}.cls-26{fill:#b17f4a;}.cls-27{stroke:#2e6fd8;stroke-linecap:round;stroke-linejoin:round;stroke-width:3.48px;}.cls-28{fill:#2e6fd8;}</style><pattern id="Hatching" data-name="Hatching" width="72" height="72" patternTransform="matrix(1, 0, 0, -1, 0, 400)" patternUnits="userSpaceOnUse" viewBox="0 0 72 72"><rect class="cls-1" width="72" height="72"/><rect class="cls-1" width="72" height="72"/><line class="cls-2" x1="67.96" y1="-0.85" x2="69.08" y2="2.11"/><line class="cls-2" x1="63.13" y1="-0.98" x2="62.5" y2="2.29"/><line class="cls-2" x1="47.91" y1="-1.84" x2="48.03" y2="1.16"/><line class="cls-2" x1="32.21" y1="-0.24" x2="30.79" y2="1.81"/><line class="cls-2" x1="15.95" y1="-0.38" x2="17.27" y2="1.58"/><line class="cls-2" x1="4.89" y1="-1.71" x2="3.22" y2="0.61"/><line class="cls-2" x1="55.47" y1="-2.02" x2="57.47" y2="0.98"/><line class="cls-2" x1="74.75" y1="48" x2="71.75" y2="48"/><line class="cls-2" x1="73.75" y1="32.25" x2="71.75" y2="30.75"/><line class="cls-2" x1="5.75" y1="61.25" x2="3" y2="59.25"/><line class="cls-2" x1="4.25" y1="5" x2="2" y2="3.25"/><line class="cls-2" x1="73.25" y1="65" x2="70" y2="64.25"/><line class="cls-2" x1="72" y1="53.25" x2="69.5" y2="51.5"/><line class="cls-2" x1="74.75" y1="48" x2="71.75" y2="48"/><line class="cls-2" x1="71.5" y1="40.5" x2="68.75" y2="42.25"/><line class="cls-2" x1="73.75" y1="32.25" x2="71.75" y2="30.75"/><line class="cls-2" x1="71.25" y1="20.25" x2="68.5" y2="22.5"/><line class="cls-2" x1="73.25" y1="9.25" x2="69" y2="10"/><line class="cls-2" x1="63.5" y1="11" x2="61.25" y2="9.25"/><line class="cls-2" x1="71.75" y1="27" x2="68.75" y2="27"/><line class="cls-2" x1="58" y1="54.5" x2="56.11" y2="57.32"/><line class="cls-2" x1="28" y1="56" x2="26.35" y2="58.56"/><line class="cls-2" x1="43.04" y1="60.44" x2="44.89" y2="63.12"/><line class="cls-2" x1="67.96" y1="-0.85" x2="69.08" y2="2.11"/><line class="cls-2" x1="63.13" y1="-0.98" x2="62.5" y2="2.29"/><line class="cls-2" x1="57" y1="24" x2="55.11" y2="26.82"/><line class="cls-2" x1="48.65" y1="52.44" x2="47" y2="55"/><line class="cls-2" x1="47.91" y1="-1.84" x2="48.03" y2="1.16"/><line class="cls-2" x1="40.54" y1="1.69" x2="42.39" y2="4.37"/><line class="cls-2" x1="32.21" y1="-0.24" x2="30.79" y2="1.81"/><line class="cls-2" x1="50.32" y1="31.21" x2="52.67" y2="33.87"/><line class="cls-2" x1="15.95" y1="-0.38" x2="17.27" y2="1.58"/><line class="cls-2" x1="9.25" y1="1.13" x2="10.16" y2="5.35"/><line class="cls-2" x1="4.89" y1="-1.71" x2="3.22" y2="0.61"/><line class="cls-2" x1="27.04" y1="1.96" x2="27.16" y2="4.95"/><line class="cls-2" x1="7.25" y1="66.75" x2="10.75" y2="65.25"/><line class="cls-2" x1="4.5" y1="51.25" x2="4.75" y2="54.5"/><line class="cls-2" x1="8" y1="28.25" x2="9.5" y2="24.5"/><line class="cls-2" x1="5.25" y1="33.75" x2="7.5" y2="37.5"/><line class="cls-2" x1="29.25" y1="67.5" x2="27" y2="65"/><line class="cls-2" x1="33.5" y1="67.5" x2="36.75" y2="64.75"/><line class="cls-2" x1="50.25" y1="67.5" x2="53.5" y2="65.5"/><line class="cls-2" x1="52.5" y1="61.5" x2="50.5" y2="58.25"/><line class="cls-2" x1="59.5" y1="62.75" x2="64.5" y2="65"/><line class="cls-2" x1="67" y1="59.25" x2="64.5" y2="57.5"/><line class="cls-2" x1="18.75" y1="67.25" x2="18.75" y2="64.25"/><line class="cls-2" x1="15.75" y1="62.25" x2="12.5" y2="61.75"/><line class="cls-2" x1="20" y1="57.75" x2="20.5" y2="54.5"/><line class="cls-2" x1="21" y1="62.25" x2="24.5" y2="63"/><line class="cls-2" x1="9.25" y1="50.5" x2="12" y2="52.5"/><line class="cls-2" x1="7.5" y1="8" x2="7.75" y2="12"/><line class="cls-2" x1="7.25" y1="16.25" x2="9.5" y2="18.75"/><line class="cls-2" x1="21.25" y1="6.25" x2="18.75" y2="9.75"/><line class="cls-2" x1="29.75" y1="43.5" x2="27.25" y2="41.75"/><line class="cls-2" x1="57.75" y1="38.25" x2="55" y2="39.75"/><line class="cls-2" x1="26.75" y1="32" x2="23" y2="32.75"/><line class="cls-2" x1="31.5" y1="22.5" x2="29.5" y2="21"/><line class="cls-2" x1="29" y1="10.5" x2="26.25" y2="12.75"/><line class="cls-2" x1="32.25" y1="6.25" x2="30.25" y2="7.5"/><line class="cls-2" x1="29.5" y1="17.25" x2="26.5" y2="17.25"/><line class="cls-2" x1="39.75" y1="53" x2="37.25" y2="51.25"/><line class="cls-2" x1="42.5" y1="47.75" x2="39.5" y2="47.75"/><line class="cls-2" x1="39.25" y1="40.25" x2="36.5" y2="42"/><line class="cls-2" x1="38.5" y1="29.5" x2="37.75" y2="27"/><line class="cls-2" x1="39" y1="20" x2="36.25" y2="22.25"/><line class="cls-2" x1="39.5" y1="12" x2="37.5" y2="13.25"/><line class="cls-2" x1="62.97" y1="27.48" x2="59.97" y2="27.48"/><line class="cls-2" x1="22.25" y1="29" x2="24.75" y2="27.25"/><line class="cls-2" x1="27" y1="51.5" x2="30" y2="51.5"/><line class="cls-2" x1="14.75" y1="37.25" x2="17.25" y2="35.5"/><line class="cls-2" x1="12" y1="32" x2="15" y2="32"/><line class="cls-2" x1="15.25" y1="24.5" x2="18" y2="26.25"/><line class="cls-2" x1="47.25" y1="39" x2="49.63" y2="40.56"/><line class="cls-2" x1="47.59" y1="46.53" x2="49.97" y2="44.71"/><line class="cls-2" x1="54.72" y1="50.52" x2="54.5" y2="47.5"/><line class="cls-2" x1="45.34" y1="6.44" x2="48.38" y2="6.31"/><line class="cls-2" x1="46.34" y1="12.28" x2="48.72" y2="10.46"/><line class="cls-2" x1="53.47" y1="16.27" x2="54.6" y2="13.21"/><line class="cls-2" x1="48.25" y1="28.5" x2="45.75" y2="26.75"/><line class="cls-2" x1="48" y1="21" x2="44.75" y2="22"/><line class="cls-2" x1="57" y1="5.5" x2="54.25" y2="7.25"/><line class="cls-2" x1="64.5" y1="31" x2="61.75" y2="32.75"/><line class="cls-2" x1="62.25" y1="20" x2="60.25" y2="18.5"/><line class="cls-2" x1="19.59" y1="42.44" x2="22.63" y2="42.31"/><line class="cls-2" x1="20.59" y1="48.28" x2="22.97" y2="46.46"/><line class="cls-2" x1="57.75" y1="43.5" x2="60.47" y2="42.96"/><line class="cls-2" x1="15" y1="16.25" x2="15.5" y2="13"/><line class="cls-2" x1="17" y1="18.25" x2="20.5" y2="19"/><line class="cls-2" x1="32.75" y1="59.25" x2="36.75" y2="58.5"/><line class="cls-2" x1="33.47" y1="38.48" x2="33.97" y2="34.98"/><line class="cls-2" x1="64.5" y1="49" x2="62" y2="50.25"/><line class="cls-2" x1="10" y1="58.5" x2="13.25" y2="55.75"/><line class="cls-2" x1="4.75" y1="42.5" x2="2.25" y2="40.75"/><line class="cls-2" x1="15.75" y1="48" x2="13.75" y2="46.5"/><line class="cls-2" x1="41.29" y1="67.19" x2="43.14" y2="69.87"/><line class="cls-2" x1="64.54" y1="36.94" x2="66.39" y2="39.62"/><line class="cls-2" x1="33.79" y1="45.69" x2="34.5" y2="48.5"/><line class="cls-2" x1="20.29" y1="13.19" x2="21" y2="16"/><line class="cls-2" x1="31.75" y1="29.25" x2="29.75" y2="27.75"/><line class="cls-2" x1="2.75" y1="48" x2="-0.25" y2="48"/><line class="cls-2" x1="1.75" y1="32.25" x2="-0.25" y2="30.75"/><line class="cls-2" x1="67.96" y1="71.15" x2="69.08" y2="74.11"/><line class="cls-2" x1="63.13" y1="71.02" x2="62.5" y2="74.29"/><line class="cls-2" x1="47.91" y1="70.16" x2="48.03" y2="73.16"/><line class="cls-2" x1="32.21" y1="71.76" x2="30.79" y2="73.81"/><line class="cls-2" x1="15.95" y1="71.62" x2="17.27" y2="73.58"/><line class="cls-2" x1="4.89" y1="70.29" x2="3.22" y2="72.61"/><line class="cls-2" x1="5.25" y1="20" x2="1.5" y2="20.75"/><line class="cls-2" x1="68.37" y1="14.66" x2="66.47" y2="17.48"/><line class="cls-2" x1="23.97" y1="35.98" x2="24.66" y2="38.77"/><line class="cls-2" x1="44.75" y1="35" x2="42.75" y2="33.5"/><line class="cls-2" x1="55.47" y1="69.98" x2="57.47" y2="72.98"/><line class="cls-2" x1="55.47" y1="-2.02" x2="57.47" y2="0.98"/><line class="cls-2" x1="1.25" y1="65" x2="-2" y2="64.25"/><line class="cls-2" y1="53.25" x2="-2.5" y2="51.5"/><line class="cls-2" x1="2.75" y1="48" x2="-0.25" y2="48"/><line class="cls-2" x1="1.75" y1="32.25" x2="-0.25" y2="30.75"/><line class="cls-2" x1="1.25" y1="9.25" x2="-3" y2="10"/><line class="cls-2" x1="67.96" y1="71.15" x2="69.08" y2="74.11"/><line class="cls-2" x1="63.13" y1="71.02" x2="62.5" y2="74.29"/><line class="cls-2" x1="47.91" y1="70.16" x2="48.03" y2="73.16"/><line class="cls-2" x1="32.21" y1="71.76" x2="30.79" y2="73.81"/><line class="cls-2" x1="15.95" y1="71.62" x2="17.27" y2="73.58"/><line class="cls-2" x1="4.89" y1="70.29" x2="3.22" y2="72.61"/><line class="cls-2" x1="55.47" y1="69.98" x2="57.47" y2="72.98"/></pattern><pattern id="Hatching_Double" data-name="Hatching Double" width="72" height="72" patternTransform="matrix(1, 0, 0, -1, 0, 400)" patternUnits="userSpaceOnUse" viewBox="0 0 72 72"><rect class="cls-1" width="72" height="72"/><rect class="cls-1" width="72" height="72"/><line class="cls-2" x1="63.7" y1="-4.7" x2="67.18" y2="1.38"/><line class="cls-2" x1="65.44" y1="2.37" x2="61.96" y2="-3.7"/><line class="cls-2" x1="49" y1="-5.5" x2="46.62" y2="1.08"/><line class="cls-2" x1="44.74" y1="0.4" x2="47.12" y2="-6.18"/><line class="cls-2" x1="36.43" y1="-3.84" x2="38.15" y2="2.95"/><line class="cls-2" x1="36.21" y1="3.44" x2="34.49" y2="-3.35"/><line class="cls-2" x1="14.87" y1="-3.31" x2="16.78" y2="3.42"/><line class="cls-2" x1="14.85" y1="3.97" x2="12.95" y2="-2.77"/><line class="cls-2" x1="8.79" y1="-2.93" x2="6.77" y2="3.78"/><line class="cls-2" x1="4.85" y1="3.2" x2="6.87" y2="-3.5"/><line class="cls-2" x1="51.02" y1="2.71" x2="55.45" y2="-2.71"/><line class="cls-2" x1="57" y1="-1.44" x2="52.57" y2="3.97"/><line class="cls-2" x1="71.73" y1="45.7" x2="78.25" y2="48.25"/><line class="cls-2" x1="-0.27" y1="45.7" x2="6.25" y2="48.25"/><line class="cls-2" x1="4.19" y1="31.85" x2="1.63" y2="25.34"/><line class="cls-2" x1="3.49" y1="24.61" x2="6.05" y2="31.12"/><line class="cls-2" x1="69.21" y1="66.34" x2="75.38" y2="63.02"/><line class="cls-2" x1="76.32" y1="64.78" x2="70.16" y2="68.1"/><line class="cls-2" x1="69.26" y1="51.91" x2="74.56" y2="56.48"/><line class="cls-2" x1="73.25" y1="58" x2="67.95" y2="53.42"/><line class="cls-2" x1="71.73" y1="45.7" x2="78.25" y2="48.25"/><line class="cls-2" x1="77.52" y1="50.11" x2="71" y2="47.56"/><line class="cls-2" x1="68.93" y1="37.09" x2="75.75" y2="35.55"/><line class="cls-2" x1="76.2" y1="37.5" x2="69.37" y2="39.04"/><line class="cls-2" x1="68.96" y1="15.72" x2="75.75" y2="14"/><line class="cls-2" x1="76.24" y1="15.94" x2="69.46" y2="17.66"/><line class="cls-2" x1="70" y1="5.75" x2="76.65" y2="7.94"/><line class="cls-2" x1="76.02" y1="9.84" x2="69.37" y2="7.65"/><line class="cls-2" x1="63.7" y1="67.3" x2="67.18" y2="73.38"/><line class="cls-2" x1="65.44" y1="74.37" x2="61.96" y2="68.3"/><line class="cls-2" x1="49" y1="66.5" x2="46.62" y2="73.08"/><line class="cls-2" x1="44.74" y1="72.4" x2="47.12" y2="65.82"/><line class="cls-2" x1="36.43" y1="68.16" x2="38.15" y2="74.95"/><line class="cls-2" x1="36.21" y1="75.44" x2="34.49" y2="68.65"/><line class="cls-2" x1="30.79" y1="68.32" x2="24.34" y2="71.05"/><line class="cls-2" x1="23.56" y1="69.21" x2="30" y2="66.47"/><line class="cls-2" x1="14.87" y1="68.69" x2="16.78" y2="75.42"/><line class="cls-2" x1="14.85" y1="75.97" x2="12.95" y2="69.23"/><line class="cls-2" x1="8.79" y1="69.07" x2="6.77" y2="75.78"/><line class="cls-2" x1="4.85" y1="75.2" x2="6.87" y2="68.5"/><line class="cls-2" x1="65.44" y1="2.37" x2="61.96" y2="-3.7"/><line class="cls-2" x1="63.7" y1="-4.7" x2="67.18" y2="1.38"/><line class="cls-2" x1="51.02" y1="2.71" x2="55.45" y2="-2.71"/><line class="cls-2" x1="57" y1="-1.44" x2="52.57" y2="3.97"/><line class="cls-2" x1="44.74" y1="0.4" x2="47.12" y2="-6.18"/><line class="cls-2" x1="49" y1="-5.5" x2="46.62" y2="1.08"/><line class="cls-2" x1="36.21" y1="3.44" x2="34.49" y2="-3.35"/><line class="cls-2" x1="36.43" y1="-3.84" x2="38.15" y2="2.95"/><line class="cls-2" x1="14.85" y1="3.97" x2="12.95" y2="-2.77"/><line class="cls-2" x1="14.87" y1="-3.31" x2="16.78" y2="3.42"/><line class="cls-2" x1="4.85" y1="3.2" x2="6.87" y2="-3.5"/><line class="cls-2" x1="8.79" y1="-2.93" x2="6.77" y2="3.78"/><line class="cls-2" x1="18.44" y1="24.87" x2="14.96" y2="18.8"/><line class="cls-2" x1="16.7" y1="17.8" x2="20.18" y2="23.88"/><line class="cls-2" x1="48.5" y1="57.06" x2="44.07" y2="62.47"/><line class="cls-2" x1="42.52" y1="61.21" x2="46.95" y2="55.79"/><line class="cls-2" x1="36.24" y1="58.9" x2="38.62" y2="52.32"/><line class="cls-2" x1="40.5" y1="53" x2="38.12" y2="59.58"/><line class="cls-2" x1="62.79" y1="10.82" x2="56.34" y2="13.55"/><line class="cls-2" x1="55.56" y1="11.71" x2="62" y2="8.97"/><line class="cls-2" x1="62.98" y1="28.78" x2="61.08" y2="22.04"/><line class="cls-2" x1="63" y1="21.5" x2="64.9" y2="28.23"/><line class="cls-2" x1="52.57" y1="34.13" x2="54.58" y2="27.42"/><line class="cls-2" x1="56.5" y1="28" x2="54.48" y2="34.7"/><line class="cls-2" x1="33.02" y1="39.42" x2="36.5" y2="45.5"/><line class="cls-2" x1="34.76" y1="46.49" x2="31.29" y2="40.42"/><line class="cls-2" x1="18.52" y1="46.21" x2="22.95" y2="40.79"/><line class="cls-2" x1="24.5" y1="42.06" x2="20.07" y2="47.47"/><line class="cls-2" x1="10.74" y1="44.4" x2="13.12" y2="37.82"/><line class="cls-2" x1="15" y1="38.5" x2="12.62" y2="45.08"/><line class="cls-2" x1="62.71" y1="46.44" x2="60.99" y2="39.65"/><line class="cls-2" x1="62.93" y1="39.16" x2="64.65" y2="45.95"/><line class="cls-2" x1="46.89" y1="42.81" x2="53.34" y2="40.07"/><line class="cls-2" x1="54.12" y1="41.92" x2="47.67" y2="44.65"/><line class="cls-2" x1="30.07" y1="12.63" x2="32.08" y2="5.92"/><line class="cls-2" x1="34" y1="6.5" x2="31.98" y2="13.2"/><line class="cls-2" x1="48.97" y1="11.55" x2="42.04" y2="10.58"/><line class="cls-2" x1="42.32" y1="8.6" x2="49.25" y2="9.57"/><line class="cls-2" x1="49.11" y1="23.77" x2="47.55" y2="16.95"/><line class="cls-2" x1="49.5" y1="16.5" x2="51.06" y2="23.32"/><line class="cls-2" x1="30.22" y1="26.7" x2="26.48" y2="20.78"/><line class="cls-2" x1="28.17" y1="19.71" x2="31.91" y2="25.63"/><line class="cls-2" x1="31.89" y1="35.3" x2="25.47" y2="32.5"/><line class="cls-2" x1="26.28" y1="30.66" x2="32.69" y2="33.46"/><line class="cls-2" x1="18.37" y1="29.69" x2="20.28" y2="36.42"/><line class="cls-2" x1="18.35" y1="36.97" x2="16.45" y2="30.23"/><line class="cls-2" x1="43.92" y1="33.08" x2="41.9" y2="39.78"/><line class="cls-2" x1="39.98" y1="39.2" x2="42" y2="32.5"/><line class="cls-2" x1="30.2" y1="56.24" x2="24.61" y2="52.03"/><line class="cls-2" x1="25.82" y1="50.43" x2="31.41" y2="54.64"/><line class="cls-2" x1="20.94" y1="56.06" x2="18.99" y2="62.78"/><line class="cls-2" x1="17.07" y1="62.23" x2="19.02" y2="55.5"/><line class="cls-2" x1="10.4" y1="62.58" x2="9.99" y2="55.59"/><line class="cls-2" x1="11.99" y1="55.47" x2="12.39" y2="62.46"/><line class="cls-2" x1="23.25" y1="14.72" x2="19" y2="9.16"/><line class="cls-2" x1="20.58" y1="7.95" x2="24.84" y2="13.51"/><line class="cls-2" x1="15.46" y1="10.31" x2="10.61" y2="15.36"/><line class="cls-2" x1="9.17" y1="13.97" x2="14.01" y2="8.92"/><line class="cls-2" x1="55.5" y1="47.5" x2="59.9" y2="52.94"/><line class="cls-2" x1="58.35" y1="54.2" x2="53.95" y2="48.76"/><line class="cls-2" x1="58.53" y1="57.67" x2="59.31" y2="64.62"/><line class="cls-2" x1="57.33" y1="64.85" x2="56.54" y2="57.89"/><line class="cls-2" x1="35.56" y1="22.71" x2="42" y2="19.97"/><line class="cls-2" x1="42.79" y1="21.82" x2="36.34" y2="24.55"/><line class="cls-2" x1="51.02" y1="74.71" x2="55.45" y2="69.29"/><line class="cls-2" x1="57" y1="70.56" x2="52.57" y2="75.97"/><line class="cls-2" x1="-2.79" y1="66.34" x2="3.38" y2="63.02"/><line class="cls-2" x1="4.32" y1="64.78" x2="-1.84" y2="68.1"/><line class="cls-2" x1="-2.74" y1="51.91" x2="2.56" y2="56.48"/><line class="cls-2" x1="1.25" y1="58" x2="-4.05" y2="53.42"/><line class="cls-2" x1="-0.27" y1="45.7" x2="6.25" y2="48.25"/><line class="cls-2" x1="5.52" y1="50.11" x2="-1" y2="47.56"/><line class="cls-2" x1="-3.07" y1="37.09" x2="3.75" y2="35.55"/><line class="cls-2" x1="4.2" y1="37.5" x2="-2.63" y2="39.04"/><line class="cls-2" x1="-3.04" y1="15.72" x2="3.75" y2="14"/><line class="cls-2" x1="4.24" y1="15.94" x2="-2.54" y2="17.66"/><line class="cls-2" x1="-2" y1="5.75" x2="4.65" y2="7.94"/><line class="cls-2" x1="4.02" y1="9.84" x2="-2.63" y2="7.65"/><line class="cls-2" x1="65.44" y1="74.37" x2="61.96" y2="68.3"/><line class="cls-2" x1="63.7" y1="67.3" x2="67.18" y2="73.38"/><line class="cls-2" x1="51.02" y1="74.71" x2="55.45" y2="69.29"/><line class="cls-2" x1="57" y1="70.56" x2="52.57" y2="75.97"/><line class="cls-2" x1="44.74" y1="72.4" x2="47.12" y2="65.82"/><line class="cls-2" x1="49" y1="66.5" x2="46.62" y2="73.08"/><line class="cls-2" x1="36.21" y1="75.44" x2="34.49" y2="68.65"/><line class="cls-2" x1="36.43" y1="68.16" x2="38.15" y2="74.95"/><line class="cls-2" x1="14.85" y1="75.97" x2="12.95" y2="69.23"/><line class="cls-2" x1="14.87" y1="68.69" x2="16.78" y2="75.42"/><line class="cls-2" x1="4.85" y1="75.2" x2="6.87" y2="68.5"/><line class="cls-2" x1="8.79" y1="69.07" x2="6.77" y2="75.78"/></pattern><pattern id="Crosses" data-name="Crosses" width="57.6" height="57.6" patternTransform="matrix(1, 0, 0, -1, 0, 400)" patternUnits="userSpaceOnUse" viewBox="0 0 57.6 57.6"><rect class="cls-1" width="57.6" height="57.6"/><rect class="cls-1" width="57.6" height="57.6"/><line class="cls-2" x1="52.5" y1="54" x2="55.5" y2="54"/><line class="cls-2" x1="38.1" y1="54" x2="41.1" y2="54"/><line class="cls-2" x1="23.7" y1="54" x2="26.7" y2="54"/><line class="cls-2" x1="9.3" y1="54" x2="12.3" y2="54"/><line class="cls-2" x1="45.3" y1="46.8" x2="48.3" y2="46.8"/><line class="cls-2" x1="30.9" y1="46.8" x2="33.9" y2="46.8"/><line class="cls-2" x1="16.5" y1="46.8" x2="19.5" y2="46.8"/><line class="cls-2" x1="2.1" y1="46.8" x2="5.1" y2="46.8"/><line class="cls-2" x1="52.5" y1="39.6" x2="55.5" y2="39.6"/><line class="cls-2" x1="38.1" y1="39.6" x2="41.1" y2="39.6"/><line class="cls-2" x1="23.7" y1="39.6" x2="26.7" y2="39.6"/><line class="cls-2" x1="9.3" y1="39.6" x2="12.3" y2="39.6"/><line class="cls-2" x1="45.3" y1="32.4" x2="48.3" y2="32.4"/><line class="cls-2" x1="30.9" y1="32.4" x2="33.9" y2="32.4"/><line class="cls-2" x1="16.5" y1="32.4" x2="19.5" y2="32.4"/><line class="cls-2" x1="2.1" y1="32.4" x2="5.1" y2="32.4"/><line class="cls-2" x1="52.5" y1="25.2" x2="55.5" y2="25.2"/><line class="cls-2" x1="38.1" y1="25.2" x2="41.1" y2="25.2"/><line class="cls-2" x1="23.7" y1="25.2" x2="26.7" y2="25.2"/><line class="cls-2" x1="9.3" y1="25.2" x2="12.3" y2="25.2"/><line class="cls-2" x1="45.3" y1="18" x2="48.3" y2="18"/><line class="cls-2" x1="30.9" y1="18" x2="33.9" y2="18"/><line class="cls-2" x1="16.5" y1="18" x2="19.5" y2="18"/><line class="cls-2" x1="2.1" y1="18" x2="5.1" y2="18"/><line class="cls-2" x1="52.5" y1="10.8" x2="55.5" y2="10.8"/><line class="cls-2" x1="38.1" y1="10.8" x2="41.1" y2="10.8"/><line class="cls-2" x1="23.7" y1="10.8" x2="26.7" y2="10.8"/><line class="cls-2" x1="9.3" y1="10.8" x2="12.3" y2="10.8"/><line class="cls-2" x1="45.3" y1="3.6" x2="48.3" y2="3.6"/><line class="cls-2" x1="30.9" y1="3.6" x2="33.9" y2="3.6"/><line class="cls-2" x1="16.5" y1="3.6" x2="19.5" y2="3.6"/><line class="cls-2" x1="2.1" y1="3.6" x2="5.1" y2="3.6"/><line class="cls-2" x1="54" y1="55.5" x2="54" y2="52.5"/><line class="cls-2" x1="39.6" y1="55.5" x2="39.6" y2="52.5"/><line class="cls-2" x1="25.2" y1="55.5" x2="25.2" y2="52.5"/><line class="cls-2" x1="10.8" y1="55.5" x2="10.8" y2="52.5"/><line class="cls-2" x1="46.8" y1="48.3" x2="46.8" y2="45.3"/><line class="cls-2" x1="32.4" y1="48.3" x2="32.4" y2="45.3"/><line class="cls-2" x1="18" y1="48.3" x2="18" y2="45.3"/><line class="cls-2" x1="3.6" y1="48.3" x2="3.6" y2="45.3"/><line class="cls-2" x1="54" y1="41.1" x2="54" y2="38.1"/><line class="cls-2" x1="39.6" y1="41.1" x2="39.6" y2="38.1"/><line class="cls-2" x1="25.2" y1="41.1" x2="25.2" y2="38.1"/><line class="cls-2" x1="10.8" y1="41.1" x2="10.8" y2="38.1"/><line class="cls-2" x1="46.8" y1="33.9" x2="46.8" y2="30.9"/><line class="cls-2" x1="32.4" y1="33.9" x2="32.4" y2="30.9"/><line class="cls-2" x1="18" y1="33.9" x2="18" y2="30.9"/><line class="cls-2" x1="3.6" y1="33.9" x2="3.6" y2="30.9"/><line class="cls-2" x1="54" y1="26.7" x2="54" y2="23.7"/><line class="cls-2" x1="39.6" y1="26.7" x2="39.6" y2="23.7"/><line class="cls-2" x1="25.2" y1="26.7" x2="25.2" y2="23.7"/><line class="cls-2" x1="10.8" y1="26.7" x2="10.8" y2="23.7"/><line class="cls-2" x1="46.8" y1="19.5" x2="46.8" y2="16.5"/><line class="cls-2" x1="32.4" y1="19.5" x2="32.4" y2="16.5"/><line class="cls-2" x1="18" y1="19.5" x2="18" y2="16.5"/><line class="cls-2" x1="3.6" y1="19.5" x2="3.6" y2="16.5"/><line class="cls-2" x1="54" y1="12.3" x2="54" y2="9.3"/><line class="cls-2" x1="39.6" y1="12.3" x2="39.6" y2="9.3"/><line class="cls-2" x1="25.2" y1="12.3" x2="25.2" y2="9.3"/><line class="cls-2" x1="10.8" y1="12.3" x2="10.8" y2="9.3"/><line class="cls-2" x1="46.8" y1="5.1" x2="46.8" y2="2.1"/><line class="cls-2" x1="32.4" y1="5.1" x2="32.4" y2="2.1"/><line class="cls-2" x1="18" y1="5.1" x2="18" y2="2.1"/><line class="cls-2" x1="3.6" y1="5.1" x2="3.6" y2="2.1"/></pattern></defs><path class="cls-3" d="M391,324.36l-310.94,61L14.21,128.77l252.64-6.94Z"/><path class="cls-4" d="M392.38,314.39l-310.95,61Q47.83,244.33,14.21,113.27l254-1.42Z"/><path class="cls-5" d="M349,223.44a297.57,297.57,0,0,0-78.61-10.08c-49,.44-56,13.15-101.93,9.39-24.17-2-37.19-6.72-65.91-4.69a225.11,225.11,0,0,0-44.77,7.81L19.11,78.2l250.4,10.18Z"/><path class="cls-6" d="M349,223.44a297.57,297.57,0,0,0-78.61-10.08c-49,.44-56,13.15-101.93,9.39-24.17-2-37.19-6.72-65.91-4.69a225.11,225.11,0,0,0-44.77,7.81L19.11,78.2l250.4,10.18Z"/><path class="cls-7" d="M54.61,255.88,18.49,117l.34-36.51Q38.2,154.31,57.55,228.16c-2,18.21-2.63,24.91-2.54,25.46a4.36,4.36,0,0,1,.08,1.44,3.38,3.38,0,0,0,0,.45v.31C55.09,255.88,54.83,255.91,54.61,255.88Z"/><path class="cls-7" d="M54.61,255.29,18.49,116.4l.34-36.52Q38.2,153.71,57.55,227.56c-2,18.21-2.63,24.91-2.54,25.46a4.58,4.58,0,0,1,.08,1.43,3.23,3.23,0,0,0,0,.44v.33C55.09,255.29,54.83,255.33,54.61,255.29Z"/><path class="cls-7" d="M54.61,254.77,18.49,115.88l.34-36.51Q38.2,153.21,57.55,227.05c-2,18.22-2.63,24.91-2.54,25.48a4.3,4.3,0,0,1,.08,1.43,3.23,3.23,0,0,0,0,.44v.31A1,1,0,0,1,54.61,254.77Z"/><path class="cls-7" d="M54.61,254.23,18.49,115.34l.34-36.52L57.55,226.5c-2,18.25-2.67,24.91-2.58,25.45a4.9,4.9,0,0,1,.08,1.43,1.7,1.7,0,0,0,0,.45v.32C55.05,254.22,54.83,254.26,54.61,254.23Z"/><path class="cls-7" d="M54.61,254,18.49,115.08l.34-36.52Q38.2,152.39,57.55,226.24c-2,18.21-2.63,24.91-2.54,25.46a4.36,4.36,0,0,1,.08,1.44,3.09,3.09,0,0,0,0,.43v.33C55.09,254,54.83,254,54.61,254Z"/><path class="cls-8" d="M55,253.61Q36.91,184.16,18.83,114.72l.31-36.51,38.7,147.68Q56.43,239.74,55,253.61Z"/><path class="cls-9" d="M55,253.61Q36.91,184.16,18.83,114.72l.31-36.51,38.7,147.68Q56.43,239.74,55,253.61Z"/><path class="cls-10" d="M344.65,253.79a271.26,271.26,0,0,0-42.85-8.15,276.4,276.4,0,0,0-73.47,1.51c-19.89,3.13-24.94,6.29-42.5,6.56a267.24,267.24,0,0,1-35.76-2.13c-7.92-1.12-15-2.54-26.94-3.25-.53,0-8.53-.5-16.72-.32-20.61.44-40.11,4.81-51.49,7.82Q56.38,242,57.81,228.1c8-2.09,30.7-7.66,53-8.19,8.81-.22,17.19.31,17.19.31,10.1.62,16.45,1.81,23.27,2.79a311.57,311.57,0,0,0,33,2.66c7.32.16,9.64-.71,44.18-5.88,13.75-2.07,20.62-3.1,21.51-3.2,25.23-2.72,45.34-.39,58,1.14a304,304,0,0,1,41,7.93Q346.88,239.73,344.65,253.79Z"/><path class="cls-10" d="M344.65,253.27a282.31,282.31,0,0,0-116.3-6.66c-19.89,3.13-24.94,6.29-42.5,6.57A263.76,263.76,0,0,1,150.1,251c-7.93-1.1-15-2.55-26.95-3.24-.53,0-8.52-.49-16.72-.33-20.61.45-40.11,4.81-51.49,7.83q1.45-13.86,2.89-27.73c8-2.1,30.7-7.66,53-8.2,8.81-.22,17.19.31,17.19.31,10.1.64,16.45,1.82,23.28,2.8a311.56,311.56,0,0,0,33,2.65c7.32.17,9.65-.7,44.19-5.88,13.74-2.07,20.61-3.09,21.5-3.18,25.23-2.73,45.34-.4,58,1.14a299.42,299.42,0,0,1,41,7.92Q346.85,239.21,344.65,253.27Z"/><path class="cls-10" d="M344.65,252.77a270.11,270.11,0,0,0-42.85-8.14,275.42,275.42,0,0,0-73.45,1.48c-19.89,3.13-24.94,6.29-42.5,6.56a265.44,265.44,0,0,1-35.75-2.13c-7.93-1.12-15-2.55-26.95-3.26-.53,0-8.52-.48-16.72-.31-20.61.43-40.11,4.8-51.49,7.82q1.45-13.87,2.89-27.74c8-2.09,30.7-7.65,53-8.19,8.81-.21,17.19.32,17.19.32,10.1.62,16.45,1.82,23.28,2.79a317,317,0,0,0,33,2.66c7.32.15,9.65-.7,44.19-5.89,13.74-2.06,20.61-3.09,21.5-3.19,25.23-2.73,45.34-.4,58,1.14a304,304,0,0,1,41,7.92Q346.85,238.76,344.65,252.77Z"/><path class="cls-10" d="M344.65,252.34a282.49,282.49,0,0,0-116.3-6.67c-19.89,3.14-24.94,6.29-42.5,6.57a262.11,262.11,0,0,1-35.75-2.14c-7.93-1.1-15-2.54-26.95-3.25-.53,0-8.52-.48-16.72-.31-20.61.43-40.11,4.8-51.49,7.81q1.45-13.86,2.89-27.73c8-2.09,30.7-7.65,53-8.19,8.81-.22,17.19.31,17.19.31,10.1.63,16.45,1.83,23.28,2.8a314.22,314.22,0,0,0,33,2.65c7.32.16,9.65-.69,44.19-5.88,13.74-2.06,20.61-3.1,21.5-3.19a238.5,238.5,0,0,1,58,1.2,304,304,0,0,1,41,7.92Q346.85,238.28,344.65,252.34Z"/><path class="cls-10" d="M344.65,252a272.4,272.4,0,0,0-42.85-8.15,275.84,275.84,0,0,0-73.45,1.49c-19.89,3.13-24.94,6.29-42.5,6.55a263.71,263.71,0,0,1-35.75-2.13c-7.93-1.11-15-2.55-26.95-3.24-.53,0-8.52-.5-16.72-.33-20.61.45-40.11,4.8-51.49,7.83q1.45-13.87,2.89-27.73c8-2.11,30.7-7.66,53-8.21,8.81-.2,17.19.32,17.19.32,10.1.63,16.45,1.82,23.28,2.79a311.57,311.57,0,0,0,33,2.66c7.32.17,9.65-.7,44.19-5.89,13.74-2,20.61-3.08,21.5-3.18,25.23-2.72,45.34-.39,58,1.14a304,304,0,0,1,41,7.93Q346.85,237.88,344.65,252Z"/><path class="cls-11" d="M344.65,251.59a282.31,282.31,0,0,0-116.3-6.66c-19.89,3.13-24.94,6.29-42.5,6.57a263.72,263.72,0,0,1-35.75-2.14c-7.93-1.11-15-2.55-26.95-3.24-.53,0-8.52-.49-16.72-.33-20.61.44-40.11,4.81-51.49,7.82q1.45-13.87,2.89-27.74c8-2.08,30.7-7.64,53-8.18,8.81-.22,17.19.31,17.19.31,10.1.64,16.45,1.82,23.28,2.8a311.56,311.56,0,0,0,33,2.65c7.32.16,9.65-.7,44.19-5.88,13.74-2.07,20.61-3.1,21.5-3.2a239.51,239.51,0,0,1,58,1.2,304,304,0,0,1,41,7.93Q346.85,237.54,344.65,251.59Z"/><path class="cls-9" d="M344.65,251.59a282.31,282.31,0,0,0-116.3-6.66c-19.89,3.13-24.94,6.29-42.5,6.57a263.72,263.72,0,0,1-35.75-2.14c-7.93-1.11-15-2.55-26.95-3.24-.53,0-8.52-.49-16.72-.33-20.61.44-40.11,4.81-51.49,7.82q1.45-13.87,2.89-27.74c8-2.08,30.7-7.64,53-8.18,8.81-.22,17.19.31,17.19.31,10.1.64,16.45,1.82,23.28,2.8a311.56,311.56,0,0,0,33,2.65c7.32.16,9.65-.7,44.19-5.88,13.74-2.07,20.61-3.1,21.5-3.2a239.51,239.51,0,0,1,58,1.2,304,304,0,0,1,41,7.93Q346.85,237.54,344.65,251.59Z"/><path class="cls-12" d="M72.46,86.78l56.29,174.44q.3,21.43.63,42.89-25.9-86.8-51.8-173.63Z"/><path class="cls-12" d="M92,81.76l55.75,177q.13,21.38.29,42.75L95,126.11Q93.48,104,92,81.76Z"/><path class="cls-13" d="M147.74,258.75l-18.8,2.4q-28.23-87.24-56.48-174.4l19.53-5Z"/><path class="cls-14" d="M148,301.5l-18.65,2.61-.45-43.33,18.81-2Q147.88,280.13,148,301.5Z"/><path class="cls-12" d="M208.52,70.82,277,236.76q-.11,22.2-.22,44.43-32.94-87.43-66-174.81Q209.73,88.61,208.52,70.82Z"/><path class="cls-12" d="M226.91,74.87q34.23,79.83,68.5,159.69l-1.34,42.82Q264.17,191.22,234.29,105Z"/><path class="cls-13" d="M295.39,234.56l-18.4,2.2L208.83,71.59l14.37-5.46Z"/><path class="cls-14" d="M294.05,277.38l-17.28,3.76q.11-22.18.22-44.42l18.4-2.21Z"/><path class="cls-11" d="M100.8,218.2a43,43,0,0,1,10.51,0v27.62H100.8Z"/><path class="cls-9" d="M100.8,218.2a43,43,0,0,1,10.51,0v27.62H100.8Z"/><path class="cls-15" d="M87.5,169.79l8.81-9.09q8.09,26.19,16.18,52.39a3.4,3.4,0,0,1-.09.9,24.19,24.19,0,0,1-.46,2.4c-.35,1.5-.45,1.7-.65,1.78s-.46-.18-1.06-.39a4.6,4.6,0,0,0-1.61-.11c-.93,0-1.35-.6-2.47-1.33a12.25,12.25,0,0,0-3-1.4Q95.32,192.38,87.5,169.79Z"/><path class="cls-15" d="M87.08,169.79l8.78-9.09Q104,186.89,112,213.09a3.4,3.4,0,0,1-.09.9,24.19,24.19,0,0,1-.46,2.4c-.35,1.5-.45,1.7-.65,1.78s-.45-.18-1-.39a4.6,4.6,0,0,0-1.61-.11c-.93,0-1.35-.6-2.48-1.33a12.25,12.25,0,0,0-3-1.4Z"/><path class="cls-15" d="M86.72,169.79l8.79-9.07,16.17,52.38a3.4,3.4,0,0,1-.09.9,21.62,21.62,0,0,1-.46,2.4c-.33,1.5-.45,1.71-.64,1.78s-.46-.18-1-.39a4.65,4.65,0,0,0-1.62-.1c-.93,0-1.35-.6-2.48-1.34a12.25,12.25,0,0,0-3-1.4Z"/><path class="cls-15" d="M86.45,169.78q4.38-4.56,8.78-9.09,8.08,26.2,16.18,52.4a3.32,3.32,0,0,1-.09.89,21.62,21.62,0,0,1-.46,2.4c-.34,1.5-.45,1.7-.65,1.77s-.46-.18-1-.38a4.37,4.37,0,0,0-1.61-.1c-.94,0-1.36-.6-2.48-1.34a12.25,12.25,0,0,0-3-1.4Z"/><path class="cls-15" d="M86.06,169.63l8.79-9.08L111,212.93a3.4,3.4,0,0,1-.09.9,21.62,21.62,0,0,1-.46,2.4c-.34,1.5-.44,1.71-.64,1.78s-.46-.18-1-.38a4.43,4.43,0,0,0-1.62-.11c-.93,0-1.35-.59-2.47-1.33a11.92,11.92,0,0,0-3-1.41Z"/><path class="cls-15" d="M85.66,169.63l8.78-9.08,16.18,52.38a4.58,4.58,0,0,1-.09.9c-.12.81-.27,1.61-.46,2.4-.35,1.5-.45,1.71-.65,1.78s-.47-.18-1.06-.38a4.37,4.37,0,0,0-1.61-.11c-.94,0-1.35-.59-2.48-1.33a11.92,11.92,0,0,0-3-1.41Q93.49,192.22,85.66,169.63Z"/><path class="cls-15" d="M85.26,169.63l8.79-9.08,16.17,52.38a4.55,4.55,0,0,1-.07.9,24.26,24.26,0,0,1-.48,2.4c-.33,1.5-.43,1.71-.64,1.78s-.46-.18-1-.38a4.43,4.43,0,0,0-1.62-.11c-.93,0-1.35-.59-2.47-1.33a11.92,11.92,0,0,0-3-1.41Z"/><path class="cls-15" d="M84.88,169.45l8.79-9.08,16.17,52.38a3.4,3.4,0,0,1-.09.9,21.62,21.62,0,0,1-.46,2.4c-.34,1.5-.45,1.71-.64,1.78s-.46-.18-1.05-.38a4.43,4.43,0,0,0-1.62-.11c-.93,0-1.35-.59-2.48-1.33a11.92,11.92,0,0,0-3-1.41Q92.72,192,84.88,169.45Z"/><path class="cls-5" d="M84.76,169.79l7.32-9.47,19.18,57.88q-2.58-.12-5.37-.12c-1.86,0-3.49,0-5.14.12Z"/><path class="cls-6" d="M84.76,169.79l7.32-9.47,19.18,57.88q-2.58-.12-5.37-.12c-1.86,0-3.49,0-5.14.12Z"/><path class="cls-11" d="M251.12,214.31a42,42,0,0,1,10.51,0v27.56H251.12Z"/><path class="cls-9" d="M251.12,214.31a42,42,0,0,1,10.51,0v27.56H251.12Z"/><path class="cls-16" d="M227.41,164.16l13.38-7.08,24.51,54.75c-.38.31-1,.78-1.69,1.28a8.3,8.3,0,0,1-2,1.2c-1.66.46-3.54-2-4.38-2.85-1.74-1.82-5.25-3.28-13-1.58Z"/><path class="cls-16" d="M226.47,164l13.38-7.07,24.52,54.74c-.38.32-1,.78-1.71,1.3a8.64,8.64,0,0,1-2,1.2c-1.66.46-3.55-2-4.38-2.86-1.75-1.8-5.25-3.27-13-1.56Z"/><path class="cls-16" d="M225.71,163.78l13.37-7.09,24.54,54.75c-.38.32-1,.78-1.71,1.29a8.3,8.3,0,0,1-2,1.2c-1.65.45-3.54-2-4.38-2.86-1.74-1.81-5.25-3.28-13-1.57Z"/><path class="cls-16" d="M224.81,163.53l13.38-7.09,24.52,54.75c-.38.31-1,.77-1.71,1.29a8.3,8.3,0,0,1-2,1.2c-1.65.46-3.54-2-4.38-2.85-1.74-1.81-5.25-3.28-13-1.57Q233.24,186.42,224.81,163.53Z"/><path class="cls-16" d="M224,163.41l13.37-7.09,24.52,54.81c-.38.31-1,.78-1.7,1.29a8.3,8.3,0,0,1-2,1.2c-1.66.45-3.55-2-4.38-2.86-1.75-1.81-5.25-3.28-13-1.57Z"/><path class="cls-16" d="M223.2,163.11,236.58,156l24.51,54.75c-.38.31-.95.78-1.69,1.29a8.64,8.64,0,0,1-2,1.2c-1.66.45-3.54-2-4.38-2.86-1.74-1.81-5.25-3.28-13-1.57Z"/><path class="cls-5" d="M223.6,164.16l13.4-7.08,24.71,57.23c-1.74-.08-3.53-.13-5.37-.12a107.63,107.63,0,0,0-15.53,1.2Z"/><path class="cls-6" d="M223.6,164.16l13.4-7.08,24.71,57.23c-1.74-.08-3.53-.13-5.37-.12a107.63,107.63,0,0,0-15.53,1.2Z"/><path class="cls-17" d="M323.7,181.22c-16.11-2.83-41.81-6.5-67.73-6-12.19.24-21.86,1.06-21.86,1.06-20.21,1.75-29.46,5-58,4.58-35.07-.48-43.13-5.8-77.33-4.54a315.52,315.52,0,0,0-50.53,6L21.49,80.07c171.28,44.8,293.44,85.24,295.91,89.57,1.85,3.18,3.6,6.42,3.6,6.42C322,178,322.92,179.69,323.7,181.22Z"/><path class="cls-18" d="M324.39,190.82a381.8,381.8,0,0,0-72.67-6.58c-38,.23-42.27,6-79,5.15-34.59-.82-42.67-6.39-76.11-5.38a287.06,287.06,0,0,0-49.16,5.69l-26-102.64C226.76,149.14,316.38,177.81,318.2,181c0,0,1.28,2.26,3.12,5.19C322.49,188,323.55,189.58,324.39,190.82Z"/><path class="cls-18" d="M324.43,189.83a383.41,383.41,0,0,0-72.66-6.58c-38,.24-42.25,6-79,5.17C138.2,187.6,130.1,182,96.68,183a289,289,0,0,0-49.15,5.69q-13.24-52.27-26-102.58c205.21,62,294.78,90.69,296.63,93.84,0,.06,1.28,2.25,3.13,5.18C322.52,187,323.58,188.6,324.43,189.83Z"/><path class="cls-18" d="M324.38,189.09a382.4,382.4,0,0,0-72.65-6.57c-38,.24-42.24,6-78.93,5.16-34.57-.8-42.67-6.37-76.08-5.38A289,289,0,0,0,47.58,188q-13.24-52.26-26-102.55c205.18,62,294.78,90.64,296.57,93.79,0,0,1.28,2.26,3.12,5.18C322.47,186.28,323.52,187.85,324.38,189.09Z"/><path class="cls-18" d="M324.31,188.32a382.27,382.27,0,0,0-72.63-6.57c-38,.24-42.24,6-78.91,5.16-34.58-.8-42.67-6.36-76.08-5.36a288.62,288.62,0,0,0-49.12,5.7l-26-102.51c205.13,62,294.69,90.59,296.51,93.75,0,0,1.28,2.25,3.12,5.17C322.41,185.46,323.46,187,324.31,188.32Z"/><path class="cls-18" d="M324.25,187.69a380.26,380.26,0,0,0-72.6-6.57c-38,.24-42.23,6-78.9,5.16-34.57-.81-42.67-6.37-76.07-5.37a288.62,288.62,0,0,0-49.11,5.7q-13.24-52.16-26-102.46C226.71,146.1,316.27,174.72,318,177.86c0,0,1.28,2.26,3.13,5.18C322.37,184.89,323.41,186.46,324.25,187.69Z"/><path class="cls-18" d="M324.25,187a381.92,381.92,0,0,0-72.6-6.54c-38,.24-42.22,6-78.89,5.16-34.55-.8-42.67-6.36-76-5.36A290,290,0,0,0,47.61,186q-13.24-52.21-26-102.45C226.68,145.38,316.21,174,318,177.12c0,0,1.28,2.25,3.13,5.17C322.31,184.14,323.36,185.71,324.25,187Z"/><path class="cls-18" d="M324.16,186.3a382.57,382.57,0,0,0-72.59-6.55c-37.95.25-42.22,6-78.88,5.17-34.55-.8-42.67-6.36-76-5.35a288.39,288.39,0,0,0-49.1,5.7l-26-102.41c205,61.89,294.55,90.46,296.36,93.64,0,.06,1.28,2.26,3.12,5.18C322.26,183.52,323.31,185.05,324.16,186.3Z"/><path class="cls-18" d="M324.1,185.56A382.45,382.45,0,0,0,251.53,179c-37.95.26-42.21,6-78.86,5.18-34.55-.81-42.62-6.35-76-5.34a288.26,288.26,0,0,0-49.09,5.69q-13.24-52.14-26-102.36c205,61.86,294.49,90.42,296.3,93.57,0,0,1.28,2.25,3.12,5.17C322.2,182.75,323.25,184.32,324.1,185.56Z"/><path class="cls-18" d="M324.07,185.15a380.79,380.79,0,0,0-72.57-6.53c-37.94.24-42.21,6-78.86,5.16-34.54-.79-42.6-6.35-76-5.34a288.27,288.27,0,0,0-49.09,5.7Q34.34,132,21.61,81.8c205,61.83,294.47,90.38,296.28,93.53,0,0,1.27,2.26,3.12,5.17C322.17,182.32,323.22,183.91,324.07,185.15Z"/><path class="cls-18" d="M324,184.57A381.15,381.15,0,0,0,251.47,178c-37.93.25-42.21,6-78.85,5.18-34.53-.81-42.6-6.36-76-5.35a289.3,289.3,0,0,0-49.08,5.71Q34.32,131.45,21.61,81.26c205,61.81,294.42,90.36,296.23,93.5,0,0,1.28,2.26,3.12,5.17C322.12,181.78,323.13,183.34,324,184.57Z"/><path class="cls-18" d="M324,184a382.07,382.07,0,0,0-72.54-6.49c-37.93.26-42.2,6-78.84,5.18-34.53-.81-42.59-6.35-76-5.34a287.92,287.92,0,0,0-49.06,5.7L21.61,80.73C226.56,142.51,316,171,317.8,174.19c0,.06,1.28,2.25,3.12,5.16C322.08,181.2,323.13,182.76,324,184Z"/><path class="cls-18" d="M323.76,182.69a381.5,381.5,0,0,0-72.49-6.52c-37.92.25-42.19,6-78.81,5.17-34.51-.79-42.57-6.32-76-5.32a289,289,0,0,0-49.06,5.71Q34.23,129.65,21.49,79.51c204.85,61.73,294.29,90.24,296.09,93.37,0,.06,1.27,2.26,3.11,5.16C321.86,179.91,322.92,181.45,323.76,182.69Z"/><path class="cls-18" d="M323.73,182.2a382,382,0,0,0-72.46-6.51c-37.91.25-42.18,6-78.79,5.17-34.52-.79-42.58-6.34-76-5.32a289.25,289.25,0,0,0-49,5.7q-13.26-52.05-26-102.18c204.83,61.71,294.2,90.2,296,93.35,0,0,1.28,2.25,3.12,5.16C321.83,179.4,322.87,181,323.73,182.2Z"/><path class="cls-19" d="M322.6,178.71a396.65,396.65,0,0,0-69-5.17c-38.5.48-43,6.15-79.83,5.64-35.07-.48-43.13-5.8-77.33-4.54a316.8,316.8,0,0,0-50.53,6L19.15,78.42Z"/><path class="cls-19" d="M283.21,172.6c6.66-2.07,20.39-5.14,33.84,1.66a38.63,38.63,0,0,1,5.61,3.49l-.09,1-39.39-4.43Z"/><path class="cls-20" d="M322.69,177.75a363.21,363.21,0,0,0-67.6-6.16c-37.76.12-41.18,6-78.5,5.88-37.53-.18-46.47-6.2-82.6-4.23a304.28,304.28,0,0,0-48,6.47L19.23,77.45,241.16,39.52Q281.9,108.64,322.69,177.75Z"/><path class="cls-21" d="M322.69,177.75a363.21,363.21,0,0,0-67.6-6.16c-37.76.12-41.18,6-78.5,5.88-37.53-.18-46.47-6.2-82.6-4.23a304.28,304.28,0,0,0-48,6.47L19.23,77.45,241.16,39.52Q281.9,108.64,322.69,177.75Z"/><path class="cls-4" d="M314.41,153.84,35.53,132.23,14.05,49,242.59,30.12Z"/><path class="cls-22" d="M35.53,132.2c-.09,2.53-.17,5.08-.26,7.63q-10.73-41.57-21.44-83c.07-2.63.14-5.25.22-7.88Z"/><path class="cls-23" d="M313.33,163.11l-278-22.44c.09-2.55.18-5.08.26-7.63l278.89,21.61Z"/><path class="cls-23" d="M313.41,163.39,35.37,141c.09-2.55.17-5.08.26-7.63L314.51,155Q314,159.2,313.41,163.39Z"/><path class="cls-24" d="M313.33,162.64l-278-22.43c.09-2.53.18-5.08.26-7.61l278.89,21.61Z"/><path class="cls-25" d="M313.31,162.46,35.27,140c.09-2.54.17-5.08.26-7.62L314.41,154C314,156.85,313.68,159.66,313.31,162.46Z"/><path class="cls-26" d="M313.31,162.24l-278-22.41c.09-2.55.17-5.1.26-7.63l278.88,21.61C314,156.63,313.68,159.43,313.31,162.24Z"/><path class="cls-3" d="M347.83,332.85l44.6-8.75v-9.71l-44.6,8.74Z"/><path class="cls-3" d="M16.18,130.18l-2-1.41v-15.5q2.23,8.67,4.49,17.36Z"/><line class="cls-27" x1="14.37" y1="48.76" x2="242.9" y2="29.91"/><line class="cls-27" x1="392.22" y1="314.17" x2="242.9" y2="29.91"/><path class="cls-28" d="M109,12.9h4.48V24.56h7v3.81H109Z"/><path class="cls-28" d="M133.64,28.37H121.58a8.36,8.36,0,0,1,1.26-3.59,17.39,17.39,0,0,1,3.94-4A11.39,11.39,0,0,0,129,18.67a2.46,2.46,0,0,0,.49-1.38,1.67,1.67,0,0,0-.49-1.21,1.76,1.76,0,0,0-2.48,0,3.23,3.23,0,0,0-.66,1.82l-4-.34a7.28,7.28,0,0,1,.87-2.84,4.2,4.2,0,0,1,1.78-1.56,7.56,7.56,0,0,1,3.19-.54,8.45,8.45,0,0,1,3.3.51,4.15,4.15,0,0,1,1.85,1.59,4.43,4.43,0,0,1,.68,2.4,5.05,5.05,0,0,1-.78,2.7A10.65,10.65,0,0,1,130,22.67c-.81.6-1.35,1-1.63,1.26l-1,.94h6.28Z"/><path class="cls-28" d="M324.4,131.54h4.47V143.2h7V147H324.4Z"/><path class="cls-28" d="M346.34,131.3V147h-4.07V136.7a11.9,11.9,0,0,1-1.91,1.3,13.89,13.89,0,0,1-2.31,1v-3.53a9.45,9.45,0,0,0,3.19-1.7A7,7,0,0,0,343,131.3Z"/></svg>