<svg id="Слой_1" data-name="Слой 1" xmlns="http://www.w3.org/2000/svg" viewBox="0 0 400 400"><defs><style>.cls-1{fill:#8e6940;}.cls-2{fill:#ca9e67;}.cls-3{fill:#dfce88;}.cls-4{fill:#494949;}.cls-11,.cls-12,.cls-4,.cls-6{opacity:0.17;}.cls-11,.cls-12,.cls-13,.cls-14,.cls-18,.cls-4,.cls-6{isolation:isolate;}.cls-5{fill:#9e8f4f;}.cls-6{fill:#4c4c4b;}.cls-7{fill:#a0935f;}.cls-8{fill:#936037;}.cls-9{fill:#aa693c;}.cls-10{fill:#b77142;}.cls-11{fill:#545454;}.cls-12,.cls-14,.cls-15{fill:#5b5b5b;}.cls-13{fill:#878787;}.cls-13,.cls-14{opacity:0.14;}.cls-16{fill:#dadada;}.cls-17{fill:#7c5732;}.cls-18{fill:#775431;opacity:0.6;}.cls-19{fill:#7a5735;}.cls-20{fill:#916a40;}.cls-21{fill:#b17f4a;}.cls-22{fill:none;stroke:#2e6fd8;stroke-linecap:round;stroke-linejoin:round;stroke-width:3.48px;}.cls-23{fill:#2e6fd8;}</style></defs><path class="cls-1" d="M391,324.36l-310.94,61L14.21,128.77l252.64-6.94Z"/><path class="cls-2" d="M392.38,314.39l-310.95,61Q47.83,244.34,14.21,113.27l254-1.42Z"/><path class="cls-3" d="M349,223.44a297.74,297.74,0,0,0-78.61-10.08c-49,.44-56,13.15-101.93,9.39-24.17-2-37.19-6.72-65.91-4.69a225.27,225.27,0,0,0-44.77,7.81L19.11,78.2l250.4,10.18Z"/><path class="cls-4" d="M54.61,255.88,18.49,117l.34-36.51Q38.2,154.31,57.55,228.16c-2,18.21-2.63,24.91-2.54,25.46a4.36,4.36,0,0,1,.08,1.44,3.38,3.38,0,0,0,0,.45v.31C55.09,255.88,54.83,255.91,54.61,255.88Z"/><path class="cls-4" d="M54.61,255.29,18.49,116.4l.34-36.52Q38.2,153.71,57.55,227.56c-2,18.21-2.63,24.91-2.54,25.46a4.58,4.58,0,0,1,.08,1.43,3.23,3.23,0,0,0,0,.44v.33C55.09,255.29,54.83,255.33,54.61,255.29Z"/><path class="cls-4" d="M54.61,254.77,18.49,115.88l.34-36.51Q38.2,153.21,57.55,227.05c-2,18.22-2.63,24.91-2.54,25.48a4.3,4.3,0,0,1,.08,1.43,3.23,3.23,0,0,0,0,.44v.31A1.05,1.05,0,0,1,54.61,254.77Z"/><path class="cls-4" d="M54.61,254.23,18.49,115.34l.34-36.52L57.55,226.5c-2,18.25-2.67,24.91-2.58,25.45a4.9,4.9,0,0,1,.08,1.43,1.7,1.7,0,0,0,0,.45v.32C55.05,254.22,54.83,254.26,54.61,254.23Z"/><path class="cls-4" d="M54.61,254,18.49,115.08l.34-36.52Q38.2,152.39,57.55,226.24c-2,18.21-2.63,24.91-2.54,25.46a4.36,4.36,0,0,1,.08,1.44,3.08,3.08,0,0,0,0,.43v.33C55.09,254,54.83,254,54.61,254Z"/><path class="cls-5" d="M55,253.61Q36.91,184.16,18.83,114.72l.31-36.51,38.7,147.68Q56.43,239.74,55,253.61Z"/><path class="cls-6" d="M344.65,253.79a271.64,271.64,0,0,0-42.85-8.15,276.41,276.41,0,0,0-73.47,1.51c-19.89,3.13-24.94,6.29-42.5,6.56a267.34,267.34,0,0,1-35.76-2.13c-7.92-1.12-15-2.54-26.94-3.25-.53,0-8.53-.5-16.72-.32-20.61.44-40.11,4.81-51.49,7.82Q56.38,242,57.81,228.1c8-2.09,30.7-7.66,53-8.19,8.81-.22,17.19.31,17.19.31,10.1.62,16.45,1.81,23.27,2.79a313.9,313.9,0,0,0,33.05,2.66c7.32.16,9.64-.71,44.18-5.88,13.75-2.07,20.62-3.1,21.51-3.2,25.23-2.72,45.34-.39,58,1.14a302.29,302.29,0,0,1,41,7.93Q346.86,239.73,344.65,253.79Z"/><path class="cls-6" d="M344.65,253.27a282.22,282.22,0,0,0-116.3-6.66c-19.89,3.13-24.94,6.29-42.5,6.57A263.82,263.82,0,0,1,150.1,251c-7.93-1.1-15-2.55-26.95-3.24-.53,0-8.52-.49-16.72-.33-20.61.45-40.11,4.81-51.49,7.83q1.45-13.86,2.89-27.73c8-2.1,30.7-7.66,53-8.2,8.81-.22,17.19.31,17.19.31,10.1.64,16.45,1.82,23.28,2.8a312,312,0,0,0,33,2.65c7.32.17,9.65-.7,44.19-5.88,13.74-2.07,20.61-3.09,21.5-3.18,25.23-2.73,45.34-.4,58,1.14a299.34,299.34,0,0,1,41,7.92Q346.85,239.2,344.65,253.27Z"/><path class="cls-6" d="M344.65,252.77a270.26,270.26,0,0,0-42.85-8.14,275.43,275.43,0,0,0-73.45,1.48c-19.89,3.13-24.94,6.29-42.5,6.56a265.44,265.44,0,0,1-35.75-2.13c-7.93-1.12-15-2.55-26.95-3.26-.53,0-8.52-.48-16.72-.31-20.61.43-40.11,4.8-51.49,7.82q1.45-13.87,2.89-27.74c8-2.09,30.7-7.65,53-8.19,8.81-.21,17.19.32,17.19.32,10.1.62,16.45,1.82,23.28,2.79a316.71,316.71,0,0,0,33,2.66c7.32.15,9.65-.7,44.19-5.89,13.74-2.06,20.61-3.09,21.5-3.19,25.23-2.73,45.34-.4,58,1.14a303.93,303.93,0,0,1,41,7.92Q346.85,238.76,344.65,252.77Z"/><path class="cls-6" d="M344.65,252.34a272.75,272.75,0,0,0-42.85-8.14,275.84,275.84,0,0,0-73.45,1.47c-19.89,3.14-24.94,6.29-42.5,6.57a262.21,262.21,0,0,1-35.75-2.14c-7.93-1.1-15-2.54-26.95-3.25-.53,0-8.52-.48-16.72-.31-20.61.43-40.11,4.8-51.49,7.81q1.45-13.86,2.89-27.73c8-2.09,30.7-7.65,53-8.19,8.81-.22,17.19.31,17.19.31,10.1.63,16.45,1.83,23.28,2.8a315.16,315.16,0,0,0,33,2.65c7.32.16,9.65-.69,44.19-5.88,13.74-2.06,20.61-3.1,21.5-3.19a238.69,238.69,0,0,1,58,1.2,303.93,303.93,0,0,1,41,7.92Q346.85,238.28,344.65,252.34Z"/><path class="cls-6" d="M344.65,252a272.78,272.78,0,0,0-42.85-8.15,275.85,275.85,0,0,0-73.45,1.49c-19.89,3.13-24.94,6.29-42.5,6.55a263.81,263.81,0,0,1-35.75-2.13c-7.93-1.11-15-2.55-26.95-3.24-.53,0-8.52-.5-16.72-.33-20.61.45-40.11,4.8-51.49,7.83q1.45-13.87,2.89-27.73c8-2.11,30.7-7.66,53-8.21,8.81-.2,17.19.32,17.19.32,10.1.63,16.45,1.82,23.28,2.79a310.45,310.45,0,0,0,33,2.66c7.32.17,9.65-.7,44.19-5.89,13.74-2,20.61-3.08,21.5-3.18,25.23-2.72,45.34-.39,58,1.14a302.41,302.41,0,0,1,41,7.93Q346.85,237.87,344.65,252Z"/><path class="cls-7" d="M344.65,251.59a282.22,282.22,0,0,0-116.3-6.66c-19.89,3.13-24.94,6.29-42.5,6.57a263.82,263.82,0,0,1-35.75-2.14c-7.93-1.11-15-2.55-26.95-3.24-.53,0-8.52-.49-16.72-.33-20.61.44-40.11,4.81-51.49,7.82q1.45-13.87,2.89-27.74c8-2.08,30.7-7.64,53-8.18,8.81-.22,17.19.31,17.19.31,10.1.64,16.45,1.82,23.28,2.8a312,312,0,0,0,33,2.65c7.32.16,9.65-.7,44.19-5.88,13.74-2.07,20.61-3.1,21.5-3.2a239.19,239.19,0,0,1,58,1.2,302.41,302.41,0,0,1,41,7.93Q346.85,237.54,344.65,251.59Z"/><path class="cls-8" d="M72.46,86.78l56.29,174.44q.3,21.43.63,42.89-25.9-86.8-51.8-173.63Z"/><path class="cls-8" d="M92,81.76l55.75,177q.13,21.38.29,42.75L95,126.11Q93.48,104,92,81.76Z"/><path class="cls-9" d="M147.74,258.75l-18.8,2.4q-28.23-87.24-56.48-174.4l19.53-5Z"/><path class="cls-10" d="M148,301.5l-18.65,2.61-.45-43.33,18.81-2Q147.88,280.13,148,301.5Z"/><path class="cls-8" d="M208.52,70.82,277,236.76q-.11,22.2-.22,44.43-32.94-87.43-66-174.81Q209.73,88.61,208.52,70.82Z"/><path class="cls-8" d="M226.91,74.87q34.23,79.83,68.5,159.69l-1.34,42.82Q264.17,191.22,234.29,105Z"/><path class="cls-9" d="M295.39,234.56l-18.4,2.2L208.83,71.59l14.37-5.46Z"/><path class="cls-10" d="M294.05,277.38l-17.28,3.76q.11-22.18.22-44.42l18.4-2.21Z"/><path class="cls-7" d="M100.8,218.2a43,43,0,0,1,10.51,0v27.62H100.8Z"/><path class="cls-11" d="M87.5,169.79l8.81-9.09q8.09,26.19,16.18,52.39a3.44,3.44,0,0,1-.09.9,24.19,24.19,0,0,1-.46,2.4c-.35,1.5-.45,1.7-.65,1.78s-.46-.18-1.06-.39a4.58,4.58,0,0,0-1.61-.11c-.93,0-1.35-.6-2.47-1.33a12.4,12.4,0,0,0-3-1.4Q95.32,192.38,87.5,169.79Z"/><path class="cls-11" d="M87.08,169.79l8.78-9.09Q104,186.89,112,213.09a3.44,3.44,0,0,1-.09.9,24.19,24.19,0,0,1-.46,2.4c-.35,1.5-.45,1.7-.65,1.78s-.45-.18-1-.39a4.6,4.6,0,0,0-1.61-.11c-.93,0-1.35-.6-2.48-1.33a12.22,12.22,0,0,0-3-1.4Q94.9,192.38,87.08,169.79Z"/><path class="cls-11" d="M86.72,169.79l8.79-9.07,16.17,52.38a3.4,3.4,0,0,1-.09.9,21.62,21.62,0,0,1-.46,2.4c-.33,1.5-.45,1.71-.64,1.78s-.46-.18-1-.39a4.65,4.65,0,0,0-1.62-.1c-.93,0-1.35-.6-2.48-1.34a12.22,12.22,0,0,0-3-1.4Z"/><path class="cls-11" d="M86.45,169.78q4.38-4.56,8.78-9.09,8.08,26.2,16.18,52.4a3.32,3.32,0,0,1-.09.89,21.62,21.62,0,0,1-.46,2.4c-.34,1.5-.45,1.7-.65,1.77s-.46-.18-1-.38a4.37,4.37,0,0,0-1.61-.1c-.94,0-1.36-.6-2.48-1.34a12,12,0,0,0-3-1.4Z"/><path class="cls-11" d="M86.06,169.63l8.79-9.08L111,212.93a3.36,3.36,0,0,1-.09.9,21.62,21.62,0,0,1-.46,2.4c-.34,1.5-.44,1.71-.64,1.78s-.46-.18-1-.38a4.43,4.43,0,0,0-1.62-.11c-.93,0-1.35-.59-2.47-1.33a12.06,12.06,0,0,0-3-1.41Z"/><path class="cls-11" d="M85.66,169.63l8.78-9.08,16.18,52.38a4.43,4.43,0,0,1-.09.9c-.12.81-.27,1.61-.46,2.4-.35,1.5-.45,1.71-.65,1.78s-.47-.18-1.06-.38a4.37,4.37,0,0,0-1.61-.11c-.94,0-1.35-.59-2.48-1.33a11.83,11.83,0,0,0-3-1.41Q93.48,192.22,85.66,169.63Z"/><path class="cls-11" d="M85.26,169.63l8.79-9.08,16.17,52.38a4.49,4.49,0,0,1-.07.9,24.26,24.26,0,0,1-.48,2.4c-.33,1.5-.43,1.71-.64,1.78s-.46-.18-1-.38a4.43,4.43,0,0,0-1.62-.11c-.93,0-1.35-.59-2.47-1.33a12,12,0,0,0-3-1.41Z"/><path class="cls-11" d="M84.88,169.45l8.79-9.08,16.17,52.38a3.36,3.36,0,0,1-.09.9,21.62,21.62,0,0,1-.46,2.4c-.34,1.5-.45,1.71-.64,1.78s-.46-.18-1.05-.38a4.43,4.43,0,0,0-1.62-.11c-.93,0-1.35-.59-2.48-1.33a12.06,12.06,0,0,0-3-1.41Q92.71,192,84.88,169.45Z"/><path class="cls-3" d="M84.76,169.79l7.32-9.47,19.18,57.88q-2.58-.12-5.37-.12c-1.86,0-3.49,0-5.14.12Z"/><path class="cls-7" d="M251.12,214.31a42,42,0,0,1,10.51,0v27.56H251.12Z"/><path class="cls-12" d="M227.41,164.16l13.38-7.08,24.51,54.75c-.38.31-1,.78-1.69,1.28a8.06,8.06,0,0,1-2,1.2c-1.66.46-3.54-2-4.38-2.85-1.74-1.82-5.25-3.28-13-1.58Z"/><path class="cls-12" d="M226.47,164l13.38-7.07,24.52,54.74c-.38.32-1,.78-1.71,1.3a8.6,8.6,0,0,1-2,1.2c-1.66.46-3.55-2-4.38-2.86-1.75-1.8-5.25-3.27-13-1.56Z"/><path class="cls-12" d="M225.71,163.78l13.37-7.09,24.54,54.75c-.38.32-1,.78-1.71,1.29a8.32,8.32,0,0,1-2,1.2c-1.65.45-3.54-2-4.38-2.86-1.74-1.81-5.25-3.28-13-1.57Z"/><path class="cls-12" d="M224.81,163.53l13.38-7.09,24.52,54.75c-.38.31-1,.77-1.71,1.29a8.12,8.12,0,0,1-2,1.2c-1.65.46-3.54-2-4.38-2.85-1.74-1.81-5.25-3.28-13-1.57Q233.23,186.42,224.81,163.53Z"/><path class="cls-12" d="M224,163.41l13.37-7.09,24.52,54.81c-.38.31-1,.78-1.7,1.29a8.12,8.12,0,0,1-2,1.2c-1.66.45-3.55-2-4.38-2.86-1.75-1.81-5.25-3.28-13-1.57Z"/><path class="cls-12" d="M223.2,163.11,236.58,156l24.51,54.75c-.38.31-.95.78-1.69,1.29a8.72,8.72,0,0,1-2,1.2c-1.66.45-3.54-2-4.38-2.86-1.74-1.81-5.25-3.28-13-1.57Z"/><path class="cls-3" d="M223.6,164.16,237,157.08l24.71,57.23c-1.74-.08-3.53-.13-5.37-.12a107.63,107.63,0,0,0-15.53,1.2Z"/><path class="cls-13" d="M323.7,181.22c-16.11-2.83-41.81-6.5-67.73-6-12.19.24-21.86,1.06-21.86,1.06-20.21,1.75-29.46,5-58,4.58-35.07-.48-43.13-5.8-77.33-4.54a315.94,315.94,0,0,0-50.53,6L21.49,80.07c171.28,44.8,293.44,85.24,295.91,89.57,1.85,3.18,3.6,6.42,3.6,6.42C322,178,322.92,179.69,323.7,181.22Z"/><path class="cls-14" d="M324.39,190.82a382.17,382.17,0,0,0-72.67-6.58c-38,.23-42.27,6-79,5.15-34.59-.82-42.67-6.39-76.11-5.38a287.41,287.41,0,0,0-49.16,5.69l-26-102.64C226.76,149.14,316.38,177.81,318.2,181c0,0,1.28,2.26,3.12,5.19C322.49,188,323.55,189.58,324.39,190.82Z"/><path class="cls-14" d="M324.43,189.83a382.81,382.81,0,0,0-72.66-6.58c-38,.24-42.25,6-79,5.17-34.57-.82-42.67-6.38-76.09-5.38a289.42,289.42,0,0,0-49.15,5.69q-13.24-52.28-26-102.58c205.21,62,294.78,90.69,296.63,93.84,0,.06,1.28,2.25,3.13,5.18C322.52,187,323.58,188.6,324.43,189.83Z"/><path class="cls-14" d="M324.38,189.09a382.84,382.84,0,0,0-72.65-6.57c-38,.24-42.24,6-78.93,5.16-34.57-.8-42.67-6.37-76.08-5.38A289.33,289.33,0,0,0,47.58,188q-13.24-52.26-26-102.55c205.18,62,294.78,90.64,296.57,93.79,0,0,1.28,2.26,3.12,5.18C322.47,186.28,323.52,187.85,324.38,189.09Z"/><path class="cls-14" d="M324.31,188.32a382.56,382.56,0,0,0-72.63-6.57c-38,.24-42.24,6-78.91,5.16-34.58-.8-42.67-6.36-76.08-5.36a289.09,289.09,0,0,0-49.12,5.7l-26-102.51c205.13,62,294.69,90.59,296.51,93.75,0,0,1.28,2.25,3.12,5.17C322.41,185.46,323.46,187,324.31,188.32Z"/><path class="cls-14" d="M324.25,187.69a380.55,380.55,0,0,0-72.6-6.57c-38,.24-42.23,6-78.9,5.16-34.57-.81-42.67-6.37-76.07-5.37a289,289,0,0,0-49.11,5.7q-13.24-52.16-26-102.46C226.71,146.1,316.27,174.72,318,177.86c0,0,1.28,2.26,3.13,5.18C322.37,184.89,323.41,186.46,324.25,187.69Z"/><path class="cls-14" d="M324.25,187a382.29,382.29,0,0,0-72.6-6.54c-38,.24-42.22,6-78.89,5.16-34.55-.8-42.67-6.36-76-5.36a290.47,290.47,0,0,0-49.15,5.71q-13.24-52.21-26-102.45C226.68,145.38,316.21,174,318,177.12c0,0,1.28,2.25,3.13,5.17C322.31,184.14,323.36,185.71,324.25,187Z"/><path class="cls-14" d="M324.16,186.3a382.94,382.94,0,0,0-72.59-6.55c-37.95.25-42.22,6-78.88,5.17-34.55-.8-42.67-6.36-76-5.35a288.86,288.86,0,0,0-49.1,5.7L21.61,82.86c205,61.89,294.55,90.46,296.36,93.64,0,.06,1.28,2.26,3.12,5.18C322.26,183.52,323.31,185.05,324.16,186.3Z"/><path class="cls-14" d="M324.1,185.56A382.81,382.81,0,0,0,251.53,179c-37.95.26-42.21,6-78.86,5.18-34.55-.81-42.62-6.35-76-5.34a288.73,288.73,0,0,0-49.09,5.69Q34.33,132.39,21.61,82.17c205,61.86,294.49,90.42,296.3,93.57,0,0,1.28,2.25,3.12,5.17C322.2,182.75,323.25,184.32,324.1,185.56Z"/><path class="cls-14" d="M324.07,185.15a381.08,381.08,0,0,0-72.57-6.53c-37.94.24-42.21,6-78.86,5.16-34.54-.79-42.6-6.35-76-5.34a288.74,288.74,0,0,0-49.09,5.7Q34.34,132,21.61,81.8c205,61.83,294.47,90.38,296.28,93.53,0,0,1.27,2.26,3.12,5.17C322.17,182.32,323.22,183.91,324.07,185.15Z"/><path class="cls-14" d="M324,184.57A381.87,381.87,0,0,0,251.47,178c-37.93.25-42.21,6-78.85,5.18-34.53-.81-42.6-6.36-76-5.35a288.64,288.64,0,0,0-49.08,5.71Q34.32,131.44,21.61,81.26c205,61.81,294.42,90.36,296.23,93.5,0,0,1.28,2.26,3.12,5.17C322.12,181.78,323.13,183.34,324,184.57Z"/><path class="cls-14" d="M324,184a382.43,382.43,0,0,0-72.54-6.49c-37.93.26-42.2,6-78.84,5.18-34.53-.81-42.59-6.35-76-5.34a288.39,288.39,0,0,0-49.06,5.7L21.61,80.73C226.56,142.51,316,171,317.8,174.19c0,.06,1.28,2.25,3.12,5.16C322.08,181.2,323.13,182.76,324,184Z"/><path class="cls-14" d="M323.76,182.69a381.87,381.87,0,0,0-72.49-6.52c-37.92.25-42.19,6-78.81,5.17-34.51-.79-42.57-6.32-76-5.32a288.52,288.52,0,0,0-49.06,5.71Q34.23,129.65,21.49,79.51c204.85,61.73,294.29,90.24,296.09,93.37,0,.06,1.27,2.26,3.11,5.16C321.86,179.91,322.92,181.45,323.76,182.69Z"/><path class="cls-14" d="M323.73,182.2a382.51,382.51,0,0,0-72.46-6.51c-37.91.25-42.18,6-78.79,5.17-34.52-.79-42.58-6.34-76-5.32a289.29,289.29,0,0,0-49,5.7q-13.26-52.05-26-102.18c204.83,61.71,294.2,90.2,296.05,93.35,0,0,1.28,2.25,3.12,5.16C321.83,179.4,322.87,181,323.73,182.2Z"/><path class="cls-15" d="M322.6,178.71a396.6,396.6,0,0,0-69-5.17c-38.5.48-43,6.15-79.83,5.64-35.07-.48-43.13-5.8-77.33-4.54a316.21,316.21,0,0,0-50.53,6L19.15,78.42Z"/><path class="cls-15" d="M283.21,172.6c6.66-2.07,20.39-5.14,33.84,1.66a38,38,0,0,1,5.61,3.49l-.09,1-39.39-4.43Z"/><path class="cls-16" d="M322.69,177.75a362.75,362.75,0,0,0-67.6-6.16c-37.76.12-41.18,6-78.5,5.88-37.53-.18-46.47-6.2-82.6-4.23A304.45,304.45,0,0,0,46,179.71L19.23,77.45,241.16,39.52Q281.9,108.64,322.69,177.75Z"/><path class="cls-2" d="M314.41,153.84,35.53,132.23,14.05,49,242.59,30.12Z"/><path class="cls-17" d="M35.53,132.2c-.09,2.53-.17,5.08-.26,7.63q-10.73-41.57-21.44-83c.07-2.63.14-5.25.22-7.88Z"/><path class="cls-18" d="M313.33,163.11l-278-22.44c.09-2.55.18-5.08.26-7.63l278.89,21.61Z"/><path class="cls-18" d="M313.41,163.39,35.37,141c.09-2.55.17-5.08.26-7.63L314.51,155C314.15,157.8,313.78,160.6,313.41,163.39Z"/><path class="cls-19" d="M313.33,162.64l-278-22.43c.09-2.53.18-5.08.26-7.61l278.89,21.61Z"/><path class="cls-20" d="M313.31,162.46,35.27,140c.09-2.54.17-5.08.26-7.62L314.41,154C314,156.85,313.68,159.66,313.31,162.46Z"/><path class="cls-21" d="M313.31,162.24l-278-22.41c.09-2.55.17-5.1.26-7.63l278.88,21.61C314,156.63,313.68,159.43,313.31,162.24Z"/><path class="cls-1" d="M347.83,332.85l44.6-8.75v-9.71l-44.6,8.74Z"/><path class="cls-1" d="M16.18,130.18l-2-1.41v-15.5q2.23,8.67,4.49,17.36Z"/><line class="cls-22" x1="14.37" y1="48.46" x2="242.9" y2="29.61"/><line class="cls-22" x1="392.22" y1="313.87" x2="242.9" y2="29.61"/><path class="cls-23" d="M109,12.6h4.48V24.26h7v3.81H109Z"/><path class="cls-23" d="M133.64,28.07H121.58a8.45,8.45,0,0,1,1.26-3.59,17.54,17.54,0,0,1,3.94-4A11.68,11.68,0,0,0,129,18.37a2.44,2.44,0,0,0,.49-1.38,1.67,1.67,0,0,0-.49-1.21,1.76,1.76,0,0,0-2.48,0,3.21,3.21,0,0,0-.66,1.82l-4-.34a7.27,7.27,0,0,1,.87-2.84,4.1,4.1,0,0,1,1.78-1.56,7.67,7.67,0,0,1,3.19-.54,8.58,8.58,0,0,1,3.3.51,4.16,4.16,0,0,1,1.85,1.59,4.44,4.44,0,0,1,.68,2.4,5.09,5.09,0,0,1-.78,2.7A10.71,10.71,0,0,1,130,22.37c-.81.6-1.35,1-1.63,1.26s-.59.55-1,.94h6.28Z"/><path class="cls-23" d="M324.4,131.24h4.47V142.9h7v3.81H324.4Z"/><path class="cls-23" d="M346.34,131v15.73h-4.07V136.4a12,12,0,0,1-1.91,1.3,13.84,13.84,0,0,1-2.31,1v-3.53a9.41,9.41,0,0,0,3.19-1.7A6.83,6.83,0,0,0,343,131Z"/></svg>