<svg id="Слой_1" data-name="Слой 1" xmlns="http://www.w3.org/2000/svg" viewBox="0 0 400 400"><defs><style>.cls-1{fill:#8e6940;}.cls-2{fill:#bcb9bb;}.cls-3{fill:#606060;opacity:0.47;}.cls-13,.cls-14,.cls-15,.cls-16,.cls-20,.cls-25,.cls-3,.cls-6,.cls-8{isolation:isolate;}.cls-4{fill:#dadada;}.cls-5{fill:#dfce88;}.cls-6{fill:#494949;}.cls-13,.cls-14,.cls-6,.cls-8{opacity:0.17;}.cls-7{fill:#9e8f4f;}.cls-8{fill:#4c4c4b;}.cls-9{fill:#a0935f;}.cls-10{fill:#936037;}.cls-11{fill:#aa693c;}.cls-12{fill:#b77142;}.cls-13{fill:#545454;}.cls-14,.cls-16,.cls-17{fill:#5b5b5b;}.cls-15{fill:#878787;}.cls-15,.cls-16{opacity:0.14;}.cls-18{fill:#ca9e67;}.cls-19{fill:#7c5732;}.cls-20{fill:#775431;opacity:0.6;}.cls-21{fill:#7a5735;}.cls-22{fill:#916a40;}.cls-23{fill:#b17f4a;}.cls-24{fill:#999;}.cls-25{fill:#020202;opacity:0.39;}.cls-26{fill:#727172;}</style></defs><path class="cls-1" d="M390.67,330.65l-307,54.74Q51.16,270.3,18.62,155.19L268.06,149Z"/><path class="cls-2" d="M391,288,84,342.76l-65.4-232,249.43-6.22Q329.53,196.27,391,288Z"/><path class="cls-3" d="M373.14,262.17c-73,15.63-124.57,18.51-159.24,17.92a513.68,513.68,0,0,0-74,3.15,501.89,501.89,0,0,0-68.85,12.92l-51.95-182L269,107.92Z"/><path class="cls-3" d="M373.12,261.92c-73,15.64-124.58,18.53-159.24,17.93a516.57,516.57,0,0,0-74,3.15A501.89,501.89,0,0,0,71,295.92l-51.95-182L269,107.68Z"/><path class="cls-3" d="M373,261.72c-73,15.64-124.57,18.51-159.24,17.92a518,518,0,0,0-74,3.14,502.34,502.34,0,0,0-68.86,12.93Q45,204.68,19,113.69l249.9-6.23Z"/><path class="cls-3" d="M373,261.46C300,277.09,248.42,280,213.76,279.4a515.26,515.26,0,0,0-74,3.15,501.89,501.89,0,0,0-68.85,12.92q-26-91-51.94-182.08l249.85-6.22Z"/><path class="cls-3" d="M372.93,261.17c-73,15.64-124.57,18.52-159.24,17.93a513.88,513.88,0,0,0-74,3.15,501.89,501.89,0,0,0-68.85,12.92q-25.95-91-51.94-182.06l249.92-6.22Q320.93,184,372.93,261.17Z"/><path class="cls-3" d="M372.84,260.92c-73,15.64-124.57,18.48-159.24,17.92a517.83,517.83,0,0,0-74,3.16,499.17,499.17,0,0,0-68.87,12.92q-25.95-91-51.94-182l249.9-6.23Z"/><path class="cls-4" d="M373,260.63c-73,15.63-124.57,18.51-159.24,17.92a513.68,513.68,0,0,0-74,3.15A501.89,501.89,0,0,0,71,294.62L19,112.6l249.89-6.22Z"/><path class="cls-5" d="M348.72,206.43a321.74,321.74,0,0,0-77.6-9c-48.36.39-55.32,11.79-100.64,8.42-23.87-1.78-36.72-6-65.08-4.21a242.56,242.56,0,0,0-44.19,7L23,76.15l247.22,9.13Z"/><path class="cls-6" d="M58,235.54Q40.21,173.25,22.37,111l.34-32.76q19.13,66.24,38.23,132.48C59,227,58.34,233,58.43,233.51a3.5,3.5,0,0,1,.08,1.29,2.67,2.67,0,0,0,0,.4v.28C58.51,235.54,58.26,235.57,58,235.54Z"/><path class="cls-6" d="M58,235q-17.82-62.3-35.66-124.59l.34-32.76q19.13,66.22,38.23,132.47c-2,16.34-2.6,22.35-2.51,22.84a3.69,3.69,0,0,1,.08,1.28,2.67,2.67,0,0,0,0,.4v.29C58.51,235,58.26,235,58,235Z"/><path class="cls-6" d="M58,234.54Q40.21,172.25,22.37,110l.34-32.76q19.13,66.24,38.23,132.48C59,226,58.34,232,58.43,232.53a3.45,3.45,0,0,1,.08,1.28,2.67,2.67,0,0,0,0,.4v.28A1.09,1.09,0,0,1,58,234.54Z"/><path class="cls-6" d="M58,234.06q-17.82-62.3-35.66-124.59l.34-32.76L60.94,209.18c-2,16.37-2.64,22.35-2.55,22.83a4,4,0,0,1,.08,1.29,2.54,2.54,0,0,0,0,.39V234C58.47,234.05,58.26,234.08,58,234.06Z"/><path class="cls-6" d="M58,233.81q-17.82-62.3-35.66-124.58l.34-32.76Q41.84,142.7,60.94,208.94c-2,16.34-2.6,22.35-2.51,22.85a3.5,3.5,0,0,1,.08,1.29,2.54,2.54,0,0,0,0,.39v.29C58.51,233.82,58.26,233.84,58,233.81Z"/><path class="cls-7" d="M58.39,233.5q-17.82-62.3-35.68-124.59L23,76.16,61.23,208.63Q59.83,221.07,58.39,233.5Z"/><path class="cls-8" d="M344.38,233.66a292.27,292.27,0,0,0-42.3-7.31,299.46,299.46,0,0,0-72.54,1.36c-19.63,2.81-24.62,5.64-42,5.88a289,289,0,0,1-35.29-1.91c-7.83-1-14.83-2.28-26.61-2.92-.52,0-8.41-.44-16.51-.28-20.34.39-39.6,4.31-50.83,7q1.44-12.44,2.85-24.88c7.93-1.87,30.31-6.87,52.31-7.34,8.7-.2,17,.28,17,.28,10,.56,16.24,1.62,23,2.5,0,0,15.73,2,32.63,2.39,7.22.14,9.52-.64,43.62-5.28,13.57-1.85,20.35-2.78,21.23-2.86,24.91-2.45,44.76-.36,57.22,1a324.16,324.16,0,0,1,40.49,7.11Q346.57,221,344.38,233.66Z"/><path class="cls-8" d="M344.38,233.2a293.62,293.62,0,0,0-42.3-7.3,299.71,299.71,0,0,0-72.51,1.32c-19.64,2.81-24.63,5.64-42,5.89a285.08,285.08,0,0,1-35.3-1.92c-7.83-1-14.82-2.28-26.61-2.9-.52,0-8.41-.44-16.5-.29-20.35.39-39.6,4.3-50.83,7l2.85-24.88c7.92-1.89,30.3-6.87,52.3-7.36,8.7-.19,17,.28,17,.28,10,.57,16.24,1.64,23,2.51,0,0,15.73,2.05,32.63,2.38,7.23.15,9.52-.62,43.62-5.27,13.57-1.86,20.35-2.77,21.23-2.86,24.91-2.44,44.77-.35,57.23,1A324.47,324.47,0,0,1,348.69,208Q346.56,220.58,344.38,233.2Z"/><path class="cls-8" d="M344.38,232.75a292.27,292.27,0,0,0-42.3-7.31,299.21,299.21,0,0,0-72.51,1.33c-19.64,2.81-24.63,5.64-42,5.89a289,289,0,0,1-35.3-1.92c-7.83-1-14.82-2.28-26.61-2.92-.52,0-8.41-.43-16.5-.28-20.35.39-39.6,4.31-50.83,7l2.85-24.88c7.92-1.88,30.3-6.86,52.3-7.35,8.7-.19,17,.28,17,.28,10,.56,16.24,1.64,23,2.51,0,0,15.73,2,32.63,2.38,7.23.14,9.52-.62,43.62-5.28,13.57-1.85,20.35-2.78,21.23-2.86,24.91-2.45,44.77-.36,57.23,1a326.31,326.31,0,0,1,40.51,7.11Q346.56,220.17,344.38,232.75Z"/><path class="cls-8" d="M344.38,232.36a293.62,293.62,0,0,0-42.3-7.3,299.2,299.2,0,0,0-72.51,1.32c-19.64,2.81-24.63,5.64-42,5.89a285.08,285.08,0,0,1-35.3-1.92c-7.83-1-14.82-2.28-26.61-2.91-.52,0-8.41-.43-16.5-.28-20.35.38-39.6,4.3-50.83,7l2.85-24.88c7.92-1.88,30.3-6.86,52.3-7.35,8.7-.19,17,.28,17,.28,10,.56,16.24,1.64,23,2.51,0,0,15.73,2,32.63,2.38,7.23.14,9.52-.62,43.62-5.27C243.29,200,250.07,199.06,251,199a259.55,259.55,0,0,1,57.23,1.08,324.47,324.47,0,0,1,40.51,7.11Q346.56,219.75,344.38,232.36Z"/><path class="cls-8" d="M344.38,232a293.64,293.64,0,0,0-42.3-7.31A298.69,298.69,0,0,0,229.57,226c-19.64,2.81-24.63,5.64-42,5.88a287,287,0,0,1-35.3-1.92c-7.83-1-14.82-2.28-26.61-2.91-.52,0-8.41-.44-16.5-.29-20.35.4-39.6,4.31-50.83,7l2.85-24.88c7.92-1.88,30.3-6.87,52.3-7.35,8.7-.19,17,.28,17,.28,10,.57,16.24,1.63,23,2.51,0,0,15.73,2,32.63,2.38,7.23.15,9.52-.63,43.62-5.28,13.57-1.84,20.35-2.77,21.23-2.85,24.91-2.45,44.77-.36,57.23,1a322.65,322.65,0,0,1,40.51,7.11Q346.56,219.38,344.38,232Z"/><path class="cls-9" d="M344.38,231.69a293.62,293.62,0,0,0-42.3-7.3,299.71,299.71,0,0,0-72.51,1.32c-19.64,2.81-24.63,5.65-42,5.89a287,287,0,0,1-35.3-1.91c-7.83-1-14.82-2.29-26.61-2.91-.52,0-8.41-.44-16.5-.29-20.35.39-39.6,4.31-50.83,7l2.85-24.88c7.92-1.87,30.3-6.86,52.3-7.34,8.7-.2,17,.28,17,.28,10,.57,16.24,1.63,23,2.5,0,0,15.73,2.05,32.63,2.38,7.23.14,9.52-.62,43.62-5.27,13.57-1.85,20.35-2.78,21.23-2.87a259.55,259.55,0,0,1,57.23,1.08,326.31,326.31,0,0,1,40.51,7.11Q346.56,219.09,344.38,231.69Z"/><path class="cls-10" d="M75.66,83.85l55.57,156.48q.3,19.21.63,38.47-25.58-77.87-51.14-155.75Z"/><path class="cls-10" d="M94.94,79.35l55,158.76q.14,19.19.29,38.35L97.89,119.13Q96.42,99.26,94.94,79.35Z"/><path class="cls-11" d="M150,238.11l-18.56,2.15Q103.55,162,75.66,83.82l19.28-4.51Z"/><path class="cls-12" d="M150.27,276.46l-18.41,2.34-.45-38.87L150,238.11Q150.12,257.3,150.27,276.46Z"/><path class="cls-10" d="M210,69.53l67.62,148.86q-.11,19.91-.22,39.85-32.52-78.44-65.11-156.81Q211.17,85.48,210,69.53Z"/><path class="cls-10" d="M228.15,73.16q33.78,71.61,67.62,143.25l-1.32,38.41q-29.51-77.3-59-154.61Z"/><path class="cls-11" d="M295.75,216.41l-18.16,2Q243.93,144.31,210.3,70.22l14.18-4.9Z"/><path class="cls-12" d="M294.43,254.82l-17.06,3.38q.11-19.9.22-39.85l18.16-2Z"/><path class="cls-9" d="M103.64,201.74a46.19,46.19,0,0,1,10.38,0v24.77H103.64Z"/><path class="cls-13" d="M90.5,158.31l8.71-8.15q8,23.49,16,47a2.8,2.8,0,0,1-.09.81,20,20,0,0,1-.45,2.15c-.34,1.35-.44,1.53-.64,1.6s-.46-.17-1-.35a5,5,0,0,0-1.59-.1c-.92,0-1.33-.53-2.44-1.19a12.47,12.47,0,0,0-2.93-1.26Q98.23,178.58,90.5,158.31Z"/><path class="cls-13" d="M90.09,158.31l8.67-8.15q8,23.49,16,47a2.8,2.8,0,0,1-.09.81,20,20,0,0,1-.45,2.15c-.35,1.35-.45,1.53-.65,1.6s-.44-.17-1-.35a4.94,4.94,0,0,0-1.58-.1c-.93,0-1.34-.53-2.45-1.19a12.47,12.47,0,0,0-2.93-1.26Q97.81,178.58,90.09,158.31Z"/><path class="cls-13" d="M89.74,158.31l8.68-8.14,16,47a3.18,3.18,0,0,1-.08.81,17.9,17.9,0,0,1-.46,2.15c-.33,1.35-.44,1.53-.63,1.6s-.46-.16-1-.35a4.8,4.8,0,0,0-1.6-.09c-.92,0-1.33-.54-2.45-1.2a12.29,12.29,0,0,0-2.93-1.26Q97.47,178.59,89.74,158.31Z"/><path class="cls-13" d="M89.47,158.3q4.34-4.1,8.67-8.15,8,23.5,16,47a2.69,2.69,0,0,1-.09.8,20.08,20.08,0,0,1-.46,2.15c-.34,1.35-.44,1.53-.64,1.6s-.45-.17-1-.35a4.72,4.72,0,0,0-1.59-.09c-.93,0-1.34-.53-2.45-1.2a12.22,12.22,0,0,0-2.92-1.26Z"/><path class="cls-13" d="M89.09,158.16,97.77,150l16,47a2.8,2.8,0,0,1-.09.81,20,20,0,0,1-.45,2.15c-.34,1.35-.44,1.53-.64,1.6s-.45-.17-1-.35a5,5,0,0,0-1.59-.1c-.92,0-1.33-.52-2.44-1.19a12.47,12.47,0,0,0-2.93-1.26Z"/><path class="cls-13" d="M88.69,158.16,97.36,150l16,47a2.8,2.8,0,0,1-.09.81,20,20,0,0,1-.45,2.15c-.35,1.35-.45,1.53-.65,1.6s-.45-.17-1-.35a4.94,4.94,0,0,0-1.58-.1c-.93,0-1.34-.52-2.45-1.19a12.47,12.47,0,0,0-2.93-1.26Q96.42,178.44,88.69,158.16Z"/><path class="cls-13" d="M88.3,158.16,97,150l16,47a3.7,3.7,0,0,1-.07.81,20.12,20.12,0,0,1-.47,2.15c-.33,1.35-.43,1.53-.63,1.6s-.46-.17-1-.35a5.08,5.08,0,0,0-1.6-.1c-.92,0-1.33-.52-2.44-1.19a12.29,12.29,0,0,0-2.93-1.26Z"/><path class="cls-13" d="M87.92,158l8.68-8.14,16,47a3.72,3.72,0,0,1-.09.81,17.9,17.9,0,0,1-.46,2.15c-.33,1.35-.44,1.53-.63,1.59s-.45-.16-1-.34a5,5,0,0,0-1.6-.1c-.92,0-1.33-.52-2.45-1.19a12.39,12.39,0,0,0-2.92-1.26Q95.66,178.28,87.92,158Z"/><path class="cls-5" d="M87.8,158.31,95,149.82,114,201.74c-1.69-.08-3.46-.11-5.3-.11s-3.44,0-5.07.11Z"/><path class="cls-9" d="M252.05,198.25a45,45,0,0,1,10.37,0V223H252.05Z"/><path class="cls-14" d="M228.63,153.26l13.22-6.35q12.09,24.56,24.2,49.11c-.38.28-.95.7-1.67,1.15a8.15,8.15,0,0,1-2,1.08c-1.64.41-3.49-1.79-4.32-2.56-1.72-1.63-5.19-2.94-12.87-1.42Z"/><path class="cls-14" d="M227.71,153.11l13.21-6.34,24.21,49.1c-.38.29-.95.7-1.69,1.16a7.84,7.84,0,0,1-1.94,1.08c-1.64.42-3.5-1.78-4.32-2.56-1.73-1.62-5.19-2.93-12.87-1.4Z"/><path class="cls-14" d="M227,152.92l13.2-6.36,24.23,49.11c-.38.28-1,.7-1.69,1.16a8.4,8.4,0,0,1-1.95,1.07c-1.63.41-3.49-1.78-4.32-2.56-1.72-1.63-5.18-2.94-12.87-1.41Z"/><path class="cls-14" d="M226.07,152.69l13.21-6.35,24.21,49.11c-.38.28-.95.69-1.69,1.15a7.9,7.9,0,0,1-1.95,1.08c-1.63.42-3.49-1.78-4.32-2.55-1.72-1.63-5.18-2.94-12.87-1.42Q234.38,173.22,226.07,152.69Z"/><path class="cls-14" d="M225.22,152.58l13.2-6.35,24.22,49.16c-.38.28-1,.7-1.69,1.16a7.8,7.8,0,0,1-1.94,1.07c-1.64.41-3.5-1.78-4.32-2.56-1.73-1.63-5.19-2.94-12.87-1.41Z"/><path class="cls-14" d="M224.48,152.31,237.69,146l24.2,49.11c-.37.28-.94.7-1.67,1.15a8.65,8.65,0,0,1-2,1.08c-1.64.41-3.49-1.79-4.33-2.56-1.71-1.63-5.18-2.94-12.87-1.41Z"/><path class="cls-5" d="M224.88,153.26l13.2-6.35,24.39,51.34c-1.72-.08-3.48-.12-5.3-.11a115.59,115.59,0,0,0-15.33,1.08Z"/><path class="cls-15" d="M323.71,168.57c-15.91-2.55-41.29-5.84-66.87-5.39-12,.22-21.59.95-21.59.95-19.95,1.57-29.09,4.47-57.22,4.11-34.62-.43-42.58-5.2-76.35-4.07a340.85,340.85,0,0,0-49.89,5.39L25.34,77.83C194.43,118,315.05,154.3,317.49,158.17c1.82,2.86,3.55,5.77,3.55,5.77C322,165.63,322.93,167.19,323.71,168.57Z"/><path class="cls-16" d="M324.38,177.17a414.42,414.42,0,0,0-71.74-5.9c-37.51.2-41.73,5.38-78,4.62-34.15-.73-42.13-5.73-75.14-4.83A313.79,313.79,0,0,0,51,176.17L25.34,84.1C228,139.79,316.48,165.51,318.27,168.34c0,0,1.27,2,3.09,4.65C322.51,174.65,323.55,176.06,324.38,177.17Z"/><path class="cls-16" d="M324.43,176.29a414.42,414.42,0,0,0-71.74-5.9c-37.49.21-41.72,5.38-77.94,4.63-34.14-.73-42.13-5.72-75.13-4.83a313.54,313.54,0,0,0-48.53,5.11Q38,128.41,25.45,83.28c202.61,55.65,291,81.36,292.86,84.18,0,0,1.26,2,3.09,4.65C322.54,173.77,323.59,175.18,324.43,176.29Z"/><path class="cls-16" d="M324.37,175.62a414.18,414.18,0,0,0-71.72-5.89c-37.5.21-41.71,5.38-77.93,4.63-34.13-.72-42.12-5.72-75.11-4.82a313.41,313.41,0,0,0-48.52,5.11Q38,127.78,25.45,82.66C228,138.31,316.49,164,318.25,166.8c0,0,1.27,2,3.08,4.64C322.49,173.1,323.53,174.51,324.37,175.62Z"/><path class="cls-16" d="M324.31,174.93A414.07,414.07,0,0,0,252.6,169c-37.48.22-41.7,5.39-77.91,4.63-34.13-.72-42.13-5.71-75.11-4.81A313.15,313.15,0,0,0,51.08,174Q38,127.13,25.45,82c202.53,55.59,291,81.26,292.75,84.09,0,0,1.26,2,3.08,4.64C322.43,172.37,323.46,173.78,324.31,174.93Z"/><path class="cls-16" d="M324.25,174.37a412.67,412.67,0,0,0-71.68-5.9c-37.48.21-41.69,5.38-77.9,4.63-34.12-.72-42.13-5.71-75.1-4.81a313.16,313.16,0,0,0-48.49,5.11Q38,126.6,25.45,81.49c202.5,55.57,290.92,81.24,292.67,84.06,0,0,1.26,2,3.08,4.64C322.39,171.85,323.42,173.26,324.25,174.37Z"/><path class="cls-16" d="M324.25,173.7a415.76,415.76,0,0,0-71.68-5.87c-37.47.22-41.68,5.39-77.89,4.64-34.11-.73-42.13-5.71-75.07-4.81a313.55,313.55,0,0,0-48.53,5.12L25.45,80.88c202.46,55.54,290.86,81.19,292.67,84,0,0,1.26,2,3.08,4.64C322.33,171.18,323.36,172.59,324.25,173.7Z"/><path class="cls-16" d="M324.16,173.12a414.59,414.59,0,0,0-71.67-5.88c-37.47.23-41.68,5.39-77.88,4.64-34.11-.72-42.12-5.7-75.06-4.8a311.82,311.82,0,0,0-48.48,5.12L25.45,80.33c202.43,55.52,290.81,81.15,292.59,84,0,.06,1.27,2,3.08,4.65C322.28,170.62,323.32,172,324.16,173.12Z"/><path class="cls-16" d="M324.09,172.45a415.22,415.22,0,0,0-71.64-5.87c-37.46.23-41.67,5.39-77.86,4.65-34.11-.73-42.07-5.7-75-4.8a314,314,0,0,0-48.47,5.11L25.45,79.71C227.8,135.2,316.2,160.82,318,163.64c0,0,1.26,2,3.08,4.65C322.22,169.93,323.26,171.34,324.09,172.45Z"/><path class="cls-16" d="M324.07,172.09a413.27,413.27,0,0,0-71.65-5.86c-37.45.21-41.67,5.38-77.85,4.63-34.1-.71-42.06-5.7-75-4.79a312.77,312.77,0,0,0-48.47,5.11Q38,124.4,25.45,79.38c202.36,55.46,290.73,81.08,292.51,83.9,0,0,1.26,2,3.09,4.64C322.19,169.55,323.23,171,324.07,172.09Z"/><path class="cls-16" d="M324,171.57a413.24,413.24,0,0,0-71.64-5.86c-37.45.23-41.67,5.39-77.84,4.64-34.09-.72-42.06-5.69-75-4.79a311.44,311.44,0,0,0-48.46,5.12Q38,123.91,25.45,78.89C227.8,134.34,316.14,160,317.92,162.77c0,0,1.26,2,3.08,4.63C322.14,169.06,323.14,170.46,324,171.57Z"/><path class="cls-16" d="M324,171.05a415,415,0,0,0-71.62-5.81c-37.45.22-41.66,5.38-77.84,4.64-34.08-.72-42-5.7-75-4.79a312.39,312.39,0,0,0-48.45,5.11L25.45,78.42c202.35,55.42,290.64,81,292.43,83.83,0,.06,1.26,2,3.08,4.64C322.1,168.54,323.14,169.94,324,171.05Z"/><path class="cls-16" d="M323.76,169.88A413.41,413.41,0,0,0,252.19,164c-37.43.23-41.65,5.39-77.8,4.64-34.08-.71-42-5.67-75-4.77A312.4,312.4,0,0,0,51,169Q37.91,122.3,25.34,77.32c202.24,55.38,290.54,81,292.33,83.76,0,0,1.25,2,3.07,4.63C321.89,167.39,322.93,168.77,323.76,169.88Z"/><path class="cls-16" d="M323.73,169.44a415,415,0,0,0-71.54-5.84c-37.42.23-41.64,5.39-77.79,4.64-34.08-.71-42-5.68-75-4.77A313.49,313.49,0,0,0,51,168.58q-13.08-46.7-25.65-91.66c202.22,55.36,290.45,80.92,292.28,83.74,0,0,1.26,2,3.08,4.63C321.86,166.93,322.89,168.33,323.73,169.44Z"/><path class="cls-17" d="M322.62,166.32a429.79,429.79,0,0,0-68.1-4.65c-38,.43-42.48,5.52-78.81,5.07-34.62-.44-42.58-5.21-76.35-4.08a340.71,340.71,0,0,0-49.88,5.39L23,76.35Z"/><path class="cls-17" d="M283.73,160.83c6.58-1.86,20.13-4.61,33.4,1.49a38.76,38.76,0,0,1,5.55,3.13l-.09.88-38.89-4Z"/><path class="cls-4" d="M322.71,165.45A392.75,392.75,0,0,0,256,159.93c-37.27.11-40.65,5.38-77.5,5.27-37.05-.17-45.87-5.56-81.55-3.8a330,330,0,0,0-47.33,5.81L23.1,75.48l219.11-34Q282.44,103.46,322.71,165.45Z"/><path class="cls-18" d="M314.53,144,39.2,124.61,18,49.93,243.62,33Z"/><path class="cls-19" d="M39.2,124.59c-.09,2.27-.17,4.56-.26,6.84Q28.37,94.16,17.77,57c.08-2.36.14-4.71.22-7.07Z"/><path class="cls-20" d="M313.46,152.31,39,132.18c.09-2.28.17-4.55.25-6.83l275.34,19.38Z"/><path class="cls-20" d="M313.54,152.57,39,132.46c.09-2.28.17-4.55.26-6.83L314.63,145C314.27,147.55,313.91,150.06,313.54,152.57Z"/><path class="cls-21" d="M313.46,151.89,39,131.78q.14-3.42.25-6.83l275.34,19.38Z"/><path class="cls-22" d="M313.44,151.73,38.94,131.62c.09-2.28.17-4.55.26-6.83l275.33,19.38C314.16,146.7,313.81,149.22,313.44,151.73Z"/><path class="cls-23" d="M313.44,151.54,38.94,131.43c.09-2.28.17-4.57.26-6.84L314.53,144C314.16,146.51,313.81,149,313.44,151.54Z"/><path class="cls-24" d="M390.67,330.65l-307,54.74L84,342.76,391,288Q390.86,309.34,390.67,330.65Z"/><path class="cls-25" d="M129.14,359.72c0,6.8-6,12.92-14.21,13.79-9.41,1-18.08-5.14-18.08-13.79s8.67-14.79,18.08-13.81C123.19,346.76,129.14,352.9,129.14,359.72Z"/><path class="cls-25" d="M173.39,352.2c0,6.8-6,12.92-14.21,13.79-9.41,1-18.08-5.13-18.08-13.79s8.67-14.79,18.08-13.81C167.43,339.24,173.39,345.38,173.39,352.2Z"/><path class="cls-25" d="M215.09,344.74c0,6.81-6,12.93-14.21,13.81-9.42,1-18.1-5.14-18.1-13.81S191.46,330,200.88,331C209.11,331.8,215.09,337.94,215.09,344.74Z"/><path class="cls-25" d="M257,337.21c0,6.8-6,12.92-14.22,13.8-9.41,1-18.08-5.13-18.08-13.8s8.67-14.78,18.08-13.8C251.08,324.26,257,330.4,257,337.21Z"/><path class="cls-25" d="M297.74,330.8c0,6.8-6,12.92-14.2,13.79-9.41,1-18.09-5.13-18.09-13.79S274.13,316,283.54,317C291.78,317.85,297.74,324,297.74,330.8Z"/><path class="cls-25" d="M339.44,323.36c0,6.8-6,12.92-14.21,13.79-9.42,1-18.09-5.14-18.09-13.79s8.67-14.79,18.09-13.81C333.47,310.4,339.44,316.54,339.44,323.36Z"/><path class="cls-25" d="M381.38,315.82c0,6.8-6,12.92-14.21,13.79-9.42,1-18.09-5.13-18.09-13.79S357.75,301,367.17,302C375.41,302.86,381.38,309,381.38,315.82Z"/><path class="cls-26" d="M83.69,385.39,18.62,155.19q0-22.22,0-44.44l65.4,232Z"/></svg>