<?xml version="1.0" encoding="utf-8"?>
<!-- Generator: Adobe Illustrator 24.2.1, SVG Export Plug-In . SVG Version: 6.00 Build 0)  -->
<svg version="1.1" id="Слой_1" xmlns="http://www.w3.org/2000/svg" xmlns:xlink="http://www.w3.org/1999/xlink" x="0px" y="0px"
	 viewBox="0 0 400 400" style="enable-background:new 0 0 400 400;" xml:space="preserve">
<style type="text/css">
	.st0{fill:#8E6940;}
	.st1{fill:#BCB9BB;}
	.st2{opacity:0.47;fill:#606060;enable-background:new    ;}
	.st3{fill:#DADADA;}
	.st4{fill:#DFCE88;}
	.st5{opacity:0.17;fill:#494949;enable-background:new    ;}
	.st6{fill:#9E8F4F;}
	.st7{opacity:0.17;fill:#4C4C4B;enable-background:new    ;}
	.st8{fill:#A0935F;}
	.st9{fill:#936037;}
	.st10{fill:#AA693C;}
	.st11{fill:#B77142;}
	.st12{opacity:0.17;fill:#545454;enable-background:new    ;}
	.st13{opacity:0.17;fill:#5B5B5B;enable-background:new    ;}
	.st14{opacity:0.14;fill:#878787;enable-background:new    ;}
	.st15{opacity:0.14;fill:#5B5B5B;enable-background:new    ;}
	.st16{fill:#5B5B5B;}
	.st17{fill:#CA9E67;}
	.st18{fill:#7C5732;}
	.st19{opacity:0.6;fill:#775431;enable-background:new    ;}
	.st20{fill:#7A5735;}
	.st21{fill:#916A40;}
	.st22{fill:#B17F4A;}
	.st23{fill:#999999;}
	.st24{opacity:0.39;fill:#020202;enable-background:new    ;}
	.st25{fill:none;stroke:#2E6FD8;stroke-width:3.2781;stroke-linecap:round;stroke-linejoin:round;}
	.st26{fill:#2E6FD8;}
	.st27{fill:#727172;}
</style>
<g>
	<path class="st0" d="M390.7,330.6l-307,54.7C62,308.7,40.3,231.9,18.6,155.2l249.4-6.2L390.7,330.6z"/>
	<path class="st1" d="M391,288L84,342.8l-65.4-232l249.4-6.2C309,165.7,350,226.9,391,288z"/>
	<path class="st2" d="M373.1,262.2c-73,15.6-124.6,18.5-159.2,17.9c-24.7-0.7-49.4,0.3-74,3.1c-23.2,2.7-46.3,7-68.9,12.9l-51.9-182
		l249.9-6.2L373.1,262.2z"/>
	<path class="st2" d="M373.1,261.9c-73,15.6-124.6,18.5-159.2,17.9c-24.7-0.7-49.4,0.3-74,3.1c-23.2,2.7-46.3,7-68.9,12.9l-51.9-182
		l249.9-6.2L373.1,261.9z"/>
	<path class="st2" d="M373,261.7c-73,15.6-124.6,18.5-159.2,17.9c-24.7-0.7-49.4,0.3-74,3.1c-23.2,2.7-46.3,7-68.9,12.9
		C53.6,235,36.3,174.3,19,113.7l249.9-6.2L373,261.7z"/>
	<path class="st2" d="M373,261.5C300,277.1,248.4,280,213.8,279.4c-24.7-0.7-49.4,0.3-74,3.1c-23.2,2.7-46.3,7-68.9,12.9
		C53.6,234.8,36.2,174.1,19,113.4l249.9-6.2L373,261.5z"/>
	<path class="st2" d="M372.9,261.2c-73,15.6-124.6,18.5-159.2,17.9c-24.7-0.7-49.4,0.3-74,3.1c-23.2,2.7-46.3,7-68.9,12.9
		c-17.3-60.7-34.6-121.4-51.9-182.1l249.9-6.2C303.6,158.3,338.3,209.7,372.9,261.2z"/>
	<path class="st2" d="M372.8,260.9c-73,15.6-124.6,18.5-159.2,17.9c-24.7-0.7-49.4,0.3-74,3.2c-23.2,2.7-46.3,7-68.9,12.9
		c-17.3-60.7-34.6-121.4-51.9-182l249.9-6.2L372.8,260.9z"/>
	<path class="st3" d="M373,260.6c-73,15.6-124.6,18.5-159.2,17.9c-24.7-0.7-49.4,0.3-74,3.1c-23.2,2.7-46.3,7-68.9,12.9
		c-17.3-60.7-34.6-121.4-51.9-182l249.9-6.2L373,260.6z"/>
	<path class="st4" d="M348.7,206.4c-25.4-6.2-51.4-9.2-77.6-9c-48.4,0.4-55.3,11.8-100.6,8.4c-23.9-1.8-36.7-6-65.1-4.2
		c-14.9,1-29.7,3.3-44.2,7L23,76.1l247.2,9.1L348.7,206.4z"/>
	<path class="st5" d="M58,235.5C46.2,194,34.3,152.5,22.4,110.9l0.3-32.8c12.7,44.2,25.5,88.3,38.2,132.5c-2,16.3-2.6,22.3-2.5,22.8
		c0.1,0.4,0.1,0.9,0.1,1.3c0,0.1,0,0.3,0,0.4v0.3C58.5,235.5,58.3,235.6,58,235.5z"/>
	<path class="st5" d="M58,235c-11.9-41.5-23.8-83.1-35.7-124.6l0.3-32.8c12.7,44.2,25.5,88.3,38.2,132.5c-2,16.3-2.6,22.3-2.5,22.8
		c0.1,0.4,0.1,0.9,0.1,1.3c0,0.1,0,0.3,0,0.4v0.3C58.5,235,58.3,235,58,235z"/>
	<path class="st5" d="M58,234.5C46.2,193,34.3,151.5,22.4,110l0.3-32.8c12.7,44.2,25.5,88.3,38.2,132.5c-2,16.3-2.6,22.3-2.5,22.9
		c0.1,0.4,0.1,0.9,0.1,1.3c0,0.1,0,0.3,0,0.4v0.3C58.5,234.5,58.3,234.6,58,234.5z"/>
	<path class="st5" d="M58,234.1C46.2,192.5,34.3,151,22.4,109.5l0.3-32.8l38.2,132.5c-2,16.4-2.6,22.3-2.5,22.8
		c0.1,0.4,0.1,0.9,0.1,1.3c0,0.1,0,0.3,0,0.4v0.3C58.5,234,58.3,234.1,58,234.1z"/>
	<path class="st5" d="M58,233.8c-11.9-41.5-23.8-83.1-35.7-124.6l0.3-32.8c12.7,44.2,25.5,88.3,38.2,132.5
		c-2,16.3-2.6,22.3-2.5,22.8c0.1,0.4,0.1,0.9,0.1,1.3c0,0.1,0,0.3,0,0.4v0.3C58.5,233.8,58.3,233.8,58,233.8z"/>
	<path class="st6" d="M58.4,233.5C46.5,192,34.6,150.4,22.7,108.9L23,76.2l38.2,132.5C60.3,216.9,59.3,225.2,58.4,233.5z"/>
	<path class="st7" d="M344.4,233.7c-13.9-3.5-28-5.9-42.3-7.3c-24.1-2.5-48.5-2-72.5,1.4c-19.6,2.8-24.6,5.6-42,5.9
		c-11.8,0.1-23.6-0.6-35.3-1.9c-7.8-1-14.8-2.3-26.6-2.9c-0.5,0-8.4-0.4-16.5-0.3c-20.3,0.4-39.6,4.3-50.8,7
		c1-8.3,1.9-16.6,2.8-24.9c7.9-1.9,30.3-6.9,52.3-7.3c8.7-0.2,17,0.3,17,0.3c10,0.6,16.2,1.6,23,2.5c0,0,15.7,2,32.6,2.4
		c7.2,0.1,9.5-0.6,43.6-5.3c13.6-1.9,20.4-2.8,21.2-2.9c24.9-2.4,44.8-0.4,57.2,1c13.6,1.5,27.2,3.9,40.5,7.1
		C347.3,216.8,345.8,225.3,344.4,233.7z"/>
	<path class="st7" d="M344.4,233.2c-13.9-3.5-28-5.9-42.3-7.3c-24.1-2.5-48.5-2-72.5,1.3c-19.6,2.8-24.6,5.6-42,5.9
		c-11.8,0.1-23.6-0.6-35.3-1.9c-7.8-1-14.8-2.3-26.6-2.9c-0.5,0-8.4-0.4-16.5-0.3c-20.3,0.4-39.6,4.3-50.8,7
		c1-8.3,1.9-16.6,2.8-24.9c7.9-1.9,30.3-6.9,52.3-7.4c8.7-0.2,17,0.3,17,0.3c10,0.6,16.2,1.6,23,2.5c0,0,15.7,2,32.6,2.4
		c7.2,0.2,9.5-0.6,43.6-5.3c13.6-1.9,20.4-2.8,21.2-2.9c24.9-2.4,44.8-0.4,57.2,1c13.7,1.5,27.2,3.9,40.5,7.1
		C347.3,216.4,345.8,224.8,344.4,233.2z"/>
	<path class="st7" d="M344.4,232.7c-13.9-3.5-28-5.9-42.3-7.3c-24.1-2.5-48.5-2.1-72.5,1.3c-19.6,2.8-24.6,5.6-42,5.9
		c-11.8,0.1-23.6-0.6-35.3-1.9c-7.8-1-14.8-2.3-26.6-2.9c-0.5,0-8.4-0.4-16.5-0.3c-20.3,0.4-39.6,4.3-50.8,7
		c1-8.3,1.9-16.6,2.8-24.9c7.9-1.9,30.3-6.9,52.3-7.3c8.7-0.2,17,0.3,17,0.3c10,0.6,16.2,1.6,23,2.5c0,0,15.7,2,32.6,2.4
		c7.2,0.1,9.5-0.6,43.6-5.3c13.6-1.9,20.4-2.8,21.2-2.9c24.9-2.4,44.8-0.4,57.2,1c13.7,1.5,27.2,3.9,40.5,7.1
		C347.3,215.9,345.8,224.4,344.4,232.7z"/>
	<path class="st7" d="M344.4,232.4c-13.9-3.5-28-5.9-42.3-7.3c-24.1-2.5-48.5-2.1-72.5,1.3c-19.6,2.8-24.6,5.6-42,5.9
		c-11.8,0.1-23.6-0.6-35.3-1.9c-7.8-1-14.8-2.3-26.6-2.9c-0.5,0-8.4-0.4-16.5-0.3c-20.3,0.4-39.6,4.3-50.8,7
		c1-8.3,1.9-16.6,2.8-24.9c7.9-1.9,30.3-6.9,52.3-7.3c8.7-0.2,17,0.3,17,0.3c10,0.6,16.2,1.6,23,2.5c0,0,15.7,2,32.6,2.4
		c7.2,0.1,9.5-0.6,43.6-5.3c13.6-1.9,20.4-2.8,21.2-2.9c19.1-1.8,38.3-1.4,57.2,1.1c13.7,1.5,27.2,3.9,40.5,7.1
		C347.3,215.5,345.8,224,344.4,232.4z"/>
	<path class="st7" d="M344.4,232c-13.9-3.5-28-5.9-42.3-7.3c-24.1-2.5-48.5-2-72.5,1.3c-19.6,2.8-24.6,5.6-42,5.9
		c-11.8,0.1-23.6-0.6-35.3-1.9c-7.8-1-14.8-2.3-26.6-2.9c-0.5,0-8.4-0.4-16.5-0.3c-20.3,0.4-39.6,4.3-50.8,7
		c1-8.3,1.9-16.6,2.8-24.9c7.9-1.9,30.3-6.9,52.3-7.4c8.7-0.2,17,0.3,17,0.3c10,0.6,16.2,1.6,23,2.5c0,0,15.7,2,32.6,2.4
		c7.2,0.2,9.5-0.6,43.6-5.3c13.6-1.8,20.4-2.8,21.2-2.9c24.9-2.4,44.8-0.4,57.2,1c13.7,1.5,27.2,3.9,40.5,7.1
		C347.3,215.2,345.8,223.6,344.4,232z"/>
	<path class="st8" d="M344.4,231.7c-13.9-3.5-28-5.9-42.3-7.3c-24.1-2.5-48.5-2-72.5,1.3c-19.6,2.8-24.6,5.6-42,5.9
		c-11.8,0.1-23.6-0.6-35.3-1.9c-7.8-1-14.8-2.3-26.6-2.9c-0.5,0-8.4-0.4-16.5-0.3c-20.3,0.4-39.6,4.3-50.8,7
		c1-8.3,1.9-16.6,2.8-24.9c7.9-1.9,30.3-6.9,52.3-7.3c8.7-0.2,17,0.3,17,0.3c10,0.6,16.2,1.6,23,2.5c0,0,15.7,2,32.6,2.4
		c7.2,0.1,9.5-0.6,43.6-5.3c13.6-1.9,20.4-2.8,21.2-2.9c19.1-1.8,38.3-1.4,57.2,1.1c13.7,1.5,27.2,3.9,40.5,7.1
		C347.3,214.9,345.8,223.3,344.4,231.7z"/>
	<path class="st9" d="M75.7,83.8l55.6,156.5c0.2,12.8,0.4,25.6,0.6,38.5C114.8,226.9,97.8,175,80.7,123.1L75.7,83.8z"/>
	<path class="st9" d="M94.9,79.3l55,158.8c0.1,12.8,0.2,25.6,0.3,38.4L97.9,119.1C96.9,105.9,95.9,92.6,94.9,79.3z"/>
	<path class="st10" d="M150,238.1l-18.6,2.2c-18.6-52.2-37.2-104.3-55.8-156.4l19.3-4.5L150,238.1z"/>
	<path class="st11" d="M150.3,276.5l-18.4,2.3l-0.4-38.9l18.6-1.8C150.1,250.9,150.2,263.7,150.3,276.5z"/>
	<path class="st9" d="M210,69.5l67.6,148.9c-0.1,13.3-0.1,26.6-0.2,39.8C255.7,206,234,153.7,212.3,101.4
		C211.5,90.8,210.8,80.2,210,69.5z"/>
	<path class="st9" d="M228.1,73.2c22.5,47.7,45.1,95.5,67.6,143.2l-1.3,38.4c-19.7-51.5-39.3-103.1-59-154.6L228.1,73.2z"/>
	<path class="st10" d="M295.7,216.4l-18.2,2c-22.4-49.4-44.9-98.8-67.3-148.2l14.2-4.9L295.7,216.4z"/>
	<path class="st11" d="M294.4,254.8l-17.1,3.4c0.1-13.3,0.1-26.6,0.2-39.8l18.2-2L294.4,254.8z"/>
	<path class="st8" d="M103.6,201.7c3.4-0.4,6.9-0.4,10.4,0v24.8h-10.4V201.7z"/>
	<path class="st12" d="M90.5,158.3l8.7-8.2c5.3,15.7,10.6,31.3,16,47c0,0.3,0,0.5-0.1,0.8c-0.1,0.7-0.3,1.4-0.5,2.2
		c-0.3,1.3-0.4,1.5-0.6,1.6s-0.5-0.2-1-0.3c-0.5-0.1-1.1-0.2-1.6-0.1c-0.9,0-1.3-0.5-2.4-1.2c-0.9-0.5-1.9-1-2.9-1.3
		C100.8,185.3,95.7,171.8,90.5,158.3z"/>
	<path class="st12" d="M90.1,158.3l8.7-8.2c5.3,15.7,10.7,31.3,16,47c0,0.3,0,0.5-0.1,0.8c-0.1,0.7-0.3,1.4-0.5,2.2
		c-0.3,1.3-0.4,1.5-0.6,1.6s-0.4-0.2-1-0.3c-0.5-0.1-1.1-0.2-1.6-0.1c-0.9,0-1.3-0.5-2.4-1.2c-0.9-0.5-1.9-1-2.9-1.3
		C100.4,185.3,95.2,171.8,90.1,158.3z"/>
	<path class="st12" d="M89.7,158.3l8.7-8.1l16,47c0,0.3,0,0.5-0.1,0.8c-0.1,0.7-0.3,1.4-0.5,2.2c-0.3,1.3-0.4,1.5-0.6,1.6
		c-0.2,0.1-0.5-0.2-1-0.3c-0.5-0.1-1.1-0.2-1.6-0.1c-0.9,0-1.3-0.5-2.4-1.2c-0.9-0.5-1.9-1-2.9-1.3C100,185.3,94.9,171.8,89.7,158.3
		z"/>
	<path class="st12" d="M89.5,158.3c2.9-2.7,5.8-5.4,8.7-8.2c5.3,15.7,10.6,31.3,16,47c0,0.3,0,0.5-0.1,0.8c-0.1,0.7-0.3,1.4-0.5,2.2
		c-0.3,1.3-0.4,1.5-0.6,1.6s-0.5-0.2-1-0.3c-0.5-0.1-1.1-0.2-1.6-0.1c-0.9,0-1.3-0.5-2.4-1.2c-0.9-0.5-1.9-1-2.9-1.3
		C99.8,185.3,94.6,171.8,89.5,158.3z"/>
	<path class="st12" d="M89.1,158.2l8.7-8.1l16,47c0,0.3,0,0.5-0.1,0.8c-0.1,0.7-0.3,1.4-0.5,2.2c-0.3,1.3-0.4,1.5-0.6,1.6
		c-0.2,0.1-0.5-0.2-1-0.3c-0.5-0.1-1.1-0.2-1.6-0.1c-0.9,0-1.3-0.5-2.4-1.2c-0.9-0.5-1.9-1-2.9-1.3L89.1,158.2z"/>
	<path class="st12" d="M88.7,158.2l8.7-8.1l16,47c0,0.3,0,0.5-0.1,0.8c-0.1,0.7-0.3,1.4-0.5,2.2c-0.3,1.3-0.4,1.5-0.6,1.6
		c-0.2,0.1-0.5-0.2-1-0.3c-0.5-0.1-1.1-0.2-1.6-0.1c-0.9,0-1.3-0.5-2.4-1.2c-0.9-0.5-1.9-1-2.9-1.3C99,185.2,93.8,171.7,88.7,158.2z
		"/>
	<path class="st12" d="M88.3,158.2L97,150l16,47c0,0.3,0,0.5-0.1,0.8c-0.1,0.7-0.3,1.4-0.5,2.2c-0.3,1.3-0.4,1.5-0.6,1.6
		c-0.2,0.1-0.5-0.2-1-0.3c-0.5-0.1-1.1-0.2-1.6-0.1c-0.9,0-1.3-0.5-2.4-1.2c-0.9-0.5-1.9-1-2.9-1.3L88.3,158.2z"/>
	<path class="st12" d="M87.9,158l8.7-8.1l16,47c0,0.3,0,0.5-0.1,0.8c-0.1,0.7-0.3,1.4-0.5,2.2c-0.3,1.3-0.4,1.5-0.6,1.6
		c-0.2,0.1-0.5-0.2-1-0.3c-0.5-0.1-1.1-0.2-1.6-0.1c-0.9,0-1.3-0.5-2.4-1.2c-0.9-0.5-1.9-1-2.9-1.3C98.2,185,93.1,171.5,87.9,158z"
		/>
	<path class="st4" d="M87.8,158.3l7.2-8.5l18.9,51.9c-1.7-0.1-3.5-0.1-5.3-0.1s-3.4,0-5.1,0.1L87.8,158.3z"/>
	<path class="st8" d="M252,198.2c3.4-0.4,6.9-0.4,10.4,0V223H252L252,198.2z"/>
	<path class="st13" d="M228.6,153.3l13.2-6.4c8.1,16.4,16.1,32.7,24.2,49.1c-0.4,0.3-1,0.7-1.7,1.2c-0.6,0.4-1.3,0.8-2,1.1
		c-1.6,0.4-3.5-1.8-4.3-2.6c-1.7-1.6-5.2-2.9-12.9-1.4L228.6,153.3z"/>
	<path class="st13" d="M227.7,153.1l13.2-6.3l24.2,49.1c-0.4,0.3-1,0.7-1.7,1.2c-0.6,0.4-1.2,0.8-1.9,1.1c-1.6,0.4-3.5-1.8-4.3-2.6
		c-1.7-1.6-5.2-2.9-12.9-1.4L227.7,153.1z"/>
	<path class="st13" d="M227,152.9l13.2-6.4l24.2,49.1c-0.4,0.3-1,0.7-1.7,1.2c-0.6,0.4-1.3,0.8-2,1.1c-1.6,0.4-3.5-1.8-4.3-2.6
		c-1.7-1.6-5.2-2.9-12.9-1.4L227,152.9z"/>
	<path class="st13" d="M226.1,152.7l13.2-6.4l24.2,49.1c-0.4,0.3-1,0.7-1.7,1.2c-0.6,0.4-1.3,0.8-2,1.1c-1.6,0.4-3.5-1.8-4.3-2.6
		c-1.7-1.6-5.2-2.9-12.9-1.4C237.1,180.1,231.6,166.4,226.1,152.7z"/>
	<path class="st13" d="M225.2,152.6l13.2-6.4l24.2,49.2c-0.4,0.3-1,0.7-1.7,1.2c-0.6,0.4-1.2,0.8-1.9,1.1c-1.6,0.4-3.5-1.8-4.3-2.6
		c-1.7-1.6-5.2-2.9-12.9-1.4L225.2,152.6z"/>
	<path class="st13" d="M224.5,152.3l13.2-6.4l24.2,49.1c-0.4,0.3-0.9,0.7-1.7,1.2c-0.6,0.4-1.3,0.8-2,1.1c-1.6,0.4-3.5-1.8-4.3-2.6
		c-1.7-1.6-5.2-2.9-12.9-1.4L224.5,152.3z"/>
	<path class="st4" d="M224.9,153.3l13.2-6.4l24.4,51.3c-1.7-0.1-3.5-0.1-5.3-0.1c-5.1,0-10.3,0.4-15.3,1.1L224.9,153.3z"/>
	<path class="st14" d="M323.7,168.6c-15.9-2.5-41.3-5.8-66.9-5.4c-12,0.2-21.6,0.9-21.6,0.9c-20,1.6-29.1,4.5-57.2,4.1
		c-34.6-0.4-42.6-5.2-76.3-4.1c-16.7,0.6-33.4,2.4-49.9,5.4L25.3,77.8C194.4,118,315,154.3,317.5,158.2c1.8,2.9,3.5,5.8,3.5,5.8
		C322,165.6,322.9,167.2,323.7,168.6z"/>
	<path class="st15" d="M324.4,177.2c-23.7-4-47.7-6-71.7-5.9c-37.5,0.2-41.7,5.4-78,4.6c-34.1-0.7-42.1-5.7-75.1-4.8
		c-16.3,0.4-32.5,2.1-48.5,5.1L25.3,84.1c202.6,55.7,291.1,81.4,292.9,84.2c0,0,1.3,2,3.1,4.7C322.5,174.7,323.6,176.1,324.4,177.2z
		"/>
	<path class="st15" d="M324.4,176.3c-23.7-4-47.7-6-71.7-5.9c-37.5,0.2-41.7,5.4-77.9,4.6c-34.1-0.7-42.1-5.7-75.1-4.8
		c-16.3,0.4-32.5,2.1-48.5,5.1c-8.7-31.3-17.3-61.9-25.6-92c202.6,55.6,291,81.4,292.9,84.2c0,0.1,1.3,2,3.1,4.7
		C322.5,173.8,323.6,175.2,324.4,176.3z"/>
	<path class="st15" d="M324.4,175.6c-23.7-4-47.7-6-71.7-5.9c-37.5,0.2-41.7,5.4-77.9,4.6c-34.1-0.7-42.1-5.7-75.1-4.8
		c-16.3,0.4-32.5,2.2-48.5,5.1c-8.7-31.2-17.3-61.9-25.6-92c202.6,55.6,291,81.3,292.8,84.1c0,0,1.3,2,3.1,4.6
		C322.5,173.1,323.5,174.5,324.4,175.6z"/>
	<path class="st15" d="M324.3,174.9c-23.7-4-47.7-6-71.7-5.9c-37.5,0.2-41.7,5.4-77.9,4.6c-34.1-0.7-42.1-5.7-75.1-4.8
		c-16.3,0.4-32.5,2.2-48.5,5.1c-8.7-31.2-17.2-61.9-25.6-92c202.5,55.6,290.9,81.3,292.7,84.1c0,0,1.3,2,3.1,4.6
		C322.4,172.4,323.5,173.8,324.3,174.9z"/>
	<path class="st15" d="M324.3,174.4c-23.7-4-47.7-6-71.7-5.9c-37.5,0.2-41.7,5.4-77.9,4.6c-34.1-0.7-42.1-5.7-75.1-4.8
		c-16.3,0.4-32.5,2.2-48.5,5.1c-8.7-31.2-17.3-61.8-25.6-91.9c202.5,55.6,290.9,81.2,292.7,84.1c0,0,1.3,2,3.1,4.6
		C322.4,171.9,323.4,173.3,324.3,174.4z"/>
	<path class="st15" d="M324.3,173.7c-23.7-4-47.7-6-71.7-5.9c-37.5,0.2-41.7,5.4-77.9,4.6c-34.1-0.7-42.1-5.7-75.1-4.8
		c-16.3,0.4-32.5,2.2-48.5,5.1c-8.7-31.2-17.3-61.9-25.6-91.9c202.5,55.5,290.9,81.2,292.7,84c0,0,1.3,2,3.1,4.6
		C322.3,171.2,323.4,172.6,324.3,173.7z"/>
	<path class="st15" d="M324.2,173.1c-23.7-4-47.6-6-71.7-5.9c-37.5,0.2-41.7,5.4-77.9,4.6c-34.1-0.7-42.1-5.7-75.1-4.8
		c-16.3,0.4-32.5,2.2-48.5,5.1L25.5,80.3c202.4,55.5,290.8,81.2,292.6,84c0,0.1,1.3,2,3.1,4.6C322.3,170.6,323.3,172,324.2,173.1z"
		/>
	<path class="st15" d="M324.1,172.5c-23.7-4-47.6-6-71.6-5.9c-37.5,0.2-41.7,5.4-77.9,4.6c-34.1-0.7-42.1-5.7-75.1-4.8
		c-16.3,0.4-32.5,2.2-48.5,5.1c-8.7-31.2-17.2-61.8-25.6-91.8c202.4,55.5,290.7,81.1,292.5,83.9c0,0,1.3,2,3.1,4.6
		C322.2,169.9,323.3,171.3,324.1,172.5z"/>
	<path class="st15" d="M324.1,172.1c-23.7-4-47.6-6-71.6-5.9c-37.5,0.2-41.7,5.4-77.9,4.6c-34.1-0.7-42.1-5.7-75-4.8
		c-16.3,0.4-32.5,2.2-48.5,5.1c-8.7-31.2-17.2-61.8-25.6-91.8c202.4,55.5,290.7,81.1,292.5,83.9c0,0,1.3,2,3.1,4.6
		C322.2,169.5,323.2,171,324.1,172.1z"/>
	<path class="st15" d="M324,171.6c-23.7-4-47.6-6-71.6-5.9c-37.4,0.2-41.7,5.4-77.8,4.6c-34.1-0.7-42.1-5.7-75-4.8
		c-16.3,0.4-32.5,2.2-48.5,5.1c-8.7-31.2-17.2-61.8-25.6-91.8c202.4,55.4,290.7,81.1,292.5,83.9c0,0,1.3,2,3.1,4.6
		C322.1,169.1,323.1,170.5,324,171.6z"/>
	<path class="st15" d="M324,171.1c-23.6-4-47.6-6-71.6-5.8c-37.4,0.2-41.7,5.4-77.8,4.6c-34.1-0.7-42-5.7-75-4.8
		c-16.3,0.4-32.5,2.2-48.4,5.1L25.5,78.4c202.4,55.4,290.6,81,292.4,83.8c0,0.1,1.3,2,3.1,4.6C322.1,168.5,323.1,169.9,324,171.1z"
		/>
	<path class="st15" d="M323.8,169.9c-23.6-4-47.6-6-71.6-5.8c-37.4,0.2-41.6,5.4-77.8,4.6c-34.1-0.7-42-5.7-75-4.8
		c-16.3,0.4-32.5,2.2-48.4,5.1c-8.7-31.1-17.2-61.7-25.6-91.7c202.2,55.4,290.5,80.9,292.3,83.8c0,0.1,1.3,2,3.1,4.6
		C321.9,167.4,322.9,168.8,323.8,169.9z"/>
	<path class="st15" d="M323.7,169.4c-23.6-4-47.6-6-71.5-5.8c-37.4,0.2-41.6,5.4-77.8,4.6c-34.1-0.7-42-5.7-75-4.8
		c-16.3,0.4-32.4,2.2-48.4,5.1c-8.7-31.1-17.3-61.7-25.7-91.7c202.2,55.4,290.4,80.9,292.3,83.7c0,0,1.3,2,3.1,4.6
		C321.9,166.9,322.9,168.3,323.7,169.4z"/>
	<path class="st16" d="M322.6,166.3c-22.5-3.3-45.3-4.9-68.1-4.6c-38,0.4-42.5,5.5-78.8,5.1c-34.6-0.4-42.6-5.2-76.3-4.1
		c-16.7,0.6-33.4,2.4-49.9,5.4L23,76.4L322.6,166.3z"/>
	<path class="st16" d="M283.7,160.8c6.6-1.9,20.1-4.6,33.4,1.5c1.9,0.9,3.8,1.9,5.5,3.1l-0.1,0.9l-38.9-4L283.7,160.8z"/>
	<path class="st3" d="M322.7,165.5c-22-3.7-44.4-5.6-66.7-5.5c-37.3,0.1-40.7,5.4-77.5,5.3c-37-0.2-45.9-5.6-81.5-3.8
		c-15.9,0.8-31.7,2.7-47.3,5.8L23.1,75.5l219.1-34C269,82.8,295.9,124.1,322.7,165.5z"/>
	<path class="st17" d="M314.5,144L39.2,124.6C32.1,99.7,25.1,74.8,18,49.9L243.6,33L314.5,144z"/>
	<path class="st18" d="M39.2,124.6c-0.1,2.3-0.2,4.6-0.3,6.8C31.9,106.6,24.8,81.8,17.8,57c0.1-2.4,0.1-4.7,0.2-7.1
		C25.1,74.8,32.1,99.7,39.2,124.6z"/>
	<path class="st19" d="M313.5,152.3L39,132.2c0.1-2.3,0.2-4.6,0.3-6.8l275.3,19.4L313.5,152.3z"/>
	<path class="st19" d="M313.5,152.6L39,132.5c0.1-2.3,0.2-4.6,0.3-6.8L314.6,145C314.3,147.6,313.9,150.1,313.5,152.6z"/>
	<path class="st20" d="M313.5,151.9L39,131.8c0.1-2.3,0.2-4.6,0.3-6.8l275.3,19.4L313.5,151.9z"/>
	<path class="st21" d="M313.4,151.7L38.9,131.6c0.1-2.3,0.2-4.6,0.3-6.8l275.3,19.4C314.2,146.7,313.8,149.2,313.4,151.7z"/>
	<path class="st22" d="M313.4,151.5L38.9,131.4c0.1-2.3,0.2-4.6,0.3-6.8L314.5,144C314.2,146.5,313.8,149,313.4,151.5z"/>
	<path class="st23" d="M390.7,330.6c-102.3,18.2-204.7,36.5-307,54.7c0.1-14.2,0.2-28.4,0.4-42.6c102.3-18.2,204.7-36.5,307-54.7
		C390.9,302.2,390.8,316.4,390.7,330.6z"/>
	<path class="st24" d="M129.1,359.7c0,6.8-6,12.9-14.2,13.8c-9.4,1-18.1-5.1-18.1-13.8c0-8.7,8.7-14.8,18.1-13.8
		C123.2,346.8,129.1,352.9,129.1,359.7z"/>
	<path class="st24" d="M173.4,352.2c0,6.8-6,12.9-14.2,13.8c-9.4,1-18.1-5.1-18.1-13.8c0-8.7,8.7-14.8,18.1-13.8
		C167.4,339.2,173.4,345.4,173.4,352.2z"/>
	<path class="st24" d="M215.1,344.7c0,6.8-6,12.9-14.2,13.8c-9.4,1-18.1-5.1-18.1-13.8c0-8.7,8.7-14.8,18.1-13.8
		C209.1,331.8,215.1,337.9,215.1,344.7z"/>
	<path class="st24" d="M257,337.2c0,6.8-6,12.9-14.2,13.8c-9.4,1-18.1-5.1-18.1-13.8c0-8.7,8.7-14.8,18.1-13.8
		C251.1,324.3,257,330.4,257,337.2z"/>
	<path class="st24" d="M297.7,330.8c0,6.8-6,12.9-14.2,13.8c-9.4,1-18.1-5.1-18.1-13.8c0-8.7,8.7-14.8,18.1-13.8
		C291.8,317.9,297.7,324,297.7,330.8z"/>
	<path class="st24" d="M339.4,323.4c0,6.8-6,12.9-14.2,13.8c-9.4,1-18.1-5.1-18.1-13.8s8.7-14.8,18.1-13.8
		C333.5,310.4,339.4,316.5,339.4,323.4z"/>
	<path class="st24" d="M381.4,315.8c0,6.8-6,12.9-14.2,13.8c-9.4,1-18.1-5.1-18.1-13.8c0-8.7,8.7-14.8,18.1-13.8
		C375.4,302.9,381.4,309,381.4,315.8z"/>
	<line class="st25" x1="18" y1="49.9" x2="243.6" y2="33"/>
	<line class="st25" x1="391" y1="288" x2="243.6" y2="33"/>
	<path class="st26" d="M111.5,17.8h4.4v10.5h6.9v3.5h-11.3V17.8z"/>
	<path class="st26" d="M135.8,31.7h-12c0.1-1.2,0.6-2.3,1.2-3.2c1.1-1.4,2.4-2.6,3.9-3.6c0.8-0.5,1.6-1.2,2.2-1.9
		c0.3-0.4,0.5-0.8,0.5-1.2c0-0.4-0.2-0.8-0.5-1.1c-0.3-0.3-0.8-0.5-1.2-0.5c-0.5,0-0.9,0.2-1.2,0.5c-0.4,0.5-0.6,1-0.6,1.6l-4-0.3
		c0.1-0.9,0.4-1.8,0.9-2.5c0.4-0.6,1-1.1,1.8-1.4c1-0.4,2.1-0.5,3.1-0.5c1.1,0,2.2,0.1,3.3,0.5c0.7,0.3,1.4,0.8,1.8,1.4
		c0.4,0.6,0.7,1.4,0.7,2.2c0,0.9-0.3,1.7-0.8,2.4c-0.8,1-1.7,1.9-2.8,2.5c-0.8,0.5-1.3,0.9-1.6,1.1c-0.3,0.2-0.6,0.5-1,0.8h6.2V31.7
		z"/>
	<path class="st26" d="M324.1,124.2h4.4v10.5h6.8v3.4h-11.3V124.2z"/>
	<path class="st26" d="M345.7,124v14.1h-4v-9.3c-0.6,0.4-1.2,0.8-1.9,1.2c-0.7,0.3-1.5,0.6-2.3,0.9v-3.2c1.1-0.3,2.2-0.8,3.1-1.5
		c0.7-0.6,1.3-1.3,1.8-2.2L345.7,124z"/>
	<path class="st27" d="M83.7,385.4C62,308.7,40.3,231.9,18.6,155.2c0-14.8,0-29.6,0-44.4c21.8,77.3,43.6,154.7,65.4,232
		C83.9,357,83.8,371.2,83.7,385.4z"/>
</g>
</svg>
