<svg id="Слой_1" data-name="Слой 1" xmlns="http://www.w3.org/2000/svg" viewBox="0 0 1024 1024"><defs><style>.cls-1,.cls-2,.cls-3{fill:none;stroke:#000;stroke-linecap:round;stroke-linejoin:round;}.cls-1{stroke-width:34px;}.cls-2,.cls-3{stroke-width:27px;}.cls-3{stroke-dasharray:45.14 45.14;}</style></defs><line class="cls-1" x1="508.48" y1="231.87" x2="105.83" y2="498.34"/><line class="cls-1" x1="509.48" y1="231.87" x2="915.83" y2="497.17"/><line class="cls-1" x1="508.48" y1="339.87" x2="105.83" y2="608.69"/><line class="cls-1" x1="509.48" y1="339.87" x2="918.17" y2="608.69"/><line class="cls-1" x1="105.83" y1="498.34" x2="105.83" y2="608.69"/><line class="cls-1" x1="918.17" y1="498.34" x2="918.17" y2="608.69"/><line class="cls-1" x1="704.91" y1="356.43" x2="704.91" y2="217.12"/><line class="cls-1" x1="792.57" y1="217.12" x2="704.91" y2="217.12"/><line class="cls-1" x1="792.57" y1="415.3" x2="792.57" y2="217.12"/><line class="cls-2" x1="189.17" y1="553.52" x2="189.17" y2="573.52"/><line class="cls-3" x1="189.17" y1="618.66" x2="189.17" y2="776.64"/><line class="cls-2" x1="189.17" y1="799.21" x2="189.17" y2="819.21"/><line class="cls-2" x1="836.39" y1="553.52" x2="836.39" y2="573.52"/><line class="cls-3" x1="836.39" y1="618.66" x2="836.39" y2="776.64"/><line class="cls-2" x1="836.39" y1="799.21" x2="836.39" y2="819.21"/></svg>