<svg id="Слой_1" data-name="Слой 1" xmlns="http://www.w3.org/2000/svg" xmlns:xlink="http://www.w3.org/1999/xlink" viewBox="0 0 379.9 288.99"><defs><style>.cls-1,.cls-13,.cls-9{fill:none;}.cls-2{fill:#1d1d1b;}.cls-3{fill:#cb9867;}.cls-4{fill:url(#Stipple_Fine_2);}.cls-5{fill:#969699;}.cls-6{fill:#777;}.cls-7{fill:#b5b5ba;}.cls-8{fill:#ea7a4e;}.cls-9{stroke:#bf6143;}.cls-12,.cls-9{stroke-miterlimit:10;stroke-width:1.04px;}.cls-10{fill:#828181;}.cls-11{fill:#a5a5a5;}.cls-12{fill:#a0a0a0;stroke:#a0a0a0;}.cls-13{stroke:#fff;stroke-linecap:round;stroke-linejoin:round;stroke-width:5px;}</style><pattern id="Stipple_Fine_2" data-name="Stipple Fine 2" width="72" height="72" patternTransform="translate(-36 55.01)" patternUnits="userSpaceOnUse" viewBox="0 0 72 72"><rect class="cls-1" width="72" height="72"/><rect class="cls-1" width="72" height="72"/><rect class="cls-1" width="72" height="72"/><rect class="cls-1" width="72" height="72"/><rect class="cls-1" width="72" height="72"/><path class="cls-2" d="M56.43,72.69a.36.36,0,0,1-.26-.11.39.39,0,0,1-.11-.27.36.36,0,0,1,.11-.26.41.41,0,0,1,.53,0,.36.36,0,0,1,.11.26.38.38,0,0,1-.38.38Z"/><path class="cls-2" d="M3.75,72.13A.37.37,0,0,1,3.48,72a.36.36,0,0,1,0-.51h0a.4.4,0,0,1,.52,0,.37.37,0,0,1,.12.26A.42.42,0,0,1,4,72,.34.34,0,0,1,3.75,72.13Z"/><path class="cls-2" d="M18.56,72.13a.36.36,0,0,1-.27-.12.36.36,0,0,1-.11-.26.32.32,0,0,1,.12-.26.39.39,0,0,1,.53,0,.4.4,0,0,1,.1.26.38.38,0,0,1-.1.27A.39.39,0,0,1,18.56,72.13Z"/><path class="cls-2" d="M40.31,72.31A.33.33,0,0,1,40,72.2a.32.32,0,0,1-.1-.26.35.35,0,0,1,.1-.26.4.4,0,0,1,.54,0,.38.38,0,0,1,.1.27.39.39,0,0,1-.11.27A.31.31,0,0,1,40.31,72.31Z"/><path class="cls-2" d="M12.93,69.88a.32.32,0,0,1-.26-.12.36.36,0,0,1-.11-.26.39.39,0,0,1,.11-.27.41.41,0,0,1,.53,0,.36.36,0,0,1,.11.26.39.39,0,0,1-.11.27A.36.36,0,0,1,12.93,69.88Z"/><path class="cls-2" d="M1.12,69.69a.39.39,0,0,1-.27-.11.4.4,0,0,1-.1-.26A.42.42,0,0,1,.86,69a.41.41,0,0,1,.53,0,.39.39,0,0,1,.11.27.36.36,0,0,1-.11.26A.37.37,0,0,1,1.12,69.69Z"/><path class="cls-2" d="M10.5,68.38a.36.36,0,0,1-.27-.12.36.36,0,0,1,0-.51h0a.39.39,0,0,1,.53,0,.36.36,0,0,1,.11.25.39.39,0,0,1-.11.27A.36.36,0,0,1,10.5,68.38Z"/><path class="cls-2" d="M19.68,67.25a.38.38,0,0,1-.38-.36.36.36,0,0,1,.12-.28.38.38,0,0,1,.54,0h0a.39.39,0,0,1,.1.25.35.35,0,0,1-.06.28A.42.42,0,0,1,19.68,67.25Z"/><path class="cls-2" d="M3.75,72.13A.37.37,0,0,1,3.48,72a.36.36,0,0,1,0-.51h0a.42.42,0,0,1,.52,0,.37.37,0,0,1,.12.26A.42.42,0,0,1,4,72,.34.34,0,0,1,3.75,72.13Z"/><path class="cls-2" d="M7.12,65.75a.39.39,0,0,1-.27-.11.4.4,0,0,1-.1-.26.39.39,0,0,1,.11-.27.41.41,0,0,1,.53,0,.39.39,0,0,1,.11.27.36.36,0,0,1-.11.26A.39.39,0,0,1,7.12,65.75Z"/><path class="cls-2" d="M24.56,70.63a.36.36,0,0,1-.27-.12.32.32,0,0,1-.1-.26A.33.33,0,0,1,24.3,70a.39.39,0,0,1,.53,0,.36.36,0,0,1,.11.26.38.38,0,0,1-.38.38Z"/><path class="cls-2" d="M27,71.94a.36.36,0,0,1-.27-.12.33.33,0,0,1-.11-.25.36.36,0,0,1,.12-.27.37.37,0,0,1,.52,0,.37.37,0,0,1-.26.64Z"/><path class="cls-2" d="M29.06,67.63a.4.4,0,0,1-.27-.12.35.35,0,0,1-.1-.26A.36.36,0,0,1,28.8,67a.39.39,0,0,1,.53,0,.4.4,0,0,1,.1.26.34.34,0,0,1-.31.37h-.06Z"/><path class="cls-2" d="M40.87,66.69a.36.36,0,0,1-.26-.11.39.39,0,0,1-.11-.27.36.36,0,0,1,.11-.26.39.39,0,0,1,.53,0,.36.36,0,0,1,.11.26.38.38,0,0,1-.38.38Z"/><path class="cls-2" d="M49.31,68a.39.39,0,0,1-.27-.11.36.36,0,0,1-.11-.26.4.4,0,0,1,.12-.27.37.37,0,0,1,.52,0,.36.36,0,0,1,.12.27.36.36,0,0,1-.11.26A.39.39,0,0,1,49.31,68Z"/><path class="cls-2" d="M35.06,66.13a.39.39,0,0,1-.27-.11.45.45,0,0,1-.1-.27.39.39,0,0,1,.11-.27.41.41,0,0,1,.53,0,.36.36,0,0,1,.11.26.42.42,0,0,1-.12.26A.33.33,0,0,1,35.06,66.13Z"/><path class="cls-2" d="M24.56,66.13a.36.36,0,0,1-.27-.12.32.32,0,0,1-.1-.26.39.39,0,0,1,.11-.27.41.41,0,0,1,.53,0,.38.38,0,0,1,0,.54h0a.39.39,0,0,1-.25.1Z"/><path class="cls-2" d="M15.18,66.13a.32.32,0,0,1-.26-.12.36.36,0,0,1,0-.51h0a.39.39,0,0,1,.53,0,.36.36,0,0,1,.11.26A.38.38,0,0,1,15.18,66.13Z"/><path class="cls-2" d="M43.87,63.5a.38.38,0,0,1-.38-.36.36.36,0,0,1,.12-.28.38.38,0,0,1,.54,0h0a.39.39,0,0,1,.1.25.32.32,0,0,1-.12.26A.33.33,0,0,1,43.87,63.5Z"/><path class="cls-2" d="M46.68,71.75a.41.41,0,0,1-.43-.39h0a.41.41,0,0,1,.4-.42.4.4,0,0,1,.41.32.24.24,0,0,1,0,.12.4.4,0,0,1-.06.26A.42.42,0,0,1,46.68,71.75Z"/><path class="cls-2" d="M18.56,72.13a.36.36,0,0,1-.27-.12.36.36,0,0,1-.11-.26.32.32,0,0,1,.12-.26.39.39,0,0,1,.53,0,.4.4,0,0,1,.1.26.47.47,0,0,1-.11.25A.33.33,0,0,1,18.56,72.13Z"/><path class="cls-2" d="M32.43,70.82a.36.36,0,0,1-.26-.11.39.39,0,0,1-.11-.27.36.36,0,0,1,.11-.26.38.38,0,0,1,.54,0h0a.39.39,0,0,1,.1.25.38.38,0,0,1-.38.38h0Z"/><path class="cls-2" d="M40.31,72.32A.39.39,0,0,1,40,72.2a.35.35,0,0,1-.1-.26.38.38,0,0,1,.36-.38.36.36,0,0,1,.28.12.35.35,0,0,1,.1.26.38.38,0,0,1-.37.38Z"/><path class="cls-2" d="M50.62,48.5a.41.41,0,0,1-.06-.81A.39.39,0,0,1,51,48a.24.24,0,0,1,0,.12.36.36,0,0,1-.11.26A.4.4,0,0,1,50.62,48.5Z"/><path class="cls-2" d="M58.31,48.13A.37.37,0,0,1,58,48a.36.36,0,0,1-.11-.26.32.32,0,0,1,.12-.26.39.39,0,0,1,.53,0,.36.36,0,0,1,.11.26.4.4,0,0,1-.12.27A.3.3,0,0,1,58.31,48.13Z"/><path class="cls-2" d="M62.81,48.69a.39.39,0,0,1-.27-.11.36.36,0,0,1-.11-.26.39.39,0,0,1,.11-.27.4.4,0,0,1,.54,0,.39.39,0,0,1,.11.27.36.36,0,0,1-.11.26A.39.39,0,0,1,62.81,48.69Z"/><path class="cls-2" d="M66.93,71a.38.38,0,0,1-.38-.36.36.36,0,0,1,.12-.28.41.41,0,0,1,.53,0,.39.39,0,0,1,.11.27.36.36,0,0,1-.11.26A.39.39,0,0,1,66.93,71Z"/><path class="cls-2" d="M52.31,61.25a.39.39,0,0,1-.27-.11.36.36,0,0,1-.11-.26.39.39,0,0,1,.11-.27.4.4,0,0,1,.54,0,.38.38,0,0,1,.1.27.35.35,0,0,1-.1.26A.39.39,0,0,1,52.31,61.25Z"/><path class="cls-2" d="M70.5,55.25a.39.39,0,0,1-.27-.11.36.36,0,0,1-.11-.26.36.36,0,0,1,.12-.27.39.39,0,0,1,.53,0,.35.35,0,0,1,.1.26.39.39,0,0,1-.37.37Z"/><path class="cls-2" d="M71.06,68.38a.4.4,0,0,1-.27-.12.35.35,0,0,1-.1-.26.39.39,0,0,1,.11-.27.41.41,0,0,1,.53,0,.38.38,0,0,1,0,.54h0a.39.39,0,0,1-.25.1Z"/><path class="cls-2" d="M63.94,53.19a.39.39,0,0,1-.27-.11.36.36,0,0,1-.11-.26.39.39,0,0,1,.37-.37h0a.39.39,0,0,1,.25.1.37.37,0,0,1,0,.52A.37.37,0,0,1,63.94,53.19Z"/><path class="cls-2" d="M61.87,71.94a.39.39,0,0,1-.27-.11.4.4,0,0,1-.1-.26.39.39,0,0,1,.11-.27.41.41,0,0,1,.53,0,.39.39,0,0,1,.11.27.32.32,0,0,1-.12.26A.36.36,0,0,1,61.87,71.94Z"/><path class="cls-2" d="M53.62,52.82a.37.37,0,0,1-.26-.12.36.36,0,0,1-.11-.26.39.39,0,0,1,.11-.27.41.41,0,0,1,.53,0,.38.38,0,0,1,0,.54h0A.39.39,0,0,1,53.62,52.82Z"/><path class="cls-2" d="M51.75,67.07a.4.4,0,0,1-.27-.12.36.36,0,0,1-.11-.26.39.39,0,0,1,.37-.37h0a.39.39,0,0,1,.25.1.36.36,0,0,1,.11.26A.38.38,0,0,1,52,67,.43.43,0,0,1,51.75,67.07Z"/><path class="cls-2" d="M57.37,55.44a.38.38,0,0,1-.38-.36.36.36,0,0,1,.12-.28.41.41,0,0,1,.53,0,.39.39,0,0,1,.11.27.36.36,0,0,1-.11.26A.39.39,0,0,1,57.37,55.44Z"/><path class="cls-2" d="M60.94,56.19a.39.39,0,0,1-.27-.11.36.36,0,0,1-.11-.26.39.39,0,0,1,.11-.27.41.41,0,0,1,.53,0,.38.38,0,0,1-.26.64Z"/><path class="cls-2" d="M56.43,69.69A.41.41,0,0,1,56,69.3h0a.41.41,0,0,1,.4-.42.4.4,0,0,1,.41.32.24.24,0,0,1,0,.12.36.36,0,0,1-.11.26A.39.39,0,0,1,56.43,69.69Z"/><path class="cls-2" d="M61.31,63.5a.39.39,0,0,1-.27-.11.36.36,0,0,1-.11-.26.36.36,0,0,1,.12-.27.37.37,0,0,1,.52,0,.36.36,0,0,1,.12.27.36.36,0,0,1-.11.26A.39.39,0,0,1,61.31,63.5Z"/><path class="cls-2" d="M57.94,61.82a.4.4,0,0,1-.27-.12.36.36,0,0,1-.11-.26.39.39,0,0,1,.11-.27.37.37,0,0,1,.52,0,.36.36,0,0,1,.12.27.36.36,0,0,1-.11.26A.32.32,0,0,1,57.94,61.82Z"/><path class="cls-2" d="M67.12,65.19a.39.39,0,0,1-.27-.11.35.35,0,0,1-.1-.26.39.39,0,0,1,.11-.27.41.41,0,0,1,.53,0,.39.39,0,0,1,.11.27.32.32,0,0,1-.12.26A.36.36,0,0,1,67.12,65.19Z"/><path class="cls-2" d="M69.19,60.32a.4.4,0,0,1-.27-.12.36.36,0,0,1-.11-.26.37.37,0,1,1,.36.38Z"/><path class="cls-2" d="M65.06,59.19a.38.38,0,0,1-.38-.38.37.37,0,0,1,.12-.26.41.41,0,0,1,.53,0,.36.36,0,0,1,.11.26.38.38,0,0,1-.38.38Z"/><path class="cls-2" d="M1.69,56.94a.39.39,0,0,1-.27-.11.36.36,0,0,1-.11-.26.39.39,0,0,1,.11-.27.41.41,0,0,1,.53,0,.38.38,0,0,1,0,.54A.35.35,0,0,1,1.69,56.94Z"/><path class="cls-2" d="M29.25,62.75a.38.38,0,0,1-.38-.37.36.36,0,0,1,.12-.27.37.37,0,1,1,.26.64Z"/><path class="cls-2" d="M15.56,51.69a.39.39,0,0,1-.27-.11.36.36,0,0,1-.11-.26.36.36,0,0,1,.12-.27.37.37,0,0,1,.52.06.36.36,0,0,1,0,.46h0A.32.32,0,0,1,15.56,51.69Z"/><path class="cls-2" d="M4.87,61.25a.38.38,0,0,1-.38-.36.36.36,0,0,1,.12-.28.41.41,0,0,1,.53,0,.39.39,0,0,1,.11.27.36.36,0,0,1-.11.26A.39.39,0,0,1,4.87,61.25Z"/><path class="cls-2" d="M18.75,54.5a.39.39,0,0,1-.27-.11.35.35,0,0,1-.1-.26.45.45,0,0,1,.1-.27.41.41,0,0,1,.53,0,.38.38,0,0,1-.26.64Z"/><path class="cls-2" d="M9.75,51.13A.37.37,0,0,1,9.48,51a.36.36,0,0,1-.11-.26.4.4,0,0,1,.12-.27.38.38,0,0,1,.54,0h0a.35.35,0,0,1,.1.24A.41.41,0,0,1,10,51,.34.34,0,0,1,9.75,51.13Z"/><path class="cls-2" d="M18.56,48.5a.39.39,0,0,1-.27-.11.36.36,0,0,1-.11-.26.36.36,0,0,1,.12-.27.41.41,0,0,1,.53,0,.45.45,0,0,1,.1.27.4.4,0,0,1-.1.26A.39.39,0,0,1,18.56,48.5Z"/><path class="cls-2" d="M21.37,56.75a.39.39,0,0,1-.27-.11.4.4,0,0,1-.1-.26.39.39,0,0,1,.11-.27.41.41,0,0,1,.53,0,.39.39,0,0,1,.11.27.36.36,0,0,1-.11.26A.39.39,0,0,1,21.37,56.75Z"/><path class="cls-2" d="M20.62,60.32a.38.38,0,0,1-.37-.38.36.36,0,0,1,.11-.26.39.39,0,0,1,.53,0,.36.36,0,0,1,.11.26A.38.38,0,0,1,20.62,60.32Z"/><path class="cls-2" d="M7.12,55.82a.38.38,0,0,1-.37-.38.38.38,0,0,1,.36-.38.4.4,0,0,1,.39.38A.38.38,0,0,1,7.12,55.82Z"/><path class="cls-2" d="M13.31,60.69a.38.38,0,0,1-.38-.38h0a.32.32,0,0,1,.12-.26.41.41,0,0,1,.53,0,.36.36,0,0,1,.11.26.4.4,0,0,1-.12.27A.36.36,0,0,1,13.31,60.69Z"/><path class="cls-2" d="M15,57.31a.39.39,0,0,1-.27-.11.36.36,0,0,1-.11-.26.4.4,0,0,1,.12-.27.37.37,0,0,1,.52,0,.36.36,0,0,1,.11.26.39.39,0,0,1-.11.27A.36.36,0,0,1,15,57.31Z"/><path class="cls-2" d="M30.18,50.19a.36.36,0,0,1-.26-.11.39.39,0,0,1-.11-.27.36.36,0,0,1,.11-.26.39.39,0,0,1,.53,0,.36.36,0,0,1,.11.26A.38.38,0,0,1,30.18,50.19Z"/><path class="cls-2" d="M36,57.69a.38.38,0,0,1-.38-.37.36.36,0,0,1,.12-.27.37.37,0,1,1,.26.64Z"/><path class="cls-2" d="M42.37,59.75a.38.38,0,0,1-.38-.36.36.36,0,0,1,.12-.28.38.38,0,0,1,.54,0h0a.39.39,0,0,1,.1.25.36.36,0,0,1-.11.26A.41.41,0,0,1,42.37,59.75Z"/><path class="cls-2" d="M46.68,53a.4.4,0,0,1-.26-.1.39.39,0,0,1-.11-.27.38.38,0,0,1,.3-.45h0a.39.39,0,0,1,.45.3h0a.24.24,0,0,1,0,.12.36.36,0,0,1-.11.26A.4.4,0,0,1,46.68,53Z"/><path class="cls-2" d="M46.87,59a.41.41,0,0,1-.06-.81.39.39,0,0,1,.44.32.24.24,0,0,1,0,.12.32.32,0,0,1-.12.26A.36.36,0,0,1,46.87,59Z"/><path class="cls-2" d="M28.68,52.63a.36.36,0,0,1-.26-.11.39.39,0,0,1-.11-.27.36.36,0,0,1,.11-.26A.39.39,0,0,1,29,52l0,0h0a.36.36,0,0,1,.11.26.38.38,0,0,1-.38.38h-.05Z"/><path class="cls-2" d="M30.75,57.88a.38.38,0,0,1-.38-.38h0a.36.36,0,0,1,.11-.26.39.39,0,0,1,.53,0,.38.38,0,0,1,0,.54h0A.35.35,0,0,1,30.75,57.88Z"/><path class="cls-2" d="M26.06,56a.39.39,0,0,1-.37-.37.38.38,0,0,1,.1-.27.4.4,0,0,1,.54,0,.39.39,0,0,1,.11.27.37.37,0,0,1-.12.26A.36.36,0,0,1,26.06,56Z"/><path class="cls-2" d="M39.18,55.63a.36.36,0,0,1-.26-.11.39.39,0,0,1-.11-.27.36.36,0,0,1,.11-.26.39.39,0,0,1,.53,0,.36.36,0,0,1,.11.26.38.38,0,0,1-.38.38Z"/><path class="cls-2" d="M42.93,49.82a.42.42,0,0,1-.26-.12.36.36,0,0,1-.11-.26.39.39,0,0,1,.37-.37h0a.39.39,0,0,1,.25.1.4.4,0,0,1,0,.54A.41.41,0,0,1,42.93,49.82Z"/><path class="cls-2" d="M44.06,55.63a.36.36,0,0,1-.26-.11.39.39,0,0,1-.11-.27.35.35,0,0,1,.1-.26.37.37,0,0,1,.52,0,.36.36,0,0,1,.12.28.45.45,0,0,1-.1.27A.37.37,0,0,1,44.06,55.63Z"/><path class="cls-2" d="M26.43,47.94a.38.38,0,0,1-.38-.36.36.36,0,0,1,.12-.28.38.38,0,0,1,.54,0h0a.39.39,0,0,1,.1.25.36.36,0,0,1-.11.26A.41.41,0,0,1,26.43,47.94Z"/><path class="cls-2" d="M49.31,52.44a.38.38,0,0,1-.38-.37.36.36,0,0,1,.12-.28.41.41,0,0,1,.53,0,.39.39,0,0,1,.11.27.37.37,0,0,1-.12.26A.32.32,0,0,1,49.31,52.44Z"/><path class="cls-2" d="M35.62,48.5a.38.38,0,0,1-.38-.36.36.36,0,0,1,.12-.28.41.41,0,0,1,.53,0,.39.39,0,0,1,.11.27.36.36,0,0,1-.11.26A.39.39,0,0,1,35.62,48.5Z"/><path class="cls-2" d="M36,52.44a.38.38,0,0,1-.38-.37.36.36,0,0,1,.12-.27.37.37,0,1,1,.26.64Z"/><path class="cls-2" d="M2.81,49.07A.42.42,0,0,1,2.54,49a.36.36,0,0,1-.11-.26.4.4,0,0,1,.12-.27.38.38,0,1,1,.53.53.39.39,0,0,1-.27.11Z"/><path class="cls-2" d="M5.25,48.13A.38.38,0,0,1,5,48a.36.36,0,0,1-.11-.26A.36.36,0,0,1,5,47.49a.39.39,0,0,1,.53,0,.37.37,0,0,1,.12.26.42.42,0,0,1-.12.25A.34.34,0,0,1,5.25,48.13Z"/><path class="cls-2" d="M3.37,2.19a.41.41,0,0,1-.06-.81.39.39,0,0,1,.44.32.24.24,0,0,1,0,.12.36.36,0,0,1-.11.26A.39.39,0,0,1,3.37,2.19Z"/><path class="cls-2" d="M10.12,6.5a.39.39,0,0,1-.27-.11.35.35,0,0,1-.1-.26.39.39,0,0,1,.11-.27.41.41,0,0,1,.53,0,.39.39,0,0,1,.11.27.32.32,0,0,1-.12.26A.36.36,0,0,1,10.12,6.5Z"/><path class="cls-2" d="M4.12,6.69a.39.39,0,0,1-.27-.11.4.4,0,0,1-.1-.26.39.39,0,0,1,.11-.27.41.41,0,0,1,.53,0,.39.39,0,0,1,.11.27.36.36,0,0,1-.11.26A.39.39,0,0,1,4.12,6.69Z"/><path class="cls-2" d="M22.5,4.07A.42.42,0,0,1,22.23,4a.36.36,0,0,1-.11-.26.39.39,0,0,1,.11-.27.41.41,0,0,1,.53,0,.34.34,0,0,1-.26.6Z"/><path class="cls-2" d="M31.12,1.44a.36.36,0,0,1-.26-.11.39.39,0,0,1-.11-.27A.36.36,0,0,1,30.86.8a.39.39,0,0,1,.53,0,.36.36,0,0,1,.11.26A.38.38,0,0,1,31.12,1.44Z"/><path class="cls-2" d="M46.87,5a.38.38,0,0,1-.38-.36.36.36,0,0,1,.12-.28.37.37,0,0,1,.52,0,.36.36,0,0,1,.12.27.36.36,0,0,1-.11.26A.39.39,0,0,1,46.87,5Z"/><path class="cls-2" d="M33.75,5.57a.4.4,0,0,1-.27-.12.36.36,0,0,1-.11-.26.4.4,0,0,1,.12-.27.37.37,0,0,1,.52,0,.36.36,0,0,1,.11.26.39.39,0,0,1-.11.27A.42.42,0,0,1,33.75,5.57Z"/><path class="cls-2" d="M22.87,7.44a.36.36,0,0,1-.37-.35h0a.36.36,0,0,1,.11-.26.39.39,0,0,1,.53,0,.36.36,0,0,1,.11.26.36.36,0,0,1-.12.27A.35.35,0,0,1,22.87,7.44Z"/><path class="cls-2" d="M13.31,2.75A.4.4,0,0,1,13,2.64a.36.36,0,0,1-.11-.26A.39.39,0,0,1,13,2.11a.41.41,0,0,1,.53,0,.39.39,0,0,1,.11.27.36.36,0,0,1-.11.26A.39.39,0,0,1,13.31,2.75Z"/><path class="cls-2" d="M15.94,5.56a.39.39,0,0,1-.27-.11.36.36,0,0,1-.11-.26.38.38,0,0,1,.36-.38.4.4,0,0,1,.39.38.39.39,0,0,1-.11.27A.4.4,0,0,1,15.94,5.56Z"/><path class="cls-2" d="M41.25,7.63A.47.47,0,0,1,41,7.52a.39.39,0,0,1-.11-.27A.36.36,0,0,1,41,7a.37.37,0,0,1,.52,0,.38.38,0,0,1,0,.54h0a.4.4,0,0,1-.27.12Z"/><path class="cls-2" d="M7.5,3.88a.36.36,0,0,1-.27-.12.36.36,0,0,1,0-.51h0a.39.39,0,0,1,.53,0,.36.36,0,0,1,.11.26.39.39,0,0,1-.11.27A.35.35,0,0,1,7.5,3.88Z"/><path class="cls-2" d="M29.62,7.81a.37.37,0,1,1,0-.74h0a.39.39,0,0,1,.25.1.4.4,0,0,1,0,.54A.39.39,0,0,1,29.62,7.81Z"/><path class="cls-2" d="M10.69,9.13A.37.37,0,0,1,10.42,9a.36.36,0,0,1,0-.51h0a.39.39,0,0,1,.53,0A.42.42,0,0,1,11,9,.37.37,0,0,1,10.69,9.13Z"/><path class="cls-2" d="M34.5,9.32a.4.4,0,0,1-.27-.12.36.36,0,0,1-.11-.26.4.4,0,0,1,.12-.27.37.37,0,0,1,.52,0,.36.36,0,0,1,.11.26.39.39,0,0,1-.11.27A.42.42,0,0,1,34.5,9.32Z"/><path class="cls-2" d="M16.68,1.07A.35.35,0,0,1,16.42,1a.36.36,0,0,1-.11-.26.39.39,0,0,1,.11-.27.41.41,0,0,1,.53,0,.39.39,0,0,1,.11.27A.4.4,0,0,1,17,1,.45.45,0,0,1,16.68,1.07Z"/><path class="cls-2" d="M36.93,1.63a.36.36,0,0,1-.26-.11.39.39,0,0,1-.11-.27A.36.36,0,0,1,36.67,1a.39.39,0,0,1,.53,0,.36.36,0,0,1,.11.26.39.39,0,0,1-.11.27A.38.38,0,0,1,36.93,1.63Z"/><path class="cls-2" d="M41.81,3.69a.39.39,0,0,1-.27-.11.35.35,0,0,1-.1-.26.34.34,0,0,1,.1-.27.4.4,0,0,1,.54,0,.34.34,0,0,1,.1.27.4.4,0,0,1-.1.26A.39.39,0,0,1,41.81,3.69Z"/><path class="cls-2" d="M45,8.75a.39.39,0,0,1-.27-.11.36.36,0,0,1-.11-.26.38.38,0,0,1,.3-.45h0a.39.39,0,0,1,.45.3h0a.24.24,0,0,1,0,.12A.39.39,0,0,1,45,8.75Z"/><path class="cls-2" d="M12.93,24.88a.32.32,0,0,1-.26-.12.36.36,0,0,1,0-.51h0a.39.39,0,0,1,.53,0,.36.36,0,0,1,.11.26.38.38,0,0,1-.38.38h0Z"/><path class="cls-2" d="M1.12,24.69a.39.39,0,0,1-.27-.11.4.4,0,0,1-.1-.26A.42.42,0,0,1,.86,24a.39.39,0,0,1,.53,0,.39.39,0,0,1,.11.27.36.36,0,0,1-.11.26A.37.37,0,0,1,1.12,24.69Z"/><path class="cls-2" d="M5.44,30.69a.39.39,0,0,1-.27-.11.36.36,0,0,1-.11-.26.39.39,0,0,1,.11-.27.41.41,0,0,1,.53,0,.38.38,0,0,1,0,.54A.35.35,0,0,1,5.44,30.69Z"/><path class="cls-2" d="M3.37,37.07A.41.41,0,0,1,3.11,37a.4.4,0,0,1,0-.54.41.41,0,0,1,.53,0,.38.38,0,0,1,0,.54h0a.39.39,0,0,1-.27.11Z"/><path class="cls-2" d="M10.12,41.38A.38.38,0,0,1,9.75,41a.39.39,0,0,1,.11-.27.41.41,0,0,1,.53,0,.39.39,0,0,1,.11.27A.38.38,0,0,1,10.12,41.38Z"/><path class="cls-2" d="M4.12,41.57a.4.4,0,0,1-.27-.12.35.35,0,0,1-.1-.26.39.39,0,0,1,.11-.27.41.41,0,0,1,.53,0,.39.39,0,0,1,.11.27.36.36,0,0,1-.12.27A.36.36,0,0,1,4.12,41.57Z"/><path class="cls-2" d="M10.5,23.38a.36.36,0,0,1-.27-.12.36.36,0,0,1,0-.51h0a.39.39,0,0,1,.53,0,.36.36,0,0,1,.11.26.39.39,0,0,1-.11.27A.35.35,0,0,1,10.5,23.38Z"/><path class="cls-2" d="M19.68,22.25a.41.41,0,0,1-.43-.39h0a.41.41,0,0,1,.4-.42.4.4,0,0,1,.41.32.24.24,0,0,1,0,.12.36.36,0,0,1-.11.26A.39.39,0,0,1,19.68,22.25Z"/><path class="cls-2" d="M3.75,27.13A.37.37,0,0,1,3.48,27a.36.36,0,0,1-.11-.26.4.4,0,0,1,.12-.27A.37.37,0,0,1,4,27H4A.34.34,0,0,1,3.75,27.13Z"/><path class="cls-2" d="M7.12,20.75a.39.39,0,0,1-.27-.11.4.4,0,0,1-.1-.26.39.39,0,0,1,.11-.27.41.41,0,0,1,.53,0,.39.39,0,0,1,.11.27.36.36,0,0,1-.11.26A.39.39,0,0,1,7.12,20.75Z"/><path class="cls-2" d="M24.56,25.63a.39.39,0,0,1-.37-.37A.36.36,0,0,1,24.3,25a.39.39,0,0,1,.53,0,.36.36,0,0,1,.11.26.4.4,0,0,1-.12.27A.35.35,0,0,1,24.56,25.63Z"/><path class="cls-2" d="M27,26.94a.36.36,0,0,1-.27-.12.33.33,0,0,1-.11-.25.36.36,0,0,1,.12-.28.4.4,0,0,1,.52,0,.39.39,0,0,1,.11.27.36.36,0,0,1-.11.26A.37.37,0,0,1,27,26.94Z"/><path class="cls-2" d="M7.5,33.88a.36.36,0,0,1-.27-.12.36.36,0,0,1-.11-.26.39.39,0,0,1,.11-.27.41.41,0,0,1,.53,0,.4.4,0,0,1,0,.54A.36.36,0,0,1,7.5,33.88Z"/><path class="cls-2" d="M22.5,38.94a.38.38,0,0,1-.38-.38h0a.36.36,0,0,1,.11-.26.41.41,0,0,1,.53,0,.36.36,0,0,1,.11.26.39.39,0,0,1-.11.27A.36.36,0,0,1,22.5,38.94Z"/><path class="cls-2" d="M31.12,36.31a.35.35,0,0,1-.26-.1.39.39,0,0,1-.11-.27.35.35,0,0,1,.35-.35.35.35,0,0,1,.28.14h0a.36.36,0,0,1,0,.48A.35.35,0,0,1,31.12,36.31Z"/><path class="cls-2" d="M29.06,22.63a.39.39,0,0,1-.37-.37A.36.36,0,0,1,28.8,22a.41.41,0,0,1,.53,0,.35.35,0,0,1,.1.26.34.34,0,0,1-.31.37h-.06Z"/><path class="cls-2" d="M40.87,21.69a.36.36,0,0,1-.26-.11.39.39,0,0,1-.11-.27.36.36,0,0,1,.11-.26.39.39,0,0,1,.53,0,.36.36,0,0,1,.11.26.36.36,0,0,1-.12.27A.36.36,0,0,1,40.87,21.69Z"/><path class="cls-2" d="M26.81,33.69a.38.38,0,0,1-.37-.38.36.36,0,0,1,.11-.26.41.41,0,0,1,.53,0,.36.36,0,0,1,.11.26.36.36,0,0,1-.12.27A.36.36,0,0,1,26.81,33.69Z"/><path class="cls-2" d="M46.87,39.88a.36.36,0,0,1-.26-.11.39.39,0,0,1-.11-.27.36.36,0,0,1,.11-.26.39.39,0,0,1,.53,0,.36.36,0,0,1,.11.26.38.38,0,0,1-.38.38Z"/><path class="cls-2" d="M33.75,40.44a.39.39,0,0,1-.27-.11.36.36,0,0,1,0-.49h0a.37.37,0,0,1,.52,0,.39.39,0,0,1,.11.27.36.36,0,0,1-.11.26A.37.37,0,0,1,33.75,40.44Z"/><path class="cls-2" d="M22.87,42.32a.4.4,0,0,1-.27-.12.35.35,0,0,1-.1-.26.38.38,0,0,1,.36-.38.4.4,0,0,1,.39.38.38.38,0,0,1-.38.38Z"/><path class="cls-2" d="M13.31,37.63a.36.36,0,0,1-.27-.12.36.36,0,0,1-.11-.26.32.32,0,0,1,.12-.26.39.39,0,0,1,.53,0,.36.36,0,0,1,.11.26.4.4,0,0,1-.12.27A.36.36,0,0,1,13.31,37.63Z"/><path class="cls-2" d="M15.94,40.44a.39.39,0,0,1-.27-.11.36.36,0,0,1-.11-.26.39.39,0,0,1,.11-.27.41.41,0,0,1,.53,0,.38.38,0,0,1,0,.54A.35.35,0,0,1,15.94,40.44Z"/><path class="cls-2" d="M38.75,42.88a.38.38,0,0,1-.38-.38h0a.36.36,0,0,1,.11-.26.39.39,0,0,1,.53,0,.36.36,0,0,1,.11.26.39.39,0,0,1-.11.27A.36.36,0,0,1,38.75,42.88Z"/><path class="cls-2" d="M48.93,33.32a.42.42,0,0,1-.26-.12.36.36,0,0,1-.11-.26.36.36,0,0,1,.12-.27.37.37,0,0,1,.52,0,.36.36,0,0,1,.11.26.39.39,0,0,1-.11.27A.45.45,0,0,1,48.93,33.32Z"/><path class="cls-2" d="M30.18,31.25a.41.41,0,0,1-.43-.39h0a.41.41,0,0,1,.4-.42.4.4,0,0,1,.41.32.24.24,0,0,1,0,.12.36.36,0,0,1-.11.26A.39.39,0,0,1,30.18,31.25Z"/><path class="cls-2" d="M49.31,23a.38.38,0,0,1-.38-.37.4.4,0,0,1,.12-.27.41.41,0,0,1,.53,0,.39.39,0,0,1,.11.27.37.37,0,0,1-.12.26A.36.36,0,0,1,49.31,23Z"/><path class="cls-2" d="M35.06,21.13a.39.39,0,0,1-.27-.11.45.45,0,0,1-.1-.27.39.39,0,0,1,.11-.27.41.41,0,0,1,.53,0,.36.36,0,0,1,.11.26.4.4,0,0,1-.12.27A.37.37,0,0,1,35.06,21.13Z"/><path class="cls-2" d="M7.5,38.75a.39.39,0,0,1-.27-.11.36.36,0,0,1-.11-.26.39.39,0,0,1,.11-.27.41.41,0,0,1,.53,0,.38.38,0,0,1-.26.64Z"/><path class="cls-2" d="M24.56,21.13a.36.36,0,0,1-.27-.12.32.32,0,0,1-.1-.26.35.35,0,0,1,.1-.26.4.4,0,0,1,.54,0,.36.36,0,0,1,.11.26A.38.38,0,0,1,24.56,21.13Z"/><path class="cls-2" d="M15.18,21.13a.32.32,0,0,1-.26-.12.36.36,0,0,1,0-.51h0a.39.39,0,0,1,.53,0,.36.36,0,0,1,.11.26.38.38,0,0,1-.38.38h0Z"/><path class="cls-2" d="M29.62,42.69a.36.36,0,0,1-.26-.11.39.39,0,0,1-.11-.27.36.36,0,0,1,.11-.26.39.39,0,0,1,.53,0,.36.36,0,0,1,.11.26.36.36,0,0,1-.12.27A.36.36,0,0,1,29.62,42.69Z"/><path class="cls-2" d="M10.69,44a.39.39,0,0,1-.27-.11.36.36,0,0,1-.11-.26.39.39,0,0,1,.11-.27.41.41,0,0,1,.53,0,.38.38,0,0,1-.26.64Z"/><path class="cls-2" d="M43.87,18.5a.38.38,0,0,1-.38-.36.36.36,0,0,1,.12-.28.38.38,0,0,1,.54,0h0a.39.39,0,0,1,.1.25.32.32,0,0,1-.12.26A.33.33,0,0,1,43.87,18.5Z"/><path class="cls-2" d="M34.5,44.19a.39.39,0,0,1-.27-.11.36.36,0,0,1-.11-.26.39.39,0,0,1,.11-.27.38.38,0,0,1,.54,0h0a.39.39,0,0,1,.1.25.39.39,0,0,1-.37.37Z"/><path class="cls-2" d="M44.75,25.38a.36.36,0,0,1-.27-.12.36.36,0,0,1,0-.51h0a.39.39,0,0,1,.53,0,.32.32,0,0,1,.12.26.4.4,0,0,1-.12.27A.35.35,0,0,1,44.75,25.38Z"/><path class="cls-2" d="M14.62,30.32a.4.4,0,0,1-.27-.12.35.35,0,0,1-.1-.26.39.39,0,0,1,.11-.27.41.41,0,0,1,.53,0,.4.4,0,0,1,0,.54A.39.39,0,0,1,14.62,30.32Z"/><path class="cls-2" d="M10.69,30.69a.39.39,0,0,1-.27-.11.36.36,0,0,1-.11-.26.39.39,0,0,1,.11-.27A.41.41,0,0,1,11,30h0a.37.37,0,0,1,0,.52.36.36,0,0,1-.28.12Z"/><path class="cls-2" d="M20.81,32.94a.38.38,0,0,1-.38-.38h0a.32.32,0,0,1,.12-.26.41.41,0,0,1,.53,0,.38.38,0,0,1,0,.54h0A.38.38,0,0,1,20.81,32.94Z"/><path class="cls-2" d="M21.75,29.56a.39.39,0,0,1-.27-.11.36.36,0,0,1-.11-.26.4.4,0,0,1,.12-.27.37.37,0,0,1,.52,0,.36.36,0,0,1,.11.26.39.39,0,0,1-.11.27A.36.36,0,0,1,21.75,29.56Z"/><path class="cls-2" d="M18.56,27.13a.36.36,0,0,1-.27-.12.36.36,0,0,1-.11-.26.32.32,0,0,1,.12-.26.39.39,0,0,1,.53,0,.4.4,0,0,1,.1.26.45.45,0,0,1-.1.27A.39.39,0,0,1,18.56,27.13Z"/><path class="cls-2" d="M16.68,35.94a.36.36,0,0,1-.26-.11.39.39,0,0,1-.11-.27.36.36,0,0,1,.11-.26.39.39,0,0,1,.53,0,.36.36,0,0,1,.11.26.38.38,0,0,1-.38.38Z"/><path class="cls-2" d="M45.93,30.32a.42.42,0,0,1-.26-.12.36.36,0,0,1-.11-.26.36.36,0,0,1,.12-.27.37.37,0,0,1,.52,0,.36.36,0,0,1,.11.26.39.39,0,0,1-.11.27A.45.45,0,0,1,45.93,30.32Z"/><path class="cls-2" d="M32.43,25.82a.36.36,0,0,1-.26-.11.37.37,0,0,1,0-.52.37.37,0,1,1,.58.46l-.06.06A.36.36,0,0,1,32.43,25.82Z"/><path class="cls-2" d="M38.62,30.69a.36.36,0,0,1-.26-.11.39.39,0,0,1-.11-.27.36.36,0,0,1,.11-.26.39.39,0,0,1,.53,0,.36.36,0,0,1,.11.26.38.38,0,0,1-.38.38Z"/><path class="cls-2" d="M40.31,27.32a.39.39,0,0,1-.27-.11.38.38,0,0,1,.54-.54.45.45,0,0,1,.1.27.39.39,0,0,1-.11.27A.36.36,0,0,1,40.31,27.32Z"/><path class="cls-2" d="M36.93,36.5a.38.38,0,0,1-.38-.36.36.36,0,0,1,.12-.28.41.41,0,0,1,.53,0,.39.39,0,0,1,.11.27.36.36,0,0,1-.11.26A.39.39,0,0,1,36.93,36.5Z"/><path class="cls-2" d="M41.81,38.57a.38.38,0,0,1-.37-.38.39.39,0,0,1,.11-.27.41.41,0,0,1,.53,0,.45.45,0,0,1,.1.27.38.38,0,0,1-.1.27A.39.39,0,0,1,41.81,38.57Z"/><path class="cls-2" d="M42.93,34.44a.41.41,0,0,1-.06-.81.39.39,0,0,1,.44.32.24.24,0,0,1,0,.12.36.36,0,0,1-.11.26A.39.39,0,0,1,42.93,34.44Z"/><path class="cls-2" d="M45,43.63a.38.38,0,0,1-.38-.38h0a.4.4,0,0,1,.12-.27.37.37,0,0,1,.52,0,.36.36,0,0,1,.11.26.39.39,0,0,1-.11.27A.37.37,0,0,1,45,43.63Z"/><path class="cls-2" d="M49.87,43.44a.41.41,0,0,1-.06-.81.39.39,0,0,1,.44.32.24.24,0,0,1,0,.12.32.32,0,0,1-.12.26A.36.36,0,0,1,49.87,43.44Z"/><path class="cls-2" d="M54.56,45.32a.4.4,0,0,1-.27-.12.36.36,0,0,1-.11-.26.36.36,0,0,1,.12-.27.41.41,0,0,1,.53,0,.36.36,0,0,1,.11.26.4.4,0,0,1-.12.27A.42.42,0,0,1,54.56,45.32Z"/><path class="cls-2" d="M55.5,20.19a.39.39,0,0,1-.27-.11.36.36,0,0,1-.11-.26.38.38,0,0,1,.3-.45h0a.39.39,0,0,1,.45.3h0a.24.24,0,0,1,0,.12A.39.39,0,0,1,55.5,20.19Z"/><path class="cls-2" d="M53.81,38.75a.37.37,0,0,1-.27-.64.41.41,0,0,1,.53,0,.36.36,0,0,1,0,.49h0A.35.35,0,0,1,53.81,38.75Z"/><path class="cls-2" d="M60.37,45.69a.39.39,0,0,1-.27-.11.45.45,0,0,1-.1-.27.36.36,0,0,1,.11-.26.39.39,0,0,1,.53,0,.36.36,0,0,1,.11.26.38.38,0,0,1-.38.38Z"/><path class="cls-2" d="M55.31,32a.39.39,0,0,1-.27-.11.36.36,0,0,1-.11-.26.36.36,0,0,1,.12-.27.37.37,0,0,1,.52,0,.36.36,0,0,1,.12.27.36.36,0,0,1-.11.26A.39.39,0,0,1,55.31,32Z"/><path class="cls-2" d="M61.31,27.69a.36.36,0,0,1-.26-.11.32.32,0,0,1-.12-.26A.41.41,0,0,1,61,27a.4.4,0,0,1,.54,0,.39.39,0,0,1,.11.27.36.36,0,0,1-.11.26A.38.38,0,0,1,61.31,27.69Z"/><path class="cls-2" d="M66,44.38a.4.4,0,0,1-.27-.12.36.36,0,0,1-.11-.26.4.4,0,0,1,.12-.27.37.37,0,0,1,.52,0,.36.36,0,0,1,.11.26.39.39,0,0,1-.11.27A.37.37,0,0,1,66,44.38Z"/><path class="cls-2" d="M72.19,45.5a.39.39,0,0,1-.27-.11.36.36,0,0,1-.11-.26.39.39,0,0,1,.11-.27.41.41,0,0,1,.53,0,.38.38,0,0,1,0,.54A.35.35,0,0,1,72.19,45.5Z"/><path class="cls-2" d="M67.69,29.75a.39.39,0,0,1-.27-.11.36.36,0,0,1-.11-.26.38.38,0,0,1,.36-.38h0a.39.39,0,0,1,.25.1.36.36,0,0,1,0,.51h0A.31.31,0,0,1,67.69,29.75Z"/><path class="cls-2" d="M72,23a.39.39,0,0,1-.27-.11.37.37,0,1,1,.55,0A.41.41,0,0,1,72,23Z"/><path class="cls-2" d="M72.19,29a.39.39,0,0,1-.27-.11.36.36,0,0,1-.11-.26.36.36,0,0,1,.12-.27.37.37,0,0,1,.52,0,.37.37,0,0,1,0,.52A.39.39,0,0,1,72.19,29Z"/><path class="cls-2" d="M72.19,39.88a.36.36,0,0,1-.27-.12.36.36,0,0,1-.11-.26.36.36,0,0,1,.12-.27.37.37,0,0,1,.52,0,.36.36,0,0,1,.11.26.39.39,0,0,1-.11.27A.37.37,0,0,1,72.19,39.88Z"/><path class="cls-2" d="M54,22.63a.36.36,0,0,1-.27-.12.36.36,0,0,1-.11-.26.4.4,0,0,1,.12-.27.37.37,0,0,1,.52,0,.36.36,0,0,1,.11.26.39.39,0,0,1-.11.27A.37.37,0,0,1,54,22.63Z"/><path class="cls-2" d="M52.87,13.44a.38.38,0,0,1-.38-.36.36.36,0,0,1,.12-.28.38.38,0,0,1,.54,0h0a.39.39,0,0,1,.1.25.36.36,0,0,1-.11.26A.41.41,0,0,1,52.87,13.44Z"/><path class="cls-2" d="M50.81,34.82a.36.36,0,0,1-.26-.11.39.39,0,0,1-.11-.27.38.38,0,0,1,.1-.27.4.4,0,0,1,.54,0,.35.35,0,0,1,.1.26.38.38,0,0,1-.1.27A.4.4,0,0,1,50.81,34.82Z"/><path class="cls-2" d="M58.75,30.88a.36.36,0,0,1-.27-.12.36.36,0,0,1-.11-.26.36.36,0,0,1,.12-.27.4.4,0,0,1,.54,0h0a.43.43,0,0,1,.09.22.4.4,0,0,1-.12.27A.35.35,0,0,1,58.75,30.88Z"/><path class="cls-2" d="M51.37,26a.39.39,0,0,1-.27-.11.35.35,0,0,1-.1-.26.39.39,0,0,1,.11-.27.41.41,0,0,1,.53,0,.39.39,0,0,1,.11.27.32.32,0,0,1-.12.26A.36.36,0,0,1,51.37,26Z"/><path class="cls-2" d="M56.25,8.57A.42.42,0,0,1,56,8.45a.36.36,0,0,1-.11-.26.39.39,0,0,1,.37-.37h0a.39.39,0,0,1,.25.1.35.35,0,0,1,.1.26.38.38,0,0,1-.37.38Z"/><path class="cls-2" d="M57.56,6.13A.41.41,0,0,1,57.29,6a.39.39,0,0,1-.11-.27.36.36,0,0,1,.11-.26.4.4,0,0,1,.54,0,.35.35,0,0,1,.1.26.38.38,0,0,1-.1.27A.41.41,0,0,1,57.56,6.13Z"/><path class="cls-2" d="M64.5,25.63a.4.4,0,0,1-.27-.12.32.32,0,0,1-.1-.26.35.35,0,0,1,.1-.26.37.37,0,0,1,.52,0h0a.37.37,0,0,1,0,.48A.35.35,0,0,1,64.5,25.63Z"/><path class="cls-2" d="M69.56,10.63a.4.4,0,0,1-.27-.12.36.36,0,0,1,0-.51h0a.4.4,0,0,1,.54,0,.35.35,0,0,1,.1.26.39.39,0,0,1-.11.27A.35.35,0,0,1,69.56,10.63Z"/><path class="cls-2" d="M66.93,2a.38.38,0,0,1-.38-.36.36.36,0,0,1,.12-.28.41.41,0,0,1,.53,0,.39.39,0,0,1,.11.27.36.36,0,0,1-.11.26A.39.39,0,0,1,66.93,2Z"/><path class="cls-2" d="M53.25,4.07A.37.37,0,0,1,53,4a.39.39,0,0,1-.11-.27.37.37,0,1,1,.63.22h0A.36.36,0,0,1,53.25,4.07Z"/><path class="cls-2" d="M64.31,6.31A.4.4,0,0,1,64,6.2a.36.36,0,0,1-.11-.26A.39.39,0,0,1,64,5.67a.41.41,0,0,1,.53,0,.39.39,0,0,1,.11.27.45.45,0,0,1-.1.27A.37.37,0,0,1,64.31,6.31Z"/><path class="cls-2" d="M68.25,19.81A.47.47,0,0,1,68,19.7a.36.36,0,0,1-.11-.26.36.36,0,0,1,.12-.27.37.37,0,0,1,.52,0,.36.36,0,0,1,.11.26.39.39,0,0,1-.11.27A.43.43,0,0,1,68.25,19.81Z"/><path class="cls-2" d="M71.06,17.19a.39.39,0,0,1-.27-.11.4.4,0,0,1-.1-.26.39.39,0,0,1,.11-.27.41.41,0,0,1,.53,0,.39.39,0,0,1,.11.27.36.36,0,0,1-.11.26A.39.39,0,0,1,71.06,17.19Z"/><path class="cls-2" d="M61.87,2.94a.39.39,0,0,1-.27-.11.4.4,0,0,1-.1-.26.39.39,0,0,1,.11-.27.41.41,0,0,1,.53,0,.39.39,0,0,1,.11.27.36.36,0,0,1-.11.26A.39.39,0,0,1,61.87,2.94Z"/><path class="cls-2" d="M69.37,25.63a.38.38,0,0,1-.37-.38.36.36,0,0,1,.11-.26.39.39,0,0,1,.53,0,.36.36,0,0,1,.11.26.36.36,0,0,1-.12.27A.36.36,0,0,1,69.37,25.63Z"/><path class="cls-2" d="M51.75,8.57a.4.4,0,0,1-.27-.12.36.36,0,0,1-.11-.26.39.39,0,0,1,.37-.37h0a.39.39,0,0,1,.25.1.36.36,0,0,1,.11.26.39.39,0,0,1-.11.27A.37.37,0,0,1,51.75,8.57Z"/><path class="cls-2" d="M51.75,17.94a.39.39,0,0,1-.27-.11.36.36,0,0,1-.11-.26.36.36,0,0,1,.12-.27.37.37,0,1,1,.26.64Z"/><path class="cls-2" d="M65.62,41.94a.41.41,0,0,1-.06-.81.39.39,0,0,1,.44.32.24.24,0,0,1,0,.12.36.36,0,0,1-.11.26A.39.39,0,0,1,65.62,41.94Z"/><path class="cls-2" d="M63.37,34.07A.42.42,0,0,1,63.1,34a.35.35,0,0,1-.1-.26.36.36,0,0,1,.11-.26.38.38,0,0,1,.54,0h0a.39.39,0,0,1,.1.25.36.36,0,0,1-.12.27A.41.41,0,0,1,63.37,34.07Z"/><path class="cls-2" d="M59.81,40.07a.4.4,0,0,1-.27-.12.36.36,0,0,1-.11-.26.4.4,0,0,1,.12-.27.38.38,0,0,1,.54,0h0a.36.36,0,0,1,0,.51h0A.35.35,0,0,1,59.81,40.07Z"/><path class="cls-2" d="M68.44,35.75a.39.39,0,0,1-.27-.11.36.36,0,0,1-.11-.26.39.39,0,0,1,.11-.27.41.41,0,0,1,.53,0,.38.38,0,0,1,0,.54A.35.35,0,0,1,68.44,35.75Z"/><path class="cls-2" d="M60.94,18.5a.39.39,0,0,1-.27-.11.36.36,0,0,1-.11-.26.38.38,0,0,1,.3-.45h0a.39.39,0,0,1,.45.3h0a.24.24,0,0,1,0,.12A.39.39,0,0,1,60.94,18.5Z"/><path class="cls-2" d="M61.31,22.44a.36.36,0,0,1-.27-.12.33.33,0,0,1-.11-.25.36.36,0,0,1,.12-.27.41.41,0,0,1,.53,0,.39.39,0,0,1,.11.27.37.37,0,0,1-.12.26A.36.36,0,0,1,61.31,22.44Z"/><path class="cls-2" d="M63.56,12.32a.38.38,0,0,1-.38-.38h0a.36.36,0,0,1,.12-.27.39.39,0,0,1,.53,0,.36.36,0,0,1,.11.26.39.39,0,0,1-.11.27A.4.4,0,0,1,63.56,12.32Z"/><path class="cls-2" d="M60.19,11.38a.36.36,0,0,1-.27-.12.36.36,0,0,1,0-.51h0a.39.39,0,0,1,.53,0,.36.36,0,0,1,.11.26.39.39,0,0,1-.11.27A.35.35,0,0,1,60.19,11.38Z"/><path class="cls-2" d="M57.75,14.57a.4.4,0,0,1-.27-.12.36.36,0,0,1-.11-.26.4.4,0,0,1,.12-.27.37.37,0,0,1,.52,0,.36.36,0,0,1,0,.51h0A.38.38,0,0,1,57.75,14.57Z"/><path class="cls-2" d="M66.56,16.44a.39.39,0,0,1-.27-.11.4.4,0,0,1-.1-.26.39.39,0,0,1,.11-.27.38.38,0,0,1,.54,0h0a.39.39,0,0,1,.1.25.36.36,0,0,1-.11.26A.41.41,0,0,1,66.56,16.44Z"/><path class="cls-2" d="M56.43.69a.36.36,0,0,1-.26-.11.39.39,0,0,1-.11-.27.36.36,0,0,1,.11-.26.41.41,0,0,1,.53,0,.36.36,0,0,1,.11.26A.38.38,0,0,1,56.43.69Z"/><path class="cls-2" d="M45.75,47.19a.39.39,0,0,1-.27-.11.36.36,0,0,1-.11-.26.36.36,0,0,1,.12-.27.37.37,0,0,1,.52,0,.36.36,0,0,1,0,.51h0A.38.38,0,0,1,45.75,47.19Z"/><path class="cls-2" d="M41.25,46.44A.36.36,0,0,1,41,45.8a.37.37,0,0,1,.52,0,.36.36,0,0,1,.12.28.39.39,0,0,1-.11.27A.32.32,0,0,1,41.25,46.44Z"/><path class="cls-2" d="M9.75,12.32a.4.4,0,0,1-.27-.12.36.36,0,0,1-.11-.26.39.39,0,0,1,.11-.27.41.41,0,0,1,.53,0,.45.45,0,0,1,.12.27.38.38,0,0,1-.13.26A.3.3,0,0,1,9.75,12.32Z"/><path class="cls-2" d="M18.19,13.63a.36.36,0,0,1-.27-.12.36.36,0,0,1,0-.51h0a.39.39,0,0,1,.53,0,.36.36,0,0,1,.11.26.39.39,0,0,1-.11.27A.35.35,0,0,1,18.19,13.63Z"/><path class="cls-2" d="M3.94,11.75a.39.39,0,0,1-.27-.11.36.36,0,0,1-.11-.26.39.39,0,0,1,.11-.27.41.41,0,0,1,.53,0,.38.38,0,0,1-.26.64Z"/><path class="cls-2" d="M15.56,17.38a.36.36,0,0,1-.27-.12.36.36,0,0,1-.11-.26.39.39,0,0,1,.37-.37h0a.36.36,0,0,1,.26.11.38.38,0,0,1,0,.54h0A.39.39,0,0,1,15.56,17.38Z"/><path class="cls-2" d="M1.31,16.44A.4.4,0,0,1,1,16.33a.36.36,0,0,1,0-.49H1a.39.39,0,0,1,.53,0,.36.36,0,0,1,0,.51h0A.36.36,0,0,1,1.31,16.44Z"/><path class="cls-2" d="M9.19,17.94a.39.39,0,0,1-.27-.11.36.36,0,0,1-.11-.26.39.39,0,0,1,.11-.27.41.41,0,0,1,.53,0,.38.38,0,0,1,0,.54A.35.35,0,0,1,9.19,17.94Z"/><path class="cls-2" d="M24.37,10.82a.36.36,0,0,1-.26-.11.39.39,0,0,1-.11-.27.38.38,0,0,1,.3-.45h0a.39.39,0,0,1,.45.3h0a.24.24,0,0,1,0,.12.36.36,0,0,1-.11.26A.41.41,0,0,1,24.37,10.82Z"/><path class="cls-2" d="M30.18,18.32a.36.36,0,0,1-.26-.11.4.4,0,0,1,0-.54.41.41,0,0,1,.53,0,.39.39,0,0,1,.11.27.36.36,0,0,1-.11.26A.4.4,0,0,1,30.18,18.32Z"/><path class="cls-2" d="M40.87,13.63a.36.36,0,0,1-.26-.11.4.4,0,0,1,0-.54.41.41,0,0,1,.53,0,.36.36,0,0,1,.11.26.36.36,0,0,1-.12.27A.32.32,0,0,1,40.87,13.63Z"/><path class="cls-2" d="M24.25,14.88a.36.36,0,0,1-.27-.12.32.32,0,0,1-.1-.26.36.36,0,0,1,.36-.36h0a.37.37,0,0,1,.36.37A.39.39,0,0,1,24.25,14.88Z"/><path class="cls-2" d="M20.25,16.63a.35.35,0,0,1-.37-.33h0A.32.32,0,0,1,20,16a.37.37,0,0,1,.52,0,.36.36,0,0,1,.11.26.39.39,0,0,1-.11.27A.34.34,0,0,1,20.25,16.63Z"/><path class="cls-2" d="M33.37,16.25a.41.41,0,0,1-.06-.81.39.39,0,0,1,.44.32.24.24,0,0,1,0,.12.36.36,0,0,1-.11.26A.39.39,0,0,1,33.37,16.25Z"/><path class="cls-2" d="M37.12,10.44a.41.41,0,0,1-.06-.81.39.39,0,0,1,.44.32.24.24,0,0,1,0,.12.36.36,0,0,1-.11.26A.39.39,0,0,1,37.12,10.44Z"/><path class="cls-2" d="M38.25,16.25a.39.39,0,0,1-.27-.11.36.36,0,0,1-.11-.26.38.38,0,0,1,.3-.45h0a.39.39,0,0,1,.45.3h0a.24.24,0,0,1,0,.12A.39.39,0,0,1,38.25,16.25Z"/><path class="cls-2" d="M43.5,13.07a.38.38,0,1,1,.37-.39h0a.36.36,0,0,1-.11.26A.33.33,0,0,1,43.5,13.07Z"/><path class="cls-2" d="M30.18,13.07a.36.36,0,0,1-.26-.11.4.4,0,0,1,0-.54.38.38,0,0,1,.55.53h0A.4.4,0,0,1,30.18,13.07Z"/><path class="cls-2" d="M14.81,44.57a.4.4,0,0,1-.27-.12.36.36,0,0,1-.11-.26.36.36,0,0,1,.12-.27.39.39,0,0,1,.53,0,.36.36,0,0,1,.11.26.38.38,0,0,1-.38.38h0Z"/><path class="cls-2" d="M3.75.13A.37.37,0,0,1,3.48,0a.36.36,0,0,1,0-.51h0A.37.37,0,0,1,4-.51.36.36,0,0,1,4,0,.34.34,0,0,1,3.75.13Z"/><path class="cls-2" d="M18.56.13A.37.37,0,0,1,18.29,0a.36.36,0,0,1-.11-.26.32.32,0,0,1,.12-.26.39.39,0,0,1,.53,0,.4.4,0,0,1,.1.26.38.38,0,0,1-.1.27A.4.4,0,0,1,18.56.13Z"/><path class="cls-2" d="M40.31.31A.33.33,0,0,1,40,.2a.32.32,0,0,1-.1-.26A.35.35,0,0,1,40-.32a.4.4,0,0,1,.54,0,.38.38,0,0,1,.1.27.39.39,0,0,1-.11.27A.31.31,0,0,1,40.31.31Z"/><path class="cls-2" d="M56.43,72.69a.38.38,0,0,1-.38-.36.36.36,0,0,1,.12-.28.41.41,0,0,1,.53,0,.39.39,0,0,1,.11.27.36.36,0,0,1-.11.26A.39.39,0,0,1,56.43,72.69Z"/><path class="cls-2" d="M.19,45.5a.39.39,0,0,1-.27-.11.36.36,0,0,1-.11-.26.39.39,0,0,1,.11-.27.41.41,0,0,1,.53,0,.39.39,0,0,1,.11.27.36.36,0,0,1-.11.26A.36.36,0,0,1,.19,45.5Z"/><path class="cls-2" d="M0,23a.39.39,0,0,1-.27-.11.36.36,0,0,1-.11-.26.4.4,0,0,1,.12-.27.37.37,0,0,1,.52,0,.39.39,0,0,1,.11.27.36.36,0,0,1-.11.26A.36.36,0,0,1,0,23Z"/><path class="cls-2" d="M.19,29a.39.39,0,0,1-.27-.11.36.36,0,0,1-.11-.26.36.36,0,0,1,.12-.27.37.37,0,0,1,.52,0,.39.39,0,0,1,.11.27.36.36,0,0,1-.11.26A.36.36,0,0,1,.19,29Z"/><path class="cls-2" d="M.19,39.88a.36.36,0,0,1-.27-.12.36.36,0,0,1-.11-.26.36.36,0,0,1,.12-.27.37.37,0,0,1,.52,0,.36.36,0,0,1,.11.26.39.39,0,0,1-.11.27A.37.37,0,0,1,.19,39.88Z"/><path class="cls-2" d="M3.75.13A.37.37,0,0,1,3.48,0a.36.36,0,0,1,0-.51h0A.4.4,0,0,1,4-.51.36.36,0,0,1,4,0H4A.34.34,0,0,1,3.75.13Z"/><path class="cls-2" d="M18.56.13A.37.37,0,0,1,18.29,0a.36.36,0,0,1-.11-.26.32.32,0,0,1,.12-.26.39.39,0,0,1,.53,0,.4.4,0,0,1,.1.26.39.39,0,0,1-.11.27A.37.37,0,0,1,18.56.13Z"/><path class="cls-2" d="M40.31.32A.39.39,0,0,1,40,.2a.35.35,0,0,1-.1-.26.39.39,0,0,1,.37-.37h0a.39.39,0,0,1,.25.1.35.35,0,0,1,.1.26.39.39,0,0,1-.11.27A.41.41,0,0,1,40.31.32Z"/><path class="cls-2" d="M56.43.69a.38.38,0,0,1-.38-.36.36.36,0,0,1,.12-.28.41.41,0,0,1,.53,0,.39.39,0,0,1,.11.27.36.36,0,0,1-.11.26A.39.39,0,0,1,56.43.69Z"/></pattern></defs><rect class="cls-3" x="22.84" y="153.39" width="307.99" height="116.51"/><rect class="cls-4" x="22.84" y="153.39" width="307.99" height="116.51"/><path class="cls-3" d="M171.48,269.9H355l.2-114.82L172.34,140Z"/><path class="cls-4" d="M171.48,269.9H355l.2-114.82L172.34,140Z"/><rect class="cls-5" x="81.16" y="17.1" width="78.98" height="124.66"/><rect class="cls-6" x="22.84" y="141.77" width="137.3" height="52.33"/><rect class="cls-7" x="81.16" y="120.73" width="39.49" height="18.01" rx="2.07"/><rect class="cls-7" x="101.94" y="100.66" width="39.49" height="18.01" rx="2.07"/><rect class="cls-7" x="122.98" y="120.73" width="37.16" height="18.01" rx="2.07"/><rect class="cls-7" x="81.16" y="80.59" width="39.49" height="18.01" rx="2.07"/><rect class="cls-7" x="101.94" y="60.52" width="39.49" height="18.01" rx="2.07"/><rect class="cls-7" x="122.98" y="80.59" width="37.16" height="18.01" rx="2.07"/><rect class="cls-7" x="82.2" y="40.04" width="39.49" height="18.01" rx="2.07"/><rect class="cls-7" x="82.2" y="19.55" width="18.71" height="18.01" rx="1.42"/><rect class="cls-7" x="143.94" y="19.96" width="16.2" height="18.01" rx="1.33"/><rect class="cls-7" x="81.16" y="60.11" width="18.71" height="18.01" rx="1.42"/><rect class="cls-7" x="142.91" y="60.52" width="16.2" height="18.01" rx="1.33"/><rect class="cls-7" x="81.16" y="100.5" width="18.71" height="18.01" rx="1.42"/><rect class="cls-7" x="142.91" y="100.91" width="16.2" height="18.01" rx="1.33"/><rect class="cls-7" x="102.98" y="19.96" width="39.49" height="18.01" rx="2.07"/><rect class="cls-7" x="124.02" y="40.04" width="37.16" height="18.01" rx="2.07"/><rect class="cls-8" x="160.14" y="79.79" width="7.47" height="135.23"/><rect class="cls-8" x="167.61" y="162.57" width="163.22" height="8.91"/><rect class="cls-8" x="22.84" y="194.09" width="137.3" height="10.46"/><rect class="cls-8" x="22.84" y="204.56" width="137.3" height="10.46"/><line class="cls-9" x1="160.14" y1="204.56" x2="22.84" y2="204.56"/><line class="cls-9" x1="167.61" y1="162.57" x2="167.61" y2="171.48"/><line class="cls-9" x1="160.14" y1="141.6" x2="160.14" y2="215.02"/><path class="cls-10" d="M330.84,162.57H167.61V139.62l163.23,13.23Z"/><rect class="cls-11" x="167.61" y="79.79" width="3.87" height="59.83"/><path class="cls-12" d="M177.36,79.79H160.14V70Z"/><line class="cls-13" x1="171.48" y1="139.62" x2="171.48" y2="113.62"/><line class="cls-13" x1="330.15" y1="152.62" x2="330.15" y2="126.62"/><line class="cls-13" x1="171.48" y1="126.62" x2="330.15" y2="139.62"/></svg>