<?xml version="1.0" encoding="utf-8"?>
<!-- Generator: Adobe Illustrator 24.2.1, SVG Export Plug-In . SVG Version: 6.00 Build 0)  -->
<svg version="1.1" id="Слой_1" xmlns="http://www.w3.org/2000/svg" xmlns:xlink="http://www.w3.org/1999/xlink" x="0px" y="0px"
	 viewBox="0 0 379.9 289" style="enable-background:new 0 0 379.9 289;" xml:space="preserve">
<style type="text/css">
	.st0{fill:none;}
	.st1{fill:#1D1D1B;}
	.st2{fill:#CB9867;}
	.st3{fill:url(#SVGID_1_);}
	.st4{fill:url(#SVGID_2_);}
	.st5{fill:#969699;}
	.st6{fill:#777777;}
	.st7{fill:#B5B5BA;}
	.st8{fill:#EA7A4E;}
	.st9{fill:none;stroke:#BF6143;stroke-width:1.04;stroke-miterlimit:10;}
	.st10{fill:#828181;}
	.st11{fill:#A5A5A5;}
	.st12{fill:#A0A0A0;stroke:#A0A0A0;stroke-width:1.04;stroke-miterlimit:10;}
	.st13{fill:none;stroke:#FFFFFF;stroke-width:4.6438;stroke-linecap:round;stroke-linejoin:round;}
	.st14{fill:none;stroke:#FFFFFF;stroke-width:5;stroke-linecap:round;stroke-linejoin:round;}
</style>
<pattern  y="289" width="72" height="72" patternUnits="userSpaceOnUse" id="Stipple_Fine_2" viewBox="0.4 -72.6 72 72" style="overflow:visible;">
	<g>
		<rect x="0.4" y="-72.6" class="st0" width="72" height="72"/>
		<rect x="0.4" y="-72.6" class="st0" width="72" height="72"/>
		<rect x="0.4" y="-72.6" class="st0" width="72" height="72"/>
		<rect x="0.4" y="-72.6" class="st0" width="72" height="72"/>
		<path class="st1" d="M56.8-73.3c-0.1,0-0.2,0-0.3,0.1c-0.1,0.1-0.1,0.2-0.1,0.3c0,0.1,0,0.2,0.1,0.3c0.2,0.1,0.4,0.1,0.5,0
			c0.1-0.1,0.1-0.2,0.1-0.3C57.2-73.1,57-73.3,56.8-73.3z"/>
		<path class="st1" d="M4.1-72.8c-0.1,0-0.2,0.1-0.3,0.1c-0.1,0.1-0.1,0.4,0,0.5c0,0,0,0,0,0l0,0C4-72,4.2-72,4.4-72.1
			c0.1-0.1,0.1-0.2,0.1-0.3c0-0.1-0.1-0.2-0.1-0.3C4.3-72.7,4.2-72.7,4.1-72.8z"/>
		<path class="st1" d="M18.9-72.8c-0.1,0-0.2,0-0.3,0.1c-0.1,0.1-0.1,0.2-0.1,0.3c0,0.1,0,0.2,0.1,0.3c0.1,0.1,0.4,0.1,0.5,0
			c0.1-0.1,0.1-0.2,0.1-0.3c0-0.1,0-0.2-0.1-0.3C19.1-72.7,19-72.8,18.9-72.8z"/>
		<path class="st1" d="M40.7-72.9c-0.1,0-0.2,0-0.3,0.1c-0.1,0.1-0.1,0.2-0.1,0.3c0,0.1,0,0.2,0.1,0.3c0.2,0.1,0.4,0.1,0.5,0
			c0.1-0.1,0.1-0.2,0.1-0.3c0-0.1,0-0.2-0.1-0.3C40.9-72.9,40.8-72.9,40.7-72.9z"/>
		<path class="st1" d="M13.3-70.5c-0.1,0-0.2,0-0.3,0.1c-0.1,0.1-0.1,0.2-0.1,0.3c0,0.1,0,0.2,0.1,0.3c0.2,0.1,0.4,0.1,0.5,0
			c0.1-0.1,0.1-0.2,0.1-0.3c0-0.1,0-0.2-0.1-0.3C13.5-70.5,13.4-70.5,13.3-70.5z"/>
		<path class="st1" d="M1.5-70.3c-0.1,0-0.2,0-0.3,0.1c-0.1,0.1-0.1,0.2-0.1,0.3c0,0.1,0,0.2,0.1,0.3c0.2,0.1,0.4,0.1,0.5,0
			c0.1-0.1,0.1-0.2,0.1-0.3c0-0.1,0-0.2-0.1-0.3C1.7-70.2,1.6-70.3,1.5-70.3z"/>
		<path class="st1" d="M10.9-69c-0.1,0-0.2,0-0.3,0.1c-0.1,0.1-0.1,0.4,0,0.5c0,0,0,0,0,0l0,0c0.1,0.1,0.4,0.1,0.5,0
			c0.1-0.1,0.1-0.2,0.1-0.3c0-0.1,0-0.2-0.1-0.3C11.1-69,11-69,10.9-69z"/>
		<path class="st1" d="M20.1-67.9c-0.2,0-0.4,0.2-0.4,0.4c0,0.1,0,0.2,0.1,0.3c0.1,0.1,0.4,0.2,0.5,0c0,0,0,0,0,0l0,0
			c0.1-0.1,0.1-0.2,0.1-0.3c0-0.1,0-0.2-0.1-0.3C20.3-67.8,20.2-67.9,20.1-67.9z"/>
		<path class="st1" d="M4.1-72.8c-0.1,0-0.2,0.1-0.3,0.1c-0.1,0.1-0.1,0.4,0,0.5c0,0,0,0,0,0l0,0C4-72,4.2-72,4.4-72.1
			c0.1-0.1,0.1-0.2,0.1-0.3c0-0.1-0.1-0.2-0.1-0.3C4.3-72.7,4.2-72.7,4.1-72.8z"/>
		<path class="st1" d="M7.5-66.4c-0.1,0-0.2,0-0.3,0.1c-0.1,0.1-0.1,0.2-0.1,0.3c0,0.1,0,0.2,0.1,0.3c0.2,0.1,0.4,0.1,0.5,0
			c0.1-0.1,0.1-0.2,0.1-0.3c0-0.1,0-0.2-0.1-0.3C7.7-66.3,7.6-66.4,7.5-66.4z"/>
		<path class="st1" d="M24.9-71.3c-0.1,0-0.2,0-0.3,0.1c-0.1,0.1-0.1,0.2-0.1,0.3c0,0.1,0,0.2,0.1,0.2c0.1,0.1,0.4,0.1,0.5,0
			c0.1-0.1,0.1-0.2,0.1-0.3C25.3-71.1,25.1-71.3,24.9-71.3L24.9-71.3z"/>
		<path class="st1" d="M27.4-72.6c-0.1,0-0.2,0-0.3,0.1C27-72.4,27-72.3,27-72.2c0,0.1,0,0.2,0.1,0.3c0.1,0.1,0.4,0.1,0.5,0
			c0.1-0.1,0.1-0.2,0.1-0.3C27.7-72.4,27.6-72.6,27.4-72.6z"/>
		<path class="st1" d="M29.4-68.3c-0.1,0-0.2,0-0.3,0.1c-0.1,0.1-0.1,0.2-0.1,0.3c0,0.1,0,0.2,0.1,0.2c0.1,0.1,0.4,0.1,0.5,0
			c0.1-0.1,0.1-0.2,0.1-0.3C29.8-68.1,29.7-68.2,29.4-68.3C29.5-68.3,29.5-68.3,29.4-68.3L29.4-68.3z"/>
		<path class="st1" d="M41.3-67.3c-0.1,0-0.2,0-0.3,0.1c-0.1,0.1-0.1,0.2-0.1,0.3c0,0.1,0,0.2,0.1,0.3c0.1,0.1,0.4,0.1,0.5,0
			c0.1-0.1,0.1-0.2,0.1-0.3C41.6-67.1,41.5-67.3,41.3-67.3z"/>
		<path class="st1" d="M49.7-68.6c-0.1,0-0.2,0-0.3,0.1c-0.1,0.1-0.1,0.2-0.1,0.3c0,0.1,0,0.2,0.1,0.3c0.1,0.1,0.4,0.1,0.5,0
			c0.1-0.1,0.1-0.2,0.1-0.3c0-0.1,0-0.2-0.1-0.3C49.9-68.6,49.8-68.6,49.7-68.6z"/>
		<path class="st1" d="M35.4-66.8c-0.1,0-0.2,0-0.3,0.1c-0.1,0.1-0.1,0.2-0.1,0.3c0,0.1,0,0.2,0.1,0.3c0.2,0.1,0.4,0.1,0.5,0
			c0.1-0.1,0.1-0.2,0.1-0.3c0-0.1-0.1-0.2-0.1-0.3C35.6-66.7,35.5-66.8,35.4-66.8z"/>
		<path class="st1" d="M24.9-66.8c-0.1,0-0.2,0-0.3,0.1c-0.1,0.1-0.1,0.2-0.1,0.3c0,0.1,0,0.2,0.1,0.3c0.2,0.1,0.4,0.1,0.5,0
			c0.1-0.1,0.2-0.4,0-0.5c0,0,0,0,0,0l0,0C25.1-66.7,25.1-66.7,24.9-66.8L24.9-66.8z"/>
		<path class="st1" d="M15.6-66.8c-0.1,0-0.2,0-0.3,0.1c-0.1,0.1-0.1,0.4,0,0.5c0,0,0,0,0,0l0,0c0.1,0.1,0.4,0.1,0.5,0
			c0.1-0.1,0.1-0.2,0.1-0.3C15.9-66.6,15.8-66.8,15.6-66.8z"/>
		<path class="st1" d="M44.3-64.1c-0.2,0-0.4,0.2-0.4,0.4c0,0.1,0,0.2,0.1,0.3c0.1,0.1,0.4,0.2,0.5,0c0,0,0,0,0,0l0,0
			c0.1-0.1,0.1-0.2,0.1-0.3c0-0.1,0-0.2-0.1-0.3C44.4-64.1,44.4-64.1,44.3-64.1z"/>
		<path class="st1" d="M47.1-72.4c-0.2,0-0.4,0.2-0.4,0.4c0,0.2,0.2,0.4,0.4,0.4c0.2,0,0.4-0.1,0.4-0.3c0,0,0-0.1,0-0.1
			c0-0.1,0-0.2-0.1-0.3C47.3-72.3,47.2-72.4,47.1-72.4z"/>
		<path class="st1" d="M18.9-72.8c-0.1,0-0.2,0-0.3,0.1c-0.1,0.1-0.1,0.2-0.1,0.3c0,0.1,0,0.2,0.1,0.3c0.1,0.1,0.4,0.1,0.5,0
			c0.1-0.1,0.1-0.2,0.1-0.3c0-0.1,0-0.2-0.1-0.3C19.1-72.7,19-72.8,18.9-72.8z"/>
		<path class="st1" d="M32.8-71.4c-0.1,0-0.2,0-0.3,0.1c-0.1,0.1-0.1,0.2-0.1,0.3c0,0.1,0,0.2,0.1,0.3c0.1,0.1,0.4,0.2,0.5,0
			c0,0,0,0,0,0c0.1-0.1,0.1-0.2,0.1-0.3C33.2-71.3,33-71.4,32.8-71.4L32.8-71.4L32.8-71.4z"/>
		<path class="st1" d="M40.7-72.9c-0.1,0-0.2,0-0.3,0.1c-0.1,0.1-0.1,0.2-0.1,0.3c0,0.2,0.2,0.4,0.4,0.4c0.1,0,0.2,0,0.3-0.1
			c0.1-0.1,0.1-0.2,0.1-0.3C41-72.8,40.9-72.9,40.7-72.9L40.7-72.9z"/>
		<path class="st1" d="M51-49.1c-0.2,0-0.4,0.2-0.4,0.4c0,0.2,0.1,0.3,0.3,0.4c0.2,0,0.4-0.1,0.4-0.3c0,0,0-0.1,0-0.1
			c0-0.1,0-0.2-0.1-0.3C51.2-49.1,51.1-49.1,51-49.1z"/>
		<path class="st1" d="M58.7-48.8c-0.1,0-0.2,0-0.3,0.1c-0.1,0.1-0.1,0.2-0.1,0.3c0,0.1,0,0.2,0.1,0.3c0.1,0.1,0.4,0.1,0.5,0
			c0.1-0.1,0.1-0.2,0.1-0.3c0-0.1,0-0.2-0.1-0.3C58.9-48.7,58.8-48.7,58.7-48.8z"/>
		<path class="st1" d="M63.2-49.3c-0.1,0-0.2,0-0.3,0.1c-0.1,0.1-0.1,0.2-0.1,0.3c0,0.1,0,0.2,0.1,0.3c0.2,0.1,0.4,0.1,0.5,0
			c0.1-0.1,0.1-0.2,0.1-0.3c0-0.1,0-0.2-0.1-0.3C63.4-49.3,63.3-49.3,63.2-49.3z"/>
		<path class="st1" d="M67.3-71.6c-0.2,0-0.4,0.2-0.4,0.4c0,0.1,0,0.2,0.1,0.3c0.2,0.1,0.4,0.1,0.5,0c0.1-0.1,0.1-0.2,0.1-0.3
			c0-0.1,0-0.2-0.1-0.3C67.5-71.6,67.4-71.6,67.3-71.6z"/>
		<path class="st1" d="M52.7-61.9c-0.1,0-0.2,0-0.3,0.1c-0.1,0.1-0.1,0.2-0.1,0.3c0,0.1,0,0.2,0.1,0.3c0.2,0.1,0.4,0.1,0.5,0
			c0.1-0.1,0.1-0.2,0.1-0.3c0-0.1,0-0.2-0.1-0.3C52.9-61.8,52.8-61.9,52.7-61.9z"/>
		<path class="st1" d="M70.9-55.9c-0.1,0-0.2,0-0.3,0.1c-0.1,0.1-0.1,0.2-0.1,0.3c0,0.1,0,0.2,0.1,0.3c0.1,0.1,0.4,0.1,0.5,0
			c0.1-0.1,0.1-0.2,0.1-0.3C71.2-55.7,71.1-55.9,70.9-55.9L70.9-55.9z"/>
		<path class="st1" d="M71.4-69c-0.1,0-0.2,0-0.3,0.1c-0.1,0.1-0.1,0.2-0.1,0.3c0,0.1,0,0.2,0.1,0.3c0.2,0.1,0.4,0.1,0.5,0
			c0.1-0.1,0.2-0.4,0-0.5c0,0,0,0,0,0l0,0C71.6-69,71.6-69,71.4-69L71.4-69z"/>
		<path class="st1" d="M64.3-53.8c-0.1,0-0.2,0-0.3,0.1c-0.1,0.1-0.1,0.2-0.1,0.3c0,0.2,0.2,0.4,0.4,0.4l0,0c0.1,0,0.2,0,0.3-0.1
			c0.1-0.1,0.1-0.4,0-0.5C64.5-53.8,64.4-53.8,64.3-53.8z"/>
		<path class="st1" d="M62.3-72.6c-0.1,0-0.2,0-0.3,0.1c-0.1,0.1-0.1,0.2-0.1,0.3c0,0.1,0,0.2,0.1,0.3c0.2,0.1,0.4,0.1,0.5,0
			c0.1-0.1,0.1-0.2,0.1-0.3c0-0.1,0-0.2-0.1-0.3C62.4-72.5,62.3-72.6,62.3-72.6z"/>
		<path class="st1" d="M54-53.4c-0.1,0-0.2,0-0.3,0.1c-0.1,0.1-0.1,0.2-0.1,0.3c0,0.1,0,0.2,0.1,0.3c0.2,0.1,0.4,0.1,0.5,0
			c0.1-0.1,0.2-0.4,0-0.5c0,0,0,0,0,0C54.2-53.4,54.1-53.4,54-53.4z"/>
		<path class="st1" d="M52.1-67.7c-0.1,0-0.2,0-0.3,0.1c-0.1,0.1-0.1,0.2-0.1,0.3c0,0.2,0.2,0.4,0.4,0.4c0,0,0,0,0,0
			c0.1,0,0.2,0,0.3-0.1c0.1-0.1,0.1-0.2,0.1-0.3c0-0.1,0-0.2-0.1-0.3C52.3-67.7,52.2-67.7,52.1-67.7z"/>
		<path class="st1" d="M57.8-56.1c-0.2,0-0.4,0.2-0.4,0.4c0,0.1,0,0.2,0.1,0.3c0.2,0.1,0.4,0.1,0.5,0c0.1-0.1,0.1-0.2,0.1-0.3
			c0-0.1,0-0.2-0.1-0.3C57.9-56,57.9-56.1,57.8-56.1z"/>
		<path class="st1" d="M61.3-56.8c-0.1,0-0.2,0-0.3,0.1c-0.1,0.1-0.1,0.2-0.1,0.3c0,0.1,0,0.2,0.1,0.3c0.2,0.1,0.4,0.1,0.5,0
			c0.1-0.1,0.2-0.4,0-0.5C61.5-56.8,61.4-56.8,61.3-56.8z"/>
		<path class="st1" d="M56.8-70.3c-0.2,0-0.4,0.2-0.4,0.4c0,0.2,0.2,0.4,0.4,0.4c0.2,0,0.4-0.1,0.4-0.3c0,0,0-0.1,0-0.1
			c0-0.1,0-0.2-0.1-0.3C57-70.3,56.9-70.3,56.8-70.3z"/>
		<path class="st1" d="M61.7-64.1c-0.1,0-0.2,0-0.3,0.1c-0.1,0.1-0.1,0.2-0.1,0.3c0,0.1,0,0.2,0.1,0.3c0.1,0.1,0.4,0.1,0.5,0
			c0.1-0.1,0.1-0.2,0.1-0.3c0-0.1,0-0.2-0.1-0.3C61.9-64.1,61.8-64.1,61.7-64.1z"/>
		<path class="st1" d="M58.3-62.4c-0.1,0-0.2,0-0.3,0.1c-0.1,0.1-0.1,0.2-0.1,0.3c0,0.1,0,0.2,0.1,0.3c0.1,0.1,0.4,0.1,0.5,0
			c0.1-0.1,0.1-0.2,0.1-0.3c0-0.1,0-0.2-0.1-0.3C58.5-62.4,58.4-62.4,58.3-62.4z"/>
		<path class="st1" d="M67.5-65.8c-0.1,0-0.2,0-0.3,0.1c-0.1,0.1-0.1,0.2-0.1,0.3c0,0.1,0,0.2,0.1,0.3c0.2,0.1,0.4,0.1,0.5,0
			c0.1-0.1,0.1-0.2,0.1-0.3c0-0.1,0-0.2-0.1-0.3C67.7-65.8,67.6-65.8,67.5-65.8z"/>
		<path class="st1" d="M69.6-60.9c-0.1,0-0.2,0-0.3,0.1c-0.1,0.1-0.1,0.2-0.1,0.3c0,0.2,0.2,0.4,0.4,0.4c0.2,0,0.4-0.2,0.4-0.4
			C69.9-60.8,69.8-60.9,69.6-60.9L69.6-60.9z"/>
		<path class="st1" d="M65.4-59.8c-0.2,0-0.4,0.2-0.4,0.4c0,0.1,0,0.2,0.1,0.3c0.2,0.1,0.4,0.1,0.5,0c0.1-0.1,0.1-0.2,0.1-0.3
			C65.8-59.6,65.6-59.8,65.4-59.8z"/>
		<path class="st1" d="M2.1-57.6c-0.1,0-0.2,0-0.3,0.1c-0.1,0.1-0.1,0.2-0.1,0.3c0,0.1,0,0.2,0.1,0.3c0.2,0.1,0.4,0.1,0.5,0
			c0.1-0.1,0.1-0.4,0-0.5C2.3-57.5,2.2-57.6,2.1-57.6z"/>
		<path class="st1" d="M29.6-63.4c-0.2,0-0.4,0.2-0.4,0.4c0,0.1,0,0.2,0.1,0.3c0.1,0.1,0.4,0.1,0.5,0c0.1-0.1,0.2-0.4,0-0.5
			C29.8-63.3,29.7-63.4,29.6-63.4z"/>
		<path class="st1" d="M15.9-52.3c-0.1,0-0.2,0-0.3,0.1c-0.1,0.1-0.1,0.2-0.1,0.3c0,0.1,0,0.2,0.1,0.3c0.1,0.1,0.4,0.1,0.5,0
			c0.1-0.1,0.1-0.4,0-0.5l0,0C16.1-52.3,16-52.3,15.9-52.3z"/>
		<path class="st1" d="M5.3-61.9c-0.2,0-0.4,0.2-0.4,0.4c0,0.1,0,0.2,0.1,0.3c0.2,0.1,0.4,0.1,0.5,0c0.1-0.1,0.1-0.2,0.1-0.3
			c0-0.1,0-0.2-0.1-0.3C5.4-61.8,5.4-61.9,5.3-61.9z"/>
		<path class="st1" d="M19.1-55.1c-0.1,0-0.2,0-0.3,0.1c-0.1,0.1-0.1,0.2-0.1,0.3c0,0.1,0,0.2,0.1,0.3c0.2,0.1,0.4,0.1,0.5,0
			c0.1-0.1,0.2-0.4,0-0.5C19.3-55.1,19.2-55.1,19.1-55.1z"/>
		<path class="st1" d="M10.1-51.8c-0.1,0-0.2,0.1-0.3,0.1c-0.1,0.1-0.1,0.2-0.1,0.3c0,0.1,0,0.2,0.1,0.3c0.1,0.1,0.4,0.2,0.5,0
			c0,0,0,0,0,0c0.1-0.1,0.1-0.2,0.1-0.2c0-0.1,0-0.2-0.1-0.3C10.3-51.7,10.2-51.7,10.1-51.8z"/>
		<path class="st1" d="M18.9-49.1c-0.1,0-0.2,0-0.3,0.1c-0.1,0.1-0.1,0.2-0.1,0.3c0,0.1,0,0.2,0.1,0.3c0.2,0.1,0.4,0.1,0.5,0
			c0.1-0.1,0.1-0.2,0.1-0.3c0-0.1,0-0.2-0.1-0.3C19.1-49.1,19-49.1,18.9-49.1z"/>
		<path class="st1" d="M21.8-57.4c-0.1,0-0.2,0-0.3,0.1c-0.1,0.1-0.1,0.2-0.1,0.3c0,0.1,0,0.2,0.1,0.3c0.2,0.1,0.4,0.1,0.5,0
			c0.1-0.1,0.1-0.2,0.1-0.3c0-0.1,0-0.2-0.1-0.3C21.9-57.3,21.9-57.4,21.8-57.4z"/>
		<path class="st1" d="M21-60.9c-0.2,0-0.4,0.2-0.4,0.4c0,0.1,0,0.2,0.1,0.3c0.1,0.1,0.4,0.1,0.5,0c0.1-0.1,0.1-0.2,0.1-0.3
			C21.4-60.8,21.2-60.9,21-60.9L21-60.9z"/>
		<path class="st1" d="M7.5-56.4c-0.2,0-0.4,0.2-0.4,0.4c0,0.2,0.2,0.4,0.4,0.4c0.2,0,0.4-0.2,0.4-0.4C7.9-56.3,7.7-56.4,7.5-56.4
			C7.5-56.4,7.5-56.4,7.5-56.4z"/>
		<path class="st1" d="M13.7-61.3c-0.2,0-0.4,0.2-0.4,0.4l0,0l0,0c0,0.1,0,0.2,0.1,0.3c0.2,0.1,0.4,0.1,0.5,0
			c0.1-0.1,0.1-0.2,0.1-0.3c0-0.1,0-0.2-0.1-0.3C13.9-61.3,13.8-61.3,13.7-61.3z"/>
		<path class="st1" d="M15.4-57.9c-0.1,0-0.2,0-0.3,0.1C15-57.8,15-57.7,15-57.6c0,0.1,0,0.2,0.1,0.3c0.1,0.1,0.4,0.1,0.5,0
			c0.1-0.1,0.1-0.2,0.1-0.3c0-0.1,0-0.2-0.1-0.3C15.6-57.9,15.5-57.9,15.4-57.9z"/>
		<path class="st1" d="M30.6-50.8c-0.1,0-0.2,0-0.3,0.1c-0.1,0.1-0.1,0.2-0.1,0.3c0,0.1,0,0.2,0.1,0.3c0.1,0.1,0.4,0.1,0.5,0
			c0.1-0.1,0.1-0.2,0.1-0.3C30.9-50.6,30.8-50.8,30.6-50.8L30.6-50.8z"/>
		<path class="st1" d="M36.4-58.3c-0.2,0-0.4,0.2-0.4,0.4c0,0.1,0,0.2,0.1,0.3c0.1,0.1,0.4,0.1,0.5,0c0.1-0.1,0.2-0.4,0-0.5
			C36.6-58.3,36.5-58.3,36.4-58.3z"/>
		<path class="st1" d="M42.8-60.4c-0.2,0-0.4,0.2-0.4,0.4c0,0.1,0,0.2,0.1,0.3c0.1,0.1,0.4,0.2,0.5,0c0,0,0,0,0,0l0,0
			c0.1-0.1,0.1-0.2,0.1-0.3c0-0.1,0-0.2-0.1-0.3C42.9-60.3,42.9-60.4,42.8-60.4z"/>
		<path class="st1" d="M47.1-53.6c-0.1,0-0.2,0-0.3,0.1c-0.1,0.1-0.1,0.2-0.1,0.3c0,0.2,0.1,0.4,0.3,0.4c0.2,0,0.4-0.1,0.4-0.3
			c0,0,0,0,0,0c0,0,0-0.1,0-0.1c0-0.1,0-0.2-0.1-0.3C47.3-53.6,47.2-53.6,47.1-53.6z"/>
		<path class="st1" d="M47.3-59.6c-0.2,0-0.4,0.2-0.4,0.4c0,0.2,0.1,0.3,0.3,0.4c0.2,0,0.4-0.1,0.4-0.3c0,0,0-0.1,0-0.1
			c0-0.1,0-0.2-0.1-0.3C47.4-59.6,47.3-59.6,47.3-59.6z"/>
		<path class="st1" d="M29.1-53.3c-0.1,0-0.2,0-0.3,0.1c-0.1,0.1-0.1,0.2-0.1,0.3c0,0.1,0,0.2,0.1,0.3c0.1,0.2,0.4,0.2,0.6,0
			c0,0,0,0,0,0l0,0l0,0c0.1-0.1,0.1-0.2,0.1-0.3C29.5-53.1,29.3-53.3,29.1-53.3L29.1-53.3L29.1-53.3L29.1-53.3z"/>
		<path class="st1" d="M31.1-58.5c-0.2,0-0.4,0.2-0.4,0.4l0,0l0,0c0,0.1,0,0.2,0.1,0.3c0.1,0.1,0.4,0.1,0.5,0c0.1-0.1,0.2-0.4,0-0.5
			c0,0,0,0,0,0l0,0C31.3-58.5,31.2-58.5,31.1-58.5z"/>
		<path class="st1" d="M26.4-56.6c-0.2,0-0.4,0.2-0.4,0.4c0,0.1,0,0.2,0.1,0.3c0.2,0.1,0.4,0.1,0.5,0c0.1-0.1,0.1-0.2,0.1-0.3
			c0-0.1,0-0.2-0.1-0.3C26.6-56.6,26.5-56.6,26.4-56.6z"/>
		<path class="st1" d="M39.6-56.3c-0.1,0-0.2,0-0.3,0.1c-0.1,0.1-0.1,0.2-0.1,0.3c0,0.1,0,0.2,0.1,0.3c0.1,0.1,0.4,0.1,0.5,0
			c0.1-0.1,0.1-0.2,0.1-0.3C39.9-56.1,39.8-56.3,39.6-56.3C39.6-56.3,39.6-56.3,39.6-56.3z"/>
		<path class="st1" d="M43.3-50.4c-0.1,0-0.2,0.1-0.3,0.1c-0.1,0.1-0.1,0.2-0.1,0.3c0,0.2,0.2,0.4,0.4,0.4c0,0,0,0,0,0
			c0.1,0,0.2,0,0.3-0.1c0.1-0.2,0.1-0.4,0-0.5C43.5-50.4,43.4-50.4,43.3-50.4z"/>
		<path class="st1" d="M44.4-56.3c-0.1,0-0.2,0-0.3,0.1c-0.1,0.1-0.1,0.2-0.1,0.3c0,0.1,0,0.2,0.1,0.3c0.1,0.1,0.4,0.1,0.5,0
			c0.1-0.1,0.1-0.2,0.1-0.3c0-0.1,0-0.2-0.1-0.3C44.6-56.2,44.5-56.3,44.4-56.3z"/>
		<path class="st1" d="M26.8-48.6c-0.2,0-0.4,0.2-0.4,0.4c0,0.1,0,0.2,0.1,0.3c0.1,0.1,0.4,0.2,0.5,0c0,0,0,0,0,0l0,0
			c0.1-0.1,0.1-0.2,0.1-0.3c0-0.1,0-0.2-0.1-0.3C27-48.5,26.9-48.6,26.8-48.6z"/>
		<path class="st1" d="M49.7-53.1c-0.2,0-0.4,0.2-0.4,0.4c0,0.1,0,0.2,0.1,0.3c0.2,0.1,0.4,0.1,0.5,0c0.1-0.1,0.1-0.2,0.1-0.3
			c0-0.1,0-0.2-0.1-0.3C49.9-53,49.8-53.1,49.7-53.1z"/>
		<path class="st1" d="M36-49.1c-0.2,0-0.4,0.2-0.4,0.4c0,0.1,0,0.2,0.1,0.3c0.2,0.1,0.4,0.1,0.5,0c0.1-0.1,0.1-0.2,0.1-0.3
			c0-0.1,0-0.2-0.1-0.3C36.2-49.1,36.1-49.1,36-49.1z"/>
		<path class="st1" d="M36.4-53.1c-0.2,0-0.4,0.2-0.4,0.4c0,0.1,0,0.2,0.1,0.3c0.1,0.1,0.4,0.1,0.5,0c0.1-0.1,0.2-0.4,0-0.5
			C36.6-53,36.5-53.1,36.4-53.1z"/>
		<path class="st1" d="M3.2-49.7c-0.1,0-0.2,0-0.3,0.1c-0.1,0.1-0.1,0.2-0.1,0.3c0,0.1,0,0.2,0.1,0.3c0.1,0.2,0.4,0.2,0.5,0.1
			s0.2-0.4,0.1-0.5c0,0-0.1-0.1-0.1-0.1C3.4-49.7,3.3-49.7,3.2-49.7L3.2-49.7z"/>
		<path class="st1" d="M5.6-48.8c-0.1,0-0.2,0.1-0.3,0.1c-0.1,0.1-0.1,0.2-0.1,0.3c0,0.1,0,0.2,0.1,0.3c0.1,0.1,0.4,0.1,0.5,0
			C6-48.2,6-48.3,6-48.4c0-0.1-0.1-0.2-0.1-0.3C5.8-48.7,5.7-48.8,5.6-48.8z"/>
		<path class="st1" d="M3.8-2.8c-0.2,0-0.4,0.2-0.4,0.4C3.4-2.2,3.5-2,3.7-2c0.2,0,0.4-0.1,0.4-0.3c0,0,0-0.1,0-0.1
			c0-0.1,0-0.2-0.1-0.3C3.9-2.8,3.9-2.8,3.8-2.8z"/>
		<path class="st1" d="M10.5-7.1c-0.1,0-0.2,0-0.3,0.1c-0.1,0.1-0.1,0.2-0.1,0.3c0,0.1,0,0.2,0.1,0.3c0.2,0.1,0.4,0.1,0.5,0
			c0.1-0.1,0.1-0.2,0.1-0.3c0-0.1,0-0.2-0.1-0.3C10.7-7.1,10.6-7.1,10.5-7.1z"/>
		<path class="st1" d="M4.5-7.3c-0.1,0-0.2,0-0.3,0.1C4.2-7.1,4.1-7,4.1-6.9c0,0.1,0,0.2,0.1,0.3c0.2,0.1,0.4,0.1,0.5,0
			c0.1-0.1,0.1-0.2,0.1-0.3c0-0.1,0-0.2-0.1-0.3C4.7-7.3,4.6-7.3,4.5-7.3z"/>
		<path class="st1" d="M22.9-4.7c-0.1,0-0.2,0-0.3,0.1c-0.1,0.1-0.1,0.2-0.1,0.3c0,0.1,0,0.2,0.1,0.3C22.8-4,23-4,23.1-4.1
			c0.1-0.2,0.1-0.4,0-0.5C23.1-4.7,23-4.7,22.9-4.7z"/>
		<path class="st1" d="M31.5-2.1c-0.1,0-0.2,0-0.3,0.1c-0.1,0.1-0.1,0.2-0.1,0.3c0,0.1,0,0.2,0.1,0.3c0.1,0.1,0.4,0.1,0.5,0
			c0.1-0.1,0.1-0.2,0.1-0.3C31.9-1.9,31.7-2.1,31.5-2.1C31.5-2.1,31.5-2.1,31.5-2.1z"/>
		<path class="st1" d="M47.3-5.6c-0.2,0-0.4,0.2-0.4,0.4c0,0.1,0,0.2,0.1,0.3c0.1,0.1,0.4,0.1,0.5,0c0.1-0.1,0.1-0.2,0.1-0.3
			c0-0.1,0-0.2-0.1-0.3C47.4-5.6,47.4-5.6,47.3-5.6z"/>
		<path class="st1" d="M34.1-6.2c-0.1,0-0.2,0-0.3,0.1c-0.1,0.1-0.1,0.2-0.1,0.3c0,0.1,0,0.2,0.1,0.3c0.1,0.1,0.4,0.1,0.5,0
			c0.1-0.1,0.1-0.2,0.1-0.3c0-0.1,0-0.2-0.1-0.3C34.3-6.1,34.2-6.2,34.1-6.2z"/>
		<path class="st1" d="M23.3-8.1c-0.2,0-0.4,0.2-0.4,0.3c0,0,0,0,0,0l0,0c0,0.1,0,0.2,0.1,0.3c0.1,0.1,0.4,0.1,0.5,0
			c0.1-0.1,0.1-0.2,0.1-0.3c0-0.1,0-0.2-0.1-0.3C23.4-8,23.3-8.1,23.3-8.1z"/>
		<path class="st1" d="M13.7-3.4c-0.1,0-0.2,0-0.3,0.1c-0.1,0.1-0.1,0.2-0.1,0.3c0,0.1,0,0.2,0.1,0.3c0.2,0.1,0.4,0.1,0.5,0
			C14-2.8,14-2.9,14-3c0-0.1,0-0.2-0.1-0.3C13.9-3.3,13.8-3.4,13.7-3.4z"/>
		<path class="st1" d="M16.3-6.2c-0.1,0-0.2,0-0.3,0.1C16-6,15.9-5.9,15.9-5.8c0,0.2,0.2,0.4,0.4,0.4c0.2,0,0.4-0.2,0.4-0.4
			c0-0.1,0-0.2-0.1-0.3C16.5-6.1,16.4-6.2,16.3-6.2z"/>
		<path class="st1" d="M41.6-8.3c-0.1,0-0.2,0-0.3,0.1c-0.1,0.1-0.1,0.2-0.1,0.3c0,0.1,0,0.2,0.1,0.3c0.1,0.1,0.4,0.1,0.5,0
			c0.2-0.1,0.2-0.4,0-0.5C41.9-8.2,41.8-8.3,41.6-8.3L41.6-8.3z"/>
		<path class="st1" d="M7.9-4.5c-0.1,0-0.2,0-0.3,0.1C7.5-4.2,7.5-4,7.6-3.9c0,0,0,0,0,0l0,0c0.1,0.1,0.4,0.1,0.5,0
			C8.2-3.9,8.3-4,8.3-4.1c0-0.1,0-0.2-0.1-0.3C8.1-4.5,8-4.5,7.9-4.5z"/>
		<path class="st1" d="M30-8.4c-0.2,0-0.4,0.2-0.4,0.4c0,0.2,0.2,0.4,0.4,0.4c0,0,0,0,0,0c0.1,0,0.2,0,0.3-0.1
			c0.1-0.2,0.1-0.4,0-0.5C30.2-8.4,30.1-8.4,30-8.4z"/>
		<path class="st1" d="M11.1-9.8c-0.1,0-0.2,0.1-0.3,0.1c-0.1,0.1-0.1,0.4,0,0.5c0,0,0,0,0,0l0,0c0.1,0.1,0.4,0.1,0.5,0
			c0.1-0.1,0.1-0.2,0.1-0.3c0-0.1,0-0.2-0.1-0.3C11.3-9.7,11.2-9.8,11.1-9.8z"/>
		<path class="st1" d="M34.9-9.9c-0.1,0-0.2,0-0.3,0.1c-0.1,0.1-0.1,0.2-0.1,0.3c0,0.1,0,0.2,0.1,0.3c0.1,0.1,0.4,0.1,0.5,0
			c0.1-0.1,0.1-0.2,0.1-0.3c0-0.1,0-0.2-0.1-0.3C35.1-9.9,35-9.9,34.9-9.9z"/>
		<path class="st1" d="M17.1-1.7c-0.1,0-0.2,0-0.3,0.1c-0.1,0.1-0.1,0.2-0.1,0.3c0,0.1,0,0.2,0.1,0.3C17-1,17.2-1,17.3-1.1
			c0.1-0.1,0.1-0.2,0.1-0.3c0-0.1,0-0.2-0.1-0.3C17.3-1.7,17.2-1.7,17.1-1.7z"/>
		<path class="st1" d="M37.3-2.3c-0.1,0-0.2,0-0.3,0.1C37-2.1,36.9-2,36.9-1.9c0,0.1,0,0.2,0.1,0.3c0.1,0.1,0.4,0.1,0.5,0
			c0.1-0.1,0.1-0.2,0.1-0.3c0-0.1,0-0.2-0.1-0.3C37.5-2.2,37.4-2.3,37.3-2.3z"/>
		<path class="st1" d="M42.2-4.3c-0.1,0-0.2,0-0.3,0.1c-0.1,0.1-0.1,0.2-0.1,0.3c0,0.1,0,0.2,0.1,0.3c0.2,0.1,0.4,0.1,0.5,0
			c0.1-0.1,0.1-0.2,0.1-0.3c0-0.1,0-0.2-0.1-0.3C42.4-4.3,42.3-4.3,42.2-4.3z"/>
		<path class="st1" d="M45.4-9.4c-0.1,0-0.2,0-0.3,0.1C45-9.2,45-9.1,45-9c0,0.2,0.1,0.4,0.3,0.4c0.2,0,0.4-0.1,0.4-0.3c0,0,0,0,0,0
			c0,0,0-0.1,0-0.1C45.7-9.2,45.6-9.4,45.4-9.4z"/>
		<path class="st1" d="M13.3-25.5c-0.1,0-0.2,0-0.3,0.1c-0.1,0.1-0.1,0.4,0,0.5c0,0,0,0,0,0l0,0c0.1,0.1,0.4,0.1,0.5,0
			c0.1-0.1,0.1-0.2,0.1-0.3C13.7-25.3,13.5-25.5,13.3-25.5L13.3-25.5z"/>
		<path class="st1" d="M1.5-25.3c-0.1,0-0.2,0-0.3,0.1c-0.1,0.1-0.1,0.2-0.1,0.3c0,0.1,0,0.2,0.1,0.3c0.1,0.1,0.4,0.1,0.5,0
			c0.1-0.1,0.1-0.2,0.1-0.3c0-0.1,0-0.2-0.1-0.3C1.7-25.2,1.6-25.3,1.5-25.3z"/>
		<path class="st1" d="M5.8-31.3c-0.1,0-0.2,0-0.3,0.1c-0.1,0.1-0.1,0.2-0.1,0.3c0,0.1,0,0.2,0.1,0.3c0.2,0.1,0.4,0.1,0.5,0
			c0.1-0.1,0.1-0.4,0-0.5C6-31.3,5.9-31.3,5.8-31.3z"/>
		<path class="st1" d="M3.8-37.7c-0.1,0-0.2,0-0.3,0.1c-0.1,0.2-0.1,0.4,0,0.5C3.6-37,3.9-37,4-37.1c0.1-0.1,0.2-0.4,0-0.5
			c0,0,0,0,0,0l0,0C3.9-37.7,3.9-37.7,3.8-37.7L3.8-37.7z"/>
		<path class="st1" d="M10.5-42c-0.2,0-0.4,0.2-0.4,0.4c0,0.1,0,0.2,0.1,0.3c0.2,0.1,0.4,0.1,0.5,0c0.1-0.1,0.1-0.2,0.1-0.3
			C10.9-41.8,10.7-42,10.5-42C10.5-42,10.5-42,10.5-42z"/>
		<path class="st1" d="M4.5-42.2c-0.1,0-0.2,0-0.3,0.1c-0.1,0.1-0.1,0.2-0.1,0.3c0,0.1,0,0.2,0.1,0.3c0.2,0.1,0.4,0.1,0.5,0
			c0.1-0.1,0.1-0.2,0.1-0.3c0-0.1,0-0.2-0.1-0.3C4.7-42.2,4.6-42.2,4.5-42.2z"/>
		<path class="st1" d="M10.9-24c-0.1,0-0.2,0-0.3,0.1c-0.1,0.1-0.1,0.4,0,0.5c0,0,0,0,0,0l0,0c0.1,0.1,0.4,0.1,0.5,0
			c0.1-0.1,0.1-0.2,0.1-0.3c0-0.1,0-0.2-0.1-0.3C11.1-24,11-24,10.9-24z"/>
		<path class="st1" d="M20.1-22.9c-0.2,0-0.4,0.2-0.4,0.4s0.2,0.4,0.4,0.4c0.2,0,0.4-0.1,0.4-0.3c0,0,0-0.1,0-0.1
			c0-0.1,0-0.2-0.1-0.3C20.3-22.8,20.2-22.9,20.1-22.9z"/>
		<path class="st1" d="M4.1-27.8c-0.1,0-0.2,0.1-0.3,0.1c-0.1,0.1-0.1,0.2-0.1,0.3c0,0.1,0,0.2,0.1,0.3C4-27,4.3-27,4.4-27.2
			c0.1-0.1,0.1-0.3,0-0.5l0,0C4.3-27.7,4.2-27.7,4.1-27.8z"/>
		<path class="st1" d="M7.5-21.4c-0.1,0-0.2,0-0.3,0.1c-0.1,0.1-0.1,0.2-0.1,0.3c0,0.1,0,0.2,0.1,0.3c0.2,0.1,0.4,0.1,0.5,0
			c0.1-0.1,0.1-0.2,0.1-0.3c0-0.1,0-0.2-0.1-0.3C7.7-21.3,7.6-21.4,7.5-21.4z"/>
		<path class="st1" d="M24.9-26.3c-0.2,0-0.4,0.2-0.4,0.4c0,0.1,0,0.2,0.1,0.3c0.1,0.1,0.4,0.1,0.5,0c0.1-0.1,0.1-0.2,0.1-0.3
			c0-0.1,0-0.2-0.1-0.3C25.1-26.2,25-26.3,24.9-26.3z"/>
		<path class="st1" d="M27.4-27.6c-0.1,0-0.2,0-0.3,0.1C27-27.4,27-27.3,27-27.2c0,0.1,0,0.2,0.1,0.3c0.1,0.1,0.4,0.1,0.5,0
			c0.1-0.1,0.1-0.2,0.1-0.3c0-0.1,0-0.2-0.1-0.3C27.6-27.5,27.5-27.6,27.4-27.6z"/>
		<path class="st1" d="M7.9-34.5c-0.1,0-0.2,0-0.3,0.1c-0.1,0.1-0.1,0.2-0.1,0.3c0,0.1,0,0.2,0.1,0.3c0.2,0.1,0.4,0.1,0.5,0
			c0.1-0.2,0.1-0.4,0-0.5C8.1-34.5,8-34.5,7.9-34.5z"/>
		<path class="st1" d="M22.9-39.6c-0.2,0-0.4,0.2-0.4,0.4l0,0l0,0c0,0.1,0,0.2,0.1,0.3c0.2,0.1,0.4,0.1,0.5,0
			c0.1-0.1,0.1-0.2,0.1-0.3c0-0.1,0-0.2-0.1-0.3C23.1-39.5,23-39.6,22.9-39.6z"/>
		<path class="st1" d="M31.5-36.9c-0.1,0-0.2,0-0.3,0.1c-0.1,0.1-0.1,0.2-0.1,0.3c0,0.1,0,0.2,0.1,0.3c0.2,0.1,0.4,0.1,0.5,0
			c0,0,0,0,0,0c0.1-0.1,0.1-0.3,0-0.5C31.7-36.9,31.6-36.9,31.5-36.9z"/>
		<path class="st1" d="M29.4-23.3c-0.2,0-0.4,0.2-0.4,0.4c0,0.1,0,0.2,0.1,0.3c0.2,0.1,0.4,0.1,0.5,0c0.1-0.1,0.1-0.2,0.1-0.3
			C29.8-23.1,29.7-23.2,29.4-23.3C29.5-23.3,29.5-23.3,29.4-23.3L29.4-23.3z"/>
		<path class="st1" d="M41.3-22.3c-0.1,0-0.2,0-0.3,0.1c-0.1,0.1-0.1,0.2-0.1,0.3c0,0.1,0,0.2,0.1,0.3c0.1,0.1,0.4,0.1,0.5,0
			c0.1-0.1,0.1-0.2,0.1-0.3c0-0.1,0-0.2-0.1-0.3C41.4-22.3,41.3-22.3,41.3-22.3z"/>
		<path class="st1" d="M27.2-34.3c-0.2,0-0.4,0.2-0.4,0.4c0,0.1,0,0.2,0.1,0.3c0.2,0.1,0.4,0.1,0.5,0c0.1-0.1,0.1-0.2,0.1-0.3
			c0-0.1,0-0.2-0.1-0.3C27.4-34.3,27.3-34.3,27.2-34.3z"/>
		<path class="st1" d="M47.3-40.5c-0.1,0-0.2,0-0.3,0.1c-0.1,0.1-0.1,0.2-0.1,0.3c0,0.1,0,0.2,0.1,0.3c0.1,0.1,0.4,0.1,0.5,0
			c0.1-0.1,0.1-0.2,0.1-0.3C47.6-40.3,47.5-40.5,47.3-40.5C47.3-40.5,47.3-40.5,47.3-40.5z"/>
		<path class="st1" d="M34.1-41.1c-0.1,0-0.2,0-0.3,0.1c-0.1,0.1-0.1,0.4,0,0.5l0,0l0,0c0.1,0.1,0.4,0.1,0.5,0
			c0.1-0.1,0.1-0.2,0.1-0.3c0-0.1,0-0.2-0.1-0.3C34.3-41,34.2-41.1,34.1-41.1z"/>
		<path class="st1" d="M23.3-42.9c-0.1,0-0.2,0-0.3,0.1c-0.1,0.1-0.1,0.2-0.1,0.3c0,0.2,0.2,0.4,0.4,0.4c0.2,0,0.4-0.2,0.4-0.4
			C23.6-42.8,23.5-42.9,23.3-42.9z"/>
		<path class="st1" d="M13.7-38.3c-0.1,0-0.2,0-0.3,0.1c-0.1,0.1-0.1,0.2-0.1,0.3c0,0.1,0,0.2,0.1,0.3c0.1,0.1,0.4,0.1,0.5,0
			c0.1-0.1,0.1-0.2,0.1-0.3c0-0.1,0-0.2-0.1-0.3C13.9-38.2,13.8-38.3,13.7-38.3z"/>
		<path class="st1" d="M16.3-41.1c-0.1,0-0.2,0-0.3,0.1c-0.1,0.1-0.1,0.2-0.1,0.3c0,0.1,0,0.2,0.1,0.3c0.2,0.1,0.4,0.1,0.5,0
			c0.1-0.1,0.1-0.4,0-0.5C16.5-41,16.4-41.1,16.3-41.1z"/>
		<path class="st1" d="M39.1-43.5c-0.2,0-0.4,0.2-0.4,0.4c0,0,0,0,0,0l0,0c0,0.1,0,0.2,0.1,0.3c0.1,0.1,0.4,0.1,0.5,0
			c0.1-0.1,0.1-0.2,0.1-0.3c0-0.1,0-0.2-0.1-0.3C39.3-43.5,39.2-43.5,39.1-43.5z"/>
		<path class="st1" d="M49.3-33.9c-0.1,0-0.2,0.1-0.3,0.1c-0.1,0.1-0.1,0.2-0.1,0.3c0,0.1,0,0.2,0.1,0.3c0.1,0.1,0.4,0.1,0.5,0
			c0.1-0.1,0.1-0.2,0.1-0.3c0-0.1,0-0.2-0.1-0.3C49.5-33.9,49.4-33.9,49.3-33.9z"/>
		<path class="st1" d="M30.6-31.9c-0.2,0-0.4,0.2-0.4,0.4s0.2,0.4,0.4,0.4c0.2,0,0.4-0.1,0.4-0.3c0,0,0-0.1,0-0.1
			c0-0.1,0-0.2-0.1-0.3C30.8-31.8,30.7-31.9,30.6-31.9z"/>
		<path class="st1" d="M49.7-23.6c-0.2,0-0.4,0.2-0.4,0.4c0,0.1,0,0.2,0.1,0.3c0.2,0.1,0.4,0.1,0.5,0c0.1-0.1,0.1-0.2,0.1-0.3
			c0-0.1,0-0.2-0.1-0.3C49.9-23.6,49.8-23.6,49.7-23.6z"/>
		<path class="st1" d="M35.4-21.8c-0.1,0-0.2,0-0.3,0.1c-0.1,0.1-0.1,0.2-0.1,0.3c0,0.1,0,0.2,0.1,0.3c0.2,0.1,0.4,0.1,0.5,0
			c0.1-0.1,0.1-0.2,0.1-0.3c0-0.1,0-0.2-0.1-0.3C35.6-21.7,35.5-21.8,35.4-21.8z"/>
		<path class="st1" d="M7.9-39.4c-0.1,0-0.2,0-0.3,0.1c-0.1,0.1-0.1,0.2-0.1,0.3c0,0.1,0,0.2,0.1,0.3c0.2,0.1,0.4,0.1,0.5,0
			c0.1-0.1,0.2-0.4,0-0.5C8.1-39.3,8-39.4,7.9-39.4z"/>
		<path class="st1" d="M24.9-21.8c-0.1,0-0.2,0-0.3,0.1c-0.1,0.1-0.1,0.2-0.1,0.3c0,0.1,0,0.2,0.1,0.3c0.2,0.1,0.4,0.1,0.5,0
			c0.1-0.1,0.1-0.2,0.1-0.3C25.3-21.6,25.1-21.8,24.9-21.8z"/>
		<path class="st1" d="M15.6-21.8c-0.1,0-0.2,0-0.3,0.1c-0.1,0.1-0.1,0.4,0,0.5c0,0,0,0,0,0l0,0c0.1,0.1,0.4,0.1,0.5,0
			c0.1-0.1,0.1-0.2,0.1-0.3C15.9-21.6,15.8-21.8,15.6-21.8L15.6-21.8z"/>
		<path class="st1" d="M30-43.3c-0.1,0-0.2,0-0.3,0.1c-0.1,0.1-0.1,0.2-0.1,0.3c0,0.1,0,0.2,0.1,0.3c0.1,0.1,0.4,0.1,0.5,0
			c0.1-0.1,0.1-0.2,0.1-0.3c0-0.1,0-0.2-0.1-0.3C30.2-43.3,30.1-43.3,30-43.3z"/>
		<path class="st1" d="M11.1-44.6c-0.1,0-0.2,0-0.3,0.1c-0.1,0.1-0.1,0.2-0.1,0.3c0,0.1,0,0.2,0.1,0.3c0.2,0.1,0.4,0.1,0.5,0
			c0.1-0.1,0.2-0.4,0-0.5C11.3-44.6,11.2-44.6,11.1-44.6z"/>
		<path class="st1" d="M44.3-19.1c-0.2,0-0.4,0.2-0.4,0.4c0,0.1,0,0.2,0.1,0.3c0.1,0.1,0.4,0.2,0.5,0c0,0,0,0,0,0l0,0
			c0.1-0.1,0.1-0.2,0.1-0.3c0-0.1,0-0.2-0.1-0.3C44.4-19.1,44.4-19.1,44.3-19.1z"/>
		<path class="st1" d="M34.9-44.8c-0.1,0-0.2,0-0.3,0.1c-0.1,0.1-0.1,0.2-0.1,0.3c0,0.1,0,0.2,0.1,0.3c0.1,0.1,0.4,0.2,0.5,0
			c0,0,0,0,0,0l0,0c0.1-0.1,0.1-0.2,0.1-0.3C35.2-44.6,35.1-44.8,34.9-44.8L34.9-44.8z"/>
		<path class="st1" d="M45.1-26c-0.1,0-0.2,0-0.3,0.1c-0.1,0.1-0.1,0.4,0,0.5c0,0,0,0,0,0l0,0c0.1,0.1,0.4,0.1,0.5,0
			c0.1-0.1,0.1-0.2,0.1-0.3c0-0.1,0-0.2-0.1-0.3C45.3-26,45.2-26,45.1-26z"/>
		<path class="st1" d="M15-30.9c-0.1,0-0.2,0-0.3,0.1c-0.1,0.1-0.1,0.2-0.1,0.3c0,0.1,0,0.2,0.1,0.3c0.2,0.1,0.4,0.1,0.5,0
			c0.1-0.2,0.1-0.4,0-0.5C15.2-30.9,15.1-30.9,15-30.9z"/>
		<path class="st1" d="M11.1-31.3c-0.1,0-0.2,0-0.3,0.1c-0.1,0.1-0.1,0.2-0.1,0.3c0,0.1,0,0.2,0.1,0.3c0.1,0.2,0.4,0.2,0.6,0.1
			c0,0,0,0,0,0l0,0c0.1-0.1,0.2-0.4,0-0.5C11.3-31.2,11.2-31.3,11.1-31.3L11.1-31.3z"/>
		<path class="st1" d="M21.2-33.6c-0.2,0-0.4,0.2-0.4,0.4l0,0l0,0c0,0.1,0,0.2,0.1,0.3c0.2,0.1,0.4,0.1,0.5,0c0.1-0.1,0.2-0.4,0-0.5
			c0,0,0,0,0,0l0,0C21.4-33.5,21.3-33.6,21.2-33.6z"/>
		<path class="st1" d="M22.1-30.2c-0.1,0-0.2,0-0.3,0.1c-0.1,0.1-0.1,0.2-0.1,0.3c0,0.1,0,0.2,0.1,0.3c0.1,0.1,0.4,0.1,0.5,0
			c0.1-0.1,0.1-0.2,0.1-0.3c0-0.1,0-0.2-0.1-0.3C22.3-30.1,22.2-30.2,22.1-30.2z"/>
		<path class="st1" d="M18.9-27.8c-0.1,0-0.2,0-0.3,0.1c-0.1,0.1-0.1,0.2-0.1,0.3c0,0.1,0,0.2,0.1,0.3c0.1,0.1,0.4,0.1,0.5,0
			c0.1-0.1,0.1-0.2,0.1-0.3c0-0.1,0-0.2-0.1-0.3C19.1-27.7,19-27.8,18.9-27.8z"/>
		<path class="st1" d="M17.1-36.6c-0.1,0-0.2,0-0.3,0.1c-0.1,0.1-0.1,0.2-0.1,0.3c0,0.1,0,0.2,0.1,0.3c0.1,0.1,0.4,0.1,0.5,0
			c0.1-0.1,0.1-0.2,0.1-0.3C17.4-36.4,17.3-36.6,17.1-36.6C17.1-36.6,17.1-36.6,17.1-36.6z"/>
		<path class="st1" d="M46.3-30.9c-0.1,0-0.2,0.1-0.3,0.1c-0.1,0.1-0.1,0.2-0.1,0.3c0,0.1,0,0.2,0.1,0.3c0.1,0.1,0.4,0.1,0.5,0
			c0.1-0.1,0.1-0.2,0.1-0.3c0-0.1,0-0.2-0.1-0.3C46.5-30.9,46.4-30.9,46.3-30.9z"/>
		<path class="st1" d="M32.8-26.4c-0.1,0-0.2,0-0.3,0.1c-0.1,0.1-0.1,0.4,0,0.5c0.1,0.2,0.4,0.2,0.5,0.1s0.2-0.4,0.1-0.5l-0.1-0.1
			C33-26.4,32.9-26.4,32.8-26.4z"/>
		<path class="st1" d="M39-31.3c-0.1,0-0.2,0-0.3,0.1c-0.1,0.1-0.1,0.2-0.1,0.3c0,0.1,0,0.2,0.1,0.3c0.1,0.1,0.4,0.1,0.5,0
			c0.1-0.1,0.1-0.2,0.1-0.3C39.4-31.1,39.2-31.3,39-31.3C39-31.3,39-31.3,39-31.3z"/>
		<path class="st1" d="M40.7-27.9c-0.1,0-0.2,0-0.3,0.1c-0.1,0.1-0.1,0.4,0,0.5s0.4,0.1,0.5,0c0.1-0.1,0.1-0.2,0.1-0.3
			c0-0.1,0-0.2-0.1-0.3C40.9-27.9,40.8-27.9,40.7-27.9z"/>
		<path class="st1" d="M37.3-37.1c-0.2,0-0.4,0.2-0.4,0.4c0,0.1,0,0.2,0.1,0.3c0.2,0.1,0.4,0.1,0.5,0c0.1-0.1,0.1-0.2,0.1-0.3
			c0-0.1,0-0.2-0.1-0.3C37.5-37.1,37.4-37.1,37.3-37.1z"/>
		<path class="st1" d="M42.2-39.2c-0.2,0-0.4,0.2-0.4,0.4c0,0.1,0,0.2,0.1,0.3c0.2,0.1,0.4,0.1,0.5,0c0.1-0.1,0.1-0.2,0.1-0.3
			c0-0.1,0-0.2-0.1-0.3C42.4-39.2,42.3-39.2,42.2-39.2z"/>
		<path class="st1" d="M43.3-35.1c-0.2,0-0.4,0.2-0.4,0.4c0,0.2,0.1,0.3,0.3,0.4c0.2,0,0.4-0.1,0.4-0.3c0,0,0-0.1,0-0.1
			c0-0.1,0-0.2-0.1-0.3C43.5-35,43.4-35.1,43.3-35.1z"/>
		<path class="st1" d="M45.4-44.3c-0.2,0-0.4,0.2-0.4,0.4c0,0,0,0,0,0l0,0c0,0.1,0,0.2,0.1,0.3c0.1,0.1,0.4,0.1,0.5,0
			c0.1-0.1,0.1-0.2,0.1-0.3c0-0.1,0-0.2-0.1-0.3C45.6-44.2,45.5-44.3,45.4-44.3z"/>
		<path class="st1" d="M50.3-44.1c-0.2,0-0.4,0.2-0.4,0.4c0,0.2,0.1,0.3,0.3,0.4c0.2,0,0.4-0.1,0.4-0.3c0,0,0-0.1,0-0.1
			c0-0.1,0-0.2-0.1-0.3C50.4-44,50.3-44.1,50.3-44.1z"/>
		<path class="st1" d="M54.9-45.9c-0.1,0-0.2,0-0.3,0.1c-0.1,0.1-0.1,0.2-0.1,0.3c0,0.1,0,0.2,0.1,0.3c0.2,0.1,0.4,0.1,0.5,0
			c0.1-0.1,0.1-0.2,0.1-0.3c0-0.1,0-0.2-0.1-0.3C55.1-45.9,55-45.9,54.9-45.9z"/>
		<path class="st1" d="M55.9-20.8c-0.1,0-0.2,0-0.3,0.1c-0.1,0.1-0.1,0.2-0.1,0.3c0,0.2,0.1,0.4,0.3,0.4c0.2,0,0.4-0.1,0.4-0.3
			c0,0,0,0,0,0c0,0,0-0.1,0-0.1C56.2-20.6,56.1-20.8,55.9-20.8z"/>
		<path class="st1" d="M54.2-39.4c-0.2,0-0.4,0.1-0.4,0.4c0,0.1,0,0.2,0.1,0.3c0.2,0.1,0.4,0.1,0.5,0c0.1-0.1,0.1-0.4,0-0.5l0,0
			C54.4-39.3,54.3-39.4,54.2-39.4z"/>
		<path class="st1" d="M60.8-46.3c-0.1,0-0.2,0-0.3,0.1c-0.1,0.1-0.1,0.2-0.1,0.3c0,0.1,0,0.2,0.1,0.3c0.1,0.1,0.4,0.1,0.5,0
			c0.1-0.1,0.1-0.2,0.1-0.3C61.1-46.1,61-46.3,60.8-46.3C60.8-46.3,60.8-46.3,60.8-46.3z"/>
		<path class="st1" d="M55.7-32.6c-0.1,0-0.2,0-0.3,0.1c-0.1,0.1-0.1,0.2-0.1,0.3c0,0.1,0,0.2,0.1,0.3c0.1,0.1,0.4,0.1,0.5,0
			c0.1-0.1,0.1-0.2,0.1-0.3c0-0.1,0-0.2-0.1-0.3C55.9-32.6,55.8-32.6,55.7-32.6z"/>
		<path class="st1" d="M61.7-28.3c-0.1,0-0.2,0-0.3,0.1c-0.1,0.1-0.1,0.2-0.1,0.3c0,0.1,0,0.2,0.1,0.3c0.2,0.1,0.4,0.1,0.5,0
			c0.1-0.1,0.1-0.2,0.1-0.3c0-0.1,0-0.2-0.1-0.3C61.9-28.2,61.8-28.3,61.7-28.3z"/>
		<path class="st1" d="M66.4-45c-0.1,0-0.2,0-0.3,0.1C66-44.8,66-44.7,66-44.6c0,0.1,0,0.2,0.1,0.3c0.1,0.1,0.4,0.1,0.5,0
			c0.1-0.1,0.1-0.2,0.1-0.3c0-0.1,0-0.2-0.1-0.3C66.6-45,66.5-45,66.4-45z"/>
		<path class="st1" d="M72.6-46.1c-0.1,0-0.2,0-0.3,0.1c-0.1,0.1-0.1,0.2-0.1,0.3c0,0.1,0,0.2,0.1,0.3c0.2,0.1,0.4,0.1,0.5,0
			c0.1-0.1,0.1-0.4,0-0.5C72.8-46.1,72.7-46.1,72.6-46.1z"/>
		<path class="st1" d="M68.1-30.4c-0.1,0-0.2,0-0.3,0.1c-0.1,0.1-0.1,0.2-0.1,0.3c0,0.2,0.2,0.4,0.4,0.4c0,0,0,0,0,0
			c0.1,0,0.2,0,0.3-0.1c0.1-0.1,0.1-0.4,0-0.5c0,0,0,0,0,0l0,0C68.3-30.3,68.2-30.4,68.1-30.4z"/>
		<path class="st1" d="M72.4-23.6c-0.1,0-0.2,0-0.3,0.1c-0.1,0.1-0.1,0.4,0,0.5c0.1,0.1,0.4,0.1,0.5,0c0.1-0.1,0.2-0.4,0-0.5
			C72.6-23.6,72.5-23.6,72.4-23.6z"/>
		<path class="st1" d="M72.6-29.6c-0.1,0-0.2,0-0.3,0.1c-0.1,0.1-0.1,0.2-0.1,0.3c0,0.1,0,0.2,0.1,0.3c0.1,0.1,0.4,0.1,0.5,0
			c0.1-0.1,0.1-0.4,0-0.5C72.8-29.6,72.7-29.6,72.6-29.6z"/>
		<path class="st1" d="M72.6-40.5c-0.1,0-0.2,0-0.3,0.1c-0.1,0.1-0.1,0.2-0.1,0.3c0,0.1,0,0.2,0.1,0.3c0.1,0.1,0.4,0.1,0.5,0
			c0.1-0.1,0.1-0.2,0.1-0.3c0-0.1,0-0.2-0.1-0.3C72.8-40.5,72.7-40.5,72.6-40.5z"/>
		<path class="st1" d="M54.4-23.3c-0.1,0-0.2,0-0.3,0.1C54-23.1,54-23,54-22.9c0,0.1,0,0.2,0.1,0.3c0.1,0.1,0.4,0.1,0.5,0
			c0.1-0.1,0.1-0.2,0.1-0.3c0-0.1,0-0.2-0.1-0.3C54.6-23.2,54.5-23.3,54.4-23.3z"/>
		<path class="st1" d="M53.3-14.1c-0.2,0-0.4,0.2-0.4,0.4c0,0.1,0,0.2,0.1,0.3c0.1,0.1,0.4,0.2,0.5,0c0,0,0,0,0,0l0,0
			c0.1-0.1,0.1-0.2,0.1-0.3c0-0.1,0-0.2-0.1-0.3C53.4-14,53.4-14.1,53.3-14.1z"/>
		<path class="st1" d="M51.2-35.4c-0.1,0-0.2,0-0.3,0.1c-0.1,0.1-0.1,0.2-0.1,0.3c0,0.1,0,0.2,0.1,0.3c0.2,0.1,0.4,0.1,0.5,0
			c0.1-0.1,0.1-0.2,0.1-0.3c0-0.1,0-0.2-0.1-0.3C51.4-35.4,51.3-35.4,51.2-35.4z"/>
		<path class="st1" d="M59.1-31.5c-0.1,0-0.2,0-0.3,0.1c-0.1,0.1-0.1,0.2-0.1,0.3c0,0.1,0,0.2,0.1,0.3c0.2,0.1,0.4,0.1,0.5,0
			c0,0,0,0,0,0l0,0c0.1-0.1,0.1-0.1,0.1-0.2c0-0.1,0-0.2-0.1-0.3C59.3-31.5,59.2-31.5,59.1-31.5z"/>
		<path class="st1" d="M51.8-26.6c-0.1,0-0.2,0-0.3,0.1c-0.1,0.1-0.1,0.2-0.1,0.3c0,0.1,0,0.2,0.1,0.3c0.2,0.1,0.4,0.1,0.5,0
			c0.1-0.1,0.1-0.2,0.1-0.3c0-0.1,0-0.2-0.1-0.3C51.9-26.6,51.8-26.6,51.8-26.6z"/>
		<path class="st1" d="M56.6-9.2c-0.1,0-0.2,0.1-0.3,0.1c-0.1,0.1-0.1,0.2-0.1,0.3c0,0.2,0.2,0.4,0.4,0.4c0,0,0,0,0,0
			c0.1,0,0.2,0,0.3-0.1C57-8.6,57-8.7,57-8.8C57-9,56.8-9.2,56.6-9.2L56.6-9.2z"/>
		<path class="st1" d="M57.9-6.8c-0.1,0-0.2,0.1-0.3,0.1c-0.1,0.1-0.1,0.2-0.1,0.3c0,0.1,0,0.2,0.1,0.3c0.2,0.1,0.4,0.1,0.5,0
			c0.1-0.1,0.1-0.2,0.1-0.3c0-0.1,0-0.2-0.1-0.3C58.1-6.7,58-6.7,57.9-6.8z"/>
		<path class="st1" d="M64.9-26.3c-0.1,0-0.2,0-0.3,0.1c-0.1,0.1-0.1,0.2-0.1,0.3c0,0.1,0,0.2,0.1,0.3c0.2,0.1,0.4,0.1,0.5,0
			c0,0,0,0,0,0c0.1-0.1,0.1-0.3,0-0.5C65.1-26.2,65-26.3,64.9-26.3z"/>
		<path class="st1" d="M69.9-11.3c-0.1,0-0.2,0-0.3,0.1c-0.1,0.1-0.1,0.4,0,0.5c0,0,0,0,0,0l0,0c0.2,0.1,0.4,0.1,0.5,0
			c0.1-0.1,0.1-0.2,0.1-0.3c0-0.1,0-0.2-0.1-0.3C70.1-11.2,70-11.3,69.9-11.3z"/>
		<path class="st1" d="M67.3-2.6c-0.2,0-0.4,0.2-0.4,0.4c0,0.1,0,0.2,0.1,0.3c0.2,0.1,0.4,0.1,0.5,0c0.1-0.1,0.1-0.2,0.1-0.3
			c0-0.1,0-0.2-0.1-0.3C67.5-2.6,67.4-2.6,67.3-2.6z"/>
		<path class="st1" d="M53.6-4.7c-0.1,0-0.2,0-0.3,0.1c-0.1,0.1-0.1,0.2-0.1,0.3c0,0.2,0.1,0.4,0.3,0.4c0.1,0,0.2,0,0.3-0.1
			c0.1-0.1,0.2-0.4,0-0.5c0,0,0,0,0,0C53.8-4.7,53.7-4.7,53.6-4.7z"/>
		<path class="st1" d="M64.7-6.9c-0.1,0-0.2,0-0.3,0.1c-0.1,0.1-0.1,0.2-0.1,0.3c0,0.1,0,0.2,0.1,0.3c0.2,0.1,0.4,0.1,0.5,0
			C65-6.4,65-6.5,65-6.6c0-0.1,0-0.2-0.1-0.3C64.9-6.9,64.8-6.9,64.7-6.9z"/>
		<path class="st1" d="M68.6-20.4c-0.1,0-0.2,0-0.3,0.1c-0.1,0.1-0.1,0.2-0.1,0.3c0,0.1,0,0.2,0.1,0.3c0.1,0.1,0.4,0.1,0.5,0
			C69-19.9,69-20,69-20.1c0-0.1,0-0.2-0.1-0.3C68.8-20.4,68.7-20.4,68.6-20.4z"/>
		<path class="st1" d="M71.4-17.8c-0.1,0-0.2,0-0.3,0.1c-0.1,0.1-0.1,0.2-0.1,0.3c0,0.1,0,0.2,0.1,0.3c0.2,0.1,0.4,0.1,0.5,0
			c0.1-0.1,0.1-0.2,0.1-0.3c0-0.1,0-0.2-0.1-0.3C71.6-17.8,71.5-17.8,71.4-17.8z"/>
		<path class="st1" d="M62.3-3.6c-0.1,0-0.2,0-0.3,0.1c-0.1,0.1-0.1,0.2-0.1,0.3c0,0.1,0,0.2,0.1,0.3c0.2,0.1,0.4,0.1,0.5,0
			c0.1-0.1,0.1-0.2,0.1-0.3c0-0.1,0-0.2-0.1-0.3C62.4-3.5,62.4-3.6,62.3-3.6z"/>
		<path class="st1" d="M69.8-26.3c-0.2,0-0.4,0.2-0.4,0.4c0,0.1,0,0.2,0.1,0.3c0.1,0.1,0.4,0.1,0.5,0c0.1-0.1,0.1-0.2,0.1-0.3
			c0-0.1,0-0.2-0.1-0.3C69.9-26.2,69.8-26.3,69.8-26.3z"/>
		<path class="st1" d="M52.1-9.2c-0.1,0-0.2,0-0.3,0.1c-0.1,0.1-0.1,0.2-0.1,0.3c0,0.2,0.2,0.4,0.4,0.4c0,0,0,0,0,0
			c0.1,0,0.2,0,0.3-0.1c0.1-0.1,0.1-0.2,0.1-0.3c0-0.1,0-0.2-0.1-0.3C52.3-9.1,52.2-9.2,52.1-9.2z"/>
		<path class="st1" d="M52.1-18.6c-0.1,0-0.2,0-0.3,0.1c-0.1,0.1-0.1,0.2-0.1,0.3c0,0.1,0,0.2,0.1,0.3c0.1,0.1,0.4,0.1,0.5,0
			c0.1-0.1,0.2-0.4,0-0.5C52.3-18.5,52.2-18.6,52.1-18.6z"/>
		<path class="st1" d="M66-42.6c-0.2,0-0.4,0.2-0.4,0.4c0,0.2,0.1,0.3,0.3,0.4c0.2,0,0.4-0.1,0.4-0.3c0,0,0-0.1,0-0.1
			c0-0.1,0-0.2-0.1-0.3C66.2-42.5,66.1-42.6,66-42.6z"/>
		<path class="st1" d="M63.8-34.7c-0.1,0-0.2,0-0.3,0.1c-0.1,0.1-0.1,0.2-0.1,0.3c0,0.1,0,0.2,0.1,0.3c0.1,0.1,0.4,0.2,0.5,0
			c0,0,0,0,0,0c0.1-0.1,0.1-0.2,0.1-0.3c0-0.1,0-0.2-0.1-0.3C63.9-34.7,63.8-34.7,63.8-34.7z"/>
		<path class="st1" d="M60.2-40.7c-0.1,0-0.2,0-0.3,0.1c-0.1,0.1-0.1,0.2-0.1,0.3c0,0.1,0,0.2,0.1,0.3c0.1,0.1,0.4,0.2,0.5,0
			c0,0,0,0,0,0l0,0c0.1-0.1,0.1-0.4,0-0.5c0,0,0,0,0,0l0,0C60.4-40.6,60.3-40.7,60.2-40.7z"/>
		<path class="st1" d="M68.8-36.4c-0.1,0-0.2,0-0.3,0.1c-0.1,0.1-0.1,0.2-0.1,0.3c0,0.1,0,0.2,0.1,0.3c0.2,0.1,0.4,0.1,0.5,0
			c0.1-0.1,0.1-0.4,0-0.5C69-36.3,68.9-36.4,68.8-36.4z"/>
		<path class="st1" d="M61.3-19.1c-0.1,0-0.2,0-0.3,0.1c-0.1,0.1-0.1,0.2-0.1,0.3c0,0.2,0.1,0.4,0.3,0.4c0.2,0,0.4-0.1,0.4-0.3
			c0,0,0,0,0,0c0,0,0-0.1,0-0.1C61.7-19,61.5-19.1,61.3-19.1z"/>
		<path class="st1" d="M61.7-23.1c-0.1,0-0.2,0-0.3,0.1c-0.1,0.1-0.1,0.2-0.1,0.3c0,0.1,0,0.2,0.1,0.3c0.2,0.1,0.4,0.1,0.5,0
			c0.1-0.1,0.1-0.2,0.1-0.3c0-0.1,0-0.2-0.1-0.3C61.9-23,61.8-23.1,61.7-23.1z"/>
		<path class="st1" d="M63.9-12.9c-0.2,0-0.4,0.2-0.4,0.4v0l0,0c0,0.1,0,0.2,0.1,0.3c0.1,0.1,0.4,0.1,0.5,0c0.1-0.1,0.1-0.2,0.1-0.3
			c0-0.1,0-0.2-0.1-0.3C64.1-12.9,64-12.9,63.9-12.9z"/>
		<path class="st1" d="M60.6-12c-0.1,0-0.2,0-0.3,0.1c-0.1,0.1-0.1,0.4,0,0.5c0,0,0,0,0,0l0,0c0.1,0.1,0.4,0.1,0.5,0
			c0.1-0.1,0.1-0.2,0.1-0.3c0-0.1,0-0.2-0.1-0.3C60.8-12,60.7-12,60.6-12z"/>
		<path class="st1" d="M58.1-15.2c-0.1,0-0.2,0-0.3,0.1c-0.1,0.1-0.1,0.2-0.1,0.3c0,0.1,0,0.2,0.1,0.3c0.1,0.1,0.4,0.1,0.5,0
			c0.1-0.1,0.1-0.4,0-0.5c0,0,0,0,0,0l0,0C58.3-15.1,58.2-15.2,58.1-15.2z"/>
		<path class="st1" d="M66.9-17.1c-0.1,0-0.2,0-0.3,0.1c-0.1,0.1-0.1,0.2-0.1,0.3c0,0.1,0,0.2,0.1,0.3c0.1,0.1,0.4,0.2,0.5,0
			c0,0,0,0,0,0l0,0c0.1-0.1,0.1-0.2,0.1-0.3c0-0.1,0-0.2-0.1-0.3C67.1-17,67-17.1,66.9-17.1z"/>
		<path class="st1" d="M56.8-1.3c-0.1,0-0.2,0-0.3,0.1c-0.1,0.1-0.1,0.2-0.1,0.3c0,0.1,0,0.2,0.1,0.3c0.2,0.1,0.4,0.1,0.5,0
			c0.1-0.1,0.1-0.2,0.1-0.3C57.2-1.1,57-1.3,56.8-1.3L56.8-1.3z"/>
		<path class="st1" d="M46.1-47.8c-0.1,0-0.2,0-0.3,0.1c-0.1,0.1-0.1,0.2-0.1,0.3c0,0.1,0,0.2,0.1,0.3c0.1,0.1,0.4,0.1,0.5,0
			c0.1-0.1,0.1-0.4,0-0.5c0,0,0,0,0,0l0,0C46.3-47.8,46.2-47.8,46.1-47.8z"/>
		<path class="st1" d="M41.6-47.1c-0.2,0-0.4,0.1-0.4,0.3c0,0.1,0,0.2,0.1,0.3c0.1,0.1,0.4,0.1,0.5,0c0.1-0.1,0.1-0.2,0.1-0.3
			c0-0.1,0-0.2-0.1-0.3C41.8-47,41.7-47.1,41.6-47.1z"/>
		<path class="st1" d="M10.1-12.9c-0.1,0-0.2,0-0.3,0.1c-0.1,0.1-0.1,0.2-0.1,0.3c0,0.1,0,0.2,0.1,0.3c0.2,0.1,0.4,0.1,0.5,0
			c0.1-0.1,0.1-0.2,0.1-0.3c0-0.1-0.1-0.2-0.1-0.3C10.3-12.9,10.2-12.9,10.1-12.9z"/>
		<path class="st1" d="M18.6-14.3c-0.1,0-0.2,0-0.3,0.1c-0.1,0.1-0.1,0.4,0,0.5c0,0,0,0,0,0l0,0c0.1,0.1,0.4,0.1,0.5,0
			c0.1-0.1,0.1-0.2,0.1-0.3c0-0.1,0-0.2-0.1-0.3C18.8-14.2,18.7-14.3,18.6-14.3z"/>
		<path class="st1" d="M4.3-12.4c-0.1,0-0.2,0-0.3,0.1C4-12.2,3.9-12.1,3.9-12c0,0.1,0,0.2,0.1,0.3c0.2,0.1,0.4,0.1,0.5,0
			c0.1-0.1,0.2-0.4,0-0.5C4.5-12.3,4.4-12.4,4.3-12.4z"/>
		<path class="st1" d="M15.9-18c-0.1,0-0.2,0-0.3,0.1c-0.1,0.1-0.1,0.2-0.1,0.3c0,0.2,0.2,0.4,0.4,0.4l0,0c0.1,0,0.2,0,0.3-0.1
			c0.1-0.1,0.2-0.4,0-0.5c0,0,0,0,0,0l0,0C16.1-18,16-18,15.9-18z"/>
		<path class="st1" d="M1.7-17.1c-0.1,0-0.2,0-0.3,0.1c-0.1,0.1-0.1,0.4,0,0.5l0,0l0,0c0.1,0.1,0.4,0.1,0.5,0c0.1-0.1,0.1-0.4,0-0.5
			c0,0,0,0,0,0l0,0C1.8-17,1.8-17.1,1.7-17.1z"/>
		<path class="st1" d="M9.6-18.6c-0.1,0-0.2,0-0.3,0.1c-0.1,0.1-0.1,0.2-0.1,0.3c0,0.1,0,0.2,0.1,0.3c0.2,0.1,0.4,0.1,0.5,0
			c0.1-0.1,0.1-0.4,0-0.5C9.8-18.5,9.7-18.6,9.6-18.6z"/>
		<path class="st1" d="M24.8-11.4c-0.1,0-0.2,0-0.3,0.1c-0.1,0.1-0.1,0.2-0.1,0.3c0,0.2,0.1,0.4,0.3,0.4c0.2,0,0.4-0.1,0.4-0.3
			c0,0,0,0,0,0c0,0,0-0.1,0-0.1c0-0.1,0-0.2-0.1-0.3C24.9-11.4,24.9-11.4,24.8-11.4z"/>
		<path class="st1" d="M30.6-18.9c-0.1,0-0.2,0-0.3,0.1c-0.1,0.2-0.1,0.4,0,0.5c0.2,0.1,0.4,0.1,0.5,0c0.1-0.1,0.1-0.2,0.1-0.3
			c0-0.1,0-0.2-0.1-0.3C30.8-18.9,30.7-18.9,30.6-18.9z"/>
		<path class="st1" d="M41.3-14.3c-0.1,0-0.2,0-0.3,0.1c-0.1,0.2-0.1,0.4,0,0.5c0.2,0.1,0.4,0.1,0.5,0c0.1-0.1,0.1-0.2,0.1-0.3
			c0-0.1,0-0.2-0.1-0.3C41.4-14.2,41.4-14.3,41.3-14.3z"/>
		<path class="st1" d="M24.6-15.5c-0.1,0-0.2,0-0.3,0.1c-0.1,0.1-0.1,0.2-0.1,0.3c0,0.2,0.2,0.4,0.4,0.4c0.2,0,0.4-0.2,0.4-0.4
			c0-0.1,0-0.2-0.1-0.3C24.8-15.5,24.7-15.5,24.6-15.5z"/>
		<path class="st1" d="M20.6-17.3c-0.2,0-0.4,0.1-0.4,0.3c0,0,0,0,0,0c0,0.1,0,0.2,0.1,0.3c0.1,0.1,0.4,0.1,0.5,0
			c0.1-0.1,0.1-0.2,0.1-0.3c0-0.1,0-0.2-0.1-0.3C20.8-17.2,20.7-17.3,20.6-17.3z"/>
		<path class="st1" d="M33.8-16.9c-0.2,0-0.4,0.2-0.4,0.4c0,0.2,0.1,0.3,0.3,0.4c0.2,0,0.4-0.1,0.4-0.3c0,0,0-0.1,0-0.1
			c0-0.1,0-0.2-0.1-0.3C33.9-16.8,33.9-16.9,33.8-16.9z"/>
		<path class="st1" d="M37.5-11.1c-0.2,0-0.4,0.2-0.4,0.4c0,0.2,0.1,0.3,0.3,0.4c0.2,0,0.4-0.1,0.4-0.3c0,0,0-0.1,0-0.1
			c0-0.1,0-0.2-0.1-0.3C37.7-11,37.6-11.1,37.5-11.1z"/>
		<path class="st1" d="M38.6-16.9c-0.1,0-0.2,0-0.3,0.1c-0.1,0.1-0.1,0.2-0.1,0.3c0,0.2,0.1,0.4,0.3,0.4s0.4-0.1,0.4-0.3
			c0,0,0,0,0,0c0,0,0-0.1,0-0.1C39-16.7,38.8-16.9,38.6-16.9z"/>
		<path class="st1" d="M43.9-13.7c-0.2,0-0.4,0.2-0.4,0.4c0,0.2,0.2,0.4,0.4,0.4c0.2,0,0.4-0.2,0.4-0.4l0,0c0-0.1,0-0.2-0.1-0.3
			C44.1-13.6,44-13.7,43.9-13.7z"/>
		<path class="st1" d="M30.6-13.7c-0.1,0-0.2,0-0.3,0.1c-0.1,0.2-0.1,0.4,0,0.5c0.1,0.2,0.4,0.2,0.5,0c0.2-0.1,0.2-0.4,0-0.5l0,0
			C30.8-13.7,30.7-13.7,30.6-13.7z"/>
		<path class="st1" d="M15.2-45.2c-0.1,0-0.2,0-0.3,0.1c-0.1,0.1-0.1,0.2-0.1,0.3c0,0.1,0,0.2,0.1,0.3c0.1,0.1,0.4,0.1,0.5,0
			c0.1-0.1,0.1-0.2,0.1-0.3C15.6-45,15.4-45.2,15.2-45.2L15.2-45.2L15.2-45.2L15.2-45.2z"/>
		<path class="st1" d="M4.1-0.8C4-0.8,3.9-0.7,3.9-0.6c-0.1,0.1-0.1,0.4,0,0.5c0,0,0,0,0,0l0,0C4,0,4.2,0,4.4-0.1
			c0.1-0.1,0.1-0.2,0.1-0.3c0-0.1,0-0.2-0.1-0.3C4.3-0.7,4.2-0.7,4.1-0.8z"/>
		<path class="st1" d="M18.9-0.8c-0.1,0-0.2,0.1-0.3,0.1c-0.1,0.1-0.1,0.2-0.1,0.3c0,0.1,0,0.2,0.1,0.3c0.1,0.1,0.4,0.1,0.5,0
			c0.1-0.1,0.1-0.2,0.1-0.3c0-0.1,0-0.2-0.1-0.3C19.1-0.7,19-0.7,18.9-0.8z"/>
		<path class="st1" d="M40.7-0.9c-0.1,0-0.2,0-0.3,0.1c-0.1,0.1-0.1,0.2-0.1,0.3c0,0.1,0,0.2,0.1,0.3c0.2,0.1,0.4,0.1,0.5,0
			C41-0.4,41-0.5,41-0.6c0-0.1,0-0.2-0.1-0.3C40.9-0.9,40.8-0.9,40.7-0.9z"/>
		<path class="st1" d="M56.8-73.3c-0.2,0-0.4,0.2-0.4,0.4c0,0.1,0,0.2,0.1,0.3c0.2,0.1,0.4,0.1,0.5,0c0.1-0.1,0.1-0.2,0.1-0.3
			c0-0.1,0-0.2-0.1-0.3C57-73.3,56.9-73.3,56.8-73.3z"/>
		<path class="st1" d="M0.6-46.1c-0.1,0-0.2,0-0.3,0.1c-0.1,0.1-0.1,0.2-0.1,0.3c0,0.1,0,0.2,0.1,0.3c0.2,0.1,0.4,0.1,0.5,0
			c0.1-0.1,0.1-0.2,0.1-0.3c0-0.1,0-0.2-0.1-0.3C0.8-46.1,0.7-46.1,0.6-46.1z"/>
		<path class="st1" d="M0.4-23.6c-0.1,0-0.2,0-0.3,0.1C0-23.4,0-23.4,0-23.3c0,0.1,0,0.2,0.1,0.3c0.1,0.1,0.4,0.1,0.5,0
			c0.1-0.1,0.1-0.2,0.1-0.3c0-0.1,0-0.2-0.1-0.3C0.6-23.6,0.5-23.6,0.4-23.6z"/>
		<path class="st1" d="M0.6-29.6c-0.1,0-0.2,0-0.3,0.1c-0.1,0.1-0.1,0.2-0.1,0.3c0,0.1,0,0.2,0.1,0.3c0.1,0.1,0.4,0.1,0.5,0
			c0.1-0.1,0.1-0.2,0.1-0.3c0-0.1,0-0.2-0.1-0.3C0.8-29.6,0.7-29.6,0.6-29.6z"/>
		<path class="st1" d="M0.6-40.5c-0.1,0-0.2,0-0.3,0.1c-0.1,0.1-0.1,0.2-0.1,0.3c0,0.1,0,0.2,0.1,0.3c0.1,0.1,0.4,0.1,0.5,0
			c0.1-0.1,0.1-0.2,0.1-0.3c0-0.1,0-0.2-0.1-0.3C0.8-40.5,0.7-40.5,0.6-40.5z"/>
		<path class="st1" d="M4.1-0.8C4-0.8,3.9-0.7,3.9-0.6c-0.1,0.1-0.1,0.4,0,0.5c0,0,0,0,0,0l0,0C4,0,4.2,0,4.4-0.1
			c0.1-0.1,0.1-0.2,0.1-0.3c0-0.1,0-0.2-0.1-0.3C4.3-0.7,4.2-0.7,4.1-0.8z"/>
		<path class="st1" d="M18.9-0.8c-0.1,0-0.2,0.1-0.3,0.1c-0.1,0.1-0.1,0.2-0.1,0.3c0,0.1,0,0.2,0.1,0.3c0.1,0.1,0.4,0.1,0.5,0
			c0.1-0.1,0.1-0.2,0.1-0.3c0-0.1,0-0.2-0.1-0.3C19.1-0.7,19-0.8,18.9-0.8z"/>
		<path class="st1" d="M40.7-0.9c-0.1,0-0.2,0-0.3,0.1c-0.1,0.1-0.1,0.2-0.1,0.3c0,0.2,0.2,0.4,0.4,0.4c0,0,0,0,0,0
			c0.1,0,0.2,0,0.3-0.1C41-0.4,41-0.5,41-0.6c0-0.1,0-0.2-0.1-0.3C40.8-0.9,40.8-0.9,40.7-0.9z"/>
		<path class="st1" d="M56.8-1.3c-0.2,0-0.4,0.2-0.4,0.4c0,0.1,0,0.2,0.1,0.3c0.2,0.1,0.4,0.1,0.5,0c0.1-0.1,0.1-0.2,0.1-0.3
			c0-0.1,0-0.2-0.1-0.3C57-1.3,56.9-1.3,56.8-1.3z"/>
	</g>
</pattern>
<rect x="22.8" y="153.4" class="st2" width="308" height="116.5"/>
<pattern  id="SVGID_1_" xlink:href="#Stipple_Fine_2" patternTransform="matrix(1 0 0 -1 -23 -16920.2383)">
</pattern>
<rect x="22.8" y="153.4" class="st3" width="308" height="116.5"/>
<path class="st2" d="M171.5,269.9H355l0.2-114.8L172.3,140L171.5,269.9z"/>
<pattern  id="SVGID_2_" xlink:href="#Stipple_Fine_2" patternTransform="matrix(1 0 0 -1 -23 -16920.2383)">
</pattern>
<path class="st4" d="M171.5,269.9H355l0.2-114.8L172.3,140L171.5,269.9z"/>
<rect x="81.2" y="17.1" class="st5" width="79" height="124.7"/>
<rect x="22.8" y="141.8" class="st6" width="137.3" height="52.3"/>
<path class="st7" d="M83.2,120.7h35.4c1.1,0,2.1,0.9,2.1,2.1v13.9c0,1.1-0.9,2.1-2.1,2.1H83.2c-1.1,0-2.1-0.9-2.1-2.1v-13.9
	C81.2,121.7,82.1,120.7,83.2,120.7z"/>
<path class="st7" d="M104,100.7h35.3c1.1,0,2.1,0.9,2.1,2.1v13.9c0,1.1-0.9,2.1-2.1,2.1H104c-1.1,0-2.1-0.9-2.1-2.1v-13.9
	C101.9,101.6,102.9,100.7,104,100.7z"/>
<path class="st7" d="M125.1,120.7h33c1.1,0,2.1,0.9,2.1,2.1v13.9c0,1.1-0.9,2.1-2.1,2.1h-33c-1.1,0-2.1-0.9-2.1-2.1v-13.9
	C123,121.7,123.9,120.7,125.1,120.7z"/>
<path class="st7" d="M83.2,80.6h35.4c1.1,0,2.1,0.9,2.1,2.1v13.9c0,1.1-0.9,2.1-2.1,2.1H83.2c-1.1,0-2.1-0.9-2.1-2.1V82.7
	C81.2,81.5,82.1,80.6,83.2,80.6z"/>
<path class="st7" d="M104,60.5h35.3c1.1,0,2.1,0.9,2.1,2.1v13.9c0,1.1-0.9,2.1-2.1,2.1H104c-1.1,0-2.1-0.9-2.1-2.1V62.6
	C101.9,61.4,102.9,60.5,104,60.5z"/>
<path class="st7" d="M125.1,80.6h33c1.1,0,2.1,0.9,2.1,2.1v13.9c0,1.1-0.9,2.1-2.1,2.1h-33c-1.1,0-2.1-0.9-2.1-2.1V82.7
	C123,81.5,123.9,80.6,125.1,80.6z"/>
<path class="st7" d="M84.3,40h35.4c1.1,0,2.1,0.9,2.1,2.1V56c0,1.1-0.9,2.1-2.1,2.1H84.3c-1.1,0-2.1-0.9-2.1-2.1V42.1
	C82.2,41,83.1,40,84.3,40z"/>
<path class="st7" d="M83.6,19.5h15.9c0.8,0,1.4,0.6,1.4,1.4v15.2c0,0.8-0.6,1.4-1.4,1.4H83.6c-0.8,0-1.4-0.6-1.4-1.4V21
	C82.2,20.2,82.8,19.5,83.6,19.5z"/>
<path class="st7" d="M145.3,20h13.5c0.7,0,1.3,0.6,1.3,1.3v15.4c0,0.7-0.6,1.3-1.3,1.3h-13.5c-0.7,0-1.3-0.6-1.3-1.3V21.3
	C143.9,20.6,144.5,20,145.3,20z"/>
<path class="st7" d="M82.6,60.1h15.9c0.8,0,1.4,0.6,1.4,1.4v15.2c0,0.8-0.6,1.4-1.4,1.4H82.6c-0.8,0-1.4-0.6-1.4-1.4V61.5
	C81.2,60.7,81.8,60.1,82.6,60.1z"/>
<path class="st7" d="M144.2,60.5h13.5c0.7,0,1.3,0.6,1.3,1.3v15.3c0,0.7-0.6,1.3-1.3,1.3h-13.5c-0.7,0-1.3-0.6-1.3-1.3V61.9
	C142.9,61.1,143.5,60.5,144.2,60.5z"/>
<path class="st7" d="M82.6,100.5h15.9c0.8,0,1.4,0.6,1.4,1.4v15.2c0,0.8-0.6,1.4-1.4,1.4H82.6c-0.8,0-1.4-0.6-1.4-1.4v-15.2
	C81.2,101.1,81.8,100.5,82.6,100.5z"/>
<path class="st7" d="M144.2,100.9h13.5c0.7,0,1.3,0.6,1.3,1.3v15.3c0,0.7-0.6,1.3-1.3,1.3h-13.5c-0.7,0-1.3-0.6-1.3-1.3v-15.3
	C142.9,101.5,143.5,100.9,144.2,100.9z"/>
<path class="st7" d="M105.1,20h35.3c1.1,0,2.1,0.9,2.1,2.1v13.9c0,1.1-0.9,2.1-2.1,2.1h-35.3c-1.1,0-2.1-0.9-2.1-2.1V22
	C103,20.9,103.9,20,105.1,20z"/>
<path class="st7" d="M126.1,40h33c1.1,0,2.1,0.9,2.1,2.1V56c0,1.1-0.9,2.1-2.1,2.1h-33c-1.1,0-2.1-0.9-2.1-2.1V42.1
	C124,41,124.9,40,126.1,40z"/>
<rect x="160.1" y="79.8" class="st8" width="7.5" height="135.2"/>
<rect x="167.6" y="162.6" class="st8" width="163.2" height="8.9"/>
<rect x="22.8" y="194.1" class="st8" width="137.3" height="10.5"/>
<rect x="22.8" y="204.6" class="st8" width="137.3" height="10.5"/>
<line class="st9" x1="160.1" y1="204.6" x2="22.8" y2="204.6"/>
<line class="st9" x1="167.6" y1="162.6" x2="167.6" y2="171.5"/>
<line class="st9" x1="160.1" y1="141.6" x2="160.1" y2="215"/>
<path class="st10" d="M330.8,162.6H167.6v-23l163.2,13.2V162.6z"/>
<rect x="167.6" y="79.8" class="st11" width="3.9" height="59.8"/>
<path class="st12" d="M177.4,79.8h-17.2V70L177.4,79.8z"/>
<line class="st13" x1="316.6" y1="173.8" x2="346.1" y2="173.8"/>
<line class="st13" x1="316.6" y1="160.2" x2="346.1" y2="160.2"/>
<line class="st14" x1="333.5" y1="160.2" x2="333.5" y2="171.5"/>
</svg>
