<svg id="Слой_1" data-name="Слой 1" xmlns="http://www.w3.org/2000/svg" xmlns:xlink="http://www.w3.org/1999/xlink" viewBox="0 0 200 150"><defs><style>.cls-1,.cls-10,.cls-15,.cls-16,.cls-17,.cls-18,.cls-21,.cls-22,.cls-24,.cls-25,.cls-27,.cls-28,.cls-29,.cls-30,.cls-32,.cls-33,.cls-35,.cls-38,.cls-39,.cls-41,.cls-8,.cls-9{fill:none;}.cls-2{clip-path:url(#clip-path);}.cls-3{clip-path:url(#clip-path-2);}.cls-4{clip-path:url(#clip-path-3);}.cls-5{fill:#fff;}.cls-14,.cls-6{fill:#f7f7f7;}.cls-10,.cls-14,.cls-17,.cls-6{stroke:#afafaf;}.cls-10,.cls-14,.cls-15,.cls-16,.cls-17,.cls-18,.cls-21,.cls-22,.cls-24,.cls-25,.cls-27,.cls-28,.cls-29,.cls-30,.cls-32,.cls-33,.cls-35,.cls-39,.cls-41,.cls-6,.cls-8,.cls-9{stroke-linecap:round;}.cls-10,.cls-14,.cls-15,.cls-16,.cls-17,.cls-21,.cls-22,.cls-23,.cls-24,.cls-25,.cls-26,.cls-27,.cls-28,.cls-29,.cls-30,.cls-31,.cls-32,.cls-33,.cls-34,.cls-35,.cls-39,.cls-41,.cls-6,.cls-8,.cls-9{stroke-linejoin:round;}.cls-6{stroke-width:1.31px;}.cls-7{opacity:0.64;}.cls-15,.cls-8{stroke:#fff;}.cls-10,.cls-8,.cls-9{stroke-width:1.84px;}.cls-16,.cls-9{stroke:#dddddb;}.cls-11{clip-path:url(#clip-path-4);}.cls-12{clip-path:url(#clip-path-5);}.cls-13{clip-path:url(#clip-path-6);}.cls-14{stroke-width:1.48px;}.cls-15,.cls-16,.cls-17{stroke-width:2.08px;}.cls-18{stroke:#c6c6c6;}.cls-18,.cls-38{stroke-miterlimit:10;}.cls-18,.cls-32,.cls-33{stroke-width:1.2px;}.cls-19{fill:#b2b2b2;}.cls-20{fill:#575756;}.cls-21,.cls-29{stroke:#575756;}.cls-21{stroke-width:0.63px;}.cls-22,.cls-25,.cls-30,.cls-33{stroke:#3c3c3b;}.cls-22{stroke-width:0.69px;}.cls-23,.cls-26,.cls-31,.cls-34{fill:#238726;stroke:#238726;}.cls-23{stroke-width:0.56px;}.cls-24,.cls-32{stroke:#432918;}.cls-24,.cls-25{stroke-width:1.38px;}.cls-26,.cls-29{stroke-width:0.55px;}.cls-27,.cls-28,.cls-35{stroke:#ededed;opacity:0.44;isolation:isolate;}.cls-27{stroke-width:0.51px;}.cls-28{stroke-width:0.45px;}.cls-30{stroke-width:0.6px;}.cls-31{stroke-width:0.49px;}.cls-34,.cls-35{stroke-width:0.48px;}.cls-36{fill:#e2620c;}.cls-37{clip-path:url(#clip-path-7);}.cls-38,.cls-39{stroke:#f4b082;}.cls-38{stroke-width:0.5px;}.cls-40{clip-path:url(#clip-path-8);}.cls-41{stroke:#2e6fd8;stroke-width:3px;}.cls-42{fill:#2e6fd8;}</style><clipPath id="clip-path"><path class="cls-1" d="M67.59,140.61,10.85,109V99.71c-.09-18.55-.41-19.84,1-21.76,4.37-5.84,12.31-.5,22.44-7.69,4.6-3.27,3.17-4.36,9.61-9.66,5.41-4.47,8.1-4.85,14.56-9.6a73.87,73.87,0,0,0,9.13-8Q67.6,91.77,67.59,140.61Z"/></clipPath><clipPath id="clip-path-2"><polygon class="cls-1" points="67.55 140.43 10.85 109 10.73 64.04 67.59 92.04 67.55 140.43"/></clipPath><clipPath id="clip-path-3"><polygon class="cls-1" points="10.73 64.04 67.59 92.04 67.55 140.43 10.85 109 10.73 64.04"/></clipPath><clipPath id="clip-path-4"><polygon class="cls-1" points="188.96 107.58 67.59 140.57 67.59 105.06 189.1 75.39 188.96 107.58"/></clipPath><clipPath id="clip-path-5"><polygon class="cls-1" points="188.96 107.58 67.59 140.61 68.03 99.06 188.96 72.03 188.96 107.58"/></clipPath><clipPath id="clip-path-6"><polygon class="cls-1" points="68.03 99.06 188.96 72.03 188.96 107.58 67.59 140.61 68.03 99.06"/></clipPath><clipPath id="clip-path-7"><path class="cls-1" d="M197.22,75.26,66.35,107.08q7.49-41.32,15-82.67L123.73,21Z"/></clipPath><clipPath id="clip-path-8"><polygon class="cls-1" points="66.35 107.08 4.78 78.72 81.35 24.41 66.35 107.08"/></clipPath></defs><g id="вальмовая"><g id="двухскатная"><g id="односкатная"><g id="стены"><g class="cls-2"><g class="cls-3"><g id="стена_мал-2" data-name="стена мал-2"><g class="cls-4"><polygon class="cls-5" points="67.55 140.43 10.85 109 10.73 64.04 67.59 92.04 67.55 140.43"/><polygon class="cls-6" points="8.82 61.94 69.34 91.74 69.29 143.24 8.94 109.79 8.82 61.94"/><g class="cls-7"><line class="cls-8" x1="10.19" y1="64.16" x2="68.13" y2="92.8"/><line class="cls-9" x1="10.19" y1="64.56" x2="68.13" y2="93.24"/><line class="cls-10" x1="10.19" y1="65.05" x2="68.13" y2="93.76"/><line class="cls-8" x1="10.2" y1="67.06" x2="68.13" y2="95.92"/><line class="cls-9" x1="10.2" y1="67.47" x2="68.13" y2="96.36"/><line class="cls-10" x1="10.2" y1="67.96" x2="68.13" y2="96.88"/><line class="cls-8" x1="10.2" y1="69.97" x2="68.12" y2="99.04"/><line class="cls-9" x1="10.2" y1="70.38" x2="68.12" y2="99.48"/><line class="cls-10" x1="10.21" y1="70.86" x2="68.12" y2="100"/><line class="cls-8" x1="10.21" y1="72.88" x2="68.12" y2="102.16"/><line class="cls-9" x1="10.21" y1="73.28" x2="68.12" y2="102.59"/><line class="cls-10" x1="10.21" y1="73.77" x2="68.12" y2="103.12"/><line class="cls-8" x1="10.22" y1="75.78" x2="68.12" y2="105.28"/><line class="cls-9" x1="10.22" y1="76.18" x2="68.12" y2="105.71"/><line class="cls-10" x1="10.22" y1="76.67" x2="68.12" y2="106.23"/><line class="cls-8" x1="10.23" y1="78.68" x2="68.12" y2="108.39"/><line class="cls-9" x1="10.23" y1="79.09" x2="68.12" y2="108.82"/><line class="cls-10" x1="10.23" y1="79.58" x2="68.11" y2="109.35"/><line class="cls-8" x1="10.23" y1="81.59" x2="68.11" y2="111.5"/><line class="cls-9" x1="10.23" y1="81.99" x2="68.11" y2="111.94"/><line class="cls-10" x1="10.24" y1="82.48" x2="68.11" y2="112.46"/><line class="cls-8" x1="10.24" y1="84.49" x2="68.11" y2="114.62"/><line class="cls-9" x1="10.24" y1="84.89" x2="68.11" y2="115.05"/><line class="cls-10" x1="10.24" y1="85.38" x2="68.11" y2="115.58"/><line class="cls-8" x1="10.25" y1="87.39" x2="68.11" y2="117.73"/><line class="cls-9" x1="10.25" y1="87.79" x2="68.11" y2="118.16"/><line class="cls-10" x1="10.25" y1="88.28" x2="68.11" y2="118.69"/><line class="cls-8" x1="10.26" y1="90.29" x2="68.1" y2="120.84"/><line class="cls-9" x1="10.26" y1="90.69" x2="68.1" y2="121.27"/><line class="cls-10" x1="10.26" y1="91.18" x2="68.1" y2="121.8"/><line class="cls-8" x1="10.26" y1="93.18" x2="68.1" y2="123.95"/><line class="cls-9" x1="10.26" y1="93.59" x2="68.1" y2="124.38"/><line class="cls-10" x1="10.27" y1="94.08" x2="68.1" y2="124.91"/><line class="cls-8" x1="10.27" y1="96.08" x2="68.1" y2="127.05"/><line class="cls-9" x1="10.27" y1="96.49" x2="68.1" y2="127.49"/><line class="cls-10" x1="10.27" y1="96.97" x2="68.1" y2="128.01"/><line class="cls-8" x1="10.28" y1="98.98" x2="68.1" y2="130.16"/><line class="cls-9" x1="10.28" y1="99.38" x2="68.1" y2="130.6"/><line class="cls-10" x1="10.28" y1="99.87" x2="68.1" y2="131.12"/><line class="cls-8" x1="10.29" y1="101.88" x2="68.09" y2="133.27"/><line class="cls-9" x1="10.29" y1="102.28" x2="68.09" y2="133.7"/><line class="cls-10" x1="10.29" y1="102.76" x2="68.09" y2="134.22"/><line class="cls-8" x1="10.29" y1="104.77" x2="68.09" y2="136.38"/><line class="cls-9" x1="10.29" y1="105.17" x2="68.09" y2="136.81"/><line class="cls-10" x1="10.3" y1="105.66" x2="68.09" y2="137.33"/><line class="cls-8" x1="10.3" y1="107.66" x2="68.09" y2="139.48"/><line class="cls-9" x1="10.3" y1="108.06" x2="68.09" y2="139.91"/><line class="cls-10" x1="10.3" y1="108.55" x2="68.09" y2="140.43"/></g></g></g></g></g><g class="cls-11"><g class="cls-12"><g id="стена_мал-2-2" data-name="стена мал-2"><g class="cls-13"><polygon class="cls-5" points="188.96 107.58 67.59 140.61 68.03 99.06 188.96 72.03 188.96 107.58"/><polygon class="cls-14" points="55.59 98.75 201.05 66.24 201.05 109 55.06 148.73 55.59 98.75"/><g class="cls-7"><line class="cls-15" x1="59.68" y1="99.42" x2="198.73" y2="68.13"/><line class="cls-16" x1="59.67" y1="99.85" x2="198.73" y2="68.49"/><line class="cls-17" x1="59.67" y1="100.35" x2="198.73" y2="68.93"/><line class="cls-15" x1="59.65" y1="102.43" x2="198.73" y2="70.72"/><line class="cls-16" x1="59.64" y1="102.85" x2="198.73" y2="71.08"/><line class="cls-17" x1="59.64" y1="103.35" x2="198.73" y2="71.52"/><line class="cls-15" x1="59.62" y1="105.43" x2="198.73" y2="73.31"/><line class="cls-16" x1="59.61" y1="105.85" x2="198.73" y2="73.67"/><line class="cls-17" x1="59.61" y1="106.36" x2="198.73" y2="74.1"/><line class="cls-15" x1="59.58" y1="108.44" x2="198.73" y2="75.9"/><line class="cls-16" x1="59.58" y1="108.85" x2="198.73" y2="76.26"/><line class="cls-17" x1="59.57" y1="109.36" x2="198.73" y2="76.69"/><line class="cls-15" x1="59.55" y1="111.44" x2="198.73" y2="78.49"/><line class="cls-16" x1="59.55" y1="111.86" x2="198.73" y2="78.85"/><line class="cls-17" x1="59.54" y1="112.37" x2="198.73" y2="79.28"/><line class="cls-15" x1="59.52" y1="114.45" x2="198.72" y2="81.08"/><line class="cls-16" x1="59.52" y1="114.87" x2="198.72" y2="81.44"/><line class="cls-17" x1="59.51" y1="115.37" x2="198.72" y2="81.87"/><line class="cls-15" x1="59.49" y1="117.46" x2="198.72" y2="83.67"/><line class="cls-16" x1="59.49" y1="117.88" x2="198.72" y2="84.03"/><line class="cls-17" x1="59.48" y1="118.39" x2="198.72" y2="84.47"/><line class="cls-15" x1="59.46" y1="120.47" x2="198.72" y2="86.26"/><line class="cls-16" x1="59.46" y1="120.89" x2="198.72" y2="86.62"/><line class="cls-17" x1="59.45" y1="121.39" x2="198.72" y2="87.06"/><line class="cls-15" x1="59.43" y1="123.48" x2="198.72" y2="88.85"/><line class="cls-16" x1="59.43" y1="123.9" x2="198.72" y2="89.22"/><line class="cls-17" x1="59.42" y1="124.41" x2="198.72" y2="89.65"/><line class="cls-15" x1="59.4" y1="126.49" x2="198.72" y2="91.45"/><line class="cls-16" x1="59.39" y1="126.91" x2="198.72" y2="91.81"/><line class="cls-17" x1="59.39" y1="127.42" x2="198.72" y2="92.25"/><line class="cls-15" x1="59.37" y1="129.5" x2="198.72" y2="94.04"/><line class="cls-16" x1="59.36" y1="129.92" x2="198.72" y2="94.41"/><line class="cls-17" x1="59.36" y1="130.43" x2="198.72" y2="94.84"/><line class="cls-15" x1="59.34" y1="132.52" x2="198.72" y2="96.64"/><line class="cls-16" x1="59.33" y1="132.94" x2="198.72" y2="97"/><line class="cls-17" x1="59.33" y1="133.45" x2="198.72" y2="97.44"/><line class="cls-15" x1="59.31" y1="135.53" x2="198.72" y2="99.24"/><line class="cls-16" x1="59.3" y1="135.95" x2="198.72" y2="99.6"/><line class="cls-17" x1="59.3" y1="136.46" x2="198.72" y2="100.04"/><line class="cls-15" x1="59.27" y1="138.55" x2="198.72" y2="101.84"/><line class="cls-16" x1="59.27" y1="138.97" x2="198.72" y2="102.2"/><line class="cls-17" x1="59.26" y1="139.48" x2="198.72" y2="102.64"/><line class="cls-15" x1="59.24" y1="141.57" x2="198.72" y2="104.44"/><line class="cls-16" x1="59.24" y1="141.99" x2="198.72" y2="104.8"/><line class="cls-17" x1="59.23" y1="142.5" x2="198.72" y2="105.23"/><line class="cls-15" x1="59.21" y1="144.59" x2="198.72" y2="107.04"/><line class="cls-16" x1="59.21" y1="145.01" x2="198.72" y2="107.4"/><line class="cls-17" x1="59.2" y1="145.52" x2="198.72" y2="107.83"/></g></g></g></g></g><line class="cls-18" x1="67.83" y1="102.15" x2="67.83" y2="139.83"/><line class="cls-18" x1="10.73" y1="77.45" x2="10.85" y2="108.99"/><line class="cls-18" x1="189.1" y1="75.4" x2="188.96" y2="107.58"/><line class="cls-18" x1="67.59" y1="140.53" x2="10.85" y2="108.99"/><line class="cls-18" x1="188.96" y1="107.58" x2="67.59" y2="140.53"/></g></g><g id="окно2"><path class="cls-19" d="M144.92,109.58a.26.26,0,0,1-.19-.07.38.38,0,0,1-.13-.24l-.35-18a.33.33,0,0,1,.24-.31l13-3h.07a.33.33,0,0,1,.32.31l.33,17.54a.31.31,0,0,1-.24.31l-13,3.49Z"/><path class="cls-20" d="M157.58,88.24q.16,8.83.33,17.53l-13,3.5q-.18-8.94-.36-18l13-3m0-.63a.33.33,0,0,0-.14,0l-5.55,1.27-7.44,1.75a.63.63,0,0,0-.49.63l.15,7.58.21,10.46a.6.6,0,0,0,.25.49.65.65,0,0,0,.38.13h.16l13-3.49a.64.64,0,0,0,.47-.62l-.2-11.76-.11-5.84a.63.63,0,0,0-.24-.49.61.61,0,0,0-.39-.13Z"/><line class="cls-21" x1="151.25" y1="89.37" x2="151.51" y2="107.31"/><path class="cls-21" d="M157.69,94.9l-13,3.54"/><path class="cls-22" d="M158,87.75l-13.81,3.4"/><path class="cls-23" d="M158.35,105.86l3.83-.52q-.18-9.24-.38-18.68l-3.75.78Z"/><line class="cls-24" x1="157.84" y1="106.23" x2="144.8" y2="109.72"/><line class="cls-25" x1="158.37" y1="106.48" x2="144.88" y2="110.08"/><path class="cls-26" d="M140.15,110.49l4.26-.71-.24-19-4.26.82Q140,101.14,140.15,110.49Z"/><line class="cls-27" x1="140.31" y1="93.22" x2="143.97" y2="92.52"/><line class="cls-27" x1="140.32" y1="94.94" x2="143.97" y2="94.26"/><line class="cls-27" x1="140.33" y1="96.68" x2="143.98" y2="95.99"/><line class="cls-27" x1="140.34" y1="98.38" x2="143.98" y2="97.72"/><line class="cls-27" x1="140.35" y1="100.11" x2="143.99" y2="99.45"/><line class="cls-27" x1="140.36" y1="101.81" x2="143.99" y2="101.18"/><line class="cls-27" x1="140.37" y1="103.52" x2="144" y2="102.88"/><line class="cls-27" x1="140.38" y1="105.22" x2="144" y2="104.61"/><line class="cls-27" x1="140.39" y1="106.92" x2="144.01" y2="106.3"/><line class="cls-27" x1="140.4" y1="108.61" x2="144.01" y2="108.02"/><line class="cls-28" x1="158.29" y1="88.49" x2="161.33" y2="87.91"/><line class="cls-28" x1="158.33" y1="90.27" x2="161.38" y2="89.69"/><line class="cls-28" x1="158.38" y1="92.04" x2="161.42" y2="91.47"/><line class="cls-28" x1="158.43" y1="93.8" x2="161.47" y2="93.24"/><line class="cls-28" x1="158.48" y1="95.56" x2="161.51" y2="95.01"/><line class="cls-28" x1="158.53" y1="97.31" x2="161.56" y2="96.77"/><line class="cls-28" x1="158.58" y1="99.06" x2="161.6" y2="98.54"/><line class="cls-28" x1="158.63" y1="100.81" x2="161.65" y2="100.29"/><line class="cls-28" x1="158.67" y1="102.55" x2="161.69" y2="102.04"/><line class="cls-28" x1="158.72" y1="104.29" x2="161.74" y2="103.79"/></g><g id="окно1"><path class="cls-19" d="M40.48,115.86a.15.15,0,0,1-.13,0L30,110.26a.28.28,0,0,1-.15-.24L29.6,93.33a.28.28,0,0,1,.13-.24.38.38,0,0,1,.15,0H30l10.78,5.13a.24.24,0,0,1,.15.25l-.18,17.17a.28.28,0,0,1-.13.23A.17.17,0,0,1,40.48,115.86Z"/><path class="cls-20" d="M29.88,93.29l10.78,5.12-.18,17.18L30.13,110q-.14-8.35-.25-16.7m0-.55a.53.53,0,0,0-.3.09.55.55,0,0,0-.25.47l.12,8.28.13,8.42a.53.53,0,0,0,.28.47l5.18,2.8,5.18,2.8a.48.48,0,0,0,.26.07.46.46,0,0,0,.28-.08.5.5,0,0,0,.27-.47l.09-8.58.09-8.59a.57.57,0,0,0-.31-.5l-5.4-2.56L30.11,92.8a.46.46,0,0,0-.23-.06Z"/><path class="cls-29" d="M35.25,95.79l.1,17.12"/><line class="cls-29" x1="30" y1="99.73" x2="40.55" y2="105.51"/><path class="cls-30" d="M29.89,93l11.24,5.39"/><path class="cls-31" d="M29.86,110.34l-3.13-1.58-.09-17.59,2.88,1.36Q29.69,101.42,29.86,110.34Z"/><path class="cls-32" d="M30.13,110.5l10.45,5.58"/><path class="cls-33" d="M29.91,110.75l10.65,5.63"/><path class="cls-34" d="M44.07,117.91l-3.2-1.6L41,97.9l3.43,1.65Z"/><line class="cls-35" x1="26.9" y1="93.31" x2="29.32" y2="94.43"/><line class="cls-35" x1="26.9" y1="95.04" x2="29.32" y2="96.15"/><line class="cls-35" x1="26.9" y1="96.72" x2="29.32" y2="97.84"/><line class="cls-35" x1="26.9" y1="98.15" x2="29.32" y2="99.26"/><line class="cls-35" x1="26.9" y1="99.58" x2="29.32" y2="100.68"/><line class="cls-35" x1="26.9" y1="100.99" x2="29.32" y2="102.11"/><line class="cls-35" x1="26.9" y1="102.44" x2="29.32" y2="103.56"/><line class="cls-35" x1="26.9" y1="103.83" x2="29.32" y2="104.94"/><line class="cls-35" x1="26.9" y1="105.4" x2="29.32" y2="106.51"/><line class="cls-35" x1="26.9" y1="106.92" x2="29.32" y2="108.05"/><line class="cls-27" x1="41.38" y1="100" x2="43.86" y2="101"/><line class="cls-27" x1="41.39" y1="101.91" x2="43.86" y2="102.91"/><line class="cls-27" x1="41.4" y1="103.79" x2="43.87" y2="104.79"/><line class="cls-27" x1="41.4" y1="105.36" x2="43.88" y2="106.36"/><line class="cls-27" x1="41.41" y1="106.94" x2="43.88" y2="107.94"/><line class="cls-27" x1="41.41" y1="108.52" x2="43.89" y2="109.5"/><line class="cls-27" x1="41.42" y1="110.11" x2="43.89" y2="111.11"/><line class="cls-27" x1="41.42" y1="111.64" x2="43.9" y2="112.64"/><line class="cls-27" x1="41.43" y1="113.39" x2="43.9" y2="114.38"/><line class="cls-27" x1="41.44" y1="115.08" x2="43.91" y2="116.08"/></g><g id="окно2-2"><path class="cls-19" d="M109.57,117.74a.35.35,0,0,1-.22-.08.34.34,0,0,1-.13-.25L108.9,99.3a.33.33,0,0,1,.25-.32l12.91-2.68h.06a.33.33,0,0,1,.32.31l.44,17.22a.3.3,0,0,1-.23.3l-13,3.59Z"/><path class="cls-20" d="M122.15,96.66l.45,17.22-13,3.59q-.16-9-.32-18.12l12.87-2.69m0-.62H122l-3.07.64-9.83,2a.65.65,0,0,0-.5.62l.22,12.23.1,5.89a.65.65,0,0,0,.63.62h.17l13-3.59a.65.65,0,0,0,.46-.62l-.27-10.34-.18-6.87a.63.63,0,0,0-.63-.61h0Z"/><line class="cls-21" x1="115.94" y1="97.61" x2="116.25" y2="115.41"/><path class="cls-21" d="M122.35,103.11l-13,3.38"/><path class="cls-22" d="M122.53,96.15l-13.68,3.08"/><path class="cls-23" d="M123,113.91l3.74-.52q-.27-9.09-.55-18.21l-3.62.68Z"/><line class="cls-24" x1="122.53" y1="114.3" x2="109.45" y2="117.89"/><line class="cls-25" x1="123.05" y1="114.53" x2="109.52" y2="118.25"/><path class="cls-26" d="M104.65,118.72l4.4-.77-.2-19.09-4.34.74Q104.59,109.17,104.65,118.72Z"/><line class="cls-27" x1="104.92" y1="101.22" x2="108.64" y2="100.58"/><line class="cls-27" x1="104.92" y1="102.95" x2="108.64" y2="102.31"/><line class="cls-27" x1="104.92" y1="104.68" x2="108.64" y2="104.04"/><line class="cls-27" x1="104.92" y1="106.41" x2="108.64" y2="105.77"/><line class="cls-27" x1="104.92" y1="108.14" x2="108.64" y2="107.5"/><line class="cls-27" x1="104.92" y1="109.88" x2="108.64" y2="109.24"/><line class="cls-27" x1="104.92" y1="111.61" x2="108.64" y2="110.97"/><line class="cls-27" x1="104.92" y1="113.33" x2="108.64" y2="112.69"/><line class="cls-27" x1="104.92" y1="115.06" x2="108.64" y2="114.42"/><line class="cls-27" x1="104.92" y1="116.8" x2="108.64" y2="116.16"/><line class="cls-28" x1="122.84" y1="96.88" x2="125.78" y2="96.37"/><line class="cls-28" x1="122.9" y1="98.61" x2="125.84" y2="98.09"/><line class="cls-28" x1="122.96" y1="100.33" x2="125.9" y2="99.81"/><line class="cls-28" x1="123.02" y1="102.04" x2="125.96" y2="101.54"/><line class="cls-28" x1="123.08" y1="103.75" x2="126.02" y2="103.25"/><line class="cls-28" x1="123.14" y1="105.47" x2="126.08" y2="104.97"/><line class="cls-28" x1="123.2" y1="107.19" x2="126.14" y2="106.69"/><line class="cls-28" x1="123.26" y1="108.91" x2="126.2" y2="108.41"/><line class="cls-28" x1="123.32" y1="110.63" x2="126.27" y2="110.13"/><line class="cls-28" x1="123.38" y1="112.36" x2="126.33" y2="111.86"/></g></g><g id="крыша"><path class="cls-36" d="M197.22,75.26,66.35,107.08,4.78,78.72C9.56,75.29,17,70,26.29,63.47c13.06-9.15,19.59-13.73,27.55-19.19C72.1,31.77,75,30.19,76.73,28a8.76,8.76,0,0,1,4.62-3.54,27.63,27.63,0,0,1,3.4-.38c2.67-.22,4-.29,4-.29,8.77-.47,11.43-.53,15.26-.88,3.54-.32,3-.42,8-.95s9-.8,11.71-.95Z"/><g class="cls-37"><line class="cls-38" x1="5.61" y1="0.89" x2="168.03" y2="-8.04"/><line class="cls-38" x1="7.53" y1="5.93" x2="170.26" y2="-4.34"/><line class="cls-38" x1="9.48" y1="11.04" x2="172.52" y2="-0.59"/><line class="cls-38" x1="11.45" y1="16.22" x2="174.79" y2="3.18"/><line class="cls-38" x1="13.45" y1="21.47" x2="177.09" y2="7"/><line class="cls-38" x1="15.47" y1="26.79" x2="179.42" y2="10.85"/><line class="cls-38" x1="17.53" y1="32.18" x2="181.76" y2="14.75"/><line class="cls-38" x1="19.61" y1="37.65" x2="184.13" y2="18.68"/><line class="cls-38" x1="21.72" y1="43.19" x2="186.52" y2="22.66"/><line class="cls-38" x1="23.86" y1="48.82" x2="188.94" y2="26.67"/><line class="cls-38" x1="26.04" y1="54.52" x2="191.39" y2="30.73"/><line class="cls-38" x1="28.24" y1="60.31" x2="193.86" y2="34.83"/><line class="cls-38" x1="30.62" y1="66.15" x2="196.34" y2="38.97"/><line class="cls-38" x1="32.89" y1="72.1" x2="198.86" y2="43.16"/><line class="cls-38" x1="35.19" y1="78.14" x2="201.4" y2="47.39"/><line class="cls-38" x1="37.23" y1="83.49" x2="203.66" y2="51.12"/><line class="cls-38" x1="39.29" y1="88.91" x2="205.93" y2="54.9"/><line class="cls-38" x1="41.39" y1="94.41" x2="208.22" y2="58.7"/><line class="cls-38" x1="43.51" y1="99.98" x2="210.54" y2="62.55"/><line class="cls-38" x1="45.66" y1="105.62" x2="212.87" y2="66.43"/><line class="cls-38" x1="47.83" y1="111.33" x2="215.23" y2="70.34"/><line class="cls-38" x1="49.89" y1="117.16" x2="217.62" y2="74.3"/><line class="cls-38" x1="52.13" y1="123.03" x2="220.02" y2="78.29"/><line class="cls-38" x1="54.39" y1="128.98" x2="222.45" y2="82.32"/><line class="cls-38" x1="54.39" y1="128.98" y2="-13.85"/><line class="cls-38" x1="56.92" y1="128.28" x2="2.32" y2="-13.92"/><line class="cls-38" x1="59.42" y1="127.58" x2="4.62" y2="-13.99"/><line class="cls-38" x1="61.96" y1="126.88" x2="6.95" y2="-14.07"/><line class="cls-38" x1="64.23" y1="126.25" x2="9.04" y2="-14.13"/><line class="cls-38" x1="66.65" y1="125.58" x2="11.27" y2="-14.2"/><line class="cls-38" x1="68.88" y1="124.96" x2="13.33" y2="-14.27"/><line class="cls-38" x1="71.2" y1="124.31" x2="15.48" y2="-14.34"/><line class="cls-38" x1="73.28" y1="123.73" x2="17.4" y2="-14.4"/><line class="cls-38" x1="75.46" y1="123.13" x2="19.42" y2="-14.46"/><line class="cls-38" x1="77.8" y1="122.48" x2="21.59" y2="-14.53"/><line class="cls-38" x1="80.19" y1="121.82" x2="23.81" y2="-14.6"/><line class="cls-38" x1="82.31" y1="121.23" x2="25.78" y2="-14.66"/><line class="cls-38" x1="84.59" y1="120.6" x2="27.9" y2="-14.73"/><line class="cls-38" x1="86.68" y1="120.02" x2="29.85" y2="-14.79"/><line class="cls-38" x1="88.86" y1="119.41" x2="31.89" y2="-14.85"/><line class="cls-38" x1="90.81" y1="118.87" x2="33.71" y2="-14.91"/><line class="cls-38" x1="93.14" y1="118.22" x2="35.89" y2="-14.98"/><line class="cls-38" x1="95.35" y1="117.61" x2="37.96" y2="-15.04"/><line class="cls-38" x1="97.58" y1="116.99" x2="40.06" y2="-15.11"/><line class="cls-38" x1="99.58" y1="116.43" x2="41.93" y2="-15.17"/><line class="cls-38" x1="101.71" y1="115.84" x2="43.94" y2="-15.23"/><line class="cls-38" x1="103.68" y1="115.3" x2="45.79" y2="-15.29"/><line class="cls-38" x1="105.73" y1="114.73" x2="47.72" y2="-15.35"/><line class="cls-38" x1="107.56" y1="114.22" x2="49.45" y2="-15.41"/><line class="cls-38" x1="109.49" y1="113.68" x2="51.26" y2="-15.46"/><line class="cls-38" x1="111.56" y1="113.11" x2="53.23" y2="-15.53"/><line class="cls-38" x1="113.67" y1="112.52" x2="55.22" y2="-15.59"/><line class="cls-38" x1="115.55" y1="112" x2="57" y2="-15.64"/><line class="cls-38" x1="117.56" y1="111.44" x2="58.91" y2="-15.7"/><line class="cls-38" x1="119.41" y1="110.93" x2="60.67" y2="-15.76"/><line class="cls-38" x1="121.35" y1="110.39" x2="62.5" y2="-15.82"/><line class="cls-38" x1="123.07" y1="109.91" x2="64.15" y2="-15.87"/><line class="cls-38" x1="124.82" y1="109.43" x2="65.81" y2="-15.92"/><line class="cls-38" x1="126.78" y1="108.88" x2="67.68" y2="-15.98"/><line class="cls-38" x1="128.77" y1="108.33" x2="69.58" y2="-16.04"/><line class="cls-38" x1="130.54" y1="107.84" x2="71.27" y2="-16.09"/><line class="cls-38" x1="132.44" y1="107.31" x2="73.09" y2="-16.15"/><line class="cls-38" x1="134.19" y1="106.82" x2="74.76" y2="-16.2"/><line class="cls-38" x1="136.02" y1="106.32" x2="76.51" y2="-16.26"/><line class="cls-38" x1="137.65" y1="105.86" x2="78.08" y2="-16.31"/><line class="cls-38" x1="139.36" y1="105.39" x2="79.72" y2="-16.36"/><line class="cls-38" x1="141.21" y1="104.88" x2="81.5" y2="-16.42"/><line class="cls-38" x1="143.09" y1="104.35" x2="83.31" y2="-16.47"/><line class="cls-38" x1="144.76" y1="103.89" x2="84.92" y2="-16.52"/><line class="cls-38" x1="146.56" y1="103.39" x2="86.65" y2="-16.58"/><line class="cls-38" x1="148.21" y1="102.93" x2="88.25" y2="-16.63"/><line class="cls-38" x1="149.94" y1="102.45" x2="89.92" y2="-16.68"/><line class="cls-38" x1="151.48" y1="102.02" x2="91.41" y2="-16.73"/><line class="cls-38" x1="153.33" y1="101.51" x2="93.2" y2="-16.78"/><line class="cls-38" x1="155.08" y1="101.03" x2="94.89" y2="-16.84"/><line class="cls-38" x1="156.85" y1="100.53" x2="96.61" y2="-16.89"/><line class="cls-38" x1="158.44" y1="100.09" x2="98.15" y2="-16.94"/><line class="cls-38" x1="160.13" y1="99.62" x2="99.8" y2="-16.99"/><line class="cls-38" x1="161.7" y1="99.19" x2="101.32" y2="-17.04"/><line class="cls-38" x1="163.33" y1="98.73" x2="102.91" y2="-17.09"/><line class="cls-38" x1="164.79" y1="98.33" x2="104.33" y2="-17.14"/><line class="cls-38" x1="166.33" y1="97.9" x2="105.83" y2="-17.18"/><line class="cls-38" x1="167.98" y1="97.44" x2="107.44" y2="-17.23"/><line class="cls-38" x1="169.67" y1="96.98" x2="109.09" y2="-17.29"/><line class="cls-38" x1="171.17" y1="96.56" x2="110.56" y2="-17.33"/><line class="cls-38" x1="172.78" y1="96.11" x2="112.13" y2="-17.38"/><line class="cls-38" x1="174.26" y1="95.7" x2="113.58" y2="-17.43"/><line class="cls-38" x1="175.81" y1="95.27" x2="115.1" y2="-17.48"/><line class="cls-38" x1="177.2" y1="94.89" x2="116.46" y2="-17.52"/><line class="cls-38" x1="178.84" y1="94.43" x2="118.08" y2="-17.57"/><line class="cls-38" x1="180.41" y1="93.99" x2="119.62" y2="-17.62"/><line class="cls-38" x1="182.01" y1="93.55" x2="121.19" y2="-17.67"/><line class="cls-38" x1="183.43" y1="93.15" x2="122.6" y2="-17.71"/><line class="cls-38" x1="184.96" y1="92.73" x2="124.1" y2="-17.76"/><line class="cls-38" x1="186.37" y1="92.34" x2="125.49" y2="-17.8"/><line class="cls-38" x1="187.84" y1="91.93" x2="126.94" y2="-17.85"/><line class="cls-38" x1="189.15" y1="91.57" x2="128.24" y2="-17.89"/><line class="cls-38" x1="190.53" y1="91.18" x2="129.6" y2="-17.93"/><line class="cls-38" x1="192.02" y1="90.77" x2="131.08" y2="-17.98"/><line class="cls-38" x1="193.54" y1="90.35" x2="132.58" y2="-18.03"/><line class="cls-38" x1="194.9" y1="89.97" x2="133.92" y2="-18.07"/><line class="cls-38" x1="196.35" y1="89.57" x2="135.36" y2="-18.11"/><line class="cls-38" x1="197.68" y1="89.2" x2="136.69" y2="-18.16"/><line class="cls-38" x1="199.08" y1="88.81" x2="138.08" y2="-18.2"/><line class="cls-38" x1="200.33" y1="88.46" x2="139.32" y2="-18.24"/><line class="cls-38" x1="201.83" y1="88.05" x2="140.81" y2="-18.29"/><line class="cls-38" x1="203.25" y1="87.65" x2="142.23" y2="-18.33"/><line class="cls-38" x1="204.69" y1="87.25" x2="143.66" y2="-18.38"/><line class="cls-38" x1="205.98" y1="86.89" x2="144.95" y2="-18.42"/><line class="cls-38" x1="207.36" y1="86.51" x2="146.33" y2="-18.46"/><line class="cls-38" x1="208.63" y1="86.16" x2="147.6" y2="-18.5"/><line class="cls-38" x1="209.96" y1="85.79" x2="148.93" y2="-18.54"/><line class="cls-38" x1="211.15" y1="85.46" x2="150.12" y2="-18.58"/><line class="cls-38" x1="212.4" y1="85.11" x2="151.37" y2="-18.62"/><line class="cls-38" x1="213.76" y1="84.74" x2="152.72" y2="-18.66"/><line class="cls-38" x1="215.13" y1="84.35" x2="154.1" y2="-18.7"/><line class="cls-38" x1="216.36" y1="84.01" x2="155.33" y2="-18.74"/><line class="cls-38" x1="217.67" y1="83.65" x2="156.65" y2="-18.78"/><line class="cls-38" x1="218.88" y1="83.31" x2="157.87" y2="-18.82"/><line class="cls-38" x1="220.15" y1="82.96" x2="159.15" y2="-18.86"/><line class="cls-38" x1="221.29" y1="82.64" x2="160.29" y2="-18.9"/><line class="cls-38" x1="222.45" y1="82.32" x2="161.46" y2="-18.94"/></g><path class="cls-39" d="M197.22,75.26,66.35,107.08q7.49-41.32,15-82.67L123.73,21Z"/><g class="cls-40"><line class="cls-38" x1="75.37" y1="-29.4" x2="209.9" y2="16.44"/><line class="cls-38" x1="71.68" y1="-25.8" x2="207.16" y2="20.96"/><line class="cls-38" x1="67.92" y1="-22.13" x2="204.36" y2="25.58"/><line class="cls-38" x1="64.09" y1="-18.39" x2="201.51" y2="30.29"/><line class="cls-38" x1="60.18" y1="-14.58" x2="198.59" y2="35.11"/><line class="cls-38" x1="56.2" y1="-10.7" x2="195.6" y2="40.04"/><line class="cls-38" x1="52.14" y1="-6.74" x2="192.56" y2="45.07"/><line class="cls-38" x1="48" y1="-2.7" x2="189.44" y2="50.21"/><line class="cls-38" x1="43.78" y1="1.41" x2="186.25" y2="55.47"/><line class="cls-38" x1="39.47" y1="5.62" x2="182.99" y2="60.86"/><line class="cls-38" x1="35.08" y1="9.9" x2="179.66" y2="66.36"/><line class="cls-38" x1="30.59" y1="14.27" x2="176.25" y2="71.99"/><line class="cls-38" x1="26.01" y1="18.74" x2="172.75" y2="77.76"/><line class="cls-38" x1="21.34" y1="23.3" x2="169.18" y2="83.66"/><line class="cls-38" x1="16.57" y1="27.95" x2="165.51" y2="89.71"/><line class="cls-38" x1="11.78" y1="32.74" x2="161.74" y2="95.9"/><line class="cls-38" x1="6.8" y1="37.6" x2="157.89" y2="102.25"/><line class="cls-38" x1="1.71" y1="42.56" x2="153.95" y2="108.76"/><line class="cls-38" x1="-2.83" y1="47" x2="150.42" y2="114.59"/><line class="cls-38" x1="-7.47" y1="51.51" x2="146.81" y2="120.55"/><line class="cls-38" x1="-12.19" y1="56.12" x2="143.11" y2="126.64"/><line class="cls-38" x1="-17.01" y1="60.82" x2="139.34" y2="132.88"/><line class="cls-38" x1="-21.92" y1="65.62" x2="135.47" y2="139.26"/><line class="cls-38" x1="-26.94" y1="70.51" x2="131.51" y2="145.79"/><line class="cls-38" x1="-32.14" y1="75.46" x2="127.46" y2="152.48"/><line class="cls-38" x1="-37.37" y1="80.55" x2="123.31" y2="159.32"/><line class="cls-38" x1="-42.7" y1="85.76" x2="119.06" y2="166.34"/><line class="cls-38" x1="-42.7" y1="85.76" x2="75.37" y2="-29.4"/><line class="cls-38" x1="-41.2" y1="86.5" x2="76.67" y2="-28.96"/><line class="cls-38" x1="-39.7" y1="87.25" x2="77.96" y2="-28.52"/><line class="cls-38" x1="-38.15" y1="88.02" x2="79.29" y2="-28.06"/><line class="cls-38" x1="-36.76" y1="88.72" x2="80.49" y2="-27.65"/><line class="cls-38" x1="-35.25" y1="89.47" x2="81.79" y2="-27.21"/><line class="cls-38" x1="-33.86" y1="90.16" x2="82.99" y2="-26.8"/><line class="cls-38" x1="-32.38" y1="90.9" x2="84.26" y2="-26.37"/><line class="cls-38" x1="-31.04" y1="91.56" x2="85.4" y2="-25.98"/><line class="cls-38" x1="-29.63" y1="92.27" x2="86.61" y2="-25.57"/><line class="cls-38" x1="-28.09" y1="93.03" x2="87.93" y2="-25.12"/><line class="cls-38" x1="-26.51" y1="93.82" x2="89.29" y2="-24.66"/><line class="cls-38" x1="-25.09" y1="94.53" x2="90.51" y2="-24.24"/><line class="cls-38" x1="-23.54" y1="95.3" x2="91.83" y2="-23.79"/><line class="cls-38" x1="-22.11" y1="96.01" x2="93.05" y2="-23.37"/><line class="cls-38" x1="-20.6" y1="96.77" x2="94.34" y2="-22.93"/><line class="cls-38" x1="-19.23" y1="97.45" x2="95.51" y2="-22.54"/><line class="cls-38" x1="-17.59" y1="98.27" x2="96.92" y2="-22.06"/><line class="cls-38" x1="-16.01" y1="99.05" x2="98.26" y2="-21.6"/><line class="cls-38" x1="-14.39" y1="99.86" x2="99.64" y2="-21.13"/><line class="cls-38" x1="-12.93" y1="100.59" x2="100.88" y2="-20.71"/><line class="cls-38" x1="-11.35" y1="101.37" x2="102.23" y2="-20.25"/><line class="cls-38" x1="-9.88" y1="102.1" x2="103.47" y2="-19.82"/><line class="cls-38" x1="-8.33" y1="102.88" x2="104.79" y2="-19.38"/><line class="cls-38" x1="-6.93" y1="103.57" x2="105.98" y2="-18.97"/><line class="cls-38" x1="-5.45" y1="104.31" x2="107.23" y2="-18.54"/><line class="cls-38" x1="-3.84" y1="105.12" x2="108.6" y2="-18.08"/><line class="cls-38" x1="-2.18" y1="105.94" x2="110.01" y2="-17.6"/><line class="cls-38" x1="-0.68" y1="106.69" x2="111.27" y2="-17.17"/><line class="cls-38" x1="0.93" y1="107.49" x2="112.64" y2="-16.7"/><line class="cls-38" x1="2.44" y1="108.24" x2="113.91" y2="-16.27"/><line class="cls-38" x1="4.02" y1="109.03" x2="115.25" y2="-15.81"/><line class="cls-38" x1="5.46" y1="109.75" x2="116.46" y2="-15.4"/><line class="cls-38" x1="6.92" y1="110.47" x2="117.7" y2="-14.98"/><line class="cls-38" x1="8.57" y1="111.3" x2="119.09" y2="-14.5"/><line class="cls-38" x1="10.27" y1="112.15" x2="120.52" y2="-14.02"/><line class="cls-38" x1="11.81" y1="112.91" x2="121.81" y2="-13.58"/><line class="cls-38" x1="13.46" y1="113.73" x2="123.21" y2="-13.1"/><line class="cls-38" x1="15" y1="114.5" x2="124.5" y2="-12.66"/><line class="cls-38" x1="16.63" y1="115.31" x2="125.87" y2="-12.2"/><line class="cls-38" x1="18.1" y1="116.04" x2="127.1" y2="-11.78"/><line class="cls-38" x1="19.65" y1="116.82" x2="128.4" y2="-11.33"/><line class="cls-38" x1="21.35" y1="117.66" x2="129.82" y2="-10.85"/><line class="cls-38" x1="23.09" y1="118.53" x2="131.28" y2="-10.35"/><line class="cls-38" x1="24.66" y1="119.31" x2="132.59" y2="-9.9"/><line class="cls-38" x1="26.36" y1="120.16" x2="134.01" y2="-9.42"/><line class="cls-38" x1="27.93" y1="120.94" x2="135.33" y2="-8.97"/><line class="cls-38" x1="29.6" y1="121.77" x2="136.72" y2="-8.5"/><line class="cls-38" x1="31.11" y1="122.52" x2="137.98" y2="-8.07"/><line class="cls-38" x1="32.92" y1="123.43" x2="139.49" y2="-7.55"/><line class="cls-38" x1="34.66" y1="124.29" x2="140.94" y2="-7.06"/><line class="cls-38" x1="36.45" y1="125.18" x2="142.43" y2="-6.55"/><line class="cls-38" x1="38.06" y1="125.98" x2="143.77" y2="-6.1"/><line class="cls-38" x1="39.8" y1="126.85" x2="145.21" y2="-5.6"/><line class="cls-38" x1="41.42" y1="127.66" x2="146.56" y2="-5.15"/><line class="cls-38" x1="43.13" y1="128.51" x2="147.97" y2="-4.66"/><line class="cls-38" x1="44.67" y1="129.28" x2="149.25" y2="-4.23"/><line class="cls-38" x1="46.3" y1="130.09" x2="150.61" y2="-3.77"/><line class="cls-38" x1="48.09" y1="130.98" x2="152.08" y2="-3.26"/><line class="cls-38" x1="49.92" y1="131.89" x2="153.6" y2="-2.75"/><line class="cls-38" x1="51.57" y1="132.71" x2="154.96" y2="-2.28"/><line class="cls-38" x1="53.35" y1="133.6" x2="156.44" y2="-1.78"/><line class="cls-38" x1="55.01" y1="134.43" x2="157.81" y2="-1.31"/><line class="cls-38" x1="56.77" y1="135.3" x2="159.25" y2="-0.82"/><line class="cls-38" x1="58.35" y1="136.09" x2="160.56" y2="-0.38"/><line class="cls-38" x1="60.25" y1="137.04" x2="162.12" y2="0.16"/><line class="cls-38" x1="62.08" y1="137.95" x2="163.62" y2="0.67"/><line class="cls-38" x1="63.96" y1="138.89" x2="165.17" y2="1.2"/><line class="cls-38" x1="65.65" y1="139.73" x2="166.56" y2="1.67"/><line class="cls-38" x1="67.48" y1="140.64" x2="168.06" y2="2.18"/><line class="cls-38" x1="69.19" y1="141.49" x2="169.46" y2="2.66"/><line class="cls-38" x1="70.99" y1="142.39" x2="170.94" y2="3.16"/><line class="cls-38" x1="72.61" y1="143.2" x2="172.27" y2="3.61"/><line class="cls-38" x1="74.33" y1="144.05" x2="173.67" y2="4.09"/><line class="cls-38" x1="76.21" y1="144.99" x2="175.21" y2="4.62"/><line class="cls-38" x1="78.14" y1="145.95" x2="176.78" y2="5.15"/><line class="cls-38" x1="79.87" y1="146.81" x2="178.2" y2="5.63"/><line class="cls-38" x1="81.75" y1="147.75" x2="179.73" y2="6.16"/><line class="cls-38" x1="83.5" y1="148.62" x2="181.16" y2="6.64"/><line class="cls-38" x1="85.35" y1="149.54" x2="182.66" y2="7.15"/><line class="cls-38" x1="87.02" y1="150.37" x2="184.02" y2="7.62"/><line class="cls-38" x1="89.03" y1="151.38" x2="185.65" y2="8.17"/><line class="cls-38" x1="90.96" y1="152.34" x2="187.22" y2="8.71"/><line class="cls-38" x1="92.94" y1="153.32" x2="188.82" y2="9.25"/><line class="cls-38" x1="94.72" y1="154.21" x2="190.27" y2="9.75"/><line class="cls-38" x1="96.65" y1="155.17" x2="191.83" y2="10.28"/><line class="cls-38" x1="98.45" y1="156.07" x2="193.29" y2="10.78"/><line class="cls-38" x1="100.35" y1="157.01" x2="194.82" y2="11.3"/><line class="cls-38" x1="102.06" y1="157.87" x2="196.2" y2="11.77"/><line class="cls-38" x1="103.87" y1="158.77" x2="197.67" y2="12.27"/><line class="cls-38" x1="105.85" y1="159.76" x2="199.26" y2="12.81"/><line class="cls-38" x1="107.89" y1="160.77" x2="200.9" y2="13.37"/><line class="cls-38" x1="109.72" y1="161.68" x2="202.38" y2="13.87"/><line class="cls-38" x1="111.7" y1="162.67" x2="203.97" y2="14.42"/><line class="cls-38" x1="113.55" y1="163.59" x2="205.46" y2="14.92"/><line class="cls-38" x1="115.49" y1="164.56" x2="207.02" y2="15.45"/><line class="cls-38" x1="117.25" y1="165.43" x2="208.43" y2="15.93"/><line class="cls-38" x1="119.06" y1="166.34" x2="209.88" y2="16.43"/></g><polygon class="cls-39" points="66.35 107.08 4.78 78.72 81.35 24.41 66.35 107.08"/></g></g><line class="cls-41" x1="4.78" y1="78.72" x2="66.35" y2="107.08"/><line class="cls-41" x1="197.22" y1="75.26" x2="66.35" y2="107.08"/><line class="cls-41" x1="81.35" y1="24.46" x2="4.78" y2="78.72"/><line class="cls-41" x1="123.72" y1="21.01" x2="81.35" y2="24.46"/><path class="cls-42" d="M113.45,72.7h4v9.71h6.22v3.17h-10.2Z"/><path class="cls-42" d="M133,72.48v13.1h-3.62V77a10.36,10.36,0,0,1-1.7,1.08,13.91,13.91,0,0,1-2.06.8V75.93a8.54,8.54,0,0,0,2.84-1.42,5.84,5.84,0,0,0,1.58-2Z"/><path class="cls-42" d="M36.83,72.7h4v9.71H47v3.17H36.83Z"/><path class="cls-42" d="M58.73,85.58H48a6.71,6.71,0,0,1,1.12-3,15,15,0,0,1,3.51-3.31,10.09,10.09,0,0,0,2-1.78,1.94,1.94,0,0,0,.44-1.15,1.32,1.32,0,0,0-.43-1,1.66,1.66,0,0,0-2.22,0,2.64,2.64,0,0,0-.58,1.52l-3.59-.29A5.59,5.59,0,0,1,49,74.23a3.52,3.52,0,0,1,1.58-1.3,7.26,7.26,0,0,1,2.84-.45,7.93,7.93,0,0,1,2.94.43,3.53,3.53,0,0,1,2.25,3.32A4.12,4.12,0,0,1,58,78.48a9.34,9.34,0,0,1-2.51,2.35q-1.08.75-1.44,1c-.25.2-.53.46-.86.78h5.59Z"/><path class="cls-42" d="M25.49,33.56h7.45a4,4,0,0,1,2.86.93,3,3,0,0,1,1,2.28,2.9,2.9,0,0,1-.71,2,3.12,3.12,0,0,1-1.39.86,3.61,3.61,0,0,1,2,1.15,3.12,3.12,0,0,1,.66,2,3.56,3.56,0,0,1-.47,1.81,3.41,3.41,0,0,1-1.27,1.26,4,4,0,0,1-1.51.42,17,17,0,0,1-1.79.18H25.49Zm4,5.06h1.73a2,2,0,0,0,1.29-.32,1.17,1.17,0,0,0,.37-.93,1.09,1.09,0,0,0-.37-.88,2,2,0,0,0-1.27-.31H29.51Zm0,5.06h2A2.26,2.26,0,0,0,33,43.32a1.24,1.24,0,0,0,.42-1,1.13,1.13,0,0,0-.42-.92,2.35,2.35,0,0,0-1.46-.35h-2Z"/><path class="cls-42" d="M90.5,6h4v9.71h6.21v3.17H90.5Z"/><path class="cls-42" d="M105.39,9.75,102,9.15a4.22,4.22,0,0,1,1.62-2.48,5.79,5.79,0,0,1,3.4-.86,5.67,5.67,0,0,1,3.65.94,2.94,2.94,0,0,1,1.12,2.36,2.59,2.59,0,0,1-.46,1.51A3.73,3.73,0,0,1,110,11.81a4.22,4.22,0,0,1,1.15.43,2.74,2.74,0,0,1,1,1,3.14,3.14,0,0,1,.36,1.55,4.27,4.27,0,0,1-.59,2.15,3.94,3.94,0,0,1-1.69,1.59,6.39,6.39,0,0,1-2.91.56,7.69,7.69,0,0,1-2.78-.41,4.26,4.26,0,0,1-1.67-1.21,5.6,5.6,0,0,1-1-2l3.57-.47a2.84,2.84,0,0,0,.66,1.5,1.6,1.6,0,0,0,1.13.41,1.55,1.55,0,0,0,1.2-.52,2,2,0,0,0,.48-1.41,2,2,0,0,0-.46-1.39,1.64,1.64,0,0,0-1.26-.49,4.61,4.61,0,0,0-1.16.21l.19-2.56a3.47,3.47,0,0,0,.46.05,1.65,1.65,0,0,0,1.18-.45,1.45,1.45,0,0,0,.47-1.07,1.3,1.3,0,0,0-.35-.94A1.34,1.34,0,0,0,107,8a1.44,1.44,0,0,0-1,.38A2.43,2.43,0,0,0,105.39,9.75Z"/></svg>