<svg id="Слой_1" data-name="Слой 1" xmlns="http://www.w3.org/2000/svg" xmlns:xlink="http://www.w3.org/1999/xlink" viewBox="0 0 605.05 395.04"><defs><style>.cls-1,.cls-7,.cls-8,.cls-9{fill:none;}.cls-2{clip-path:url(#clip-path);}.cls-3{clip-path:url(#clip-path-2);}.cls-4{fill:#fff;}.cls-11,.cls-5{fill:#f7f7f7;}.cls-11,.cls-5,.cls-9{stroke:#afafaf;}.cls-11,.cls-5,.cls-7,.cls-8,.cls-9{stroke-linecap:round;stroke-linejoin:round;}.cls-5,.cls-7,.cls-8,.cls-9{stroke-width:1.73px;}.cls-6{opacity:0.64;}.cls-7{stroke:#fff;}.cls-8{stroke:#dddddb;}.cls-10{clip-path:url(#clip-path-3);}.cls-11{stroke-width:1.23px;}</style><clipPath id="clip-path"><rect class="cls-1" x="164.37" y="15.23" width="232.83" height="220.68"/></clipPath><clipPath id="clip-path-2"><rect class="cls-1" x="162.41" y="15.23" width="234.78" height="221.87"/></clipPath><clipPath id="clip-path-3"><rect class="cls-1" x="163.39" y="268.89" width="234.78" height="110.93"/></clipPath></defs><g class="cls-2"><g class="cls-3"><path class="cls-4" d="M397.2,235.9H164.37V15.22H397.19Q397.19,125.57,397.2,235.9Z"/><rect class="cls-5" x="164.37" y="15.23" width="232.83" height="220.68"/><g class="cls-6"><line class="cls-7" x1="169.1" y1="21.07" x2="393.81" y2="21.07"/><line class="cls-8" x1="169.1" y1="22.01" x2="393.81" y2="22.01"/><line class="cls-9" x1="169.1" y1="23.14" x2="393.81" y2="23.14"/><line class="cls-7" x1="169.1" y1="27.78" x2="393.81" y2="27.78"/><line class="cls-8" x1="169.1" y1="28.72" x2="393.81" y2="28.72"/><line class="cls-9" x1="169.1" y1="29.85" x2="393.81" y2="29.85"/><line class="cls-7" x1="169.1" y1="34.49" x2="393.81" y2="34.49"/><line class="cls-8" x1="169.1" y1="35.43" x2="393.81" y2="35.43"/><line class="cls-9" x1="169.1" y1="36.56" x2="393.81" y2="36.56"/><line class="cls-7" x1="169.1" y1="41.2" x2="393.81" y2="41.2"/><line class="cls-8" x1="169.1" y1="42.14" x2="393.81" y2="42.14"/><line class="cls-9" x1="169.1" y1="43.27" x2="393.81" y2="43.27"/><line class="cls-7" x1="169.1" y1="47.91" x2="393.81" y2="47.91"/><line class="cls-8" x1="169.1" y1="48.85" x2="393.81" y2="48.85"/><line class="cls-9" x1="169.1" y1="49.98" x2="393.81" y2="49.98"/><line class="cls-7" x1="169.1" y1="54.63" x2="393.81" y2="54.63"/><line class="cls-8" x1="169.1" y1="55.56" x2="393.81" y2="55.56"/><line class="cls-9" x1="169.1" y1="56.69" x2="393.81" y2="56.69"/><line class="cls-7" x1="169.1" y1="61.34" x2="393.81" y2="61.34"/><line class="cls-8" x1="169.1" y1="62.27" x2="393.81" y2="62.27"/><line class="cls-9" x1="169.1" y1="63.4" x2="393.81" y2="63.4"/><line class="cls-7" x1="169.1" y1="68.05" x2="393.81" y2="68.05"/><line class="cls-8" x1="169.1" y1="68.98" x2="393.81" y2="68.98"/><line class="cls-9" x1="169.1" y1="70.11" x2="393.81" y2="70.11"/><line class="cls-7" x1="169.1" y1="74.76" x2="393.81" y2="74.76"/><line class="cls-8" x1="169.1" y1="75.7" x2="393.81" y2="75.7"/><line class="cls-9" x1="169.1" y1="76.83" x2="393.81" y2="76.83"/><line class="cls-7" x1="169.1" y1="81.47" x2="393.81" y2="81.47"/><line class="cls-8" x1="169.1" y1="82.41" x2="393.81" y2="82.41"/><line class="cls-9" x1="169.1" y1="83.54" x2="393.81" y2="83.54"/><line class="cls-7" x1="169.1" y1="88.17" x2="393.81" y2="88.17"/><line class="cls-8" x1="169.1" y1="89.12" x2="393.81" y2="89.12"/><line class="cls-9" x1="169.1" y1="90.24" x2="393.81" y2="90.24"/><line class="cls-7" x1="169.1" y1="94.88" x2="393.81" y2="94.88"/><line class="cls-8" x1="169.1" y1="95.83" x2="393.81" y2="95.83"/><line class="cls-9" x1="169.1" y1="96.95" x2="393.81" y2="96.95"/><line class="cls-7" x1="169.1" y1="101.6" x2="393.81" y2="101.6"/><line class="cls-8" x1="169.1" y1="102.54" x2="393.81" y2="102.54"/><line class="cls-9" x1="169.1" y1="103.67" x2="393.81" y2="103.67"/><line class="cls-7" x1="169.1" y1="108.31" x2="393.81" y2="108.31"/><line class="cls-8" x1="169.1" y1="109.24" x2="393.81" y2="109.24"/><line class="cls-9" x1="169.1" y1="110.38" x2="393.81" y2="110.38"/><line class="cls-7" x1="169.1" y1="115.02" x2="393.81" y2="115.02"/><line class="cls-8" x1="169.1" y1="115.95" x2="393.81" y2="115.95"/><line class="cls-9" x1="169.1" y1="117.09" x2="393.81" y2="117.09"/><line class="cls-7" x1="169.1" y1="121.74" x2="393.81" y2="121.74"/><line class="cls-8" x1="169.1" y1="122.67" x2="393.81" y2="122.67"/><line class="cls-9" x1="169.1" y1="123.8" x2="393.81" y2="123.8"/><line class="cls-7" x1="169.1" y1="128.45" x2="393.81" y2="128.45"/><line class="cls-8" x1="169.1" y1="129.38" x2="393.81" y2="129.38"/><line class="cls-9" x1="169.1" y1="130.51" x2="393.81" y2="130.51"/><line class="cls-7" x1="169.1" y1="135.16" x2="393.81" y2="135.16"/><line class="cls-8" x1="169.1" y1="136.09" x2="393.81" y2="136.09"/><line class="cls-9" x1="169.1" y1="137.22" x2="393.81" y2="137.22"/><line class="cls-7" x1="169.1" y1="141.87" x2="393.81" y2="141.87"/><line class="cls-8" x1="169.1" y1="142.81" x2="393.81" y2="142.81"/><line class="cls-9" x1="169.1" y1="143.94" x2="393.81" y2="143.94"/><line class="cls-7" x1="169.1" y1="148.58" x2="393.81" y2="148.58"/><line class="cls-8" x1="169.1" y1="149.51" x2="393.81" y2="149.51"/><line class="cls-9" x1="169.1" y1="150.65" x2="393.81" y2="150.65"/><line class="cls-7" x1="169.1" y1="155.29" x2="393.81" y2="155.29"/><line class="cls-8" x1="169.1" y1="156.23" x2="393.81" y2="156.23"/><line class="cls-9" x1="169.1" y1="157.36" x2="393.81" y2="157.36"/><line class="cls-7" x1="169.1" y1="162" x2="393.81" y2="162"/><line class="cls-8" x1="169.1" y1="162.94" x2="393.81" y2="162.94"/><line class="cls-9" x1="169.1" y1="164.06" x2="393.81" y2="164.06"/><line class="cls-7" x1="169.1" y1="168.7" x2="393.81" y2="168.7"/><line class="cls-8" x1="169.1" y1="169.65" x2="393.81" y2="169.65"/><line class="cls-9" x1="169.1" y1="170.78" x2="393.81" y2="170.78"/><line class="cls-7" x1="169.1" y1="175.42" x2="393.81" y2="175.42"/><line class="cls-8" x1="169.1" y1="176.36" x2="393.81" y2="176.36"/><line class="cls-9" x1="169.1" y1="177.48" x2="393.81" y2="177.48"/><line class="cls-7" x1="169.1" y1="182.14" x2="393.81" y2="182.14"/><line class="cls-8" x1="169.1" y1="183.06" x2="393.81" y2="183.06"/><line class="cls-9" x1="169.1" y1="184.2" x2="393.81" y2="184.2"/><line class="cls-7" x1="169.1" y1="188.84" x2="393.81" y2="188.84"/><line class="cls-8" x1="169.1" y1="189.78" x2="393.81" y2="189.78"/><line class="cls-9" x1="169.1" y1="190.9" x2="393.81" y2="190.9"/><line class="cls-7" x1="169.1" y1="195.56" x2="393.81" y2="195.56"/><line class="cls-8" x1="169.1" y1="196.48" x2="393.81" y2="196.48"/><line class="cls-9" x1="169.1" y1="197.62" x2="393.81" y2="197.62"/><line class="cls-7" x1="169.1" y1="202.26" x2="393.81" y2="202.26"/><line class="cls-8" x1="169.1" y1="203.2" x2="393.81" y2="203.2"/><line class="cls-9" x1="169.1" y1="204.34" x2="393.81" y2="204.34"/><line class="cls-7" x1="169.1" y1="208.98" x2="393.81" y2="208.98"/><line class="cls-8" x1="169.1" y1="209.92" x2="393.81" y2="209.92"/><line class="cls-9" x1="169.1" y1="211.04" x2="393.81" y2="211.04"/><line class="cls-7" x1="169.1" y1="215.69" x2="393.81" y2="215.69"/><line class="cls-8" x1="169.1" y1="216.62" x2="393.81" y2="216.62"/><line class="cls-9" x1="169.1" y1="217.76" x2="393.81" y2="217.76"/><line class="cls-7" x1="169.1" y1="222.4" x2="393.81" y2="222.4"/><line class="cls-8" x1="169.1" y1="223.34" x2="393.81" y2="223.34"/><line class="cls-9" x1="169.1" y1="224.47" x2="393.81" y2="224.47"/><line class="cls-7" x1="169.1" y1="229.11" x2="393.81" y2="229.11"/><line class="cls-8" x1="169.1" y1="230.04" x2="393.81" y2="230.04"/><line class="cls-9" x1="169.1" y1="231.17" x2="393.81" y2="231.17"/></g></g></g><g class="cls-10"><g id="стена_мал-2" data-name="стена мал-2"><g class="cls-10"><rect class="cls-4" x="163.39" y="268.89" width="234.78" height="110.93"/><rect class="cls-11" x="163.4" y="268.88" width="234.78" height="110.93"/><g class="cls-6"><line class="cls-7" x1="169.11" y1="272.46" x2="393.82" y2="272.46"/><line class="cls-8" x1="169.11" y1="273.4" x2="393.82" y2="273.4"/><line class="cls-9" x1="169.11" y1="274.53" x2="393.82" y2="274.53"/><line class="cls-7" x1="169.11" y1="279.16" x2="393.82" y2="279.16"/><line class="cls-8" x1="169.11" y1="280.1" x2="393.82" y2="280.1"/><line class="cls-9" x1="169.11" y1="281.24" x2="393.82" y2="281.24"/><line class="cls-7" x1="169.11" y1="285.88" x2="393.82" y2="285.88"/><line class="cls-8" x1="169.11" y1="286.82" x2="393.82" y2="286.82"/><line class="cls-9" x1="169.11" y1="287.94" x2="393.82" y2="287.94"/><line class="cls-7" x1="169.11" y1="292.6" x2="393.82" y2="292.6"/><line class="cls-8" x1="169.11" y1="293.53" x2="393.82" y2="293.53"/><line class="cls-9" x1="169.11" y1="294.66" x2="393.82" y2="294.66"/><line class="cls-7" x1="169.11" y1="299.31" x2="393.82" y2="299.31"/><line class="cls-8" x1="169.11" y1="300.24" x2="393.82" y2="300.24"/><line class="cls-9" x1="169.11" y1="301.37" x2="393.82" y2="301.37"/><line class="cls-7" x1="169.11" y1="306.02" x2="393.82" y2="306.02"/><line class="cls-8" x1="169.11" y1="306.94" x2="393.82" y2="306.94"/><line class="cls-9" x1="169.11" y1="308.08" x2="393.82" y2="308.08"/><line class="cls-7" x1="169.11" y1="312.72" x2="393.82" y2="312.72"/><line class="cls-8" x1="169.11" y1="313.66" x2="393.82" y2="313.66"/><line class="cls-9" x1="169.11" y1="314.8" x2="393.82" y2="314.8"/><line class="cls-7" x1="169.11" y1="319.44" x2="393.82" y2="319.44"/><line class="cls-8" x1="169.11" y1="320.38" x2="393.82" y2="320.38"/><line class="cls-9" x1="169.11" y1="321.5" x2="393.82" y2="321.5"/><line class="cls-7" x1="169.11" y1="326.15" x2="393.82" y2="326.15"/><line class="cls-8" x1="169.11" y1="327.09" x2="393.82" y2="327.09"/><line class="cls-9" x1="169.11" y1="328.22" x2="393.82" y2="328.22"/><line class="cls-7" x1="169.11" y1="332.85" x2="393.82" y2="332.85"/><line class="cls-8" x1="169.11" y1="333.8" x2="393.82" y2="333.8"/><line class="cls-9" x1="169.11" y1="334.93" x2="393.82" y2="334.93"/><line class="cls-7" x1="169.11" y1="339.57" x2="393.82" y2="339.57"/><line class="cls-8" x1="169.11" y1="340.5" x2="393.82" y2="340.5"/><line class="cls-9" x1="169.11" y1="341.63" x2="393.82" y2="341.63"/><line class="cls-7" x1="169.11" y1="346.28" x2="393.82" y2="346.28"/><line class="cls-8" x1="169.11" y1="347.22" x2="393.82" y2="347.22"/><line class="cls-9" x1="169.11" y1="348.35" x2="393.82" y2="348.35"/><line class="cls-7" x1="169.11" y1="352.99" x2="393.82" y2="352.99"/><line class="cls-8" x1="169.11" y1="353.93" x2="393.82" y2="353.93"/><line class="cls-9" x1="169.11" y1="355.06" x2="393.82" y2="355.06"/><line class="cls-7" x1="169.11" y1="359.71" x2="393.82" y2="359.71"/><line class="cls-8" x1="169.11" y1="360.63" x2="393.82" y2="360.63"/><line class="cls-9" x1="169.11" y1="361.77" x2="393.82" y2="361.77"/><line class="cls-7" x1="169.11" y1="366.41" x2="393.82" y2="366.41"/><line class="cls-8" x1="169.11" y1="367.35" x2="393.82" y2="367.35"/><line class="cls-9" x1="169.11" y1="368.47" x2="393.82" y2="368.47"/><line class="cls-7" x1="169.11" y1="373.13" x2="393.82" y2="373.13"/><line class="cls-8" x1="169.11" y1="374.06" x2="393.82" y2="374.06"/><line class="cls-9" x1="169.11" y1="375.19" x2="393.82" y2="375.19"/></g></g></g></g></svg>